<svg xmlns="http://www.w3.org/2000/svg" width="100%" height="100%" fill="currentColor" viewBox="0 0 115 115"><path d="M20.6,45.8c0-4.9,0-9.9,0-14.8c0-2.1,0.6-4,1.8-5.7c1.4-2,3.2-3.5,5.6-4.3c0.9-0.3,1.7-0.4,2.6-0.4c10,0,20.1,0,30.1,0 c2.2,0,4.2,0.7,5.9,2c1.9,1.4,3.3,3.2,4,5.5c0.3,1.1,0.5,2.1,0.4,3.3c-0.1,1.2,0.2,2.4-0.1,3.6c-0.3,1.3-1.5,2.4-2.6,2.5 c-2.2,0.2-3.1-0.4-3.9-2c-0.2-0.4-0.3-0.9-0.3-1.4c-0.1-1.5,0.2-3-0.1-4.4c-0.3-1.3-0.8-1.7-2.1-2c-0.7-0.2-1.4-0.2-2.2-0.2 c-9.4,0-18.8,0-28.2,0c-1.1,0-2.4-0.1-3.3,1c-0.3,0.4-0.6,0.8-0.6,1.3c0,0.8-0.2,1.5-0.2,2.3c0,9.4,0,18.8,0,28.2 c0,0.6,0.1,1.2,0.2,1.8c0.3,1.4,1.3,2.1,2.8,2.1c1.3,0,2.5,0,3.8,0c1.8,0,3,1.3,3.3,2.5c0.4,1.7-0.4,3.4-1.9,4.1 c-0.3,0.1-0.7,0.3-1,0.3c-2,0-4.1,0.3-6-0.3c-2.1-0.6-3.9-1.8-5.3-3.5c-1.2-1.5-2-3.1-2.4-4.9c0-0.3-0.1-0.5-0.1-0.8 C20.6,56.2,20.6,51,20.6,45.8z"/> <path d="M94.4,69.2c0-5.2,0-10.4,0-15.6c0-0.6-0.1-1.1-0.3-1.7c-0.6-2.3-1.9-4.2-3.8-5.7c-1.7-1.4-3.7-2.2-5.9-2.2 c-10.2,0-20.3,0-30.5,0c-0.6,0-1.2,0.1-1.8,0.3c-2,0.5-3.7,1.6-5.1,3.1c-1.9,2-3,4.4-3,7.2c0,9.9,0,19.8,0,29.7 c0,0.9,0.2,1.7,0.4,2.6c0.7,2.3,2.1,4.1,4,5.6c1.8,1.3,3.8,2,6.1,2c9.6,0,19.3-0.1,28.9,0c2.6,0,4.8-0.6,6.8-2.2 c2.5-2,4.1-4.5,4.1-7.9C94.4,79.3,94.4,74.2,94.4,69.2L94.4,69.2z M87.6,83.6c0,1.1,0.1,2.4-1,3.3c-0.4,0.3-0.8,0.6-1.3,0.6 c-0.8,0-1.6,0.2-2.5,0.2c-9.3,0-18.7,0-28,0c-0.6,0-1.2-0.1-1.8-0.2c-1.4-0.3-2.1-1.3-2.1-2.9c0-5.1,0-10.3,0-15.4 c0-5.1,0-10.2,0-15.3c0-1.9,1-3,3-3c10.2,0,20.4,0,30.5,0c2.1,0,2.9,0.9,3.1,2.8c0.1,1,0.1,2,0.1,3C87.6,65.7,87.7,74.6,87.6,83.6z" /> </svg>