<svg xmlns="http://www.w3.org/2000/svg" width="100%" height="100%" fill="currentColor" viewBox="0 0 36.787 36.726"><path d="M36.787 36.726c-.066-.15-.032-.308-.032-.461-.002-11.952-.004-23.903.005-35.855 0-.315-.061-.411-.396-.41-3.455.014-6.91.015-10.365 0-.359-.002-.438.094-.437.443.01 11.938.008 23.877.008 35.815 0 .156-.004.312-.006.467l11.223.001zM27.571 1.598c2.403.009 4.805.011 7.208-.002.304-.002.38.076.379.38-.01 5.468-.007 10.937-.007 16.405 0 5.429-.004 10.859.008 16.288.001.357-.056.474-.449.471a503.867 503.867 0 0 0-7.169-.004c-.283.001-.369-.058-.369-.359.009-10.937.009-21.874-.001-32.811 0-.332.12-.369.4-.368zM11.224 10.777c0-.321-.072-.405-.399-.404-3.454.013-6.908.015-10.362-.001-.369-.002-.436.109-.436.451.009 8.481.008 16.962.006 25.443 0 .154.034.312-.032.461h11.223c-.002-.156-.006-.312-.006-.467-.001-8.495-.003-16.989.006-25.483zM9.206 35.136a721.806 721.806 0 0 0-7.209-.002c-.272.001-.37-.039-.37-.35.011-7.483.01-14.965.001-22.448 0-.296.075-.359.362-.358 2.416.013 4.832.014 7.247-.001.318-.002.375.097.375.389-.01 3.741-.006 7.483-.006 11.224 0 3.715-.005 7.431.008 11.146.002.334-.09.402-.408.4z"/><path d="M24.005 36.726c-.006-.142-.016-.284-.017-.427-.001-5.57-.004-11.14.008-16.71.001-.34-.076-.428-.423-.427-3.453.015-6.906.015-10.359 0-.347-.001-.424.086-.423.427.012 5.57.008 11.14.008 16.71 0 .142-.011.284-.016.427h11.222zm-9.226-15.978c2.415.015 4.83.014 7.246.001.297-.002.36.078.359.366-.01 4.558-.009 9.117-.001 13.675 0 .264-.056.348-.336.346a812.741 812.741 0 0 0-7.324-.001c-.258.001-.32-.071-.319-.323.01-2.299.006-4.597.006-6.896 0-2.26.005-4.52-.006-6.779-.002-.294.057-.391.375-.389z"/></svg>