<svg xmlns="http://www.w3.org/2000/svg" width="100%" height="100%" fill="currentColor" viewBox="0 0 37.513 37.555"><path d="M37.403 9.881a16.482 16.482 0 0 0-1.06-2.118c-2.082-3.504-4.997-6.059-8.745-7.661-.541-.231-.929-.068-1.162.477-.203.476-.415.95-.581 1.44-.102.301-.22.31-.493.199C21.067.461 16.701.314 12.325 1.831 4.188 4.651-1.065 12.883.183 21.708c.579 4.098 2.35 7.609 5.282 10.51 5.394 5.339 13.449 6.871 20.327 3.691 7.081-3.273 10.56-9.026 10.922-15.567-.007-3.622-.47-5.973-1.427-8.222-.104-.244-.082-.352.185-.443.477-.163.94-.367 1.407-.557.603-.246.771-.64.524-1.239zM8.169 5.858c2.68-2.093 5.756-3.186 9.145-3.423.328-.023.248.173.248.336.002 2 .002 4 .002 6v1.636c0 2.493-.008 4.987.008 7.48.002.372-.058.498-.474.497-5.013-.018-10.026-.015-15.038-.005-.343.001-.448-.051-.415-.437.425-4.977 2.594-9.016 6.524-12.084zm21.168 25.941c-3.4 2.897-7.331 4.297-11.791 4.107-7.563-.323-13.993-5.805-15.568-13.219a14.995 14.995 0 0 1-.317-2.232c-.03-.5-.034-.5.482-.5h7.716c2.598 0 5.196.002 7.794-.004.234-.001.406.052.58.227 3.705 3.716 7.415 7.428 11.134 11.13.22.22.186.307-.03.491zm2.21-2.337c-.178.239-.4.447-.564.694-.182.274-.3.197-.492.004-2.427-2.439-4.862-4.87-7.295-7.303-1.267-1.267-2.53-2.538-3.806-3.796a.772.772 0 0 1-.246-.611c.008-2.597.005-5.194.005-7.791 0-2.623.005-5.246-.006-7.869-.001-.292.056-.36.364-.339 1.813.126 3.557.53 5.244 1.202.284.113.324.214.206.498a4545.23 4545.23 0 0 0-5.094 12.301c-.088.213-.202.423-.172.67.066.552.608.853 1.173.625 1.02-.412 2.033-.841 3.049-1.261 3.18-1.315 6.361-2.626 9.537-3.949.231-.096.306-.043.388.172 2.287 6.002 1.544 11.589-2.291 16.753zm3.77-19.428c-.502.157-.984.373-1.484.539-.456.151-.889.447-1.353.638-3.431 1.414-6.861 2.83-10.292 4.245-.044.018-.089.034-.207.079l4.348-10.508c.381-.92.774-1.835 1.137-2.762.103-.263.179-.327.455-.187 3.351 1.698 5.869 4.216 7.549 7.578.117.234.062.311-.153.378z"/></svg>