<svg xmlns="http://www.w3.org/2000/svg" width="100%" height="100%" fill="currentColor" viewBox="0 0 38.405 36.284"><path d="M38.377 8.913c-.192-1.516-.918-2.65-2.367-3.253-.586-.244-1.21-.29-1.83-.294-2.39-.015-4.78-.008-7.17-.009-.04.206-.053.412-.057.618 0-.211.002-.422-.012-.633-.004-.143-.012-.285-.012-.428-.001-1.338.003-2.676-.002-4.014-.002-.57-.283-.859-.85-.896-.104-.007-.208-.003-.312-.003H1.021C.917.001.813-.005.709.004a.75.75 0 0 0-.695.67C-.002.802 0 .933 0 1.063L.001 29.08c0 .312.001.624.027.935.174 2.072.99 3.806 2.74 5.006 1.278.877 2.731 1.251 4.265 1.253 8.014.011 16.028.004 24.043.01.26 0 .504-.075.768-.061 2.115.109 3.862-.649 5.167-2.322 1.078-1.383 1.385-3.023 1.388-4.726.01-6.546.004-13.093.003-19.639 0-.208.001-.418-.025-.623zM27.331 34.668c-6.768 0-13.536.002-20.304-.002-1.318-.001-2.542-.349-3.616-1.126-1.313-.95-1.73-2.339-1.814-3.874-.011-.207-.007-.416-.007-.623 0-9.002.002-18.004-.008-27.007 0-.35.08-.442.437-.441 7.625.011 15.25.012 22.876-.001.384-.001.457.101.457.468-.011 9.002-.005 18.004-.013 27.007-.001 1.458.256 2.836 1.046 4.083.348.55.773 1.035 1.366 1.516h-.42zm9.281-4.252c-.213 2.019-1.337 3.394-3.195 3.94-1.266.372-2.447.085-3.596-.419-1.169-.513-2.028-1.347-2.448-2.579-.246-.72-.332-1.468-.332-2.225-.001-7.145 0-14.289-.002-21.434 0-.245.035-.495-.078-.729-.006-.174-.003-.349-.002-.523.007.181.016.363.022.544.164.146.367.115.558.115 1.065.004 2.13-.001 3.196.004.374.002.392.035.244.376-.272.626-.442 1.274-.442 1.962l.001 18.745c0 .195-.004.39.04.582.106.455.481.769.91.765.428-.005.799-.327.895-.783.049-.231.035-.466.035-.699l.001-18.355c0-.208-.007-.416.014-.623.117-1.135.8-1.881 1.865-1.95 1.266-.082 1.908.404 2.257 1.523.114.365.142.736.142 1.115-.002 6.313-.003 12.627 0 18.94 0 .57-.025 1.138-.085 1.708z"/><path d="M12.813 8.159H4.981c-.512 0-.877-.318-.89-.774-.015-.476.344-.814.889-.814 5.222-.002 10.443-.002 15.665.001.502 0 .823.24.894.637a.797.797 0 0 1-.51.903c-.152.059-.307.043-.462.043l-7.755.001.001.003zM12.81 11.354H5.016c-.547 0-.913-.308-.926-.78-.013-.472.349-.808.894-.808 5.209-.002 10.418-.002 15.627 0 .607 0 .941.292.938.795-.002.502-.343.79-.945.79l-7.794.001v.002z"/><path d="M17.578 17.744h-2.999c-.542 0-.904-.318-.909-.795-.005-.473.354-.809.899-.81 2.012-.005 4.024-.005 6.036 0 .598.002.942.305.944.799.003.512-.347.803-.973.804h-2.999l.001.002zM17.574 20.937h-2.999c-.537-.001-.902-.325-.906-.8-.003-.475.353-.802.903-.803 1.999-.004 3.998-.004 5.997 0 .633.001.981.293.98.801-.001.509-.353.799-.977.799h-2.999l.001.003zM17.604 23.961h-2.999c-.562 0-.939-.327-.936-.815.003-.468.374-.799.911-.8 2.012-.003 4.025-.004 6.037.001.664.002 1.074.485.906 1.045-.106.352-.42.563-.881.565-1.013.005-2.025.002-3.038.002v.002zM17.598 25.541c.999 0 1.999-.002 2.998.001.591.002.947.302.953.791.006.512-.348.814-.966.815-1.999.003-3.998.003-5.997.004-.539 0-.91-.322-.917-.793-.008-.488.362-.815.93-.817 1-.003 2-.001 2.999-.001z"/><path d="M17.636 30.135H14.6c-.565 0-.938-.326-.93-.811.008-.476.359-.781.919-.782 1.998-.003 3.996-.004 5.994.001.654.001 1.016.344.961.888-.041.415-.368.698-.834.701-1.025.006-2.05.002-3.075.002l.001.001z"/><path d="M8.017 17.743H5.372c-.545 0-.9-.314-.903-.796-.003-.476.351-.807.897-.808 1.763-.005 3.527-.006 5.291 0 .588.002.946.317.947.801.002.496-.369.801-.98.801H8.018l-.001.002zM8.039 20.936H5.394c-.566 0-.932-.321-.926-.814.005-.475.358-.788.913-.789 1.75-.004 3.501-.002 5.251-.001.078 0 .156.003.233.013.449.058.746.383.737.804a.783.783 0 0 1-.802.781c-.92.011-1.841.003-2.762.003l.001.003zM8.007 24.13H5.362c-.515 0-.874-.308-.893-.769-.019-.48.332-.836.867-.838 1.789-.007 3.579-.008 5.368.001.553.003.903.337.9.81-.004.474-.363.79-.912.792-.895.003-1.789.001-2.684.001l-.001.003zM8.009 27.324H5.402c-.567 0-.936-.319-.934-.809.002-.472.364-.803.905-.804 1.751-.004 3.502-.005 5.253 0 .613.002.982.318.978.815-.004.465-.35.79-.871.795-.908.007-1.816.002-2.724.002v.001zM8.014 30.517H5.369c-.535-.001-.9-.329-.901-.804-.001-.474.358-.805.9-.806 1.764-.004 3.527-.005 5.291 0 .582.002.947.323.946.806-.001.487-.366.8-.945.801-.882.002-1.764.001-2.645.001l-.001.002z"/></svg>