<svg xmlns="http://www.w3.org/2000/svg" width="100%" height="100%" fill="currentColor" viewBox="0 0 365.82 364.9"><path d="M259 136.71a14.84 14.84 0 0 1-14.65-11.54 5.53 5.53 0 0 0-3.26-4.08q-23.62-11.59-47.17-23.37c-1.61-.81-2.94-1.32-4.82-.28a12.45 12.45 0 0 1-8.77 1 6.08 6.08 0 0 0-5.67 1.51q-25.28 20.22-50.7 40.26a4.48 4.48 0 0 0-2 4c-.14 11.93-12.07 19-22.52 13.29a4.61 4.61 0 0 0-4.46-.27q-23.37 9.4-46.82 18.63a5 5 0 0 0-3.24 3.61 15 15 0 0 1-20.2 9.38 15.34 15.34 0 0 1-7.89-20.62 14.93 14.93 0 0 1 20.94-6.61 4.8 4.8 0 0 0 4.78.25q23.17-9.42 46.4-18.71a5 5 0 0 0 3.43-3.44A14.8 14.8 0 0 1 110 129.53a4.63 4.63 0 0 0 4.36-1.11q25.46-20.28 51-40.46c1.49-1.18 2.51-2.22 2.47-4.52a14.76 14.76 0 0 1 12.95-14.92c8-.89 15.16 3.77 16.87 11.48a5.15 5.15 0 0 0 3.22 4q23.43 11.58 46.81 23.27c1.89.94 3.58 1.6 5.5.23a2.87 2.87 0 0 1 1.75-.61c5.29.58 7.49-3.17 10-6.76q27.12-38.05 54.41-76c1.12-1.55 1.93-2.85 1.32-5A14.77 14.77 0 0 1 332 .35c8.45-1.81 16.81 3.65 18.2 11.89 1.51 8.94-4.27 17.07-13.16 17.94a6.6 6.6 0 0 0-5.35 3.13Q303.32 73 274.83 112.62c-1.19 1.66-1.83 3-1.18 5.34 2.71 9.54-4.65 18.77-14.65 18.75ZM365.82 102.36c0-2.91-.68-3.76-3.69-3.73q-26.79.23-53.59 0c-3.21 0-3.84 1-3.83 4q.14 64.52.06 129 0 64.69-.07 129.41c0 3.14.79 3.88 3.89 3.85q26.79-.24 53.59 0c3 0 3.64-.85 3.64-3.72q-.12-129.39 0-258.81ZM350.43 232c0 37.9 0 75.79.07 113.69 0 3-.67 4.06-3.86 4q-11.61-.36-23.23 0c-3 .09-3.42-.88-3.41-3.55.09-33.4.05-66.81.05-100.22q0-64.14-.06-128.27c0-2.8.52-3.82 3.59-3.72 7.74.25 15.49.22 23.23 0 2.92-.08 3.69.71 3.69 3.66q-.16 57.22-.07 114.41ZM213.5 170.69c0-3.19-1.14-3.56-3.84-3.54-17.74.1-35.48.13-53.22 0-3.17 0-4.18.56-4.16 4 .16 31.67.09 63.34.09 95s0 63.59-.06 95.38c0 2.55.53 3.38 3.25 3.37q27.36-.19 54.72 0c2.81 0 3.19-1 3.18-3.43q-.09-95.39.04-190.78Zm-18.8 179c-7.87-.23-15.74-.17-23.61 0-2.49 0-3.42-.45-3.42-3.2q.14-80.61 0-161.22c0-2.69 1-3 3.25-2.94 8 .1 16 .17 24 0 2.75-.07 3.21.88 3.2 3.37-.09 26.68-.05 53.37-.05 80.05s0 53.61.05 80.42c0 2.6-.47 3.6-3.42 3.51Z"/><path d="M289.46 285.17c0-25.55 0-51.1.06-76.65 0-2.46-.37-3.4-3.16-3.38-18.24.15-36.47.12-54.7 0-2.43 0-3.09.6-3.08 3.06q.1 76.83 0 153.66c0 2.6.86 3 3.16 3 18.11-.09 36.22-.12 54.32 0 2.77 0 3.5-.61 3.49-3.44-.14-25.42-.09-50.83-.09-76.25Zm-18.09 64.5c-8.12-.1-16.25-.15-24.36 0-2.67.06-3.32-.75-3.31-3.34.1-20.45.06-40.9.06-61.35s.05-40.9-.06-61.35c0-2.58.57-3.38 3.25-3.32 8.25.19 16.5.14 24.74 0 2.12 0 2.7.57 2.7 2.69q-.09 61.91 0 123.82c.02 2.51-.87 2.88-3.02 2.85ZM137.19 296.37v-65.09c0-2.36-.21-3.44-3.1-3.42q-27.36.24-54.72 0c-2.85 0-3.12 1-3.12 3.42q.1 65.09 0 130.18c0 2.88.8 3.42 3.52 3.41q27-.19 54 0c2.74 0 3.52-.56 3.5-3.42-.15-21.68-.08-43.38-.08-65.08Zm-15.1 50.32c0 2.23-.53 3-2.9 3-8.24-.13-16.49-.16-24.74 0-2.59.06-3-.84-3-3.19.09-16.71 0-33.42 0-50.13s.06-33.17-.06-49.75c0-2.68.46-3.67 3.42-3.58 8 .23 16 .14 24 0 2.25 0 3.29.29 3.29 3q-.1 50.33-.01 100.65ZM61 311.34c0-16.46 0-32.92.06-49.37 0-2.57-.29-3.63-3.34-3.6-18.12.17-36.23.13-54.34 0-2.55 0-3.36.54-3.35 3.23q.15 49.92 0 99.86c0 2.46.39 3.41 3.18 3.39q27.35-.21 54.71 0c2.85 0 3.14-1 3.12-3.43-.11-16.67-.04-33.42-.04-50.08Zm-18.56 38.37c-8-.24-16-.16-24 0-2.35 0-3.25-.47-3.24-3.05q.15-35.11 0-70.23c0-2.29.58-2.95 2.9-2.91q12.54.22 25.08 0c2.25 0 2.6.78 2.59 2.77-.09 11.83 0 23.66 0 35.49 0 11.45-.08 22.91.06 34.37.04 2.6-.4 3.65-3.39 3.56Z"/></svg>