<svg xmlns="http://www.w3.org/2000/svg" width="100%" height="100%" fill="currentColor" viewBox="0 0 274.45 380.24"><path d="M185.36 215.84c-.17-3.48-.38-7-.51-10.45-.15-4.2 2.14-7.15 5.7-7.44 3.82-.31 6.83 2.22 7.14 6.52.5 6.83.85 13.69.95 20.54 0 2.74.9 3.25 3.48 3 5.71-.55 11.46-.78 17.19-1.07 4.9-.25 8 2.13 8.14 6.19s-2.55 6.68-7.5 7c-6 .37-12 .7-18 .88-2 0-2.54.67-2.37 2.62.48 5.84.78 11.69 1.15 17.54.31 4.89-2 8.05-5.94 8.32s-6.56-2.29-6.92-7.4c-.42-5.84-.85-11.69-1-17.54-.06-2.24-.58-3-2.95-2.8-6.1.5-12.22.7-18.33 1.05-4.67.27-7.72-1.91-8-5.81s2.59-6.78 7.4-7.05c6.11-.34 12.22-.7 18.33-.88 2 0 2.9-.54 2.67-2.75-.35-3.47-.44-7-.65-10.45ZM142.52 271.89c-3.16-15.35-7-30.54-11.34-45.59-7-24.14-15.07-47.89-25.41-70.83-1.25-2.77-2.78-5-6.13-5.25s-5.66 1.65-7.19 4.44a58.25 58.25 0 0 0-3.23 6.71c-11.14 28.51-19.36 57.93-27 87.53-2.48 9.64-4.55 19.37-6.14 28.87-.16 4.07 2.26 7 5.8 7.31a6.6 6.6 0 0 0 7-5.89c1.57-10.47 4.24-20.7 6.73-31 .46-1.91 1.14-2.64 3.16-2.75 13.47-.71 26.93-1.48 40.38-2.45 2.62-.18 3.35.72 4 3 2.45 9.38 4.87 18.77 6.78 28.29 1 5 3.76 7.22 7.87 6.49 3.92-.66 5.73-4.01 4.72-8.88Zm-27-41.39c-11 .6-21.93 1.3-32.9 2-1.49.09-2.86.36-2.2-2 5.38-18.75 10.74-37.51 17.68-55.76.08-.21.35-.35.62-.59 7.22 17.58 13.3 35.55 19 53.65.76 2.44-.27 2.6-2.23 2.7Z"/><path d="M274.41 114.37a7.62 7.62 0 0 0-2.38-5.9q-53.19-53-106.28-106.08A7.64 7.64 0 0 0 159.84 0Q82.07.12 4.29 0C1 0 0 .63 0 4.15q.18 93 .09 185.92T0 376c0 3.36.77 4.26 4.22 4.25q133.05-.15 266.12 0c3.21 0 4.1-.63 4.1-4q-.16-130.95-.03-261.88ZM167.74 28.2a1.3 1.3 0 0 1 .14-.59l78.91 78.81h-76.06c-1.62 0-3.08.36-3.07-2.3.11-25.3.07-50.61.08-75.92Zm91.44 332.52c0 3.36-.76 4.33-4.26 4.33q-117.69-.17-235.37 0c-3.4 0-4.34-.79-4.33-4.27q.18-85.29.08-170.57t-.08-170.59c0-3.61.86-4.49 4.49-4.48q64.28.21 128.55 0c3.58 0 4.21 1.07 4.2 4.34-.12 32.79 0 65.59-.14 98.38 0 3.07.73 3.94 3.88 3.93 32.85-.12 65.71 0 98.57-.17 3.74 0 4.42 1.07 4.42 4.56q-.19 117.27-.01 234.54Z"/></svg>