<svg xmlns="http://www.w3.org/2000/svg" width="100%" height="100%" fill="currentColor" viewBox="0 0 373.258 365.031"><path d="M0 95.109c1.567-2.489 1.257-5.406 1.8-8.12C5.232 69.842 12.371 54.41 23.089 40.605c.458-.59.915-1.183 1.352-1.789.041-.057-.071-.223-.231-.671-4.319 0-8.766.041-13.211-.01-5.358-.062-8.751-3.046-8.772-7.616-.021-4.607 3.261-7.623 8.7-7.654 13.242-.073 26.486.024 39.728-.073 2.197-.016 2.684.718 2.671 2.773-.083 13.343-.014 26.686-.06 40.029-.017 4.933-3.285 8.404-7.648 8.348-4.376-.055-7.434-3.463-7.485-8.507-.06-5.954-.014-11.91-.014-17.861-1.392-.354-1.624.754-2.096 1.328-43.608 53.015-15.058 133.304 52.275 147.053 51.267 10.468 100.489-23.743 108.721-75.565 8.315-52.348-30.113-100.715-83.18-104.763-14.548-1.11-28.611.736-42.173 6.216-5.307 2.145-9.447.654-11.179-3.848-1.625-4.223.434-8.183 5.509-10.206 60.694-24.193 129.841 9.932 144.588 75.353 13.201 58.563-24.039 115.584-82.821 127.736-58.905 12.176-117.174-28.147-126.417-87.415-.268-1.718.156-3.721-1.346-5.155V95.109z"/><path d="M98.989 76.26c0-10.098-.065-20.196.028-30.294.044-4.778 3.229-7.915 7.644-7.903 4.276.012 7.203 2.963 7.511 7.617.074 1.118.05 2.243.051 3.364.003 16.581.062 33.162-.058 49.741-.02 2.746.661 4.515 3.004 6.189 7.913 5.653 15.63 11.581 23.395 17.438 4.427 3.339 5.388 7.506 2.685 11.258-2.824 3.92-7.239 4.298-11.798.911-9.608-7.139-19.166-14.345-28.785-21.47-2.631-1.949-3.757-4.414-3.727-7.68.091-9.723.033-19.448.033-29.171h.017z"/><path d="M373.244 46.759c-.002-10.349-5.908-16.171-16.302-16.2-11.37-.031-22.74-.071-34.109.045-2.314.024-3.041-.622-2.943-2.933.174-4.108.166-8.234.016-12.344-.323-8.873-6.795-15.151-15.642-15.256-4.997-.059-9.997-.09-14.993.013-8.278.172-14.682 6.425-14.983 14.644-.146 3.986-.252 7.994.007 11.967.201 3.081-.734 3.951-3.875 3.93-21.364-.142-42.73-.074-64.096-.074h-4.332c2.994 4.439 5.789 8.223 8.167 12.253 1.307 2.216 2.744 2.973 5.305 2.957 18.491-.116 36.983-.014 55.474-.119 2.533-.014 3.533.507 3.352 3.231-.247 3.725-.101 7.479-.053 11.22.123 9.47 6.115 15.696 15.587 16.03 4.742.167 9.498.15 14.242.007 9.56-.288 15.744-6.668 15.863-16.232.047-3.741.178-7.493-.051-11.221-.155-2.526.732-3.061 3.112-3.033 10.619.125 21.241.119 31.859.004 2.334-.025 3.167.448 3.146 3.004-.129 15.713-.149 31.429.012 47.141.029 2.849-.999 3.146-3.413 3.125-12.868-.109-25.738-.052-38.607-.052-28.237 0-56.475.034-84.712-.056-2.65-.009-3.46.562-3.053 3.313.397 2.684.492 5.533.034 8.192-.578 3.36.614 3.838 3.656 3.831 40.607-.098 81.214-.019 121.82-.148 3.469-.011 4.278.922 4.273 4.309a81364.2 81364.2 0 0 0 .011 227.481c.005 3.373-.9 4.014-4.106 4.009-60.223-.102-120.446-.075-180.669-.075-43.855 0-87.711-.034-131.566.075-3.014.008-3.677-.844-3.616-3.697.187-8.726.068-17.459.068-26.189 0-36.542.007-73.083-.025-109.625-.001-1.391.522-2.884-1.049-4.072-4.648-3.512-9.179-7.178-13.742-10.774-.69.443-.499 1.113-.499 1.701-.007 50.634-.049 101.268.033 151.902.016 10.157 6.019 15.962 16.231 15.964 105.952.031 211.905.031 317.857.001 10.319-.003 16.306-6.039 16.308-16.314.022-100.645.022-201.29.003-301.935zm-68.631 11.923c.006 1.562-.374 2.225-2.069 2.165-4.227-.15-9.505 1.351-12.371-.65-2.48-1.731-.594-7.427-.728-11.367-.123-3.608-.026-7.224-.026-10.836 0-6.602.078-13.205-.044-19.805-.04-2.148.325-3.19 2.81-3.017 3.229.225 6.488.128 9.729.026 1.778-.056 2.727.226 2.714 2.377-.084 13.702-.064 27.405-.015 41.107z"/><path d="M312.307 214.382c0-22.198.002-44.397-.004-66.595 0-1.665.534-3.363-2.416-3.352-28.486.104-56.972.058-85.458.081-.905.001-1.987-.395-2.507.971-1.756 4.615-3.595 9.198-5.551 14.173 8.16 0 16.003.124 23.839-.067 2.74-.067 3.6.55 3.546 3.441-.195 10.472-.167 20.951-.013 31.425.038 2.569-.532 3.324-3.225 3.299-15.491-.144-30.985.001-46.476-.135-2.828-.025-3.756.553-3.721 3.594.176 15.337.017 30.678.14 46.017.022 2.753-.44 3.819-3.561 3.75a707.383 707.383 0 0 0-31.106 0c-3.139.069-3.624-1.019-3.577-3.779.158-9.202.06-18.408.06-27.76-4.418 1.393-8.523 2.823-12.709 3.947-1.907.512-2.512 1.304-2.475 3.281.132 7.106-.038 14.218.105 21.323.045 2.231-.437 2.992-2.841 2.962-10.868-.137-21.74-.145-32.607.005-2.451.034-2.867-.785-2.809-2.973.149-5.608-.079-11.227.107-16.833.085-2.578-.329-3.848-3.332-3.744-2.716.094-5.569-.154-8.16-.924-3.541-1.053-3.772.375-3.762 3.33.094 28.558.127 57.117-.036 85.675-.02 3.42.957 4.016 4.147 4.012 73.464-.094 146.928-.099 220.392.011 3.356.005 4.104-.845 4.092-4.118-.132-33.673-.082-67.345-.082-101.017zm-175.111 86.604c.026 2.34-.455 3.254-3.025 3.157-5.482-.207-10.978-.063-16.468-.063-5.365 0-10.734-.103-16.095.05-2.172.062-2.681-.658-2.663-2.725.096-10.835.131-21.672-.02-32.506-.035-2.48.873-2.801 3.007-2.782 10.73.095 21.462.126 32.191-.018 2.51-.034 3.105.719 3.077 3.128a1377.962 1377.962 0 0 0-.004 31.759zm53.206-15.757c0 5.351-.062 10.704.034 16.054.034 1.889-.177 2.88-2.525 2.853-11.095-.125-22.193-.085-33.289-.026-1.72.009-2.399-.399-2.385-2.275.082-11.076.089-22.153-.004-33.228-.017-2.038.715-2.491 2.591-2.479 10.971.068 21.944.089 32.915-.015 2.122-.02 2.768.552 2.711 2.69-.146 5.471-.048 10.95-.048 16.426zm15.138-69.739c-.013-1.908.508-2.617 2.505-2.603 11.097.075 22.196.098 33.292-.017 2.195-.023 2.404.899 2.377 2.667-.082 5.475-.03 10.952-.03 16.429 0 5.476-.066 10.954.037 16.429.035 1.846-.348 2.579-2.42 2.559a1914.298 1914.298 0 0 0-33.292-.009c-2.033.016-2.483-.709-2.47-2.596.077-10.953.077-21.906.001-32.859zm35.669 88.633c-10.992-.09-21.985-.099-32.977.004-2.189.02-2.707-.718-2.69-2.782.09-10.847.102-21.696-.007-32.543-.022-2.233.807-2.691 2.829-2.677 10.867.077 21.737.129 32.602-.033 2.529-.038 2.803.914 2.755 3.014-.126 5.483-.042 10.972-.042 16.458 0 5.362-.089 10.725.046 16.084.05 1.991-.572 2.491-2.516 2.475zm55.788-2.127c.009 1.62-.466 2.125-2.108 2.116-11.23-.063-22.461-.067-33.691 0-1.846.011-2.318-.659-2.308-2.401.062-10.96.085-21.922-.014-32.882-.02-2.189.75-2.75 2.811-2.708 5.613.113 11.23.039 16.845.039 5.366 0 10.732.059 16.096-.034 1.713-.03 2.397.33 2.381 2.24-.091 11.21-.073 22.421-.012 33.63zm-.026-69.564c0 5.235-.072 10.471.037 15.704.04 1.932-.234 2.851-2.553 2.824-10.987-.126-21.976-.091-32.964-.023-1.864.012-2.64-.401-2.623-2.464a1850.76 1850.76 0 0 0-.003-32.904c-.021-2.224.808-2.698 2.838-2.684 10.863.078 21.727.09 32.59-.009 2.134-.019 2.776.606 2.724 2.73-.136 5.606-.046 11.217-.046 16.826zm-2.5-34.703c-10.973-.075-21.947-.095-32.919.012-2.187.021-2.731-.698-2.682-2.762.127-5.349.043-10.703.043-16.055 0-5.477.11-10.956-.051-16.428-.07-2.365.774-2.911 3.004-2.891 10.848.102 21.697.086 32.545.009 1.882-.013 2.621.412 2.604 2.455a1887.84 1887.84 0 0 0 .007 33.232c.018 2.051-.687 2.441-2.551 2.428z"/></svg>