<svg xmlns="http://www.w3.org/2000/svg" width="100%" height="100%" fill="currentColor" viewBox="0 0 36.716 36.704"><path d="M18.383 0C8.259 0-.016 8.266 0 18.364.016 28.41 8.267 36.7 18.254 36.704c10.185.004 18.484-8.252 18.462-18.367C36.693 8.246 28.449 0 18.383 0zm-.052 35.11c-9.203-.013-16.74-7.564-16.732-16.766C1.607 9.11 9.15 1.582 18.383 1.594c9.212.012 16.737 7.55 16.734 16.763-.003 9.22-7.563 16.765-16.786 16.753z"/><path d="M7.26 12.734c-.651-.369-1.48-.663-2.05-1.337-.226-.268-.124-.629.115-.89.239-.262.559-.365.879-.191.577.314 1.143.652 1.693 1.012.311.204.336.538.224.87-.105.311-.435.537-.861.536zM11.988 8.069c-.289.014-.5-.126-.645-.358a40.392 40.392 0 0 1-.897-1.493.785.785 0 0 1 .276-1.081c.368-.225.835-.124 1.084.266.313.489.618.985.893 1.496.299.557-.082 1.162-.711 1.17zM24.709 8.068c-.59-.018-.985-.602-.717-1.117.285-.549.614-1.077.952-1.596.229-.351.683-.431 1.033-.23.363.208.525.664.319 1.039a30.216 30.216 0 0 1-.957 1.592.654.654 0 0 1-.63.312zM28.563 24.629c0-.586.586-.995 1.108-.728.562.288 1.1.627 1.626.976.357.237.41.668.184 1.031-.232.371-.623.51-1.003.302a29.582 29.582 0 0 1-1.595-.954.678.678 0 0 1-.32-.627zM8.153 24.623c.005.316-.149.541-.41.699-.464.281-.925.566-1.396.834-.461.262-.887.15-1.13-.275-.232-.406-.119-.815.322-1.091.47-.294.943-.588 1.429-.854a.783.783 0 0 1 1.185.687z"/><path d="M19.145 4.731c0 .298.014.597-.003.894-.025.448-.346.73-.797.724-.432-.006-.754-.283-.768-.711a30.455 30.455 0 0 1-.003-1.788.781.781 0 0 1 .778-.762.801.801 0 0 1 .794.75c.002.026.004.052.004.078v.817c-.002-.002-.004-.002-.005-.002zM4.826 19.058c-.298 0-.596.01-.893-.002-.443-.019-.746-.339-.755-.776-.008-.44.282-.777.729-.791.607-.019 1.216-.02 1.823.001.447.016.719.349.707.803-.011.431-.292.729-.719.764a1.015 1.015 0 0 1-.078.002h-.815l.001-.001zM31.917 19.058c-.298 0-.596.01-.893-.002-.452-.019-.739-.325-.746-.773-.007-.454.265-.778.717-.793.607-.02 1.216-.019 1.823.001.427.014.71.339.718.763a.772.772 0 0 1-.728.804 1.017 1.017 0 0 1-.078.003h-.815l.002-.003zM31.037 10.795c-.214-.414-.617-.518-1.185-.299-3.331 1.282-6.667 2.553-9.99 3.857-1.099.432-2.25.736-3.245 1.438-1.157.816-1.702 2.093-1.331 3.411.383 1.362 1.618 2.325 3.189 2.344.67-.153 1.509-.373 2.182-.949 2.119-1.814 4.221-3.649 6.329-5.476 1.255-1.088 2.511-2.174 3.764-3.264.39-.339.48-.688.287-1.062zm-7.491 5.196c-1.324 1.148-2.655 2.288-3.973 3.445-.51.447-1.076.618-1.728.441-.634-.172-1.021-.687-1.071-1.375-.053-.734.253-1.32.891-1.575 1.634-.653 3.278-1.284 4.918-1.92 1.062-.412 2.125-.82 3.19-1.224.114-.043.222-.145.394-.069-.881.765-1.75 1.522-2.621 2.277z"/></svg>