<svg xmlns="http://www.w3.org/2000/svg" width="100%" height="100%" fill="currentColor" viewBox="0 0 39.916 33.537"><path d="M.334 0C-.015 0 .006.152.006.388.009 11.282.011 22.177 0 33.072c0 .362.064.465.451.465 13.155-.012 26.31-.01 39.465-.01V.013C26.722.012 13.528.013.334 0zm37.995 31.492c0 .346-.073.453-.441.453-11.949-.011-23.898-.01-35.847-.001-.357 0-.447-.09-.446-.447.01-9.819.01-19.637.001-29.456 0-.346.072-.454.441-.453 5.973.012 11.948.009 17.923.009 5.975 0 11.949.003 17.924-.008.358-.001.447.091.446.447-.01 9.818-.01 19.637-.001 29.456z"/><path d="M35.939 4.389c0-.324-.08-.403-.403-.403-10.378.009-20.756.01-31.134-.002-.358 0-.416.102-.416.431.01 5.681.007 11.362.007 17.042 0 2.559.009 5.117-.01 7.676-.003.359.103.418.432.417 5.183-.011 10.365-.008 15.548-.008s10.365-.003 15.548.008c.333.001.43-.064.43-.419-.013-8.247-.012-16.494-.002-24.742zM5.937 5.594c9.351.008 18.702.007 28.053.002.229 0 .338.023.337.304-.01 4.623-.007 9.247-.008 13.87 0 .064-.008.128-.016.245-.704-.278-1.385-.545-2.065-.815-1.239-.492-2.481-.974-3.712-1.483-.43-.177-.802-.161-1.219.053-1.716.879-3.448 1.726-5.166 2.601-.254.13-.373.117-.546-.128-2.395-3.374-4.802-6.74-7.207-10.107-.531-.743-.995-.764-1.585-.074l-6.937 8.109c-.064.075-.13.148-.262.297v-7.702c0-1.61.007-3.221-.007-4.831-.003-.271.066-.342.34-.341zm27.999 22.345c-4.663-.008-9.326-.005-13.989-.005-4.65 0-9.3-.004-13.95.008-.322.001-.405-.073-.402-.4.017-2.104.012-4.208.003-6.312a.825.825 0 0 1 .224-.588c2.489-2.894 4.974-5.791 7.446-8.699.218-.256.29-.196.452.032 2.334 3.275 4.675 6.544 7.015 9.814.47.657.71.722 1.435.359 1.829-.915 3.658-1.831 5.482-2.757.214-.108.389-.135.618-.042a600.12 600.12 0 0 0 5.731 2.295c.241.095.329.204.327.472-.014 1.818-.017 3.637.002 5.455.003.329-.112.369-.394.368z"/><path d="M26.336 8.8a3.18 3.18 0 0 0-3.18 3.192 3.198 3.198 0 0 0 3.201 3.177c1.753-.008 3.19-1.45 3.186-3.198-.004-1.753-1.443-3.176-3.207-3.171zm.04 4.774a1.587 1.587 0 0 1-1.625-1.584 1.59 1.59 0 0 1 1.606-1.605 1.573 1.573 0 0 1 1.579 1.585 1.574 1.574 0 0 1-1.56 1.604z"/></svg>