<svg xmlns="http://www.w3.org/2000/svg" width="100%" height="100%" fill="currentColor" viewBox="0 0 33.519 33.519"><path d="M32.419 0H1.093C.239 0 0 .236 0 1.081v31.365c0 .825.246 1.073 1.061 1.073h31.326c.905 0 1.133-.225 1.133-1.119V1.113C33.519.235 33.288 0 32.419 0zM10.377 21.196c.002.253-.032.354-.327.353a875.237 875.237 0 0 0-8.102-.001c-.295.001-.364-.079-.363-.368.011-2.947.011-5.894.001-8.842-.001-.282.059-.375.36-.374 2.701.012 5.401.012 8.102 0 .288-.001.332.093.33.35-.012 1.48-.006 2.96-.006 4.44s-.006 2.962.005 4.442zm0 10.406c.001.245-.049.331-.316.33-2.715-.01-5.43-.009-8.145-.001-.253.001-.331-.063-.33-.324.009-2.715.009-5.43 0-8.145-.001-.259.072-.324.326-.321 1.364.013 2.728.006 4.092.006 1.351 0 2.702.007 4.053-.006.251-.002.322.059.321.317-.01 2.714-.009 5.429-.001 8.144zm-.345-21.224c-2.7-.01-5.399-.01-8.099 0-.266.001-.351-.059-.348-.338.015-1.363.007-2.725.007-4.088 0-1.324.007-2.648-.006-3.972-.002-.285.043-.402.375-.401 2.687.015 5.373.014 8.06.001.302-.001.359.085.358.369-.011 2.7-.012 5.399.001 8.099 0 .285-.088.331-.348.33zm1.935 1.996c-.001-.318.069-.409.4-.409 6.389.011 12.778.011 19.166 0 .331 0 .402.096.4.413-.012 2.922-.013 5.843.001 8.765.001.324-.08.407-.405.405-3.194-.013-6.389-.008-9.583-.008-3.181 0-6.363-.007-9.544.01-.37.002-.436-.11-.435-.45.014-2.909.013-5.817 0-8.726zm19.967 19.168c.001.302-.069.391-.384.391-6.4-.01-12.801-.01-19.201 0-.315 0-.383-.093-.382-.392a984.79 984.79 0 0 0 0-8.062c-.001-.274.07-.34.341-.339 3.22.01 6.439.006 9.659.006 3.194 0 6.387.004 9.581-.007.3-.001.388.068.387.38a894.012 894.012 0 0 0-.001 8.023zm.002-21.518c.002.307-.094.355-.372.354-3.22-.01-6.44-.006-9.661-.006-3.181 0-6.363-.006-9.544.009-.337.002-.393-.096-.392-.408.013-2.662.013-5.324 0-7.986-.002-.323.082-.408.407-.407 6.388.01 12.777.009 19.165.002.293 0 .398.055.396.379-.014 2.688-.013 5.376.001 8.063z"/></svg>