<svg xmlns="http://www.w3.org/2000/svg" width="24" height="24" viewBox="0 0 22 22"><path fill="#707070" d="M10.253 19.999H-.001l.053-.516c.211-2.818 2.728-3.7 4.751-4.413h.01c1.161-.4 2.259-.785 2.58-1.453v-1.69a4.393 4.393 0 0 1-1.056-2.16 2.04 2.04 0 0 1-.951-1.643 1.41 1.41 0 0 1 .37-1.174c-.633-2.392-.437-4.209.581-5.4A5.507 5.507 0 0 1 10.562 0a3.62 3.62 0 0 1 2.747.845 3.019 3.019 0 0 1 2.06 1.22c1.108 1.548.48 3.931.158 4.883a1.6 1.6 0 0 1 .317 1.174 2.707 2.707 0 0 1-.23.888 6.983 6.983 0 0 0-1.776.329l.053-.372.422-.048c.063 0 .319-.151.422-.892a.521.521 0 0 0-.157-.516l-.318-.188.105-.423c.168-.493.962-3.018.052-4.366a2.225 2.225 0 0 0-1.532-.8l-.264-.047-.106-.188c-.212-.376-.96-.61-1.954-.61A4.493 4.493 0 0 0 7.18 2.11c-.842.982-.951 2.671-.317 4.882l.106.329-.317.187a.522.522 0 0 0-.159.517c.1.678.359.892.423.892l.423.048.052.375a3.6 3.6 0 0 0 .846 1.925l.264.14v2.355l-.053.094c-.41 1.048-1.715 1.52-3.1 2.02l-.126.045c-1.705.58-3.638 1.236-4.067 3.146h8.54a7.014 7.014 0 0 0 .55.937Z"/><path fill="#707070" d="M15.903 9.903a6 6 0 1 1-6 6 6 6 0 0 1 6-6Z"/><path stroke="#fff" stroke-linecap="round" stroke-miterlimit="10" d="m12.999 15.54 2.548 2.019 3.452-4" fill="none"/></svg>
