<svg xmlns="http://www.w3.org/2000/svg" width="24" height="24" viewBox="0 0 24 24"><path d="M12 3.426c-1.191 0-4.815 0-6.819 1.738-1.193 1.129-1.755 2.762-1.755 5.121v1.286c0 2.36.562 3.992 1.769 5.134a6.358 6.358 0 0 0 2.423 1.221l.321.092v2.288c0 .268.082.268.109.268.056 0 .144-.017.313-.159.041-.038.338-.344 1.787-1.886l.146-.156.219.013c.485.029.986.044 1.487.044 1.191 0 4.815 0 6.819-1.738 1.193-1.129 1.755-2.761 1.755-5.121v-1.286c0-2.36-.562-3.992-1.769-5.134-1.99-1.725-5.614-1.725-6.805-1.725Z" fill="#fff"/><path d="M16.443 13.623a9.161 9.161 0 0 0-1.477-.911 2.611 2.611 0 0 0-.994-.3.814.814 0 0 0-.479.223c-.307.279-.407.629-.945.629a3.863 3.863 0 0 1-2.105-1.118 3.357 3.357 0 0 1-1.228-1.917c0-.49.377-.588.684-.868a.7.7 0 0 0 .252-.435 2.068 2.068 0 0 0-.334-.9 8.2 8.2 0 0 0-1-1.345.663.663 0 0 0-.494-.234 1.894 1.894 0 0 0-.957.315 2.088 2.088 0 0 0-.929 1.1 1 1 0 0 0-.028.191 2.759 2.759 0 0 0 .408 1.377 14.5 14.5 0 0 0 1.977 2.749 9.6 9.6 0 0 0 .778.759 9.94 9.94 0 0 0 .834.708 16.219 16.219 0 0 0 3.02 1.8 3.553 3.553 0 0 0 1.5.372 1.325 1.325 0 0 0 .223-.025 2.236 2.236 0 0 0 1.209-.846 1.532 1.532 0 0 0 .346-.871.568.568 0 0 0-.261-.453Zm.257-2.067a.448.448 0 0 1-.468-.426v-.426a4.04 4.04 0 0 0-4.21-3.833.428.428 0 1 1 0-.852 4.938 4.938 0 0 1 5.146 4.685v.426a.448.448 0 0 1-.468.43Zm-2.873-.852a.463.463 0 0 1-.452-.319 1.341 1.341 0 0 0-1-.912.424.424 0 0 1-.336-.519.474.474 0 0 1 .57-.306 2.242 2.242 0 0 1 1.672 1.522.424.424 0 0 1-.334.52.517.517 0 0 1-.121.018Z" fill="#7e57c2"/><path d="M15.095 11.126a.426.426 0 0 1-.426-.426 2.553 2.553 0 0 0-2.418-2.549.426.426 0 0 1 .045-.851 3.4 3.4 0 0 1 3.225 3.4.426.426 0 0 1-.426.426Z" fill="#7e57c2"/><path d="M12 3c-2.025 0-5.28.977-7.1 1.85C3.538 6.138 3 7.946 3 10.286V11.571c0 2.34.538 4.147 1.9 5.436a6.8 6.8 0 0 0 2.6 1.331V20.3c0 .684.472.7.558.7a.944.944 0 0 0 .607-.267c.072-.061.909-.949 1.819-1.92.542.033 1.057.045 1.511.045 2.025 0 5.18-.178 7.1-1.85 1.359-1.288 1.9-3.1 1.9-5.436v-1.286c0-2.34-.538-4.147-1.9-5.436C17.18 3.177 14.025 3 12 3Zm7.65 8.422v.149c0 2.1-.47 3.535-1.479 4.505-1.747 1.5-5.075 1.5-6.172 1.5-.334 0-.876 0-1.515-.043L8.4 19.75v-2.513a6.03 6.03 0 0 1-2.571-1.161c-1.008-.97-1.479-2.4-1.479-4.506v-1.282c0-2.1.47-3.535 1.479-4.505 1.746-1.5 5.075-1.5 6.171-1.5s4.424 0 6.171 1.5c1.009.97 1.479 2.4 1.479 4.505v1.134Z" fill="#7e57c2"/></svg>
