<svg xmlns="http://www.w3.org/2000/svg" width="24" height="24" viewBox="0 0 24 24"><path d="m3.46 20.54 1.207-4.386A8.5 8.5 0 0 1 18.052 5.941a8.394 8.394 0 0 1 2.489 5.988 8.5 8.5 0 0 1-8.5 8.464 8.525 8.525 0 0 1-4.073-1.034Z" fill="#fff"/><path d="M3.454 20.77a.223.223 0 0 1-.216-.282l1.183-4.3A8.725 8.725 0 0 1 18.214 5.78a8.622 8.622 0 0 1 2.556 6.15 8.742 8.742 0 0 1-12.833 7.677l-4.426 1.156a.206.206 0 0 1-.057.007Z" fill="#fff"/><path d="M12.032 3.447a8.48 8.48 0 1 1 0 16.959 8.534 8.534 0 0 1-4.07-1.032l-4.514 1.179 1.208-4.392a8.474 8.474 0 0 1 7.376-12.714M12.032 3a8.922 8.922 0 0 0-7.86 13.22l-1.157 4.215a.445.445 0 0 0 .117.432.449.449 0 0 0 .433.118l4.345-1.134A8.972 8.972 0 0 0 21 11.93 8.945 8.945 0 0 0 12.032 3Z" fill="#cfd8dc"/><path d="M17.01 6.982a7.014 7.014 0 0 0-10.93 8.659l.168.265-.711 2.579 2.661-.694.257.152a7.047 7.047 0 0 0 3.579.974 7.02 7.02 0 0 0 7.031-6.99 6.928 6.928 0 0 0-2.055-4.945Z" fill="#40c351"/><path d="M9.854 8.28c-.163-.363-.335-.37-.491-.377-.127-.006-.272-.005-.418-.005a.8.8 0 0 0-.581.273 2.443 2.443 0 0 0-.763 1.817 4.238 4.238 0 0 0 .89 2.254 8.948 8.948 0 0 0 3.723 3.29c1.841.726 2.216.582 2.615.545a2.2 2.2 0 0 0 1.471-1.036 1.825 1.825 0 0 0 .127-1.036c-.055-.091-.2-.145-.418-.255s-1.29-.636-1.489-.709-.345-.109-.491.109-.563.709-.69.854-.255.164-.472.055a5.966 5.966 0 0 1-1.753-1.081 6.566 6.566 0 0 1-1.212-1.509c-.127-.218-.014-.336.1-.445s.218-.255.327-.382a1.49 1.49 0 0 0 .218-.363.4.4 0 0 0-.018-.382c-.057-.117-.481-1.19-.675-1.617Z" fill="#fff" fill-rule="evenodd"/></svg>
