<svg xmlns="http://www.w3.org/2000/svg" width="18" height="18" viewBox="0 0 18 18"><path fill="#767676" d="M4.492 2.003a.791.791 0 0 0-.254.021 2.588 2.588 0 0 0-1.21.727C1.62 4.159.873 6.533 6.169 11.831s7.671 4.55 9.081 3.141a2.59 2.59 0 0 0 .728-1.212.783.783 0 0 0-.366-.865l-3.128-1.832a.783.783 0 0 0-.8 0l-1.245.742a.781.781 0 0 1-.883-.052 20.421 20.421 0 0 1-1.772-1.546 20.189 20.189 0 0 1-1.546-1.772.78.78 0 0 1-.052-.883l.742-1.245a.786.786 0 0 0 0-.8L5.107 2.391a.789.789 0 0 0-.615-.388Z"/></svg>
