<svg width="16" height="16" viewBox="0 0 16 16" fill="none" xmlns="http://www.w3.org/2000/svg">
<path fill-rule="evenodd" clip-rule="evenodd" d="M8.81363 5.12877L3.53023 10.4122C3.40494 10.5368 3.33496 10.7061 3.33496 10.8827V12.3654C3.33496 12.5311 3.46928 12.6654 3.63496 12.6654H5.11772C5.29433 12.6654 5.46361 12.5955 5.58824 12.4702L10.8721 7.18729L8.81363 5.12877ZM9.52051 4.42189L11.5791 6.48048L12.4707 5.58906C12.7306 5.32914 12.7306 4.90728 12.4707 4.64736L11.3537 3.53039C11.0938 3.27047 10.6719 3.27047 10.412 3.53039L9.52051 4.42189Z" fill="var(--tw-svg-color, #0D363F)"/>
<path d="M3.53023 10.4122L3.70654 10.5894L3.70701 10.589L3.53023 10.4122ZM8.81363 5.12877L8.99041 4.952C8.94352 4.90511 8.87993 4.87877 8.81363 4.87877C8.74733 4.87877 8.68374 4.90511 8.63685 4.952L8.81363 5.12877ZM5.58824 12.4702L5.41148 12.2934L5.41099 12.2939L5.58824 12.4702ZM10.8721 7.18729L11.0489 7.36408C11.0958 7.3172 11.1221 7.25361 11.1221 7.1873C11.1222 7.121 11.0958 7.0574 11.0489 7.01051L10.8721 7.18729ZM9.52051 4.42189L9.34373 4.24512C9.29685 4.292 9.27051 4.35559 9.27051 4.42189C9.27051 4.4882 9.29685 4.55179 9.34373 4.59867L9.52051 4.42189ZM11.5791 6.48048L11.4023 6.65726C11.4999 6.75488 11.6582 6.75489 11.7559 6.65727L11.5791 6.48048ZM12.4707 5.58906L12.6474 5.76585L12.6475 5.76583L12.4707 5.58906ZM12.4707 4.64736L12.6475 4.47058V4.47058L12.4707 4.64736ZM11.3537 3.53039L11.1769 3.70716L11.1769 3.70716L11.3537 3.53039ZM10.412 3.53039L10.5888 3.70716V3.70716L10.412 3.53039ZM3.70701 10.589L8.99041 5.30555L8.63685 4.952L3.35345 10.2354L3.70701 10.589ZM3.58496 10.8827C3.58496 10.7722 3.62868 10.6669 3.70654 10.5894L3.35393 10.2349C3.1812 10.4067 3.08496 10.6399 3.08496 10.8827H3.58496ZM3.58496 12.3654V10.8827H3.08496V12.3654H3.58496ZM3.63496 12.4154C3.60735 12.4154 3.58496 12.3931 3.58496 12.3654H3.08496C3.08496 12.6692 3.3312 12.9154 3.63496 12.9154V12.4154ZM5.11772 12.4154H3.63496V12.9154H5.11772V12.4154ZM5.41099 12.2939C5.33354 12.3717 5.22816 12.4154 5.11772 12.4154V12.9154C5.3605 12.9154 5.59368 12.8192 5.76548 12.6465L5.41099 12.2939ZM10.6954 7.0105L5.41148 12.2934L5.765 12.647L11.0489 7.36408L10.6954 7.0105ZM11.0489 7.01051L8.99041 4.952L8.63685 5.30555L10.6954 7.36407L11.0489 7.01051ZM9.34373 4.59867L11.4023 6.65726L11.7559 6.3037L9.69729 4.24512L9.34373 4.59867ZM12.2939 5.41226L11.4023 6.30369L11.7559 6.65727L12.6474 5.76585L12.2939 5.41226ZM12.2939 4.82414C12.4562 4.98642 12.4562 5.25 12.2939 5.41228L12.6475 5.76583C13.005 5.40829 13.005 4.82813 12.6475 4.47058L12.2939 4.82414ZM11.1769 3.70716L12.2939 4.82414L12.6475 4.47058L11.5305 3.35361L11.1769 3.70716ZM10.5888 3.70716C10.7511 3.54488 11.0147 3.54488 11.1769 3.70716L11.5305 3.35361C11.1729 2.99606 10.5928 2.99606 10.2352 3.35361L10.5888 3.70716ZM9.69729 4.59867L10.5888 3.70716L10.2352 3.35361L9.34373 4.24512L9.69729 4.59867Z" fill="var(--tw-svg-color, #0D363F)"/>
</svg>
