<svg xmlns="http://www.w3.org/2000/svg" width="9.643" height="16.061" viewBox="0 0 9.643 16.061"><path d="M1.608 16.061a.257.257 0 1 1 0-.514h2.335v-2.735a4.189 4.189 0 0 1-3.93-4.174V6.075a.257.257 0 1 1 .514 0v2.563a3.67 3.67 0 0 0 5.4 3.24l.255.438a4.165 4.165 0 0 1-1.726.5v2.735h2.337a.257.257 0 0 1 0 .514ZM0 .354.514 0l9.129 15.622-.514.418Zm1.661 8.421V4.546l3.752 6.447a2.514 2.514 0 0 1-1.213.321 2.54 2.54 0 0 1-2.539-2.539Zm5.719 1.694a3.653 3.653 0 0 0 .493-1.831V6.076a.257.257 0 1 1 .514 0v2.562a4.152 4.152 0 0 1-.715 2.331ZM2.166 1.547a2.533 2.533 0 0 1 4.573 1.507v5.721a2.578 2.578 0 0 1-.051.511Z" fill="#767676"/></svg>
