<svg width="17" height="16" viewBox="0 0 17 16" fill="none" xmlns="http://www.w3.org/2000/svg">
<path d="M13.5333 6.6665V2.6665M13.5333 2.6665H9.53333M13.5333 2.6665L9.53333 6.6665" stroke="var(--tw-svg-color, #0D363F)" stroke-linecap="round" stroke-linejoin="round"/>
<path fill-rule="evenodd" clip-rule="evenodd" d="M12.843 11.0974L12.061 10.3154C11.6703 9.92473 11.037 9.92473 10.647 10.3154L10.0323 10.9301C9.89498 11.0674 9.68698 11.1134 9.50964 11.0354C8.61898 10.6454 7.73898 10.0541 6.95431 9.2694C6.17298 8.48807 5.58364 7.61207 5.19298 6.72473C5.11164 6.5414 5.15898 6.32607 5.30098 6.18407L5.85164 5.6334C6.29898 5.18607 6.29898 4.5534 5.90831 4.16273L5.12631 3.38073C4.60564 2.86007 3.76164 2.86007 3.24098 3.38073L2.80631 3.81473C2.31231 4.30873 2.10631 5.0214 2.23964 5.72807C2.56898 7.47007 3.58098 9.3774 5.21364 11.0101C6.84631 12.6427 8.75364 13.6547 10.4956 13.9841C11.2023 14.1174 11.915 13.9114 12.409 13.4174L12.843 12.9834C13.3636 12.4627 13.3636 11.6187 12.843 11.0974Z" fill="var(--tw-svg-color, #0D363F)" stroke="var(--tw-svg-color, #0D363F)" stroke-linecap="round" stroke-linejoin="round"/>
</svg>
