<svg width="16" height="16" viewBox="0 0 16 16" fill="none" xmlns="http://www.w3.org/2000/svg">
<path d="M15 8C15 11.8675 11.8675 15 8 15C4.1325 15 1 11.8675 1 8C1 4.1325 4.1325 1 8 1C11.8675 1 15 4.1325 15 8Z" fill="var(--tw-svg-color, #0D363F)"/>
<path d="M6.71678 11.2083C6.48928 11.2083 6.53011 11.1208 6.44845 10.905L5.78345 8.71163L9.91345 6.1333L10.3976 6.26163L9.99511 7.3583L6.71678 11.2083Z" fill="#CDCDCD"/>
<path d="M6.71655 11.208C6.89155 11.208 6.96739 11.1264 7.06655 11.033C7.21822 10.8872 9.16655 8.99137 9.16655 8.99137L7.97072 8.69971L6.86239 9.39971L6.71655 11.1497V11.208Z" fill="#ABABAB"/>
<path d="M6.8333 9.42303L9.65663 11.5055C9.97746 11.6805 10.2108 11.593 10.2925 11.208L11.4416 5.7947C11.5583 5.3222 11.2608 5.1122 10.9516 5.2522L4.2083 7.85387C3.74746 8.04053 3.7533 8.2972 4.12663 8.40803L5.85913 8.95053L9.86663 6.4247C10.0533 6.30803 10.2283 6.3722 10.0883 6.50053L6.8333 9.42303Z" fill="var(--tw-svg-color-secondary, #fff)"/>
</svg>
