<svg width="16" height="16" viewBox="0 0 16 16" fill="none" xmlns="http://www.w3.org/2000/svg">
<path d="M7.98494 9.69901H8.00893C8.74687 9.69901 9.6843 8.96745 9.6843 8.96745L6.30957 5.38758V8.02364C6.30957 8.94907 7.05951 9.69901 7.98494 9.69901Z" fill="var(--tw-svg-color, #0D363F)"/>
<path d="M7.98494 1.27344C7.05951 1.27344 6.30957 2.01285 6.30957 2.76279L9.6843 6.51249V2.9488C9.6843 2.02338 8.93436 1.27344 8.00893 1.27344H7.98494Z" fill="var(--tw-svg-color, #0D363F)"/>
<path d="M7.98494 9.69901H8.00893C8.74687 9.69901 9.6843 8.96745 9.6843 8.96745L6.30957 5.38758V8.02364C6.30957 8.94907 7.05951 9.69901 7.98494 9.69901Z" stroke="var(--tw-svg-color, #0D363F)" stroke-width="1.2" stroke-linecap="round" stroke-linejoin="round"/>
<path d="M7.98494 1.27344C7.05951 1.27344 6.30957 2.01285 6.30957 2.76279L9.6843 6.51249V2.9488C9.6843 2.02338 8.93436 1.27344 8.00893 1.27344H7.98494Z" stroke="var(--tw-svg-color, #0D363F)" stroke-width="1.2" stroke-linecap="round" stroke-linejoin="round"/>
<path d="M12.2162 8.01172C12.2162 8.3178 12.1836 8.61627 12.1216 8.90384M3.77783 8.01172C3.77783 10.3418 5.66693 12.2309 7.99699 12.2309C9.17038 12.2309 10.2319 11.7518 10.9967 10.9786" stroke="var(--tw-svg-color, #0D363F)" stroke-width="1.2" stroke-linecap="round" stroke-linejoin="round"/>
<path d="M7.99704 14.7618V12.2271" stroke="var(--tw-svg-color, #0D363F)" stroke-width="1.2" stroke-linecap="round" stroke-linejoin="round"/>
<path d="M2.43628 1.04736L13.613 13.1022" stroke="var(--tw-svg-color, #0D363F)" stroke-width="1.2" stroke-linecap="round" stroke-linejoin="round"/>
</svg>
