<svg width="17" height="16" viewBox="0 0 17 16" fill="none" xmlns="http://www.w3.org/2000/svg">
<path fill-rule="evenodd" clip-rule="evenodd" d="M7.07744 0.933725H2.04187C1.02443 0.933725 0.200195 1.75796 0.200195 2.7754V12.8671C0.200195 13.8846 1.02443 14.7088 2.04187 14.7088H9.25024C10.2677 14.7088 11.0919 13.8846 11.0919 12.8671V4.94523C11.092 4.94275 11.092 4.94027 11.092 4.93778C11.092 4.93529 11.092 4.93281 11.0919 4.93033V4.81393C11.0919 4.32568 10.8976 3.85706 10.5523 3.51182L8.51382 1.47329C8.16858 1.12805 7.69996 0.933725 7.21171 0.933725H7.09816C7.09472 0.933638 7.09126 0.933594 7.0878 0.933594C7.08433 0.933594 7.08088 0.933638 7.07744 0.933725ZM10.2545 4.53778C10.207 4.36533 10.1154 4.20626 9.98666 4.07751L7.94813 2.03898C7.81937 1.91021 7.66027 1.81859 7.4878 1.77108V4.21694C7.4878 4.39393 7.63165 4.53778 7.80863 4.53778H10.2545ZM10.2919 5.33778H7.80863C7.18982 5.33778 6.6878 4.83576 6.6878 4.21694V1.73373H2.04187C1.46626 1.73373 1.0002 2.19979 1.0002 2.7754V12.8671C1.0002 13.4427 1.46626 13.9088 2.04187 13.9088H9.25024C9.82585 13.9088 10.2919 13.4427 10.2919 12.8671V5.33778ZM12.0102 6.72792C12.1664 6.57171 12.4197 6.57171 12.5759 6.72792L14.1466 8.29865L15.7174 6.72792C15.8736 6.57171 16.1268 6.57171 16.283 6.72792C16.4392 6.88413 16.4392 7.13739 16.283 7.2936L14.4295 9.14718C14.2732 9.30339 14.02 9.30339 13.8638 9.14718L12.0102 7.2936C11.854 7.13739 11.854 6.88413 12.0102 6.72792ZM2.36273 7.1006C2.36273 6.87969 2.54182 6.7006 2.76273 6.7006H7.08775C7.30867 6.7006 7.48775 6.87969 7.48775 7.1006C7.48775 7.32152 7.30867 7.5006 7.08775 7.5006H2.76273C2.54182 7.5006 2.36273 7.32152 2.36273 7.1006ZM2.36273 9.26195C2.36273 9.04103 2.54182 8.86195 2.76273 8.86195H7.08775C7.30867 8.86195 7.48775 9.04103 7.48775 9.26195C7.48775 9.48286 7.30867 9.66195 7.08775 9.66195H2.76273C2.54182 9.66195 2.36273 9.48286 2.36273 9.26195ZM2.36273 11.425C2.36273 11.2041 2.54182 11.025 2.76273 11.025H5.88395C6.10487 11.025 6.28395 11.2041 6.28395 11.425C6.28395 11.6459 6.10487 11.825 5.88395 11.825H2.76273C2.54182 11.825 2.36273 11.6459 2.36273 11.425Z" fill="var(--tw-svg-color, #0D363F)"/>
</svg>
