<svg width="17" height="16" viewBox="0 0 17 16" fill="none" xmlns="http://www.w3.org/2000/svg">
<path fill-rule="evenodd" clip-rule="evenodd" d="M7.08773 9.42925C6.30773 8.64925 5.71973 7.77591 5.32907 6.88991C5.2464 6.70258 5.29506 6.48325 5.43973 6.33858L5.98573 5.79325C6.43307 5.34591 6.43307 4.71325 6.0424 4.32258L5.25973 3.53991C4.73906 3.01925 3.89507 3.01925 3.3744 3.53991L2.93973 3.97458C2.44573 4.46858 2.23973 5.18125 2.37306 5.88791C2.7024 7.62991 3.7144 9.53725 5.34706 11.1699C6.97973 12.8026 8.88707 13.8146 10.6291 14.1439C11.3357 14.2772 12.0484 14.0712 12.5424 13.5772L12.9764 13.1432C13.4971 12.6226 13.4971 11.7786 12.9764 11.2579L12.1944 10.4759C11.8037 10.0852 11.1704 10.0852 10.7804 10.4759L10.1784 11.0786C10.0337 11.2232 9.8144 11.2719 9.62707 11.1892C8.74107 10.7979 7.86773 10.2092 7.08773 9.42925Z" fill="var(--tw-svg-color, #0D363F)" stroke="var(--tw-svg-color, #0D363F)" stroke-width="0.8" stroke-linecap="round" stroke-linejoin="round"/>
<path fill-rule="evenodd" clip-rule="evenodd" d="M11.769 4.74825C11.3448 4.32411 11.0251 3.84922 10.8126 3.36745C10.7677 3.26558 10.7942 3.14632 10.8728 3.06765L11.1697 2.77112C11.413 2.52787 11.413 2.18385 11.2006 1.97142L10.7749 1.54584C10.4918 1.26272 10.0328 1.26272 9.7497 1.54584L9.51333 1.78219C9.24469 2.05081 9.13267 2.43833 9.20518 2.82259C9.38427 3.76983 9.93459 4.80697 10.8224 5.69476C11.7103 6.58254 12.7475 7.13283 13.6948 7.31191C14.0791 7.38442 14.4666 7.2724 14.7352 7.00378L14.9712 6.76779C15.2544 6.48467 15.2544 6.02573 14.9712 5.74261L14.546 5.31739C14.3335 5.10496 13.9891 5.10496 13.7771 5.31739L13.4497 5.64509C13.371 5.72376 13.2518 5.75022 13.1499 5.70527C12.6681 5.49248 12.1932 5.17238 11.769 4.74825Z" fill="var(--tw-svg-color, #0D363F)" stroke="var(--tw-svg-color, #0D363F)" stroke-width="0.666667" stroke-linecap="round" stroke-linejoin="round"/>
</svg>
