<svg width="24" height="24" viewBox="0 0 24 24" fill="none" xmlns="http://www.w3.org/2000/svg">
<path d="M6.99788 15.0012H4.99705C3.89202 15.0012 2.99622 14.1054 2.99622 13.0003V5.99742C2.99622 4.89239 3.89202 3.99658 4.99705 3.99658H16.0016C17.1067 3.99658 18.0025 4.89239 18.0025 5.99742V9.99908M8.99872 9.99908L5.99747 6.99783M5.99747 6.99783H8.7106M5.99747 6.99783V9.71096M10.9991 21.0037H20.0357C20.5703 21.0037 21.0037 20.5703 21.0037 20.0357V13.9683C21.0037 13.4337 20.5703 13.0003 20.0357 13.0003H10.9991C10.4645 13.0003 10.0311 13.4337 10.0311 13.9683V20.0357C10.0311 20.5703 10.4645 21.0037 10.9991 21.0037Z" stroke="var(--tw-svg-color, #0D363F)" stroke-width="1.2" stroke-linecap="round" stroke-linejoin="round"/>
</svg>
