<svg xmlns="http://www.w3.org/2000/svg" width="24" height="24" viewBox="0 0 24 24">
  <g transform="translate(4.5, 5.25)">
      <path d="M4.308,4A2.279,2.279,0,0,0,2,6.25V13a2.279,2.279,0,0,0,2.308,2.25H5.766A2.131,2.131,0,0,1,4.5,16.955a.282.282,0,0,0-.188.264A.285.285,0,0,0,4.6,17.5a.3.3,0,0,0,.085-.012A4.7,4.7,0,0,0,8.5,15.25h6.191A2.279,2.279,0,0,0,17,13V6.25A2.279,2.279,0,0,0,14.692,4ZM6.038,8.5A1.125,1.125,0,1,1,4.885,9.625,1.139,1.139,0,0,1,6.038,8.5ZM9.5,8.5A1.125,1.125,0,1,1,8.346,9.625,1.139,1.139,0,0,1,9.5,8.5Zm3.462,0a1.125,1.125,0,1,1-1.154,1.125A1.139,1.139,0,0,1,12.962,8.5Z" transform="translate(-2 -4)"/>
  </g>
</svg>
