<svg xmlns="http://www.w3.org/2000/svg" width="47" height="46" viewBox="0 0 47 46"><g transform="translate(.127 -.297)"><ellipse cx="23.5" cy="23" rx="23.5" ry="23" transform="translate(-.127 .297)" fill="rgba(229,229,229,0)"/><path d="M22.089 29.236H21.747a5.59 5.59 0 0 1-.828-.074 3.115 3.115 0 0 1-.852-.281 2.921 2.921 0 0 1-.723-.53l-.052-.054-.032-.033c-.1-.1-.146-.141-.2-.2l-1.832-1.829c-.047-.043-.089-.086-.126-.125s-.075-.072-.138-.136l-1.428-1.43-.136-.136c-.039-.039-.066-.068-.11-.115a4.688 4.688 0 0 1-.343-.38 1.229 1.229 0 0 1-.236-.36l-.014-.04a1.6 1.6 0 0 1 .012-1.014 1.215 1.215 0 0 1 .238-.368 4.094 4.094 0 0 1 .33-.363 7.54 7.54 0 0 1 .122-.128l.136-.138 1.568-1.566.059-.059.056-.054a.488.488 0 0 1 .043-.038l1.559-1.563.234-.235.2-.2.039-.032.05-.053a2.939 2.939 0 0 1 .73-.533 3.152 3.152 0 0 1 .852-.28 5.541 5.541 0 0 1 .809-.07h5.805c.176 0 .258 0 .351.005a5.6 5.6 0 0 1 .832.071 3.078 3.078 0 0 1 .844.28 2.83 2.83 0 0 1 .728.531 2.876 2.876 0 0 1 .531.73 3.164 3.164 0 0 1 .28.853 5.6 5.6 0 0 1 .07.809V25.684c0 .118 0 .174-.005.234a5.4 5.4 0 0 1-.073.834 3.071 3.071 0 0 1-.282.857 2.919 2.919 0 0 1-.532.731 2.872 2.872 0 0 1-.734.534 2.98 2.98 0 0 1-.859.283 5.616 5.616 0 0 1-.827.075h-5.779Zm.009-11.501h-.34a4.659 4.659 0 0 0-.68.058 2.164 2.164 0 0 0-.588.192 1.979 1.979 0 0 0-.5.363l-.038.039c-.034.036-.05.052-.068.068l-.183.178-.234.235-1.583 1.594-.064.059-.013.012-.054.054-.133.138-1.42 1.42c-.04.042-.073.075-.144.146l-.095.1-.027.022a3.433 3.433 0 0 0-.282.311l-.032.035a.292.292 0 0 0-.055.078.675.675 0 0 0 0 .376.333.333 0 0 0 .055.08l.028.031a3.769 3.769 0 0 0 .3.326l.1.107.136.136 1.436 1.431.147.146c.021.022.049.051.086.086l.017.015.017.015 1.819 1.827.183.179c.018.016.034.032.069.069l.036.038a1.992 1.992 0 0 0 .489.359 2.162 2.162 0 0 0 .589.195 4.622 4.622 0 0 0 .689.061h6.093a4.782 4.782 0 0 0 .693-.063 2.077 2.077 0 0 0 .593-.2 1.951 1.951 0 0 0 .5-.363 2 2 0 0 0 .363-.5 2.149 2.149 0 0 0 .195-.594 4.622 4.622 0 0 0 .061-.7v-5.776a4.725 4.725 0 0 0-.058-.68 2.143 2.143 0 0 0-.193-.59 1.96 1.96 0 0 0-.361-.5 1.935 1.935 0 0 0-.491-.359 2.193 2.193 0 0 0-.582-.194 4.792 4.792 0 0 0-.7-.059H22.51c-.201-.003-.29-.003-.412-.001Zm4.4 7.723-1.86-1.857-1.858 1.864-.005-.005a.4.4 0 0 1-.132.088.414.414 0 0 1-.452-.675.4.4 0 0 1 .076-.06l1.787-1.791-1.864-1.861.006-.006a.414.414 0 1 1 .649-.505l1.792 1.789 1.81-1.811a.362.362 0 0 1 .045-.055.413.413 0 1 1 .585.582l-1.857 1.866 1.816 1.814a.43.43 0 0 1 .046.039.412.412 0 1 1-.582.584Z" fill="rgba(51,51,51,0.87)"/></g></svg>
