<svg xmlns="http://www.w3.org/2000/svg" width="24" height="24" viewBox="0 0 24 24"><path d="M12 13.483a.866.866 0 0 1-.6-.247.79.79 0 0 1-.268-.6.761.761 0 0 1 .268-.576.864.864 0 0 1 1.209 0 .763.763 0 0 1 .267.576.791.791 0 0 1-.267.6.869.869 0 0 1-.609.247Zm-4.5 0a.866.866 0 0 1-.6-.247.79.79 0 0 1-.268-.6.761.761 0 0 1 .268-.576.864.864 0 0 1 1.209 0 .763.763 0 0 1 .267.576.791.791 0 0 1-.267.6.869.869 0 0 1-.609.247Zm9 0a.866.866 0 0 1-.6-.247.79.79 0 0 1-.268-.6.761.761 0 0 1 .268-.576.864.864 0 0 1 1.209 0 .763.763 0 0 1 .267.576.791.791 0 0 1-.267.6.869.869 0 0 1-.609.247ZM12 17.708a.866.866 0 0 1-.6-.247.79.79 0 0 1-.268-.6.8.8 0 0 1 .268-.589.831.831 0 0 1 1.209 0 .8.8 0 0 1 .267.589.791.791 0 0 1-.267.6.869.869 0 0 1-.609.247Zm-4.5 0a.866.866 0 0 1-.6-.247.79.79 0 0 1-.268-.6.8.8 0 0 1 .268-.589.831.831 0 0 1 1.209 0 .8.8 0 0 1 .267.589.791.791 0 0 1-.267.6.869.869 0 0 1-.609.247Zm9 0a.866.866 0 0 1-.6-.247.79.79 0 0 1-.268-.6.8.8 0 0 1 .268-.589.831.831 0 0 1 1.209 0 .8.8 0 0 1 .267.589.791.791 0 0 1-.267.6.869.869 0 0 1-.609.247ZM4.828 21a1.8 1.8 0 0 1-1.307-.507A1.709 1.709 0 0 1 3 19.217V5.225a1.705 1.705 0 0 1 .521-1.275 1.794 1.794 0 0 1 1.307-.508H6.8V1h1.206v2.442h8.072V1H17.2v2.442h1.969a1.8 1.8 0 0 1 1.308.508A1.707 1.707 0 0 1 21 5.225v13.992a1.711 1.711 0 0 1-.52 1.276 1.8 1.8 0 0 1-1.308.507Zm0-1.1h14.344a.68.68 0 0 0 .492-.206.648.648 0 0 0 .212-.48v-9.6H4.125v9.6a.648.648 0 0 0 .212.48.68.68 0 0 0 .491.209Zm-.7-11.385h15.75v-3.29a.648.648 0 0 0-.212-.48.68.68 0 0 0-.492-.206H4.828a.68.68 0 0 0-.492.206.648.648 0 0 0-.211.48Zm0 0Z" fill="#767676"/></svg>
