<svg xmlns="http://www.w3.org/2000/svg" viewBox="0 0 16 20">
    <path id="icon.trash" d="M13.222,2a1.326,1.326,0,0,0-1.333,1.3v.87H8.4a.411.411,0,0,0-.14,0H7.444a.435.435,0,1,0,0,.87h.444V20.7A1.326,1.326,0,0,0,9.222,22H20.778a1.326,1.326,0,0,0,1.333-1.3V5.043h.444a.435.435,0,1,0,0-.87h-.814a.454.454,0,0,0-.145,0H18.111V3.3A1.326,1.326,0,0,0,16.778,2Zm0,.87h3.556a.438.438,0,0,1,.444.435v.87H12.778V3.3A.438.438,0,0,1,13.222,2.87ZM8.778,5.043h3.481a.454.454,0,0,0,.145,0h5.188a.454.454,0,0,0,.145,0h3.485V20.7a.438.438,0,0,1-.444.435H9.222a.438.438,0,0,1-.444-.435Zm3.549,2.168a.439.439,0,0,0-.438.441v10.87a.445.445,0,0,0,.889,0V7.652a.43.43,0,0,0-.13-.314.45.45,0,0,0-.321-.127Zm2.667,0a.439.439,0,0,0-.438.441v10.87a.445.445,0,0,0,.889,0V7.652a.43.43,0,0,0-.13-.314.45.45,0,0,0-.321-.127Zm2.667,0a.439.439,0,0,0-.438.441v10.87a.445.445,0,0,0,.889,0V7.652a.43.43,0,0,0-.13-.314.45.45,0,0,0-.321-.127Z" transform="translate(-7 -2)" fill="#767676"/>
</svg>