<svg xmlns="http://www.w3.org/2000/svg" width="24" height="24" viewBox="0 0 24 24"><circle cx="12" cy="12" r="12" fill="rgb(64,157,207)" fill-opacity=".8"/><path d="M12 2a1.279 1.279 0 0 0-.643 2.389V5.84H8.142A2.566 2.566 0 0 0 5.571 8.4V18h12.857V8.4a2.566 2.566 0 0 0-2.571-2.56h-3.215V4.386A1.278 1.278 0 0 0 12 2ZM9.428 9.04a1.28 1.28 0 1 1-1.286 1.28 1.283 1.283 0 0 1 1.286-1.28Zm5.143 0a1.28 1.28 0 1 1-1.286 1.28 1.283 1.283 0 0 1 1.286-1.28Zm-10.938.631A.642.642 0 0 0 3 10.32v3.84a.643.643 0 1 0 1.286 0v-3.84a.642.642 0 0 0-.653-.649Zm16.714 0a.642.642 0 0 0-.633.649v3.84a.643.643 0 1 0 1.286 0v-3.84a.642.642 0 0 0-.653-.649ZM9.428 14.16h5.143a1.282 1.282 0 0 1 1.286 1.28v1.28H8.142v-1.28a1.282 1.282 0 0 1 1.286-1.28Z" fill="#fff"/></svg>
