<svg xmlns="http://www.w3.org/2000/svg" width="20" height="20" viewBox="0 0 20 20">
  <path d="M4.634 1.67a.941.941 0 0 0-.3.025 3.081 3.081 0 0 0-1.44.865C1.217 4.237.327 7.06 6.633 13.37s9.132 5.416 10.81 3.739a3.084 3.084 0 0 0 .866-1.443.932.932 0 0 0-.436-1.029l-3.723-2.181a.932.932 0 0 0-.949 0l-1.482.884a.93.93 0 0 1-1.052-.058 24.31 24.31 0 0 1-2.11-1.84 24.035 24.035 0 0 1-1.84-2.11.928.928 0 0 1-.062-1.051l.883-1.482a.936.936 0 0 0 0-.952L5.367 2.132a.939.939 0 0 0-.733-.462Z" />
</svg>
