<svg width="16" height="16" viewBox="0 0 16 16" fill="none" xmlns="http://www.w3.org/2000/svg">
<path d="M2.66675 13.0001L5.67197 9.99484M10.274 2.68248L12.9845 5.39294C13.2368 5.64534 13.3628 5.9976 13.3276 6.3528C13.2924 6.708 13.0999 7.02872 12.8029 7.22672C11.281 8.24128 10.192 9.78664 9.74837 11.561L9.50152 12.5485C9.44947 12.7567 9.28944 12.9208 9.08261 12.9781C8.87578 13.0354 8.65412 12.977 8.50236 12.8252L2.84169 7.16456C2.68993 7.01279 2.63154 6.79113 2.68883 6.5843C2.74612 6.37747 2.91024 6.21744 3.11845 6.16539L4.10585 5.91853C5.88026 5.47493 7.42562 4.38588 8.44018 2.86406C8.63818 2.56706 8.95891 2.37447 9.31412 2.3393C9.66933 2.30413 10.0216 2.43008 10.274 2.68248Z" stroke="var(--tw-svg-color, #0D363F)" stroke-linecap="round" stroke-linejoin="round"/>
</svg>
