<svg xmlns="http://www.w3.org/2000/svg" viewBox="0 0 14 14">
	<path d="M3.7,9.4c-4.7-4.6-4-6.7-2.8-7.9C1.2,1.2,1.6,1,2,0.9c0.1,0,0.2,0,0.2,0c0.2,0,0.4,0.1,0.5,0.3l1.6,2.7
	c0.1,0.2,0.1,0.5,0,0.7L3.7,5.7c-0.1,0.2-0.1,0.5,0,0.8C4.2,7,4.7,7.5,5.1,8c0.5,0.5,1,0.9,1.6,1.3c0.2,0.2,0.5,0.2,0.8,0l1.1-0.6
	c0.2-0.1,0.5-0.1,0.7,0l2.8,1.6c0.3,0.1,0.4,0.5,0.3,0.8c-0.1,0.4-0.3,0.8-0.6,1.1c-0.5,0.6-1.3,0.9-2,0.9C8.4,13,6.5,12.2,3.7,9.4z
	M8.4,5.5c-3-3-2.6-4.3-1.8-5.1C6.8,0.2,7,0.1,7.3,0c0,0,0.1,0,0.1,0c0.1,0,0.3,0.1,0.4,0.2l1,1.7c0.1,0.1,0.1,0.3,0,0.4L8.4,3.1
	c-0.1,0.2-0.1,0.4,0,0.5C8.7,4,9,4.3,9.3,4.6c0.3,0.3,0.7,0.6,1,0.9c0.1,0.1,0.3,0.1,0.5,0l0.7-0.4C11.7,5,11.8,5,12,5.1l1.8,1
	C13.9,6.2,14,6.4,14,6.6c-0.1,0.3-0.2,0.5-0.4,0.7c-0.3,0.4-0.8,0.6-1.3,0.6C11.4,7.8,10.2,7.3,8.4,5.5z"/>
</svg>
