<svg xmlns="http://www.w3.org/2000/svg" width="18" height="18" viewBox="0 0 24 24">
    <path d="M5.831 14.666c1.467 0 2.491-.735 2.632-1.9H7.244a1.318 1.318 0 0 1-1.409 1c-.957 0-1.558-.688-1.558-1.8s.609-1.796 1.554-1.796a1.341 1.341 0 0 1 1.409 1.06h1.218a2.377 2.377 0 0 0-2.627-1.964A2.566 2.566 0 0 0 3 11.966a2.56 2.56 0 0 0 2.831 2.7Zm4.654-2h1l1.122 1.913h1.417L12.761 12.5a1.54 1.54 0 0 0 1.086-1.484c0-1.032-.787-1.665-2.163-1.665H9.233v5.228h1.252Zm0-2.458h1.065c.622 0 1.011.326 1.011.832s-.369.832-1 .832h-1.076ZM21 14.579V9.356h-1.451l-1.7 3.75h-.032l-1.7-3.75h-1.45v5.223h1.115v-3.525h.033l1.625 3.525h.787l1.625-3.525h.033v3.525Z" fill="#767676" stroke="none"/>
    <g fill="none" stroke="#767676" class="svg-stroke">
        <rect width="24" height="24" rx="4" stroke="none"/>
        <rect x=".5" y=".5" width="23" height="23" rx="3.5" fill="none"/>
    </g>
</svg>
