<svg width="16" height="16" viewBox="0 0 16 16" fill="none"
  xmlns="http://www.w3.org/2000/svg">
  <g id="Icon/unmask">
    <g id="Icon">
      <path fill-rule="evenodd" clip-rule="evenodd" d="M7.99963 9.6002C8.88328 9.6002 9.59963 8.88385 9.59963 8.0002C9.59963 7.11654 8.88328 6.4002 7.99963 6.4002C7.11597 6.4002 6.39963 7.11654 6.39963 8.0002C6.39963 8.88385 7.11597 9.6002 7.99963 9.6002ZM7.99963 10.4002C9.32511 10.4002 10.3996 9.32568 10.3996 8.0002C10.3996 6.67471 9.32511 5.6002 7.99963 5.6002C6.67414 5.6002 5.59963 6.67471 5.59963 8.0002C5.59963 9.32568 6.67414 10.4002 7.99963 10.4002Z" fill="var(--tw-svg-color, #0D363F)"/>
      <path fill-rule="evenodd" clip-rule="evenodd" d="M7.99961 3.73359C5.67805 3.73359 3.59333 4.98577 2.65625 6.90136C2.48663 7.24812 2.39961 7.62275 2.39961 8.00026C2.39961 8.37777 2.48663 8.7524 2.65625 9.09916C3.59333 11.0148 5.67805 12.2669 7.99961 12.2669C10.3212 12.2669 12.4059 11.0148 13.343 9.09916C13.5126 8.7524 13.5996 8.37777 13.5996 8.00026C13.5996 7.62275 13.5126 7.24812 13.343 6.90136C12.4059 4.98577 10.3212 3.73359 7.99961 3.73359ZM1.93763 6.54982C3.02055 4.33608 5.39983 2.93359 7.99961 2.93359C10.5994 2.93359 12.9787 4.33608 14.0616 6.54982C14.284 7.0044 14.3996 7.4991 14.3996 8.00026C14.3996 8.50142 14.284 8.99612 14.0616 9.4507C12.9787 11.6644 10.5994 13.0669 7.99961 13.0669C5.39983 13.0669 3.02055 11.6644 1.93763 9.4507C1.71526 8.99612 1.59961 8.50142 1.59961 8.00026C1.59961 7.4991 1.71526 7.0044 1.93763 6.54982Z" fill="var(--tw-svg-color, #0D363F)"/>
    </g>
  </g>
</svg>
