<svg width="17" height="16" viewBox="0 0 17 16" fill="none" xmlns="http://www.w3.org/2000/svg">
<path fill-rule="evenodd" clip-rule="evenodd" d="M14.4141 11.2565C14.9548 10.2935 15.2667 9.18387 15.2667 8.00016C15.2667 4.31794 12.2822 1.3335 8.60002 1.3335C4.91779 1.3335 1.93335 4.31794 1.93335 8.00016C1.93335 11.6824 4.91779 14.6668 8.60002 14.6668C9.78372 14.6668 10.8933 14.355 11.8563 13.8142L14.6678 14.5171C14.9391 14.5849 15.1848 14.3392 15.117 14.068L14.4141 11.2565Z" stroke="var(--tw-svg-color, #0D363F)" stroke-width="0.888889" stroke-linecap="round" stroke-linejoin="round"/>
<path d="M8.46896 8.23926C8.54155 8.16667 8.65859 8.16667 8.73118 8.23926C8.80378 8.31185 8.80378 8.42889 8.73118 8.50148C8.65859 8.57407 8.54155 8.57407 8.46896 8.50148C8.39711 8.42889 8.39711 8.31185 8.46896 8.23926" stroke="var(--tw-svg-color, #0D363F)" stroke-width="1.2" stroke-linecap="round" stroke-linejoin="round"/>
<path d="M5.50595 8.23926C5.57854 8.16667 5.69558 8.16667 5.76817 8.23926C5.84076 8.31185 5.84076 8.42889 5.76817 8.50148C5.69558 8.57407 5.57854 8.57407 5.50595 8.50148C5.4341 8.42889 5.4341 8.31185 5.50595 8.23926" stroke="var(--tw-svg-color, #0D363F)" stroke-width="1.2" stroke-linecap="round" stroke-linejoin="round"/>
<path d="M11.4319 8.23926C11.5044 8.16667 11.6215 8.16667 11.6941 8.23926C11.7667 8.31185 11.7667 8.42889 11.6941 8.50148C11.6215 8.57407 11.5044 8.57407 11.4319 8.50148C11.36 8.42889 11.36 8.31185 11.4319 8.23926" stroke="var(--tw-svg-color, #0D363F)" stroke-width="1.2" stroke-linecap="round" stroke-linejoin="round"/>
</svg>
