<svg xmlns="http://www.w3.org/2000/svg" width="24" height="24" viewBox="0 0 24 24"><path fill="#767676" d="M12 18a6.009 6.009 0 0 1 6-6 6.01 6.01 0 0 1 6 6 6.009 6.009 0 0 1-6 6 6.008 6.008 0 0 1-6-6Zm1.2 0a4.791 4.791 0 0 0 4.8 4.8 4.791 4.791 0 0 0 4.8-4.8 4.791 4.791 0 0 0-4.8-4.8 4.791 4.791 0 0 0-4.8 4.8Zm4.2 3v-2.4H15a.6.6 0 0 1-.6-.6.6.6 0 0 1 .6-.6h2.4V15a.6.6 0 0 1 .59-.607.6.6 0 0 1 .433.175.6.6 0 0 1 .176.433v2.4h2.4a.6.6 0 0 1 .6.6.6.6 0 0 1-.6.6h-2.4V21a.6.6 0 0 1-.6.6.6.6 0 0 1-.599-.6Zm-6.74-5H2V2h20v10.138a7.068 7.068 0 0 0-.8-.581v-6.8l-8.95 6.879a.413.413 0 0 1-.251.085.41.41 0 0 1-.249-.085L2.8 4.757V15.22h8.078a6.879 6.879 0 0 0-.218.778ZM2.8 3.762l9.2 7.073 9.2-7.073v-.985H2.8Z"/></svg>
