<svg width="18" height="18" viewBox="0 0 18 18" fill="none" xmlns="http://www.w3.org/2000/svg">
<path fill-rule="evenodd" clip-rule="evenodd" d="M12.3 6.78477L15.4277 4.99901C15.7054 4.84046 16.0539 4.83347 16.3387 4.98075C16.6235 5.12803 16.8 5.40651 16.8 5.70865V11.5414C16.8 11.8435 16.6235 12.122 16.3387 12.2692C16.054 12.4165 15.7054 12.4095 15.4278 12.251L12.3 10.4652"  fill="var(--tw-svg-color, #1A6D7F)"/>
<path d="M1.5 5.25C1.5 4.42157 2.17157 3.75 3 3.75H9.75C10.5784 3.75 11.25 4.42157 11.25 5.25V12C11.25 12.8284 10.5784 13.5 9.75 13.5H3C2.17157 13.5 1.5 12.8284 1.5 12V5.25Z" fill="var(--tw-svg-color, #1A6D7F)"/>
</svg>
