<svg width="40" height="40" viewBox="0 0 40 40" fill="none" xmlns="http://www.w3.org/2000/svg">
<circle opacity="var(--agent-status-opacity, 0)" cx="20" cy="20" r="20" fill="#FFBB1A"/>
<circle cx="20" cy="20" r="16" fill="#FFBB1A"/>
<path d="M26.25 30V12" stroke="white" stroke-width="2" stroke-linecap="round" stroke-linejoin="round"/>
<path d="M23 14.2C23 12.4327 24.4327 11 26.2 11C26.6418 11 27 11.3582 27 11.8V22.2C27 22.6418 26.6418 23 26.2 23C24.4327 23 23 21.5673 23 19.8V14.2Z" fill="white"/>
<path d="M19 16.5H16H13" stroke="white" stroke-width="1.5" stroke-linecap="round" stroke-linejoin="round"/>
<path d="M16.0742 30V21" stroke="white" stroke-width="2" stroke-linecap="round" stroke-linejoin="round"/>
<path d="M16 16.5V12" stroke="white" stroke-width="1.5" stroke-linecap="round" stroke-linejoin="round"/>
<path d="M19 12V18C19 19.6569 17.6569 21 16 21V21C14.3431 21 13 19.6569 13 18V12" stroke="white" stroke-width="1.5" stroke-linecap="round" stroke-linejoin="round"/>
<path d="M13 17H19V18C19 19.6569 17.6569 21 16 21C14.3431 21 13 19.6569 13 18V17Z" fill="white"/>
<circle cx="14.5" cy="15.75" r="0.75" fill="#FFBB1A"/>
<circle cx="17.5" cy="15.75" r="0.75" fill="#FFBB1A"/>
</svg>
