<svg xmlns="http://www.w3.org/2000/svg" width="25" height="25" viewBox="0 0 25 25">
  <g id="end_the_chat" data-name="end the chat" transform="translate(0.5 0.5)">
    <circle id="Oval_2_Copy_8" data-name="Oval 2 Copy 8" cx="12" cy="12" r="12" fill="#db2828" stroke="#fff" stroke-width="1"/>
    <path id="close_FILL1_wght300_GRAD200_opsz20" d="M251.939-709.85l-4.251,4.245a.934.934,0,0,1-.714.318,1.124,1.124,0,0,1-.724-.369.98.98,0,0,1-.312-.7,1.1,1.1,0,0,1,.338-.7l4.2-4.194-4.251-4.27a.987.987,0,0,1-.307-.7,1.076,1.076,0,0,1,.333-.706,1.093,1.093,0,0,1,.732-.361.989.989,0,0,1,.732.335l4.225,4.245,4.2-4.245a.993.993,0,0,1,.727-.331,1.076,1.076,0,0,1,.737.356.98.98,0,0,1,.312.7,1.1,1.1,0,0,1-.338.7l-4.225,4.27,4.225,4.219a1.011,1.011,0,0,1,.333.671.966.966,0,0,1-.307.706,1.093,1.093,0,0,1-.732.361.989.989,0,0,1-.732-.335Z" transform="translate(-239.917 723.287)" fill="#f2f2f2"/>
  </g>
</svg>
