<svg xmlns="http://www.w3.org/2000/svg" width="24" height="24" viewBox="0 0 24 24"><path d="M2 12A10.015 10.015 0 0 1 12 2a10.015 10.015 0 0 1 10 10 10.015 10.015 0 0 1-10 10A10.015 10.015 0 0 1 2 12zm1.538 0A8.45 8.45 0 0 0 12 20.461 8.45 8.45 0 0 0 20.462 12 8.451 8.451 0 0 0 12 3.539 8.451 8.451 0 0 0 3.538 12zm6.867 5.071a1.247 1.247 0 0 1 1.355-1.336 1.242 1.242 0 0 1 1.348 1.336 1.239 1.239 0 0 1-1.348 1.327 1.244 1.244 0 0 1-1.355-1.327zm.22-2.933-.014-.366a2.693 2.693 0 0 1 1.478-2.847c1.057-.662 1.378-1.075 1.378-1.875a1.4 1.4 0 0 0-1.559-1.366 1.533 1.533 0 0 0-1.616 1.555v.107H8.069v-.107c.04-2.14 1.469-3.62 3.987-3.62 2.346 0 3.9 1.367 3.9 3.354a3.223 3.223 0 0 1-1.755 2.906c-1.091.661-1.395 1.084-1.395 1.909v.349z" fill="#767676"/></svg>
