<svg xmlns="http://www.w3.org/2000/svg" viewBox="0 0 32 32">
<path class="path1" d="M13.499 0l-0.079 0.54-0.68 4.2c-0.841 0.24-1.65 0.546-2.4 0.96l-3.461-2.46-0.44-0.32-3.48 3.48 0.32 0.44 2.42 3.48c-0.418 0.753-0.734 1.556-0.981 2.399l-4.18 0.701-0.54 0.079v4.92l0.52 0.1 4.18 0.74c0.247 0.844 0.583 1.647 1.001 2.4l-2.461 3.46-0.32 0.44 0.38 0.38 3.1 3.1 0.44-0.32 3.46-2.44c0.757 0.42 1.574 0.733 2.42 0.98l0.701 4.2 0.079 0.54h4.921l0.099-0.52 0.74-4.2c0.844-0.247 1.627-0.6 2.38-1.021l3.52 2.46 0.44 0.32 3.48-3.48-0.32-0.46-2.501-3.46c0.41-0.747 0.741-1.55 0.98-2.38l4.241-0.74 0.52-0.1v-4.92l-0.54-0.079-4.201-0.68c-0.243-0.841-0.586-1.63-1-2.38l2.46-3.52 0.32-0.44-3.48-3.48-0.46 0.32-3.44 2.48c-0.753-0.417-1.556-0.733-2.401-0.98l-0.74-4.221-0.099-0.52h-4.921zM14.599 1.28h2.761l0.7 4.020 0.059 0.4 0.421 0.1c1.027 0.257 1.98 0.667 2.859 1.2l0.36 0.22 0.34-0.24 3.301-2.38 1.959 1.94-2.34 3.36-0.239 0.34 0.2 0.36c0.527 0.876 0.923 1.84 1.18 2.86l0.119 0.4 0.4 0.080 4.040 0.66v2.761l-4.040 0.7-0.421 0.080-0.099 0.4c-0.253 1.020-0.653 1.983-1.18 2.86l-0.2 0.36 0.24 0.34 2.38 3.32-1.94 1.94-3.7-2.58-0.36 0.22c-0.876 0.533-1.836 0.94-2.86 1.2l-0.4 0.1-0.079 0.4-0.7 4.020h-2.78l-0.66-4-0.059-0.42-0.42-0.1c-1.027-0.254-1.993-0.647-2.88-1.18l-0.34-0.22-0.36 0.241-3.321 2.319-1.94-1.959 2.34-3.28 0.24-0.34-0.2-0.359c-0.537-0.887-0.963-1.847-1.22-2.88l-0.099-0.4-0.4-0.080-3.98-0.7v-2.761l3.98-0.66 0.42-0.080 0.099-0.4c0.26-1.036 0.664-2.013 1.201-2.9l0.22-0.36-0.241-0.34-2.319-3.32 1.94-1.94 3.3 2.34 0.34 0.26 0.359-0.22c0.881-0.53 1.85-0.927 2.88-1.18l0.421-0.1 0.059-0.42 0.659-4zM16 10.24c-3.174 0-5.76 2.586-5.76 5.76s2.587 5.76 5.76 5.76c3.174 0 5.76-2.586 5.76-5.76s-2.587-5.76-5.76-5.76zM16 11.52c2.48 0 4.48 2 4.48 4.48s-2.001 4.48-4.48 4.48c-2.48 0-4.48-2-4.48-4.48s2-4.48 4.48-4.48z"/>
</svg>