<svg width="32" height="32" viewBox="0 0 32 32" fill="none" xmlns="http://www.w3.org/2000/svg"><path d="M16 32c8.837 0 16-7.163 16-16S24.837 0 16 0 0 7.163 0 16s7.163 16 16 16z" fill="#409DCF" fill-opacity=".8"/><path d="M12.46 9.886a2.681 2.681 0 0 0-2.618 2.742 2.682 2.682 0 0 0 2.618 2.745 2.681 2.681 0 0 0 2.616-2.745 2.681 2.681 0 0 0-2.616-2.742zm6.98 0a2.681 2.681 0 0 0-2.617 2.742 2.617 2.617 0 0 0 1.585 2.536 2.62 2.62 0 0 0 3.65-2.536 2.682 2.682 0 0 0-2.619-2.742h.001zm-6.98 7.312a8.696 8.696 0 0 0-6.108 2.497v2.987h12.216v-2.987a8.696 8.696 0 0 0-6.108-2.497zm6.98 0a8.63 8.63 0 0 0-1.003.064 8.82 8.82 0 0 1 1.399 1.176l.477.528v3.716h5.233v-2.987a8.696 8.696 0 0 0-6.107-2.497h.001z" fill="#fff"/></svg>
