<svg width="18" height="18" viewBox="0 0 18 18" fill="none" xmlns="http://www.w3.org/2000/svg">
<path fill-rule="evenodd" clip-rule="evenodd" d="M2.75758 2.47258L2.26827 1.94483C2.0993 1.76258 1.81458 1.75182 1.63233 1.92079C1.45008 2.08977 1.43932 2.37449 1.60829 2.55674L3.09989 4.16553C2.18665 4.35056 1.49919 5.15783 1.49919 6.12566V11.8757C1.49919 12.9802 2.39462 13.8757 3.49919 13.8757H9.24919C10.0432 13.8757 10.7291 13.413 11.0521 12.7425L13.439 15.3169C13.6079 15.4992 13.8927 15.5099 14.0749 15.341C14.2311 15.1962 14.2613 14.9665 14.1605 14.789L2.81915 2.55656C2.79495 2.53046 2.77443 2.50225 2.75758 2.47258ZM11.2492 10.3252V6.12566C11.2492 5.02109 10.3538 4.12566 9.24919 4.12566H5.50126L11.2492 10.3252ZM15.4269 5.37467L12.2992 7.16043V10.8409L15.427 12.6267C15.7046 12.7852 16.0532 12.7922 16.3379 12.6449C16.6227 12.4976 16.7992 12.2192 16.7992 11.917V6.08431C16.7992 5.78217 16.6227 5.50369 16.3379 5.35641C16.0531 5.20913 15.7046 5.21612 15.4269 5.37467Z" fill="var(--tw-svg-color, #1A6D7F)" />
</svg>
