<svg width="24" height="24" viewBox="0 0 24 24" fill="none" xmlns="http://www.w3.org/2000/svg">
<path d="M5.99116 12.2V16.124C5.99116 17.073 6.46616 17.958 7.25516 18.483L10.594 20.2542C11.4733 20.7206 12.5267 20.7206 13.4059 20.2541L16.7442 18.483C17.5342 17.958 18.0082 17.072 18.0082 16.124V12.2M3.52916 7.525L10.5865 3.75507C11.4698 3.28324 12.5302 3.28323 13.4135 3.75505L20.4712 7.525C21.7692 8.246 21.7692 10.112 20.4712 10.833L13.4477 14.7025C12.5464 15.199 11.4536 15.199 10.5524 14.7024L3.52916 10.833C2.23116 10.112 2.23116 8.246 3.52916 7.525Z" stroke="var(--tw-svg-color, #0D363F)" stroke-width="1.2" stroke-linecap="round" stroke-linejoin="round"/>
<path d="M21.4502 9L21.4502 13" stroke="var(--tw-svg-color, #0D363F)" stroke-width="1.2" stroke-linecap="round" stroke-linejoin="round"/>
</svg>
