<svg xmlns="http://www.w3.org/2000/svg" viewBox="0 0 42 33">
<path d="M20.5,19.2c-0.5-0.5-1.2-0.9-1.8-1.1c-0.6-0.3-1.2-0.5-1.6-0.7c-0.4-0.2-0.5-0.3-0.6-0.5c0-0.3,0-0.7,0-1
	c0,0,0.1-0.1,0.1-0.1c0.1-0.2,0.2-0.3,0.3-0.5c0.1-0.3,0.2-0.6,0.3-1c0.1-0.1,0.2-0.1,0.3-0.2c0.2-0.3,0.3-0.6,0.4-1.1l0,0
	c0.1-0.4-0.1-0.7-0.2-1c0.2-0.6,0.4-1.5,0.3-2.4c-0.1-0.6-0.2-1.2-0.6-1.7c-0.3-0.5-0.9-0.8-1.6-0.9c-0.2-0.2-0.3-0.4-0.6-0.5
	c-0.4-0.2-0.9-0.2-1.3-0.2h0c-1.8,0-3,0.8-3.6,2c-0.5,1.1-0.4,2.3-0.1,3.6c-0.2,0.3-0.3,0.6-0.2,1h0c0,0,0,0,0,0.1
	c0.1,0.6,0.4,1,0.7,1.3c0.1,0.4,0.2,0.7,0.3,1c0.1,0.2,0.2,0.4,0.3,0.5c0,0,0.1,0,0.1,0.1v1c-0.1,0.2-0.3,0.3-0.7,0.5
	c-0.4,0.2-1.1,0.4-1.7,0.7c-0.6,0.3-1.3,0.6-1.9,1.1c-0.2,0.2-0.4,0.8-0.6,1.3c-0.3,0.9,0.4,1.8,1.3,1.8h12c0.8,0,1.5-0.8,1.2-1.6
	C21,20.1,20.8,19.5,20.5,19.2z"/>
<path d="M31.3,8.3c-3.7,0-6.6,2.8-6.6,6.6c0,3.1,2.3,5.4,5.6,5.4c1.2,0,2.1-0.2,3.2-0.6l0.2-0.1l-0.3-1.5l-0.3,0.1
	c-0.6,0.3-1.5,0.5-2.3,0.5c-2.5,0-4.1-1.6-4.1-4.1c0-2.9,1.9-4.9,4.6-4.9c2.3,0,3.8,1.4,3.8,3.5c0,1.8-0.9,2.5-1.4,2.5
	c-0.1,0-0.2,0-0.2,0c-0.1-0.1-0.1-0.5,0-1l0.5-3.2l-0.2-0.1c-0.5-0.3-1.4-0.4-2.2-0.4c-2.4,0-4.2,1.8-4.2,4.1c0,1.4,0.9,2.4,2.1,2.4
	c0.8,0,1.5-0.3,2.1-0.9c0.2,0.6,0.8,0.9,1.6,0.9c2,0,3.5-1.7,3.5-4.2C36.7,10.4,34.4,8.3,31.3,8.3z M31.5,14.2
	c-0.1,0.8-0.7,1.5-1.2,1.5c-0.4,0-0.6-0.2-0.6-0.7c0-1.2,0.7-2.1,1.7-2.1c0.1,0,0.1,0,0.2,0c0,0,0,0,0,0L31.5,14.2z"/>
<path d="M39,0L2.8,0C1.3,0,0,1.3,0,2.8v27.1c0,1.6,1.3,2.8,2.8,2.8h6.4l0-2.4c0-0.1-0.1-0.2-0.2-0.3c0,0,0,0,0,0
	c-0.4-0.4-0.6-0.8-0.6-1.2c0-0.9,0.6-1.5,1.5-1.5c0.4,0,0.8,0.2,1.1,0.4c0.3,0.2,0.4,0.6,0.4,1.1c0,0.1,0,0.1,0,0.2
	c0,0.1,0,0.2-0.1,0.3c0,0.1-0.1,0.3-0.2,0.4c0,0.1-0.1,0.1-0.1,0.2c-0.1,0.1-0.1,0.1-0.2,0.2c-0.1,0.1-0.3,0.2-0.3,0.3v2.4h21l0-2.4
	c0-0.2-0.1-0.3-0.3-0.3c-0.4-0.4-0.6-0.8-0.6-1.2c0-0.9,0.6-1.5,1.5-1.5c0.9,0,1.5,0.6,1.5,1.5c0,0.5-0.2,0.9-0.6,1.2
	c-0.1,0.1-0.3,0.2-0.3,0.3v2.4H39c1.6,0,2.8-1.3,2.8-2.8V2.8C41.8,1.3,40.5,0,39,0z M39.4,29.9c0,0.2-0.2,0.4-0.4,0.4h-4
	c0.3-0.5,0.5-1,0.5-1.6c0-1.9-1.6-3.5-3.5-3.5c-1.9,0-3.5,1.6-3.5,3.5c0,0.6,0.2,1.1,0.5,1.6H12.8c0.1-0.1,0.1-0.2,0.2-0.4
	c0.2-0.4,0.3-0.8,0.3-1.2c0-1-0.4-1.8-1-2.5c-0.6-0.6-1.5-1-2.5-1c-0.6,0-1.2,0.2-1.7,0.4c-1.1,0.6-1.8,1.8-1.8,3.1
	c0,0.2,0,0.3,0,0.4c0.1,0.4,0.2,0.8,0.4,1.1h-4c-0.2,0-0.4-0.2-0.4-0.4V2.8c0-0.2,0.2-0.4,0.4-0.4H39c0.2,0,0.4,0.2,0.4,0.4V29.9z"/>
</svg>