<svg xmlns="http://www.w3.org/2000/svg" viewBox="0 0 32 32">
<path d="M12.181 15.803c-0.304 0.014-0.572 0.164-0.745 0.388l-11.221 14.194c-0.133 0.169-0.213 0.384-0.213 0.617 0 0.553 0.448 1.001 1.001 1.001 0.235 0 0.45-0.080 0.62-0.215l14.18-11.228c0.238-0.185 0.389-0.471 0.389-0.791 0-0.553-0.448-1.001-1.001-1.001-0.24 0-0.46 0.084-0.633 0.226l-7.451 5.9 5.897-7.458c0.14-0.171 0.224-0.391 0.224-0.631 0-0.553-0.448-1.001-1.001-1.001-0.016 0-0.032 0-0.048 0.002z"/>
<path d="M22.83 0.003c-0.155 0.005-0.304 0.024-0.444 0.063-0.56 0.155-1.031 0.508-1.403 0.986-0.007 0.009-0.017 0.019-0.024 0.031l-5.076 7.142c-3.26-0.672-6.779 0.186-9.306 2.712-0.181 0.181-0.295 0.433-0.295 0.708s0.114 0.527 0.295 0.708l13.066 13.063c0.181 0.181 0.428 0.295 0.705 0.295s0.527-0.114 0.708-0.295c2.556-2.555 3.411-6.129 2.691-9.424l7.132-4.858c0.014-0.011 0.028-0.019 0.038-0.028 0.482-0.359 0.84-0.822 1.007-1.378s0.077-1.296-0.406-1.785v-0.003l-7.354-7.441c-0.242-0.245-0.546-0.393-0.861-0.458-0.157-0.033-0.317-0.043-0.472-0.038zM22.868 2.038l7.094 7.174c-0.032 0.066-0.088 0.174-0.24 0.288l-7.594 5.177c-0.020 0.014-0.036 0.022-0.052 0.035l-0.021 0.017c-0.236 0.185-0.389 0.47-0.389 0.792 0 0.101 0.017 0.203 0.045 0.295 0.745 2.491 0.215 5.233-1.462 7.382l-11.455-11.455c2.117-1.652 4.81-2.187 7.281-1.486 0.082 0.023 0.173 0.035 0.271 0.035 0.336 0 0.633-0.164 0.816-0.417l5.403-7.597c0.12-0.154 0.234-0.209 0.302-0.24z"/>
</svg>