<svg width="24" height="24" viewBox="0 0 24 24" fill="none" xmlns="http://www.w3.org/2000/svg">
<path d="M21.2565 9.88873C22.2114 14.031 20.3073 18.3049 16.5891 20.3652C12.8708 22.4254 8.23758 21.7739 5.23173 18.7681C2.22588 15.7622 1.57436 11.129 3.63467 7.41071C5.69497 3.69245 9.96884 1.7884 14.1111 2.74336M19.1241 6.45817V3.2915M17.5417 4.87574H20.7083M7.49997 15.9998C7.89688 15.0892 8.79557 14.5003 9.78891 14.4998H14.211C15.2044 14.5003 16.1031 15.0892 16.5 15.9998M14.5 9.49983C14.5 10.8805 13.3807 11.9998 12 11.9998C10.6193 11.9998 9.49997 10.8805 9.49997 9.49983C9.49997 8.11911 10.6193 6.99983 12 6.99983C13.3807 6.99983 14.5 8.11911 14.5 9.49983Z" stroke="var(--tw-svg-color, #0D363F)" stroke-width="1.2" stroke-linecap="round" stroke-linejoin="round"/>
</svg>
