<svg width="20" height="20" viewBox="0 0 20 20" fill="none" xmlns="http://www.w3.org/2000/svg">
<circle cx="10" cy="10" r="8.6" fill="#667099" stroke="white" stroke-width="1.2"/>
<path fill-rule="evenodd" clip-rule="evenodd" d="M9.45536 10.5447C8.89821 9.98753 8.47821 9.36372 8.19917 8.73087C8.14012 8.59706 8.17488 8.44039 8.27821 8.33706L8.66821 7.94753C8.98774 7.62801 8.98774 7.17611 8.70869 6.89706L8.14964 6.33801C7.77774 5.96611 7.17488 5.96611 6.80298 6.33801L6.4925 6.64849C6.13964 7.00134 5.9925 7.51039 6.08774 8.01515C6.32298 9.25944 7.04583 10.6218 8.21202 11.788C9.37821 12.9542 10.7406 13.6771 11.9849 13.9123C12.4896 14.0075 12.9987 13.8604 13.3515 13.5075L13.6615 13.1975C14.0335 12.8256 14.0335 12.2228 13.6615 11.8509L13.103 11.2923C12.8239 11.0132 12.3715 11.0132 12.093 11.2923L11.663 11.7228C11.5596 11.8261 11.403 11.8609 11.2692 11.8018C10.6363 11.5223 10.0125 11.1018 9.45536 10.5447Z" fill="white"/>
</svg>
