<svg xmlns="http://www.w3.org/2000/svg" width="24" height="24" viewBox="0 0 24 24"><path fill="#767676" d="M12 18a6.009 6.009 0 0 1 6-6 6.01 6.01 0 0 1 6 6 6.009 6.009 0 0 1-6 6 6.008 6.008 0 0 1-6-6Zm1.2 0a4.791 4.791 0 0 0 4.8 4.8 4.791 4.791 0 0 0 4.8-4.8 4.791 4.791 0 0 0-4.8-4.8 4.791 4.791 0 0 0-4.8 4.8Zm-1.528 3.852a42.47 42.47 0 0 1-3.322-4.416C6.096 13.99 5 11.217 5 8.957A6.987 6.987 0 0 1 12 2a6.986 6.986 0 0 1 7 6.957 9.214 9.214 0 0 1-.409 2.57 6.394 6.394 0 0 0-.924-.019 8.524 8.524 0 0 0 .458-2.551A6.113 6.113 0 0 0 12 2.869a6.113 6.113 0 0 0-6.125 6.088c0 2.688 2.013 6.169 3.213 8A39.514 39.514 0 0 0 12 20.887l.112-.131a6.56 6.56 0 0 0 .456.815c-.152.18-.239.279-.24.28A.441.441 0 0 1 12 22a.442.442 0 0 1-.328-.148ZM17.4 21v-2.4H15a.6.6 0 0 1-.6-.6.6.6 0 0 1 .6-.6h2.4V15a.6.6 0 0 1 .59-.607.6.6 0 0 1 .433.175.6.6 0 0 1 .176.433v2.4h2.4a.6.6 0 0 1 .6.6.6.6 0 0 1-.6.6h-2.4V21a.6.6 0 0 1-.6.6.6.6 0 0 1-.599-.6Zm-8.463-8.564V9.107L8.5 8.374l3.281-1.957.219-.136.219.136L15.5 8.374l-.437.733V12.2a6.33 6.33 0 0 0-.423.235Zm2.188-3.044h1.75v2.174h1.312V8.59L12 7.29l-2.188 1.3v2.976h1.312V9.393Z"/></svg>
