<svg id="icon.phone" xmlns="http://www.w3.org/2000/svg" width="24" height="24" viewBox="0 0 24 24">
  <path id="icon" d="M6.848,4.478a.9.9,0,0,0-.29.024,2.958,2.958,0,0,0-1.382.83C3.566,6.942,2.712,9.656,8.765,15.71s8.767,5.2,10.378,3.589a2.96,2.96,0,0,0,.832-1.385.9.9,0,0,0-.418-.988l-3.574-2.094a.9.9,0,0,0-.911,0l-1.423.848a.892.892,0,0,1-1.009-.06,23.337,23.337,0,0,1-2.025-1.766,23.074,23.074,0,0,1-1.766-2.025.891.891,0,0,1-.06-1.009L9.637,9.4a.9.9,0,0,0,0-.914L7.551,4.921A.9.9,0,0,0,6.848,4.478Z" transform="translate(0 -0.475)" />
</svg>
