<svg width="24" height="24" viewBox="0 0 24 24" fill="none" xmlns="http://www.w3.org/2000/svg">
<path d="M16 2V6M8.00003 2V6M3.00003 9H21M21 5C21 10 21 15 21 20C21 20.5523 20.5523 21 20 21H4.00001C3.4478 21 3.00012 20.5524 3.00003 20.0002C2.99919 15.0001 2.99993 10.0001 3.00002 5C3.00003 4.44772 3.44775 4 4.00003 4C9.33336 4 14.6667 4 20 4C20.5523 4 21 4.44772 21 5Z" stroke="var(--tw-svg-color, #0D363F)" stroke-width="1.2" stroke-linecap="round" stroke-linejoin="round"/>
<path d="M7 13H7.01M12 13H12.01M17 13H17.01M7 17H7.01M12 17H12.01" stroke="var(--tw-svg-color, #0D363F)" stroke-width="1.7" stroke-linecap="round"/>
</svg>
