<svg xmlns="http://www.w3.org/2000/svg" width="20" height="20" viewBox="0 0 20 20"><path d="M0 0v6.154a.513.513 0 0 0 .261.451.543.543 0 0 0 .53 0 .513.513 0 0 0 .261-.451V1.026h5.263a.532.532 0 0 0 .463-.254.506.506 0 0 0 0-.517A.532.532 0 0 0 6.316 0Zm13.684 0a.513.513 0 0 0-.037 1.026h5.3v5.128a.521.521 0 0 0 .483.519h.051A.522.522 0 0 0 20 6.154V0ZM.518 13.325a.522.522 0 0 0-.518.521V20h6.316a.425.425 0 0 0 .051 0 .513.513 0 0 0-.051-1.024H1.053v-5.13a.508.508 0 0 0-.154-.371.535.535 0 0 0-.381-.15Zm18.947 0a.522.522 0 0 0-.518.521v5.128h-5.263a.532.532 0 0 0-.463.254.506.506 0 0 0 0 .517.532.532 0 0 0 .463.254H20v-6.153a.508.508 0 0 0-.154-.371.535.535 0 0 0-.381-.15Z" fill="#767676"/></svg>
