<svg xmlns="http://www.w3.org/2000/svg" width="15" height="15" viewBox="0 0 15 15">
  <path id="icon" d="M8.346,3A6.18,6.18,0,0,0,2,9a5.816,5.816,0,0,0,1.96,4.323,3.334,3.334,0,0,1-1.2,1.7h0a.3.3,0,0,0-.186.28.294.294,0,0,0,.288.3.278.278,0,0,0,.059-.007,4.5,4.5,0,0,0,2.834-1.124,6.559,6.559,0,0,0,1.129.366A5.07,5.07,0,0,1,6.615,13.2a5.6,5.6,0,0,1,5.769-5.4,6.071,6.071,0,0,1,2.249.428A6.232,6.232,0,0,0,8.346,3Zm4.038,6a4.422,4.422,0,0,0-4.615,4.2,4.422,4.422,0,0,0,4.615,4.2,5.016,5.016,0,0,0,1.722-.306,4.346,4.346,0,0,0,2.544.9.278.278,0,0,0,.061.007A.294.294,0,0,0,17,17.7a.3.3,0,0,0-.189-.281,3.476,3.476,0,0,1-1.069-1.343A4.005,4.005,0,0,0,17,13.2,4.422,4.422,0,0,0,12.385,9Z" transform="translate(-2 -3)"/>
</svg>
