<svg xmlns="http://www.w3.org/2000/svg" viewBox="0 0 33 32">
<path class="path1" d="M26.569-0c-1.186-0.001-2.068 0.302-2.068 0.302l0.31 0.933-0.875-0.44-4.189 8.382 0.218 0.436c0 0 1.15 1.901 2.794 3.738-0.047 0.445-0.247 1.123-0.776 1.961-0.583 0.924-1.443 1.967-2.457 2.981-1.896 1.896-4.349 3.575-6.535 4.552-0.576-0.419-1.153-0.993-1.659-1.701-0.305-0.427-0.587-0.846-0.917-1.215s-0.753-0.806-1.491-0.806c-0.369 0-0.578 0.074-0.894 0.164s-0.686 0.212-1.093 0.355c-0.814 0.287-1.783 0.664-2.721 1.040-1.876 0.75-3.619 1.498-3.619 1.498l-0.596 0.256v0.642c0 0.496-0.005 1.527 0.134 2.5 0.069 0.486 0.167 0.955 0.382 1.41 0.108 0.227 0.248 0.461 0.485 0.669 0.076 0.066 0.212 0.065 0.31 0.118 0.133 0.295 0.185 0.639 0.401 0.917 0.387 0.498 0.903 1.010 1.521 1.491 1.236 0.961 2.881 1.819 4.697 1.819 1.982 0 9.412-0.063 15.609-7.265 3.526-3.531 5.816-6.826 7.227-9.52 1.415-2.701 1.976-4.72 1.976-6.039 0-0.993 0.173-5.196-2.274-7.644-1.224-1.224-2.713-1.531-3.898-1.533zM26.53 1.964c0.8-0.001 1.791 0.189 2.553 0.952 1.524 1.525 1.701 5.267 1.701 6.26 0 0.667-0.435 2.617-1.75 5.129s-3.493 5.664-6.902 9.073l-0.023 0.027-0.027 0.027c-5.713 6.666-12.167 6.612-14.153 6.612-1.164 0-2.495-0.63-3.493-1.406-0.499-0.388-0.917-0.811-1.181-1.15s-0.306-0.677-0.306-0.436v-0.978h-0.688c-0.062-0.154-0.141-0.427-0.191-0.776-0.078-0.544-0.072-1.075-0.080-1.578 0.459-0.195 1.426-0.613 2.951-1.223 0.924-0.37 1.88-0.738 2.649-1.009 0.384-0.136 0.721-0.249 0.975-0.321s0.48-0.088 0.359-0.088c-0.242 0-0.166-0.067 0.031 0.153s0.472 0.609 0.787 1.051c0.631 0.883 1.432 2.022 2.717 2.664l0.394 0.195 0.405-0.16c2.671-1.068 5.46-3.113 7.652-5.305 1.096-1.096 2.040-2.229 2.729-3.321s1.158-2.136 1.158-3.207v-0.405l-0.287-0.287c-1.694-1.694-2.372-3.066-2.53-3.367l3.486-6.975c0.206-0.054 0.461-0.148 1.066-0.149z"/>
<path class="path2" d="M1.122 1.544l3.317 17.386 5.007-3.21 5.267 5.851 0.726-0.634 5.484-4.816-5.251-5.481 4.437-4.831-18.987-4.265zM3.603 4.108l12.777 2.87-3.39 3.688 5.106 5.332-3.222 2.828-5.087-5.653-3.967 2.545-2.217-11.611z"/>
</svg>