<svg width="16" height="16" viewBox="0 0 16 16" fill="none" xmlns="http://www.w3.org/2000/svg">
<path d="M3.33337 14V2.62M12.6667 9.34667V2.66667C12.6667 2.66667 12.0834 3.15133 10.3334 3.15133C8.58337 3.15133 7.41671 2 5.66671 2C3.91671 2 3.33337 2.62133 3.33337 2.62133M3.33337 9.33333C3.33337 9.33333 3.91671 8.84867 5.66671 8.84867C7.41671 8.84867 8.58337 10 10.3334 10C12.0834 10 12.6667 9.34867 12.6667 9.34867" stroke="var(--tw-svg-color, #0D363F)" stroke-width="1.2" stroke-linecap="round" stroke-linejoin="round"/>
<path d="M3.33337 2.66667L5.66671 2L8.00004 2.66667L10.3334 3L12.6667 2.66667V9.33333L9.00004 9.66667L5.66671 9L3.33337 9.33333V2.66667Z" fill="var(--tw-svg-color, #0D363F)"/>
</svg>
