<svg width="16" height="16" viewBox="0 0 16 16"
  xmlns="http://www.w3.org/2000/svg">
  <defs>
    <linearGradient id="mic-gradient" x1="0%" y1="100%" x2="0%" y2="0%">
      <stop offset="0%" stop-color="var(--success-600, #3DA975)"/>
      <stop offset="0%" stop-color="var(--tw-svg-color, #0D363F)" />
    </linearGradient>
  </defs>
  <path d="M5.68433 2.85079C5.68433 1.57849 6.71545 0.547363 7.98775 0.547363H8.01215C9.28445 0.547363 10.3156 1.57849 10.3156 2.85079V8.01062C10.3156 9.28292 9.28445 10.314 8.01215 10.314H7.98775C6.71546 10.314 5.68433 9.28292 5.68433 8.01062V2.85079Z" fill="url(#mic-gradient)"/>
  <path fill-rule="evenodd" clip-rule="evenodd" d="M3.7106 7.39844C4.04197 7.39844 4.3106 7.66707 4.3106 7.99844C4.3106 10.0148 5.92826 11.6536 7.93648 11.6877C7.95746 11.6855 7.97876 11.6844 8.00033 11.6844C8.0219 11.6844 8.04321 11.6855 8.0642 11.6877C10.0725 11.6537 11.6902 10.0148 11.6902 7.99844C11.6902 7.66707 11.9589 7.39844 12.2902 7.39844C12.6216 7.39844 12.8902 7.66707 12.8902 7.99844C12.8902 10.4958 11.0178 12.556 8.60033 12.8518V14.8616C8.60033 15.193 8.3317 15.4616 8.00033 15.4616C7.66896 15.4616 7.40033 15.193 7.40033 14.8616V12.8518C4.98293 12.5559 3.1106 10.4957 3.1106 7.99844C3.1106 7.66707 3.37922 7.39844 3.7106 7.39844Z" fill="var(--tw-svg-color, #0D363F)"/>
  </svg>
