<svg xmlns="http://www.w3.org/2000/svg" width="32" height="32" viewBox="0 0 32 32"><path fill="#707070" d="M7.333 22A1.333 1.333 0 0 1 6 20.667v-9.334a1.328 1.328 0 0 1 1.239-1.324l11.9 11.9a1.314 1.314 0 0 1-.473.091Zm1.783-12h9.551A1.333 1.333 0 0 1 20 11.333v9.334a1.3 1.3 0 0 1-.02.2Zm15.756 10.481-3.538-3.148V16H26v4a.667.667 0 0 1-.667.667.665.665 0 0 1-.461-.185ZM21.334 16v-1.333l3.559-3.167a.664.664 0 0 1 .441-.167A.667.667 0 0 1 26 12v4Z"/><path fill="none" stroke="#707070" stroke-miterlimit="10" stroke-width="2" d="m6.999 7 17 17" class="line"/></svg>
