<svg width="16" height="16" viewBox="0 0 16 16" fill="none" xmlns="http://www.w3.org/2000/svg">
<g id="Icon/mask">
<path id="Icon" fill-rule="evenodd" clip-rule="evenodd" d="M2.38175 1.71481C2.53796 1.5586 2.79122 1.5586 2.94743 1.71481L5.09022 3.8576C5.09463 3.86182 5.09896 3.86614 5.1032 3.87058L7.2391 6.00648C7.2433 6.0105 7.24743 6.01463 7.25148 6.01886L9.98243 8.74981C9.98666 8.75385 9.99078 8.75798 9.9948 8.76218L12.276 11.0434C12.2789 11.0462 12.2818 11.0491 12.2847 11.0521L14.2855 13.0529C14.4417 13.2091 14.4417 13.4623 14.2855 13.6186C14.1293 13.7748 13.876 13.7748 13.7198 13.6186L11.9554 11.8542C10.7931 12.6473 9.41561 13.0722 8.00312 13.0688C5.46159 13.1124 3.11375 11.7151 1.94027 9.46L1.9363 9.45237L1.93638 9.45233C1.48475 8.53689 1.48475 7.46343 1.93638 6.54798L1.93763 6.54545L1.93764 6.54546C2.44683 5.53145 3.21738 4.67578 4.16548 4.06423L2.38175 2.2805C2.22554 2.12429 2.22554 1.87102 2.38175 1.71481ZM4.74614 4.64489C3.85072 5.18357 3.12417 5.96591 2.65321 6.90317C2.31289 7.59396 2.31247 8.40353 2.65197 9.09461C3.68667 11.0794 5.75481 12.3087 7.99303 12.2688L8.00136 12.2687V12.2688C9.20259 12.2724 10.3754 11.9261 11.3784 11.2771L9.74836 9.64711C9.19944 10.2417 8.37616 10.5288 7.55749 10.3812C6.57056 10.2032 5.79811 9.43072 5.62011 8.4438C5.47246 7.62513 5.75963 6.80184 6.35418 6.25293L4.74614 4.64489ZM6.92057 6.81932C6.50809 7.18519 6.307 7.7451 6.40741 8.3018C6.52612 8.96 7.04128 9.47516 7.69948 9.59387C8.25619 9.69428 8.8161 9.49319 9.18196 9.08072L6.92057 6.81932ZM7.99641 2.93155C10.5382 2.88756 12.8864 4.28498 14.06 6.54031L14.064 6.54794L14.0639 6.54798C14.5156 7.46342 14.5156 8.53688 14.0639 9.45232C14.0411 9.49874 14.016 9.53865 14.0011 9.56231L14.0008 9.56272C13.9826 9.59171 13.9767 9.60114 13.972 9.61004C13.8688 9.80536 13.6268 9.88003 13.4315 9.77682C13.2361 9.6736 13.1615 9.4316 13.2647 9.23627C13.2846 9.19856 13.3068 9.1634 13.3199 9.1427C13.3213 9.14046 13.3226 9.1384 13.3238 9.13651C13.3393 9.11199 13.3437 9.10399 13.3459 9.09949L13.3465 9.09837C13.6874 8.40733 13.688 7.59721 13.3484 6.90573C12.3137 4.92089 10.2455 3.69162 8.00727 3.73148L8.00015 3.73161V3.73155C7.91719 3.73155 7.84962 3.73777 7.76634 3.74544C7.71395 3.75026 7.65534 3.75566 7.58278 3.76044C7.36234 3.77496 7.17187 3.60804 7.15735 3.3876C7.14282 3.16716 7.30975 2.97669 7.53019 2.96217C7.56169 2.96009 7.60074 2.95663 7.64435 2.95276C7.74929 2.94345 7.8806 2.9318 7.99641 2.93155Z" fill="var(--tw-svg-color, #0D363F)"/>
</g>
</svg>
