<svg width="24" height="24" viewBox="0 0 24 24" fill="none" xmlns="http://www.w3.org/2000/svg">
<path d="M5.93206 10.8895C6.23469 10.8441 6.5445 10.8206 6.85982 10.8206C10.163 10.8206 12.8607 13.4025 13.0405 16.6538C13.3876 16.6937 13.7412 16.7143 14.1 16.7143C14.6974 16.7143 15.2802 16.6555 15.844 16.5473L18.2989 17.7564C18.6866 17.9473 19.1401 17.6652 19.1404 17.233C19.1405 17.0834 19.1406 16.9361 19.1407 16.7916C19.1412 16.192 19.1417 15.6417 19.141 15.1834C21.1749 13.7995 22.5 11.605 22.5 9.11225C22.5 4.8944 18.7221 1.51025 14.1 1.51025C9.4779 1.51025 5.7 4.8944 5.7 9.11225C5.7 9.72505 5.78072 10.32 5.93206 10.8895Z" fill="var(--tw-svg-color, #0D363F)"/>
<path fill-rule="evenodd" clip-rule="evenodd" d="M6.8319 22.169C9.6753 22.169 11.9811 19.8632 11.9811 17.0198C11.9811 14.1764 9.67635 11.8706 6.8319 11.8706C3.98745 11.8706 1.6827 14.1764 1.6827 17.0198" fill="var(--tw-svg-color, #0D363F)"/>
<path fill-rule="evenodd" clip-rule="evenodd" d="M6.83715 22.1743C6.06225 22.1743 5.3283 22.0031 4.6689 21.6976L2.37493 22.1848C1.9628 22.2723 1.59664 21.9075 1.6827 21.495L2.16255 19.1954C1.8549 18.5339 1.6827 17.7968 1.6827 17.0198" fill="var(--tw-svg-color, #0D363F)"/>
</svg>
