<svg width="24" height="24" viewBox="0 0 24 24" fill="none" xmlns="http://www.w3.org/2000/svg">
<path d="M22 18.25C22 20.3211 20.5076 22 18.6667 22H5.33333C3.49238 22 2 20.3211 2 18.25V5.75C2 3.67893 3.49238 2 5.33333 2H18.6667C20.5076 2 22 3.67893 22 5.75V18.25Z" fill="var(--tw-svg-color, #0D363F)" stroke="var(--tw-svg-color, #0D363F)" stroke-width="1.66667" stroke-linecap="round" stroke-linejoin="round"/>
<path d="M14.2088 12.1197L11.3803 9.29125M7 16.9999H17.5556M10.6669 15.9205L15.7938 10.7936C16.2106 10.3768 16.4447 9.81159 16.4447 9.22221C16.4447 8.63284 16.2106 8.06761 15.7938 7.65086C14.926 6.78305 13.519 6.78305 12.6512 7.65086L7.52417 12.7778C7.09918 13.2028 6.82349 13.7541 6.73849 14.3491L6.45041 16.3657C6.42569 16.5388 6.4839 16.7134 6.60755 16.8371C6.73119 16.9607 6.90584 17.0189 7.07895 16.9942L9.09551 16.7061C9.69051 16.6211 10.2419 16.3455 10.6669 15.9205Z" stroke="var(--tw-svg-color-secondary, #fff)" stroke-linecap="round" stroke-linejoin="round"/>
</svg>
