<svg xmlns="http://www.w3.org/2000/svg" width="24" height="24" viewBox="0 0 24 24"><circle cx="12" cy="12" r="12" fill="#409DCF" fill-opacity=".8"/><path d="M17.464 5.286a.96.96 0 0 0-.964.955v.073L9.429 8.468v6.364l7.071 2.154v.073a.964.964 0 0 0 1.929 0V6.241a.96.96 0 0 0-.965-.955zM8.143 8.595l-3.985.4A1.277 1.277 0 0 0 3 10.256v2.787a1.277 1.277 0 0 0 1.158 1.266l1.562.155.74 4.292a.64.64 0 0 0 .632.53H7.5a.64.64 0 0 0 .643-.636v-3.945zm11.571 1.464v3.182l.311-.077A1.276 1.276 0 0 0 21 11.929v-.558a1.277 1.277 0 0 0-.974-1.235z" fill="#fff"/></svg>
