<svg xmlns="http://www.w3.org/2000/svg" width="16" height="17" viewBox="0 0 16 17"><defs><linearGradient id="a" x1=".032" y1=".032" x2=".97" y2=".97" gradientUnits="objectBoundingBox"><stop offset="0" stop-color="#5961c3"/><stop offset="1" stop-color="#3a41ac"/></linearGradient></defs><g opacity=".6"><path d="M16 14.495V5.431H5.146v8.613c0 1.044-.588 1.893-.7 2.955h7.925C14.374 17 16 15.878 16 14.495Z" opacity=".05"/><path d="M5.146 5.561v8.469c0 .776-.568 1.668-.548 2.375l7.782-.138c1.729 0 3.131-.935 3.131-2.088V5.561Z" opacity=".07"/><path d="M15.024 5.82H5.146v8.2c0 .519-.3 1.045-.3 1.518h7.559c1.445 0 2.616-.742 2.616-1.658V5.82Z" opacity=".09"/></g><path d="M17.082 28.8H5.454A1.467 1.467 0 0 1 4 27.323V15.48A1.467 1.467 0 0 1 5.454 14h11.628a1.467 1.467 0 0 1 1.454 1.48v11.843a1.467 1.467 0 0 1-1.454 1.477Z" fill="url(#a)" transform="translate(-4 -14)"/><path d="M10.255 3.722H4.297v1.259h2.231v6.063h1.5V4.98h2.227Z" fill="#fff"/></svg>
