<svg width="24" height="24" viewBox="0 0 24 24" fill="none" xmlns="http://www.w3.org/2000/svg">
<path d="M11 21C8.66667 21 6.33333 21 4 21C3.44772 21 3 20.5523 3 20V4C3 3.44772 3.44772 3 4 3C9.33334 3.00002 14.6667 3.00001 20 3.00001C20.5523 3.00001 21 3.44772 21 4.00001C21 6.33334 21 8.66668 21 11M7 17C7 16.8288 7 16.6615 7 16.5C7 15.3954 7.89543 14.5 9 14.5H11M19.25 17.5L17.6883 19L16.75 18.1M14.5 9.50002C14.5 10.8807 13.3807 12 12 12C10.6193 12 9.5 10.8807 9.5 9.50002C9.5 8.11931 10.6193 7.00002 12 7.00002C13.3807 7.00002 14.5 8.11931 14.5 9.50002ZM22 18C22 20.2092 20.2091 22 18 22C15.7909 22 14 20.2092 14 18C14 15.7909 15.7909 14 18 14C20.2091 14 22 15.7909 22 18Z" stroke="var(--tw-svg-color, #0D363F)" stroke-width="1.2" stroke-linecap="round" stroke-linejoin="round"/>
</svg>
