<svg width="24" height="24" viewBox="0 0 24 24" fill="none" xmlns="http://www.w3.org/2000/svg">
<path d="M19.0029 8.99859H12.5352C12.2008 8.99864 11.8884 8.83159 11.7028 8.55341L10.2963 6.44353C10.1109 6.16493 9.79853 5.99734 9.46391 5.99734H4.99705M19.0029 8.99859C19.5336 8.99845 20.0426 9.2092 20.4178 9.58446C20.7931 9.95972 21.0037 10.4687 21.0037 10.9994V19.0028C21.0037 19.5335 20.7931 20.0425 20.4178 20.4177C20.0426 20.793 19.5336 21.0036 19.0029 21.0036H4.99705C4.46635 21.0036 3.95735 20.793 3.58209 20.4177C3.20682 20.0425 2.99622 19.5335 2.99622 19.0028V7.99818C2.99622 7.46748 3.20682 6.95847 3.58209 6.58321C3.95735 6.20795 4.46635 5.99734 4.99705 5.99734M19.0029 8.99859V4.99693C19.003 4.46623 18.7923 3.95722 18.417 3.58196C18.0418 3.2067 17.5327 2.99595 17.002 2.99609H6.99788C6.46718 2.99595 5.95818 3.2067 5.58292 3.58196C5.20766 3.95722 4.9969 4.46623 4.99705 4.99693V5.99734M12 13.0003V17.0019M14.0008 15.0011H9.99913" stroke="var(--tw-svg-color, #0D363F)" stroke-width="1.2" stroke-linecap="round" stroke-linejoin="round"/>
</svg>
