<svg xmlns="http://www.w3.org/2000/svg" width="25" height="25" viewBox="0 0 25 25">
  <g id="merge_icon" data-name="merge icon" transform="translate(-3.5 -3.5)">
    <circle id="Oval_2_Copy_8" data-name="Oval 2 Copy 8" cx="12" cy="12" r="12" transform="translate(4 4)" fill="none" stroke="#fff" stroke-width="1"/>
    <path id="icons" d="M10-.844,6.456,3.07a.669.669,0,0,0,0,.885.53.53,0,0,0,.8,0l2.17-2.38V6.66A7.5,7.5,0,0,1,4.4,13.927a.641.641,0,0,0-.375.787.584.584,0,0,0,.545.443.514.514,0,0,0,.17-.029A8.723,8.723,0,0,0,10.573,6.66V1.575l2.17,2.38a.525.525,0,0,0,.8,0,.669.669,0,0,0,0-.885Zm.893,9.864a9.25,9.25,0,0,1-.571,1.76,8.918,8.918,0,0,0,4.938,4.347.514.514,0,0,0,.17.029.581.581,0,0,0,.545-.443.641.641,0,0,0-.375-.787A7.57,7.57,0,0,1,10.894,9.02Z" transform="translate(5.999 8.843)" fill="#fff"/>
  </g>
</svg>
