<svg width="20" height="20" viewBox="0 0 20 20" fill="none" xmlns="http://www.w3.org/2000/svg">
<path fill-rule="evenodd" clip-rule="evenodd" d="M1.00048 2C1.00048 1.44772 1.4482 1 2.00048 1H12.0005C12.5528 1 13.0005 1.44772 13.0005 2V12C13.0005 12.5523 12.5528 13 12.0005 13H2.00048C1.4482 13 1.00048 12.5523 1.00048 12V2Z" stroke="var(--tw-svg-color, #0D363F)" stroke-width="1.2" stroke-linecap="round" stroke-linejoin="round"/>
<path fill-rule="evenodd" clip-rule="evenodd" d="M6.99985 8.00017C6.99977 7.44782 7.44752 7 7.99987 7L17.9998 7.00005C18.5521 7.00005 18.9998 7.44777 18.9997 8.00005C18.9995 11.3332 18.9984 14.6664 18.9996 17.9995C18.9998 18.552 18.552 19 17.9995 19H7.99987C7.44751 19 6.99977 18.5522 6.99985 17.9998C7.00032 14.6666 7.00032 11.3334 6.99985 8.00017Z" stroke="var(--tw-svg-color, #0D363F)" stroke-width="1.2" stroke-linecap="round" stroke-linejoin="round"/>
</svg>