<svg width="24" height="24" viewBox="0 0 24 24" fill="none" xmlns="http://www.w3.org/2000/svg">
<path d="M21 13.067V18.972C21 20.092 20.099 21 18.987 21H5.013C3.901 21 3 20.092 3 18.972V6.028C3 4.908 3.901 4 5.013 4H12M15.83 6.17L18.83 9.17M11.546 16.242C11.56 16.136 11.578 16.031 11.578 15.921C11.578 14.54 10.459 13.421 9.078 13.421C8.968 13.421 8.863 13.44 8.757 13.453M7.828 17.172L11.559 16.239C11.735 16.195 11.895 16.104 12.024 15.976L20.414 7.586C21.195 6.805 21.195 5.539 20.414 4.758L20.242 4.586C19.461 3.805 18.195 3.805 17.414 4.586L9.024 12.976C8.896 13.104 8.805 13.265 8.761 13.441L7.828 17.172Z" stroke="var(--tw-svg-color, #0D363F)" stroke-width="1.2" stroke-linecap="round" stroke-linejoin="round"/>
</svg>
