<svg xmlns="http://www.w3.org/2000/svg" width="24" height="24" viewBox="0 0 24 24">
  <path d="m12 8.9 4.209 4.209-.793.765L12 10.459l-3.417 3.417-.793-.765ZM12 2a9.746 9.746 0 0 0-3.9.787 10.1 10.1 0 0 0-3.177 2.137 10.094 10.094 0 0 0-2.139 3.174A9.726 9.726 0 0 0 2 12a9.747 9.747 0 0 0 .787 3.9 10.1 10.1 0 0 0 2.137 3.177 10.1 10.1 0 0 0 3.174 2.139A9.727 9.727 0 0 0 12 22a9.746 9.746 0 0 0 3.9-.787 10.106 10.106 0 0 0 3.177-2.137 10.094 10.094 0 0 0 2.139-3.174A9.726 9.726 0 0 0 22 12a9.746 9.746 0 0 0-.787-3.9 10.105 10.105 0 0 0-2.137-3.177 10.1 10.1 0 0 0-3.174-2.139A9.727 9.727 0 0 0 12 2Zm0 1.111a8.579 8.579 0 0 1 6.306 2.583A8.579 8.579 0 0 1 20.889 12a8.579 8.579 0 0 1-2.583 6.306A8.579 8.579 0 0 1 12 20.889a8.579 8.579 0 0 1-6.306-2.583A8.579 8.579 0 0 1 3.111 12a8.579 8.579 0 0 1 2.583-6.306A8.579 8.579 0 0 1 12 3.111ZM12 12Z" fill="#767676"/>
</svg>
