<svg width="4" height="14" viewBox="0 0 4 14" fill="none" xmlns="http://www.w3.org/2000/svg">
<path d="M2.00029 7.74775C2.41451 7.74775 2.75029 7.41197 2.75029 6.99775C2.75029 6.58354 2.41451 6.24775 2.00029 6.24775C1.58608 6.24775 1.25029 6.58354 1.25029 6.99775C1.25029 7.41197 1.58608 7.74775 2.00029 7.74775Z"  fill="var(--tw-svg-color, #1A6D7F)" />
<path d="M2.00029 2.50244C2.41451 2.50244 2.75029 2.16666 2.75029 1.75244C2.75029 1.33823 2.41451 1.00244 2.00029 1.00244C1.58608 1.00244 1.25029 1.33823 1.25029 1.75244C1.25029 2.16666 1.58608 2.50244 2.00029 2.50244Z" fill="var(--tw-svg-color, #1A6D7F)"/>
<path d="M2 13.0001C2.41421 13.0001 2.75 12.6643 2.75 12.2501C2.75 11.8359 2.41421 11.5001 2 11.5001C1.58579 11.5001 1.25 11.8359 1.25 12.2501C1.25 12.6643 1.58579 13.0001 2 13.0001Z" fill="var(--tw-svg-color, #1A6D7F)"/>
<path d="M2.00029 7.74775C2.41451 7.74775 2.75029 7.41197 2.75029 6.99775C2.75029 6.58354 2.41451 6.24775 2.00029 6.24775C1.58608 6.24775 1.25029 6.58354 1.25029 6.99775C1.25029 7.41197 1.58608 7.74775 2.00029 7.74775Z"  stroke="var(--tw-svg-color, #1A6D7F)" stroke-linecap="round" stroke-linejoin="round"/>
<path d="M2.00029 2.50244C2.41451 2.50244 2.75029 2.16666 2.75029 1.75244C2.75029 1.33823 2.41451 1.00244 2.00029 1.00244C1.58608 1.00244 1.25029 1.33823 1.25029 1.75244C1.25029 2.16666 1.58608 2.50244 2.00029 2.50244Z"  stroke="var(--tw-svg-color, #1A6D7F)" stroke-linecap="round" stroke-linejoin="round"/>
<path d="M2 13.0001C2.41421 13.0001 2.75 12.6643 2.75 12.2501C2.75 11.8359 2.41421 11.5001 2 11.5001C1.58579 11.5001 1.25 11.8359 1.25 12.2501C1.25 12.6643 1.58579 13.0001 2 13.0001Z"  stroke="var(--tw-svg-color, #1A6D7F)" stroke-linecap="round" stroke-linejoin="round"/>
</svg>
