<svg width="24" height="24" viewBox="0 0 24 24" fill="none" xmlns="http://www.w3.org/2000/svg">
<path fill-rule="evenodd" clip-rule="evenodd" d="M20.7211 16.8844C21.5322 15.44 22 13.7756 22 12C22 6.47667 17.5233 2 12 2C6.47667 2 2 6.47667 2 12C2 17.5233 6.47667 22 12 22C13.7756 22 15.44 21.5322 16.8844 20.7211L21.1017 21.7754C21.5086 21.8772 21.8772 21.5086 21.7754 21.1017L20.7211 16.8844Z" fill="var(--tw-svg-color, #0D363F)" stroke="var(--tw-svg-color, #0D363F)" stroke-width="1.33333" stroke-linecap="round" stroke-linejoin="round"/>
<path d="M11.8035 12.3589C11.9124 12.25 12.088 12.25 12.1969 12.3589C12.3058 12.4678 12.3058 12.6433 12.1969 12.7522C12.088 12.8611 11.9124 12.8611 11.8035 12.7522C11.6958 12.6433 11.6958 12.4678 11.8035 12.3589" stroke="var(--tw-svg-color-secondary, #fff)" stroke-width="1.8" stroke-linecap="round" stroke-linejoin="round"/>
<path d="M7.35896 12.3589C7.46785 12.25 7.6434 12.25 7.75229 12.3589C7.86118 12.4678 7.86118 12.6433 7.75229 12.7522C7.6434 12.8611 7.46785 12.8611 7.35896 12.7522C7.25118 12.6433 7.25118 12.4678 7.35896 12.3589" stroke="var(--tw-svg-color-secondary, #fff)" stroke-width="1.8" stroke-linecap="round" stroke-linejoin="round"/>
<path d="M16.2479 12.3589C16.3568 12.25 16.5323 12.25 16.6412 12.3589C16.7501 12.4678 16.7501 12.6433 16.6412 12.7522C16.5323 12.8611 16.3568 12.8611 16.2479 12.7522C16.1401 12.6433 16.1401 12.4678 16.2479 12.3589" stroke="var(--tw-svg-color-secondary, #fff)" stroke-width="1.8" stroke-linecap="round" stroke-linejoin="round"/>
</svg>
