<svg width="24" height="24" viewBox="0 0 24 24" fill="none" xmlns="http://www.w3.org/2000/svg">
<path fill-rule="evenodd" clip-rule="evenodd" d="M12 17.0019C12.1588 17.0018 12.2931 16.8842 12.3141 16.7268L12.4622 15.6204C12.6815 13.9754 13.9756 12.6814 15.6205 12.462L16.7269 12.314C16.8844 12.2929 17.0019 12.1587 17.002 11.9998C17.0019 11.841 16.8844 11.7068 16.7269 11.6857L15.6205 11.5377C13.9756 11.3183 12.6815 10.0242 12.4622 8.37934L12.3141 7.27288C12.2931 7.11545 12.1588 6.99786 12 6.99776C11.8411 6.99786 11.7069 7.11545 11.6858 7.27288L11.5378 8.37934C11.3184 10.0242 10.0244 11.3183 8.37946 11.5377L7.273 11.6857C7.11557 11.7068 6.99799 11.841 6.99788 11.9998C6.99799 12.1587 7.11557 12.2929 7.273 12.314L8.37946 12.462C10.0244 12.6814 11.3184 13.9754 11.5378 15.6204L11.6858 16.7268C11.7069 16.8842 11.8411 17.0018 12 17.0019Z" stroke="var(--tw-svg-color, #0D363F)" stroke-width="1.2" stroke-linecap="round" stroke-linejoin="round"/>
<path d="M2.99622 7.99609C2.99622 5.23467 5.23479 2.99609 7.99622 2.99609H16.0037C18.7651 2.99609 21.0037 5.23467 21.0037 7.99609V16.0036C21.0037 18.765 18.7651 21.0036 16.0037 21.0036H7.99621C5.23479 21.0036 2.99622 18.765 2.99622 16.0036V7.99609Z" stroke="var(--tw-svg-color, #0D363F)" stroke-width="1.2" stroke-linecap="round" stroke-linejoin="round"/>
</svg>
