<svg xmlns="http://www.w3.org/2000/svg" width="24" height="24" viewBox="0 0 24 24"><path d="M12 20a.617.617 0 0 1-.616-.616v-.105a.6.6 0 0 0-.5-.6 7.126 7.126 0 0 1-.418-.082.574.574 0 0 0-.126-.014.618.618 0 0 0-.56.382l-.039.1a.616.616 0 0 1-1.138-.473l.042-.1a.608.608 0 0 0-.229-.747 6.24 6.24 0 0 1-.354-.237.574.574 0 0 0-.332-.108.628.628 0 0 0-.44.184l-.075.073a.615.615 0 0 1-.871-.869l.077-.075a.607.607 0 0 0 .075-.776 6.857 6.857 0 0 1-.235-.355.592.592 0 0 0-.507-.274.622.622 0 0 0-.24.048l-.1.04a.615.615 0 1 1-.47-1.136l.095-.041a.6.6 0 0 0 .361-.687 6.514 6.514 0 0 1-.079-.418.61.61 0 0 0-.6-.5h-.105a.616.616 0 0 1 0-1.232h.105a.606.606 0 0 0 .6-.5c.021-.129.048-.266.081-.418a.6.6 0 0 0-.366-.686l-.1-.039a.615.615 0 0 1 .471-1.137l.1.041a.622.622 0 0 0 .24.048.59.59 0 0 0 .508-.275c.075-.121.154-.24.236-.354a.6.6 0 0 0-.076-.778l-.075-.073a.616.616 0 0 1 .871-.871l.073.075a.628.628 0 0 0 .44.183.579.579 0 0 0 .338-.107c.113-.082.232-.162.354-.236a.6.6 0 0 0 .226-.746l-.04-.1a.615.615 0 1 1 1.139-.466l.041.095a.615.615 0 0 0 .557.381.572.572 0 0 0 .129-.019c.16-.035.293-.06.418-.079a.61.61 0 0 0 .5-.6v-.105a.616.616 0 0 1 1.232 0v.105a.606.606 0 0 0 .5.6c.128.021.264.047.418.081a.572.572 0 0 0 .129.015.616.616 0 0 0 .558-.381l.041-.1a.615.615 0 0 1 1.137.471l-.041.1a.609.609 0 0 0 .227.747c.114.071.234.15.355.236a.575.575 0 0 0 .337.107.629.629 0 0 0 .441-.184l.073-.076a.616.616 0 1 1 .871.871l-.076.075a.607.607 0 0 0-.075.776c.076.107.153.223.235.355a.592.592 0 0 0 .507.274.622.622 0 0 0 .24-.048l.1-.04a.615.615 0 1 1 .47 1.136l-.095.041a.6.6 0 0 0-.366.686c.035.16.06.293.079.418a.61.61 0 0 0 .6.5h.105a.616.616 0 0 1 0 1.232h-.105a.6.6 0 0 0-.6.5 7.126 7.126 0 0 1-.082.418.6.6 0 0 0 .367.686l.1.039a.616.616 0 0 1-.473 1.138l-.1-.042a.618.618 0 0 0-.238-.047.592.592 0 0 0-.509.276 6.26 6.26 0 0 1-.237.355.6.6 0 0 0 .077.776l.073.075a.615.615 0 1 1-.869.871l-.075-.076a.622.622 0 0 0-.437-.183.577.577 0 0 0-.339.108 6.857 6.857 0 0 1-.355.235.61.61 0 0 0-.226.747l.04.1a.615.615 0 1 1-1.136.47l-.041-.095a.615.615 0 0 0-.557-.381.572.572 0 0 0-.129.015c-.16.035-.293.06-.418.079a.61.61 0 0 0-.5.6v.105A.617.617 0 0 1 12 20Zm0-6.77-1.909 3.309a4.924 4.924 0 0 0 6.79-3.923h-3.816A1.234 1.234 0 0 1 12 13.23ZM9.028 8.082a4.912 4.912 0 0 0 0 7.835l1.909-3.3A1.221 1.221 0 0 1 10.77 12a1.235 1.235 0 0 1 .166-.616l-1.908-3.3ZM12 7.078a4.9 4.9 0 0 0-1.909.383L12 10.77a1.233 1.233 0 0 1 1.066.614h3.816A4.924 4.924 0 0 0 12 7.078Z" fill="#767676"/></svg>
