<svg width="24" height="24" viewBox="0 0 24 24" fill="none" xmlns="http://www.w3.org/2000/svg">
<path fill-rule="evenodd" clip-rule="evenodd" d="M12.8 4C12.8 4.44183 12.4419 4.8 12 4.8C11.5582 4.8 11.2 4.44183 11.2 4C11.2 3.55817 11.5582 3.2 12 3.2C12.4419 3.2 12.8 3.55817 12.8 4ZM12.5 5.93699C13.3626 5.71497 14 4.93192 14 4C14 2.89543 13.1046 2 12 2C10.8955 2 10 2.89543 10 4C10 4.93192 10.6374 5.71497 11.5 5.93699V6.2V7H5.00002C3.89545 7 3.00002 7.89543 3.00002 9V10.4H2.00002C1.11637 10.4 0.400024 11.1163 0.400024 12V16C0.400024 16.8837 1.11637 17.6 2.00002 17.6H3.00002V19C3.00002 20.1046 3.89545 21 5.00002 21H19C20.1046 21 21 20.1046 21 19V17.6H22C22.8837 17.6 23.6 16.8837 23.6 16V12C23.6 11.1163 22.8837 10.4 22 10.4H21V9C21 7.89543 20.1046 7 19 7H12.5V6.2V5.93699ZM19.8 9C19.8 8.55817 19.4419 8.2 19 8.2H5.00002C4.5582 8.2 4.20002 8.55817 4.20002 9V19C4.20002 19.4418 4.5582 19.8 5.00002 19.8H19C19.4419 19.8 19.8 19.4418 19.8 19V9ZM21 11.6V16.4H22C22.2209 16.4 22.4 16.2209 22.4 16V12C22.4 11.7791 22.2209 11.6 22 11.6H21ZM2.00002 11.6H3.00002V16.4H2.00002C1.77911 16.4 1.60002 16.2209 1.60002 16V12C1.60002 11.7791 1.77911 11.6 2.00002 11.6ZM9.00002 13.8C9.44185 13.8 9.80002 13.4418 9.80002 13C9.80002 12.5582 9.44185 12.2 9.00002 12.2C8.5582 12.2 8.20002 12.5582 8.20002 13C8.20002 13.4418 8.5582 13.8 9.00002 13.8ZM9.00002 15C10.1046 15 11 14.1046 11 13C11 11.8954 10.1046 11 9.00002 11C7.89545 11 7.00002 11.8954 7.00002 13C7.00002 14.1046 7.89545 15 9.00002 15ZM15 13.8C15.4419 13.8 15.8 13.4418 15.8 13C15.8 12.5582 15.4419 12.2 15 12.2C14.5582 12.2 14.2 12.5582 14.2 13C14.2 13.4418 14.5582 13.8 15 13.8ZM15 15C16.1046 15 17 14.1046 17 13C17 11.8954 16.1046 11 15 11C13.8955 11 13 11.8954 13 13C13 14.1046 13.8955 15 15 15Z" fill="var(--tw-svg-color, #0D363F)"/>
</svg>
