<svg width="17" height="16" viewBox="0 0 17 16" fill="none" xmlns="http://www.w3.org/2000/svg">
<path d="M2.13342 3.80263C2.13342 2.43897 3.23889 1.3335 4.60256 1.3335H12.9976C14.3613 1.3335 15.4668 2.43897 15.4668 3.80263V12.1977C15.4668 13.5614 14.3613 14.6668 12.9976 14.6668H4.60256C3.23889 14.6668 2.13342 13.5614 2.13342 12.1977V3.80263Z" fill="var(--tw-svg-color, #0D363F)"/>
<path fill-rule="evenodd" clip-rule="evenodd" d="M5.02231 5.40771C5.02231 5.16226 5.2213 4.96327 5.46676 4.96327H12.1334C12.3789 4.96327 12.5779 5.16226 12.5779 5.40771C12.5779 5.65317 12.3789 5.85216 12.1334 5.85216H5.46676C5.2213 5.85216 5.02231 5.65317 5.02231 5.40771ZM5.02231 8.00031C5.02231 7.75485 5.2213 7.55586 5.46676 7.55586H12.1334C12.3789 7.55586 12.5779 7.75485 12.5779 8.00031C12.5779 8.24577 12.3789 8.44475 12.1334 8.44475H5.46676C5.2213 8.44475 5.02231 8.24577 5.02231 8.00031ZM5.02231 10.5929C5.02231 10.3474 5.2213 10.1485 5.46676 10.1485H12.1334C12.3789 10.1485 12.5779 10.3474 12.5779 10.5929C12.5779 10.8384 12.3789 11.0373 12.1334 11.0373H5.46676C5.2213 11.0373 5.02231 10.8384 5.02231 10.5929Z" fill="var(--tw-svg-color-secondary, #fff)"/>
</svg>
