<svg xmlns="http://www.w3.org/2000/svg" width="25" height="25" viewBox="0 0 25 25">
  <g id="resume_icon" data-name="resume icon" transform="translate(-3.5 -3.5)">
    <circle id="Oval_2_Copy_8" data-name="Oval 2 Copy 8" cx="12" cy="12" r="12" transform="translate(4 4)" fill="rgba(33,133,208,0)" stroke="#fff" stroke-width="1"/>
    <path id="resume_FILL1_wght300_GRAD200_opsz20" d="M226.617-721.085v-8.442a.764.764,0,0,1,.221-.55.71.71,0,0,1,.53-.229.722.722,0,0,1,.533.229.758.758,0,0,1,.225.55v8.442a.764.764,0,0,1-.221.55.71.71,0,0,1-.53.229.722.722,0,0,1-.533-.229A.758.758,0,0,1,226.617-721.085Zm4.362-.071a.771.771,0,0,1-.87.016.853.853,0,0,1-.443-.786v-6.761a.853.853,0,0,1,.443-.786.771.771,0,0,1,.87.016l5.237,3.373a.892.892,0,0,1,.4.778.891.891,0,0,1-.4.777Z" transform="translate(-214.617 741.305)" fill="#fff"/>
  </g>
</svg>
