<svg width="16" height="16" viewBox="0 0 16 16" fill="none" xmlns="http://www.w3.org/2000/svg">
<path fill-rule="evenodd" clip-rule="evenodd" d="M9.14384 0.933725H4.10828C3.09084 0.933725 2.2666 1.75796 2.2666 2.7754V12.8671C2.2666 13.8846 3.09084 14.7088 4.10828 14.7088H7.81915C8.04007 14.7088 8.21916 14.5297 8.21916 14.3088C8.21916 14.0879 8.04007 13.9088 7.81915 13.9088H4.10828C3.53267 13.9088 3.0666 13.4427 3.0666 12.8671V2.7754C3.0666 2.19979 3.53266 1.73373 4.10828 1.73373H8.7542V4.21694C8.7542 4.83576 9.25623 5.33778 9.87504 5.33778H12.3583V7.54123C12.3583 7.76214 12.5374 7.94123 12.7583 7.94123C12.9792 7.94123 13.1583 7.76214 13.1583 7.54123V4.94523C13.1584 4.94275 13.1584 4.94027 13.1584 4.93778C13.1584 4.93529 13.1584 4.93281 13.1583 4.93033V4.81393C13.1583 4.32568 12.964 3.85706 12.6188 3.51182L10.5802 1.47329C10.235 1.12805 9.76637 0.933725 9.27812 0.933725H9.16457C9.16112 0.933638 9.15767 0.933594 9.1542 0.933594C9.15074 0.933594 9.14728 0.933638 9.14384 0.933725ZM12.321 4.53778C12.2734 4.36533 12.1818 4.20626 12.0531 4.07751L10.0145 2.03898C9.88577 1.91021 9.72668 1.81859 9.5542 1.77108V4.21694C9.5542 4.39393 9.69805 4.53778 9.87504 4.53778H12.321ZM4.42914 7.1006C4.42914 6.87969 4.60822 6.7006 4.82914 6.7006H9.15416C9.37507 6.7006 9.55416 6.87969 9.55416 7.1006C9.55416 7.32152 9.37507 7.5006 9.15416 7.5006H4.82914C4.60822 7.5006 4.42914 7.32152 4.42914 7.1006ZM4.42914 9.26195C4.42914 9.04103 4.60822 8.86195 4.82914 8.86195H9.15416C9.37507 8.86195 9.55416 9.04103 9.55416 9.26195C9.55416 9.48286 9.37507 9.66195 9.15416 9.66195H4.82914C4.60822 9.66195 4.42914 9.48286 4.42914 9.26195ZM12.7584 10.6647C12.9793 10.6647 13.1584 10.8437 13.1584 11.0647V13.415L13.8417 12.8045C14.0064 12.6573 14.2593 12.6715 14.4065 12.8362C14.5537 13.001 14.5395 13.2538 14.3747 13.401L13.0249 14.6071C12.8731 14.7427 12.6436 14.7427 12.4919 14.6071L11.1419 13.401C10.9772 13.2538 10.9629 13.001 11.1101 12.8362C11.2573 12.6715 11.5102 12.6573 11.6749 12.8044L12.3584 13.415V11.0647C12.3584 10.8437 12.5374 10.6647 12.7584 10.6647ZM4.42914 11.425C4.42914 11.2041 4.60822 11.025 4.82914 11.025H7.95036C8.17128 11.025 8.35036 11.2041 8.35036 11.425C8.35036 11.6459 8.17128 11.825 7.95036 11.825H4.82914C4.60822 11.825 4.42914 11.6459 4.42914 11.425Z" fill="var(--tw-svg-color, #0D363F)"/>
</svg>
