<svg xmlns="http://www.w3.org/2000/svg" width="24" height="24" viewBox="0 0 24 24"><path fill="#707070" d="M6 16.001a6.009 6.009 0 0 1 6-6 6.008 6.008 0 0 1 6 6 6.009 6.009 0 0 1-6 6 6.009 6.009 0 0 1-6-6Zm1 0a5.007 5.007 0 0 0 5 5 5.007 5.007 0 0 0 5-5 5.006 5.006 0 0 0-5-5 5.006 5.006 0 0 0-5 5Zm4.5 3.5v-3h-3a.5.5 0 0 1-.5-.5.5.5 0 0 1 .5-.5h3v-3a.5.5 0 0 1 .5-.5.5.5 0 0 1 .5.5v3h3a.5.5 0 0 1 .5.5.5.5 0 0 1-.5.5h-3v3a.5.5 0 0 1-.5.5.5.5 0 0 1-.5-.5Zm8.936-9.754a6.6 6.6 0 0 1-.655-.155c-.327-.083-.7-.182-1.044-.277-.554-.149-1.509-.4-1.676-.44a1.394 1.394 0 0 1-.981-1.086c-.08-.25-.224-.759-.437-1.553l-.021-.009a2.788 2.788 0 0 0-.661-.217 12.665 12.665 0 0 0-2.922-.3h-.08a12.653 12.653 0 0 0-2.922.3 2.876 2.876 0 0 0-.657.214l-.024.012-.009.03c-.2.741-.345 1.268-.426 1.523a1.39 1.39 0 0 1-.981 1.086c-.125.03-.727.19-1.307.345l-.368.1h-.007l-.071.018c-.342.089-.687.182-.967.253l-.065.018-.1.027a4.9 4.9 0 0 1-.484.113 1.093 1.093 0 0 1-.164.012 1.328 1.328 0 0 1-1.226-1.2 10.108 10.108 0 0 1-.164-1.285 2.61 2.61 0 0 1 .241-1.5 3.626 3.626 0 0 1 1.057-1.038C4.892 3.587 7.815 3 12.003 3s7.111.583 8.694 1.735a3.632 3.632 0 0 1 1.056 1.041 2.569 2.569 0 0 1 .238 1.5 10.149 10.149 0 0 1-.161 1.282 1.331 1.331 0 0 1-1.226 1.2 1 1 0 0 1-.167-.013Zm-5.258-4.612a5.28 5.28 0 0 1 1.056.363l.173.092.051.185.009.033c.14.518.387 1.428.479 1.711a.992.992 0 0 0 .312.476c.179.039.59.152 1.063.28l.021.006c.2.054.416.113.634.17l.425.113c.221.06.429.113.61.161.294.074.551.134.568.137 0 0 .006-.006.015-.009a.568.568 0 0 0 .336-.446 9.413 9.413 0 0 0 .152-1.172 2.456 2.456 0 0 0-.116-1l-.006-.006v-.006a3.506 3.506 0 0 0-.8-.756c-1.416-1.033-4.159-1.559-8.155-1.559s-6.74.527-8.15 1.559a3.455 3.455 0 0 0-.8.756v.009l-.006.006a2.418 2.418 0 0 0-.115 1 9.82 9.82 0 0 0 .148 1.169.565.565 0 0 0 .339.446h.006c.009 0 .013 0 .013.006s.268-.062.564-.137c.119-.03.25-.065.391-.1l.223-.06.423-.113.351-.1c.616-.164 1.148-.309 1.366-.357a.991.991 0 0 0 .313-.476c.089-.283.339-1.193.479-1.711l.009-.033.048-.187.173-.092a5.281 5.281 0 0 1 1.057-.36 13.385 13.385 0 0 1 3.178-.333 13.791 13.791 0 0 1 3.164.333Z"/></svg>
