<svg width="16" height="16" viewBox="0 0 16 16" fill="none" xmlns="http://www.w3.org/2000/svg">
<path fill-rule="evenodd" clip-rule="evenodd" d="M10.2739 2.68248L12.9843 5.39294C13.2367 5.64534 13.3626 5.9976 13.3275 6.3528C13.2923 6.708 13.0997 7.02872 12.8027 7.22672C11.2809 8.24128 10.1919 9.78664 9.74825 11.561L9.5014 12.5485C9.44934 12.7567 9.28932 12.9208 9.08249 12.9781C8.87565 13.0354 8.654 12.977 8.50223 12.8252L2.84157 7.16456C2.68981 7.01279 2.63141 6.79113 2.6887 6.5843C2.746 6.37747 2.91011 6.21744 3.11833 6.16539L4.10573 5.91853C5.88014 5.47493 7.4255 4.38588 8.44006 2.86406C8.63806 2.56706 8.95879 2.37447 9.314 2.3393C9.66921 2.30413 10.0215 2.43008 10.2739 2.68248Z" fill="var(--tw-svg-color, #0D363F)"/>
<path fill-rule="evenodd" clip-rule="evenodd" d="M2.66663 13.0001L5.67185 9.99484L2.66663 13.0001Z" fill="var(--tw-svg-color, #0D363F)"/>
<path d="M2.66663 13.0001L5.67185 9.99484M10.2739 2.68248L12.9843 5.39294C13.2367 5.64534 13.3626 5.9976 13.3275 6.3528C13.2923 6.708 13.0997 7.02872 12.8027 7.22672C11.2809 8.24128 10.1919 9.78664 9.74825 11.561L9.5014 12.5485C9.44934 12.7567 9.28932 12.9208 9.08249 12.9781C8.87565 13.0354 8.654 12.977 8.50223 12.8252L2.84157 7.16456C2.68981 7.01279 2.63141 6.79113 2.6887 6.5843C2.746 6.37747 2.91011 6.21744 3.11833 6.16539L4.10573 5.91853C5.88014 5.47493 7.4255 4.38588 8.44006 2.86406C8.63806 2.56706 8.95879 2.37447 9.314 2.3393C9.66921 2.30413 10.0215 2.43008 10.2739 2.68248Z" stroke="var(--tw-svg-color, #0D363F)" stroke-linecap="round" stroke-linejoin="round"/>
</svg>
