<svg xmlns="http://www.w3.org/2000/svg" width="24" height="24" viewBox="0 0 24 24"><path d="M12 18a6.009 6.009 0 0 1 6-6 6.01 6.01 0 0 1 6 6 6.009 6.009 0 0 1-6 6 6.008 6.008 0 0 1-6-6Zm1.2 0a4.791 4.791 0 0 0 4.8 4.8 4.791 4.791 0 0 0 4.8-4.8 4.791 4.791 0 0 0-4.8-4.8 4.791 4.791 0 0 0-4.8 4.8Zm4.2 3v-2.4H15a.6.6 0 0 1-.6-.6.6.6 0 0 1 .6-.6h2.4V15a.6.6 0 0 1 .59-.608.6.6 0 0 1 .433.176.6.6 0 0 1 .176.433v2.4h2.4a.6.6 0 0 1 .6.6.6.6 0 0 1-.6.6h-2.4V21a.6.6 0 0 1-.6.6.6.6 0 0 1-.599-.6Zm-6.728-1H3.5A1.376 1.376 0 0 1 2 18.8V5.2A1.376 1.376 0 0 1 3.5 4h17A1.377 1.377 0 0 1 22 5.2v6.9a7.1 7.1 0 0 0-1-.846V5.2a.453.453 0 0 0-.5-.4h-17a.453.453 0 0 0-.5.4v13.6a.453.453 0 0 0 .5.4h6.853a6.909 6.909 0 0 0 .32.8Zm-.671-2.8h-5v-.8h5.026c-.016.2-.025.4-.025.6v.2Zm.35-2.4H5V14h5.674a6.92 6.92 0 0 0-.32.8ZM5 12.4v-.8h7.547a7.039 7.039 0 0 0-.823.8Zm8.5-2.4H5v-.8h8.5v.8ZM18 7.6H5v-.8h13v.8Z" fill="#767676"/></svg>
