<svg xmlns="http://www.w3.org/2000/svg" viewBox="0 0 33 32">
<path class="path1" d="M7.936 32c1.98 0 9.404-0.061 15.597-7.258 3.525-3.53 5.816-6.824 7.226-9.518 1.414-2.7 1.972-4.718 1.972-6.041 0-0.992 0.177-5.194-2.274-7.647s-5.977-1.231-5.977-1.231l0.314 0.942-0.888-0.444-4.188 8.38 0.221 0.444c0 0 1.002 1.835 2.778 3.757-0.053 0.443-0.245 1.096-0.763 1.919-0.581 0.922-1.437 1.961-2.449 2.973-1.883 1.883-4.304 3.602-6.477 4.581-0.584-0.414-1.167-1.007-1.681-1.728-0.305-0.427-0.59-0.845-0.921-1.215s-0.753-0.812-1.498-0.812c-0.372 0-0.582 0.076-0.899 0.166s-0.684 0.212-1.090 0.356c-0.813 0.287-1.783 0.662-2.72 1.037-1.874 0.75-3.617 1.498-3.617 1.498l-0.602 0.258v0.656c0 0.496-0.004 1.523 0.134 2.496 0.070 0.486 0.163 0.959 0.379 1.416 0.108 0.229 0.249 0.462 0.488 0.672 0.036 0.032 0.107 0.028 0.149 0.057 0.131 0.35 0.317 0.66 0.563 0.975 0.388 0.499 0.904 1.011 1.522 1.492 1.236 0.962 2.882 1.821 4.701 1.821zM7.936 30.013c-1.157 0-2.486-0.629-3.481-1.404-0.498-0.387-0.911-0.805-1.174-1.143s-0.302-0.677-0.302-0.428v-0.994h-0.692c-0.061-0.154-0.138-0.417-0.187-0.759-0.077-0.539-0.072-1.063-0.081-1.565 0.463-0.197 1.42-0.608 2.938-1.215 0.923-0.369 1.875-0.739 2.642-1.010 0.384-0.136 0.722-0.245 0.975-0.318s0.478-0.090 0.354-0.090c-0.249 0-0.178-0.069 0.018 0.15s0.47 0.605 0.785 1.046c0.63 0.883 1.431 2.023 2.72 2.666l0.398 0.199 0.414-0.166c2.67-1.068 5.458-3.112 7.648-5.303 1.095-1.095 2.037-2.226 2.726-3.319s1.16-2.135 1.16-3.21v-0.413l-0.291-0.291c-1.541-1.542-2.281-2.822-2.547-3.307l3.5-7.001c0.484-0.125 2.266-0.528 3.593 0.8 1.515 1.516 1.692 5.25 1.692 6.242 0 0.661-0.433 2.612-1.746 5.12s-3.484 5.652-6.888 9.057l-0.027 0.027-0.025 0.030c-5.702 6.654-12.14 6.597-14.123 6.597z"/>
</svg>