<svg xmlns="http://www.w3.org/2000/svg" width="24" height="24" viewBox="0 0 24 24"><path d="M4.845 22a1.774 1.774 0 0 1-1.317-.544A1.875 1.875 0 0 1 3 20.1V6.7h1.146v13.4a.709.709 0 0 0 .218.5.672.672 0 0 0 .482.226h9.586V22Zm3.432-3.531a1.754 1.754 0 0 1-1.317-.544 1.855 1.855 0 0 1-.528-1.356V3.9a1.855 1.855 0 0 1 .528-1.356A1.768 1.768 0 0 1 8.277 2h8.877a1.768 1.768 0 0 1 1.317.544 1.875 1.875 0 0 1 .528 1.356v12.672a1.875 1.875 0 0 1-.528 1.356 1.754 1.754 0 0 1-1.317.544Zm-.486-1.4a.68.68 0 0 0 .486.226h8.877a.68.68 0 0 0 .486-.226.7.7 0 0 0 .218-.5V3.9a.694.694 0 0 0-.218-.494.67.67 0 0 0-.486-.23H8.277a.67.67 0 0 0-.486.23.7.7 0 0 0-.219.494v12.672a.7.7 0 0 0 .218.496Zm-.219-13.17Zm4.921 10.052v-3.443H9.051c-.107 0 0-1.019 0-1.019h3.442V6h1.019v3.489h3.489v1.019h-3.489v3.443c0 .034-.114.046-.264.046-.304.003-.756-.046-.756-.046Z" fill="#767676"/></svg>
