<svg width="16" height="17" viewBox="0 0 16 17" fill="none" xmlns="http://www.w3.org/2000/svg">
<path fill-rule="evenodd" clip-rule="evenodd" d="M9.33333 3.56758C9.11242 3.56758 8.93333 3.38849 8.93333 3.16758C8.93333 2.94666 9.11242 2.76758 9.33333 2.76758H13.3333C13.5542 2.76758 13.7333 2.94666 13.7333 3.16758V7.16758C13.7333 7.38849 13.5542 7.56758 13.3333 7.56758C13.1124 7.56758 12.9333 7.38849 12.9333 7.16758V4.13326L9.61618 7.45042C9.45997 7.60663 9.2067 7.60663 9.05049 7.45042C8.89428 7.29421 8.89428 7.04095 9.05049 6.88474L12.3676 3.56758H9.33333Z" fill="var(--tw-svg-color, #0D363F)"/>
<path fill-rule="evenodd" clip-rule="evenodd" d="M12.643 11.5982L11.861 10.8162C11.4704 10.4256 10.837 10.4256 10.447 10.8162L9.83236 11.4309C9.69502 11.5682 9.48702 11.6142 9.30969 11.5362C8.41902 11.1462 7.53902 10.5549 6.75436 9.77023C5.97302 8.9889 5.38369 8.1129 4.99302 7.22556C4.91169 7.04223 4.95902 6.8269 5.10102 6.6849L5.65169 6.13423C6.09902 5.6869 6.09902 5.05423 5.70836 4.66356L4.92636 3.88156C4.40569 3.3609 3.56169 3.3609 3.04102 3.88156L2.60636 4.31556C2.11236 4.80956 1.90636 5.52223 2.03969 6.2289C2.36902 7.9709 3.38102 9.87823 5.01369 11.5109C6.64636 13.1436 8.55369 14.1556 10.2957 14.4849C11.0024 14.6182 11.715 14.4122 12.209 13.9182L12.643 13.4842C13.1637 12.9636 13.1637 12.1196 12.643 11.5982Z" fill="var(--tw-svg-color, #0D363F)"/>
</svg>
