<svg xmlns="http://www.w3.org/2000/svg" width="20" height="24" viewBox="0 0 20 24"><path fill="#526070" d="M0 20.35v-1.59h2.645V9.35a6.917 6.917 0 0 1 1.613-4.52 7.108 7.108 0 0 1 4.194-2.493v-.872A1.371 1.371 0 0 1 8.903.421a1.641 1.641 0 0 1 2.194 0 1.371 1.371 0 0 1 .451 1.044v.873a7.18 7.18 0 0 1 4.21 2.493 6.875 6.875 0 0 1 1.629 4.519v9.413H20v1.587Zm10-8.974ZM10 24a2.3 2.3 0 0 1-1.629-.655 2.1 2.1 0 0 1-.694-1.59h4.645a2.128 2.128 0 0 1-.677 1.59A2.28 2.28 0 0 1 10 24Zm-5.742-5.236h11.484V9.35a5.32 5.32 0 0 0-1.661-3.959A5.62 5.62 0 0 0 10 3.771a5.636 5.636 0 0 0-4.064 1.62A5.3 5.3 0 0 0 4.258 9.35Z"/></svg>