<svg xmlns="http://www.w3.org/2000/svg" width="16" height="18" viewBox="0 0 16 18"><path d="M5 12.691a2.059 2.059 0 0 1-1.5-.617 2.068 2.068 0 0 1 0-2.963 2.131 2.131 0 0 1 3 0 2.068 2.068 0 0 1 0 2.963 2.059 2.059 0 0 1-1.5.617ZM1.625 18a1.586 1.586 0 0 1-1.162-.456A1.548 1.548 0 0 1 0 16.395V3.802a1.544 1.544 0 0 1 .463-1.147 1.584 1.584 0 0 1 1.162-.457h1.75v-2.2H4.45v2.2h7.175v-2.2h1v2.2h1.75a1.588 1.588 0 0 1 1.163.457A1.546 1.546 0 0 1 16 3.802v12.593a1.549 1.549 0 0 1-.462 1.149 1.589 1.589 0 0 1-1.163.456Zm0-.988h12.75a.6.6 0 0 0 .437-.186.586.586 0 0 0 .188-.431V7.753H1v8.642a.586.586 0 0 0 .188.432.6.6 0 0 0 .437.185ZM1 6.765h14V3.802a.586.586 0 0 0-.188-.432.6.6 0 0 0-.437-.186H1.625a.6.6 0 0 0-.437.186.586.586 0 0 0-.188.432Zm0 0Z" fill="#2185d0"/></svg>
