<svg xmlns="http://www.w3.org/2000/svg" width="25" height="25" viewBox="0 0 25 25">
  <g id="complete_icon" data-name="complete icon" transform="translate(-3.5 -3.5)">
    <circle id="Oval_2_Copy_8" data-name="Oval 2 Copy 8" cx="12" cy="12" r="12" transform="translate(4 4)" fill="none" stroke="#fff" stroke-width="1"/>
    <path id="icon" d="M6.365,3C4.769,3,3,3.932,3,10s1.769,7,3.365,7a2.058,2.058,0,0,0,1.1-.278.637.637,0,0,0,.284-.7c-.177-.683-.558-2.157-.735-2.84a.629.629,0,0,0-.453-.453l-1.126-.288a.632.632,0,0,1-.471-.537A16.626,16.626,0,0,1,4.835,10a16.461,16.461,0,0,1,.128-1.9.632.632,0,0,1,.471-.537L6.56,7.275a.632.632,0,0,0,.454-.456l.734-2.835a.642.642,0,0,0-.285-.709A2.071,2.071,0,0,0,6.365,3ZM15.6,3c-1.6,0-3.365.932-3.365,7S14,17,15.6,17a2.058,2.058,0,0,0,1.1-.278.637.637,0,0,0,.284-.7c-.177-.683-.558-2.157-.735-2.84a.629.629,0,0,0-.453-.453l-1.126-.288a.631.631,0,0,1-.471-.537,16.627,16.627,0,0,1-.128-1.9,16.461,16.461,0,0,1,.128-1.9.631.631,0,0,1,.471-.537l1.126-.288a.632.632,0,0,0,.454-.456l.734-2.835a.642.642,0,0,0-.285-.709A2.071,2.071,0,0,0,15.6,3ZM9.341,8.244a.577.577,0,0,0-.534.364.588.588,0,0,0,.132.638l.169.171H7.039a.583.583,0,0,0,0,1.167H9.108l-.169.171a.588.588,0,0,0-.16.568.58.58,0,0,0,.413.418.573.573,0,0,0,.562-.161l1.154-1.167a.588.588,0,0,0,0-.825L9.755,8.421A.574.574,0,0,0,9.341,8.244Z" transform="translate(6 5.999)" fill="#fff"/>
  </g>
</svg>
