<svg width="16" height="16" viewBox="0 0 16 16" fill="none" xmlns="http://www.w3.org/2000/svg">
<g clip-path="url(#clip0_2502_108206)">
<path d="M6.06897 1C2.72248 1 0 3.22759 0 5.96552C0 7.54802 0.913157 8.95629 2.32705 9.86584L1.55765 11.3863L3.63524 10.5092C4.07939 10.669 4.54912 10.7893 5.04095 10.8583C4.99598 10.6114 4.96552 10.3608 4.96552 10.1034C4.96552 7.3611 7.62097 5.13793 10.8966 5.13793C11.299 5.13793 11.6921 5.17253 12.0722 5.23653C11.6396 2.84287 9.11255 1 6.06897 1ZM4 3.75862C4.38097 3.75862 4.68966 4.06731 4.68966 4.44828C4.68966 4.82924 4.38097 5.13793 4 5.13793C3.61903 5.13793 3.31034 4.82924 3.31034 4.44828C3.31034 4.06731 3.61903 3.75862 4 3.75862ZM8.13793 3.75862C8.5189 3.75862 8.82759 4.06731 8.82759 4.44828C8.82759 4.82924 8.5189 5.13793 8.13793 5.13793C7.75697 5.13793 7.44828 4.82924 7.44828 4.44828C7.44828 4.06731 7.75697 3.75862 8.13793 3.75862ZM10.8966 5.96552C8.08248 5.96552 5.7931 7.82179 5.7931 10.1034C5.7931 12.3851 8.08248 14.2414 10.8966 14.2414C11.5614 14.2414 12.195 14.135 12.778 13.9467L14.8966 14.8411L14.1207 13.3076C15.2667 12.5482 16 11.3943 16 10.1034C16 7.82179 13.7106 5.96552 10.8966 5.96552ZM9.51724 9C9.89821 9 10.2069 9.30869 10.2069 9.68965C10.2069 10.0706 9.89821 10.3793 9.51724 10.3793C9.13628 10.3793 8.82759 10.0706 8.82759 9.68965C8.82759 9.30869 9.13628 9 9.51724 9ZM12.2759 9C12.6568 9 12.9655 9.30869 12.9655 9.68965C12.9655 10.0706 12.6568 10.3793 12.2759 10.3793C11.8949 10.3793 11.5862 10.0706 11.5862 9.68965C11.5862 9.30869 11.8949 9 12.2759 9Z" fill="var(--tw-svg-color, #0D363F)"/>
</g>
<defs>
<clipPath id="clip0_2502_108206">
<rect width="16" height="16" fill="var(--tw-svg-color-secondary, #fff)" />
</clipPath>
</defs>
</svg>
