<svg width="20" height="20" viewBox="0 0 20 20" fill="none" xmlns="http://www.w3.org/2000/svg">
<path d="M3.3335 16.2497L7.09002 12.4932M12.8426 3.35274L16.2306 6.7408C16.5461 7.05631 16.7035 7.49663 16.6596 7.94063C16.6156 8.38464 16.3749 8.78554 16.0036 9.03304C14.1013 10.3012 12.74 12.2329 12.1855 14.4509L11.877 15.6852C11.8119 15.9455 11.6119 16.1506 11.3533 16.2222C11.0948 16.2938 10.8177 16.2209 10.628 16.0312L3.55217 8.95533C3.36247 8.76563 3.28948 8.48855 3.36109 8.23001C3.43271 7.97147 3.63786 7.77144 3.89812 7.70637L5.13238 7.3978C7.35039 6.84329 9.28209 5.48199 10.5503 3.5797C10.7978 3.20845 11.1987 2.96773 11.6427 2.92376C12.0867 2.87979 12.5271 3.03723 12.8426 3.35274Z" stroke="var(--tw-svg-color, #0D363F)" stroke-width="1.2" stroke-linecap="round" stroke-linejoin="round"/>
</svg>
