<svg xmlns="http://www.w3.org/2000/svg" width="16" height="16" viewBox="0 0 16 16"><path fill="#fff" d="M8.001 0a8 8 0 0 1 8 8 8 8 0 0 1-8 8 8 8 0 0 1-8-8 8 8 0 0 1 8-8Z"/><path d="M8.001.381a7.618 7.618 0 0 1 7.618 7.618 7.619 7.619 0 0 1-7.618 7.62 7.62 7.62 0 0 1-7.62-7.62A7.62 7.62 0 0 1 8.001.381Z" fill="#538ec0"/><path fill="#fff" d="M8 5C5.791 5 4 6.407 4 8.143a2.762 2.762 0 0 0 .926 2.009c.012.027.308.735-.57 1.458a.138.138 0 0 0-.049.1.149.149 0 0 0 .154.143.165.165 0 0 0 .033 0 4.271 4.271 0 0 0 2.1-.771 4.958 4.958 0 0 0 1.4.2c2.209 0 4-1.407 4-3.143S10.209 5 8 5Z"/></svg>
