<svg width="16" height="16" viewBox="0 0 16 16" fill="none" xmlns="http://www.w3.org/2000/svg">
<path d="M8.00018 8.66478C8.36837 8.66478 8.66685 8.3663 8.66685 7.99811C8.66685 7.62992 8.36837 7.33145 8.00018 7.33145C7.63199 7.33145 7.33351 7.62992 7.33351 7.99811C7.33351 8.3663 7.63199 8.66478 8.00018 8.66478Z" fill="var(--tw-svg-color, #0D363F)"/>
<path d="M8.00018 4.00228C8.36837 4.00228 8.66685 3.7038 8.66685 3.33561C8.66685 2.96742 8.36837 2.66895 8.00018 2.66895C7.63199 2.66895 7.33351 2.96742 7.33351 3.33561C7.33351 3.7038 7.63199 4.00228 8.00018 4.00228Z" fill="var(--tw-svg-color, #0D363F)"/>
<path d="M7.99992 13.3335C8.36811 13.3335 8.66659 13.0351 8.66659 12.6669C8.66659 12.2987 8.36811 12.0002 7.99992 12.0002C7.63173 12.0002 7.33325 12.2987 7.33325 12.6669C7.33325 13.0351 7.63173 13.3335 7.99992 13.3335Z" fill="var(--tw-svg-color, #0D363F)"/>
<path d="M8.00018 8.66478C8.36837 8.66478 8.66685 8.3663 8.66685 7.99811C8.66685 7.62992 8.36837 7.33145 8.00018 7.33145C7.63199 7.33145 7.33351 7.62992 7.33351 7.99811C7.33351 8.3663 7.63199 8.66478 8.00018 8.66478Z" stroke="var(--tw-svg-color, #0D363F)" stroke-linecap="round" stroke-linejoin="round"/>
<path d="M8.00018 4.00228C8.36837 4.00228 8.66685 3.7038 8.66685 3.33561C8.66685 2.96742 8.36837 2.66895 8.00018 2.66895C7.63199 2.66895 7.33351 2.96742 7.33351 3.33561C7.33351 3.7038 7.63199 4.00228 8.00018 4.00228Z" stroke="var(--tw-svg-color, #0D363F)" stroke-linecap="round" stroke-linejoin="round"/>
<path d="M7.99992 13.3335C8.36811 13.3335 8.66659 13.0351 8.66659 12.6669C8.66659 12.2987 8.36811 12.0002 7.99992 12.0002C7.63173 12.0002 7.33325 12.2987 7.33325 12.6669C7.33325 13.0351 7.63173 13.3335 7.99992 13.3335Z" stroke="var(--tw-svg-color, #0D363F)" stroke-linecap="round" stroke-linejoin="round"/>
</svg>
