<svg width="16" height="16" viewBox="0 0 16 16" fill="none" xmlns="http://www.w3.org/2000/svg">
<path d="M14.6666 12.1667C14.6666 13.5474 13.6717 14.6667 12.4444 14.6667H3.55547C2.32817 14.6667 1.33325 13.5474 1.33325 12.1667V3.83337C1.33325 2.45266 2.32817 1.33337 3.55547 1.33337H12.4444C13.6717 1.33337 14.6666 2.45266 14.6666 3.83337V12.1667Z" fill="var(--tw-svg-color, #0D363F)" stroke="var(--tw-svg-color, #0D363F)" stroke-width="1.11111" stroke-linecap="round" stroke-linejoin="round"/>
<path d="M9.47258 8.07975L7.58697 6.19413M4.66675 11.3332H11.7038M7.11135 10.6136L10.5293 7.19567C10.8071 6.91784 10.9632 6.54102 10.9632 6.1481C10.9632 5.75519 10.8071 5.37837 10.5293 5.10054C9.95076 4.52199 9.01275 4.52199 8.43419 5.10054L5.01619 8.51847C4.73287 8.8018 4.54907 9.16937 4.49241 9.56603L4.30036 10.9104C4.28387 11.0258 4.32268 11.1422 4.40511 11.2247C4.48754 11.3071 4.60397 11.3459 4.71938 11.3294L6.06376 11.1374C6.46042 11.0807 6.82801 10.8969 7.11135 10.6136Z" stroke="white" stroke-width="0.666667" stroke-linecap="round" stroke-linejoin="round"/>
</svg>
