<svg xmlns="http://www.w3.org/2000/svg" width="24" height="24" viewBox="0 0 24 24">
  <g transform="translate(-598 -477)">
    <path d="M1348.024,25l-.776-.013.449-.59a6.517,6.517,0,0,0,1.077-2.116,2.285,2.285,0,0,0,.122-.654,7.761,7.761,0,0,1-3.9-6.448c0-4.543,4.513-8.179,10-8.179h0c5.486,0,10,3.636,10,8.179s-4.513,8.18-10,8.18a12.078,12.078,0,0,1-2.479-.282A6.1,6.1,0,0,1,1348.051,25Zm-2.207-9.819a7.051,7.051,0,0,0,3.733,5.961l.191.116v.205a4.227,4.227,0,0,1-.177,1.025,7.563,7.563,0,0,1-.763,1.616,6.206,6.206,0,0,0,3.269-1.654l.164-.192.245.052a11.324,11.324,0,0,0,2.52.281c5.107,0,9.183-3.344,9.183-7.41s-4.075-7.41-9.183-7.41S1345.817,11.115,1345.817,15.181Zm9.817,3.877a1.369,1.369,0,0,1-.426-1.013v-.163l-2.542-1.269a1.469,1.469,0,0,1-.448.3,1.387,1.387,0,0,1-.552.112,1.417,1.417,0,0,1-1.03-.419,1.413,1.413,0,0,1,0-2.026,1.417,1.417,0,0,1,1.03-.419,1.387,1.387,0,0,1,.552.112,1.708,1.708,0,0,1,.448.277l2.542-1.248v-.163a1.369,1.369,0,0,1,.426-1.013,1.481,1.481,0,0,1,2.064,0,1.416,1.416,0,0,1,0,2.025,1.42,1.42,0,0,1-1.032.42,1.377,1.377,0,0,1-.552-.113,1.7,1.7,0,0,1-.448-.276l-2.542,1.247v.328L1355.667,17a2.207,2.207,0,0,1,.458-.276,1.3,1.3,0,0,1,.542-.113,1.422,1.422,0,0,1,1.032.419,1.417,1.417,0,0,1,0,2.026,1.481,1.481,0,0,1-2.064,0Z" transform="translate(-745 473)" fill="#767676"/>
  </g>
</svg>
