<svg width="16" height="16" viewBox="0 0 16 16" fill="none" xmlns="http://www.w3.org/2000/svg">
<path d="M14.9981 6.63196C14.9981 3.49986 11.8581 0.95166 7.99845 0.95166C4.13876 0.95166 0.998779 3.49986 0.998779 6.63196C0.998779 9.43997 3.48924 11.7913 6.85294 12.2362C7.0806 12.2854 7.39093 12.3864 7.46965 12.5813C7.54051 12.7584 7.51558 13.0353 7.49262 13.2144C7.49262 13.2144 7.41061 13.7084 7.39289 13.8134C7.36206 13.9905 7.25249 14.5055 7.99911 14.1906C8.74638 13.8757 12.03 11.8169 13.4983 10.1269C14.5126 9.01417 14.9988 7.88572 14.9988 6.63196H14.9981Z" fill="var(--tw-svg-color, #0D363F)"/>
<path d="M12.6691 8.44053H10.7028C10.6287 8.44053 10.569 8.38083 10.569 8.30669V8.30472V5.25528V5.252C10.569 5.17787 10.6287 5.11816 10.7028 5.11816H12.6691C12.7425 5.11816 12.8029 5.17852 12.8029 5.252V5.74865C12.8029 5.82279 12.7432 5.88249 12.6691 5.88249H11.3326V6.39817H12.6691C12.7425 6.39817 12.8029 6.45853 12.8029 6.53201V7.02866C12.8029 7.10279 12.7432 7.1625 12.6691 7.1625H11.3326V7.67817H12.6691C12.7425 7.67817 12.8029 7.73853 12.8029 7.81201V8.30866C12.8029 8.3828 12.7432 8.4425 12.6691 8.4425V8.44053Z" fill="var(--tw-svg-color-secondary, #fff)"/>
<path d="M5.39507 8.44119C5.46855 8.44119 5.52891 8.38148 5.52891 8.30735V7.8107C5.52891 7.73722 5.46855 7.67686 5.39507 7.67686H4.05864V5.252C4.05864 5.17852 3.99828 5.11816 3.9248 5.11816H3.42815C3.35401 5.11816 3.29431 5.17787 3.29431 5.252V8.30472V8.30735C3.29431 8.38148 3.35401 8.44119 3.42815 8.44119H5.39441H5.39507Z" fill="var(--tw-svg-color-secondary, #fff)"/>
<path d="M6.57869 5.11816H6.08269C6.00878 5.11816 5.94885 5.17809 5.94885 5.252V8.30669C5.94885 8.38061 6.00878 8.44053 6.08269 8.44053H6.57869C6.6526 8.44053 6.71252 8.38061 6.71252 8.30669V5.252C6.71252 5.17809 6.6526 5.11816 6.57869 5.11816Z" fill="var(--tw-svg-color-secondary, #fff)"/>
<path d="M9.95829 5.11816H9.46164C9.38751 5.11816 9.3278 5.17787 9.3278 5.252V7.06605L7.93036 5.17852C7.92708 5.17393 7.92314 5.16934 7.91986 5.16475C7.91986 5.16475 7.91986 5.16475 7.91921 5.16409C7.91658 5.16147 7.91396 5.15818 7.91134 5.15556C7.91068 5.1549 7.90937 5.15425 7.90871 5.15359C7.90609 5.15162 7.90412 5.14966 7.90149 5.14769C7.90018 5.14703 7.89887 5.14572 7.89756 5.14506C7.89559 5.1431 7.89297 5.14178 7.89034 5.14047C7.88903 5.13981 7.88772 5.1385 7.8864 5.13785C7.88378 5.13653 7.88181 5.13522 7.87919 5.13391C7.87787 5.13325 7.87656 5.1326 7.87525 5.13194C7.87263 5.13063 7.87 5.12932 7.86738 5.12866C7.86607 5.12866 7.86475 5.12735 7.86279 5.12735C7.86016 5.12669 7.85754 5.12538 7.85491 5.12472C7.8536 5.12472 7.85163 5.12407 7.85032 5.12341C7.8477 5.12341 7.84507 5.1221 7.84245 5.12144C7.84048 5.12144 7.83851 5.12144 7.83654 5.12079C7.83392 5.12079 7.83195 5.12013 7.82933 5.12013C7.8267 5.12013 7.82473 5.12013 7.82211 5.12013C7.8208 5.12013 7.81883 5.12013 7.81752 5.12013H7.32415C7.25067 5.12013 7.19031 5.17984 7.19031 5.25397V8.30866C7.19031 8.38214 7.25001 8.4425 7.32415 8.4425H7.8208C7.89493 8.4425 7.95464 8.3828 7.95464 8.30866V6.49461L9.35405 8.38476C9.36389 8.39854 9.3757 8.4097 9.38882 8.41822C9.38882 8.41822 9.39013 8.41888 9.39013 8.41954C9.39275 8.4215 9.39538 8.42282 9.39866 8.42479C9.39997 8.42544 9.40128 8.4261 9.40259 8.42675C9.40456 8.42807 9.40719 8.42872 9.40916 8.43003C9.41112 8.43135 9.41375 8.432 9.41572 8.43266C9.41703 8.43266 9.41834 8.43397 9.41965 8.43397C9.42293 8.43528 9.42556 8.43594 9.42884 8.43659C9.42884 8.43659 9.43015 8.43659 9.43081 8.43659C9.44196 8.43922 9.45377 8.44119 9.46558 8.44119H9.95895C10.0324 8.44119 10.0928 8.38148 10.0928 8.30735V5.25266C10.0928 5.17918 10.0331 5.11882 9.95895 5.11882L9.95829 5.11816Z" fill="var(--tw-svg-color-secondary, #fff)"/>
</svg>
