<svg xmlns="http://www.w3.org/2000/svg" width="24" height="24" viewBox="0 0 24 24"><path d="m9.152 0-.6 3.028a9.793 9.793 0 0 0-2.744 1.549l-2.96-1L0 8.426l2.369 2.023a8.77 8.77 0 0 0 0 3.1L0 15.574l2.848 4.852 2.96-1a9.793 9.793 0 0 0 2.743 1.549l.6 3.028h5.7l.6-3.028a9.792 9.792 0 0 0 2.743-1.549l2.96 1 2.848-4.852-2.369-2.023a8.769 8.769 0 0 0 0-3.1l2.369-2.023-2.85-4.854-2.96 1a9.792 9.792 0 0 0-2.743-1.549L14.848 0ZM12 7.2A4.8 4.8 0 1 1 7.115 12 4.843 4.843 0 0 1 12 7.2Z" fill="#767676"/></svg>
