<svg xmlns="http://www.w3.org/2000/svg" width="24" height="24" viewBox="0 0 24 24"><path d="M3.615 21a1.529 1.529 0 0 1-1.153-.484A1.679 1.679 0 0 1 2 19.309V9.725h1v9.584a.629.629 0 0 0 .192.443.577.577 0 0 0 .423.2H18.5V21Zm3-3.141a1.529 1.529 0 0 1-1.153-.484A1.679 1.679 0 0 1 5 16.168V6.342h5.308V4.691a1.679 1.679 0 0 1 .463-1.207A1.529 1.529 0 0 1 11.923 3h3.154a1.529 1.529 0 0 1 1.153.484 1.679 1.679 0 0 1 .462 1.207v1.651H22v9.826a1.679 1.679 0 0 1-.463 1.207 1.529 1.529 0 0 1-1.153.484Zm0-1.047h13.77a.577.577 0 0 0 .423-.2.629.629 0 0 0 .192-.443V7.39H6v8.779a.629.629 0 0 0 .192.443.577.577 0 0 0 .423.2Zm4.692-10.47h4.385V4.691a.629.629 0 0 0-.192-.443.577.577 0 0 0-.423-.2h-3.154a.577.577 0 0 0-.423.2.629.629 0 0 0-.192.443ZM6 16.812Z" fill="#767676"/></svg>
