<svg width="16" height="16" viewBox="0 0 16 16" fill="none" xmlns="http://www.w3.org/2000/svg">
<path fill-rule="evenodd" clip-rule="evenodd" d="M12.9601 3.28878C11.6442 1.97848 9.89412 1.25652 8.0294 1.25586C4.18698 1.25586 1.05983 4.36541 1.05849 8.1876C1.05782 9.40947 1.37903 10.6021 1.98902 11.6531L1 15.2456L4.69536 14.2817C5.71345 14.8342 6.85989 15.125 8.02641 15.1253H8.0294C11.8712 15.1253 14.9987 12.0154 15 8.19325C15.0007 6.34084 14.2764 4.59908 12.9601 3.28878Z" fill="var(--tw-svg-color, #0D363F)"/>
<path d="M10.03 8.84449C10.1898 8.9023 11.0461 9.32114 11.2202 9.40789C11.3944 9.49463 11.5104 9.53884 11.5538 9.61097C11.5973 9.68309 11.5973 10.0301 11.4522 10.4346C11.3071 10.8392 10.6113 11.2085 10.2767 11.2583C9.97652 11.3029 9.59685 11.3215 9.17969 11.1895C8.92668 11.1097 8.60215 11.003 8.18666 10.8246C6.43958 10.074 5.2985 8.32463 5.21127 8.20895L5.2102 8.20753C5.11905 8.08667 4.5 7.26584 4.5 6.41699C4.5 5.56473 4.9499 5.14558 5.10966 4.97209C5.26941 4.79858 5.45795 4.75537 5.57426 4.75537C5.69058 4.75537 5.80655 4.75637 5.90816 4.76135C6.0148 4.767 6.15849 4.72113 6.29989 5.05884C6.4453 5.40551 6.79355 6.25812 6.83702 6.34487C6.88046 6.43165 6.90955 6.53267 6.85137 6.64834C6.79324 6.76371 6.7645 6.83614 6.67723 6.9372C6.59 7.03825 6.49406 7.1629 6.41586 7.24067C6.32898 7.32676 6.23806 7.42051 6.33967 7.594C6.44125 7.76753 6.7909 8.33457 7.30863 8.79394C7.9741 9.38395 8.5353 9.56676 8.70941 9.65351C8.88355 9.74029 8.98517 9.72598 9.08679 9.61031C9.1884 9.49498 9.5223 9.10476 9.63827 8.93123C9.75427 8.75774 9.87024 8.78663 10.03 8.84449Z" fill="var(--tw-svg-color-secondary, #fff)"/>
</svg>
