<svg width="24" height="24" viewBox="0 0 24 24" fill="none" xmlns="http://www.w3.org/2000/svg">
<path fill-rule="evenodd" clip-rule="evenodd" d="M7.99624 2.39648C4.90345 2.39648 2.39624 4.90369 2.39624 7.99648V16.004C2.39624 19.0968 4.90344 21.604 7.99624 21.604H16.0037C19.0965 21.604 21.6037 19.0968 21.6037 16.004V7.99648C21.6037 4.90369 19.0965 2.39648 16.0037 2.39648H7.99624ZM9.77648 5.9999C9.77648 5.66853 9.50785 5.3999 9.17648 5.3999C8.84511 5.3999 8.57648 5.66853 8.57648 5.9999V18.7058C8.57648 19.0372 8.84511 19.3058 9.17648 19.3058C9.50785 19.3058 9.77648 19.0372 9.77648 18.7058V5.9999ZM12 8.22363C12.3313 8.22363 12.6 8.49226 12.6 8.82363V15.8825C12.6 16.2138 12.3313 16.4825 12 16.4825C11.6686 16.4825 11.4 16.2138 11.4 15.8825V8.82363C11.4 8.49226 11.6686 8.22363 12 8.22363ZM17.6471 9.63525C17.9784 9.63525 18.2471 9.90388 18.2471 10.2353V14.4705C18.2471 14.8019 17.9784 15.0705 17.6471 15.0705C17.3157 15.0705 17.0471 14.8019 17.0471 14.4705V10.2353C17.0471 9.90388 17.3157 9.63525 17.6471 9.63525ZM6.35293 8.9292C6.6843 8.9292 6.95293 9.19783 6.95293 9.5292V15.1763C6.95293 15.5076 6.6843 15.7763 6.35293 15.7763C6.02156 15.7763 5.75293 15.5076 5.75293 15.1763V9.5292C5.75293 9.19783 6.02156 8.9292 6.35293 8.9292ZM15.4235 7.41152C15.4235 7.08015 15.1549 6.81152 14.8235 6.81152C14.4921 6.81152 14.2235 7.08015 14.2235 7.41152V17.2939C14.2235 17.6252 14.4921 17.8939 14.8235 17.8939C15.1549 17.8939 15.4235 17.6252 15.4235 17.2939V7.41152Z" fill="var(--tw-svg-color, #0D363F)"/>
</svg>
