<svg xmlns="http://www.w3.org/2000/svg" width="24" height="24">
  <defs>
    <linearGradient id="gradient" x1="0%" y1="100%" x2="0%" y2="0%">
      <stop offset="0%" stop-color="#00b353"/>
      <stop offset="0%" stop-color="#fff"/>
    </linearGradient>
  </defs>
  <path fill="#fff" d="M11.181 22v-3.04c-3.464-.361-6.182-2.985-6.182-6.133h1.91c0 2.473 2.286 4.49 5.09 4.49s5.091-2.017 5.091-4.49H19c0 3.148-2.716 5.771-6.181 6.133V22Z" data-name="Path 5053"/>
  <path fill="url(#gradient)" d="M8 12V6a4 4 0 0 1 4-4 4 4 0 0 1 4 4v6a4 4 0 0 1-4 4 4 4 0 0 1-4-4Z" data-name="Path 5053"/>
</svg>