<svg xmlns="http://www.w3.org/2000/svg" width="24" height="24"><path d="M4 19a2 2 0 0 1-2-2h1.858a2 2 0 0 1-.525-1.334V7a2 2 0 0 1 2-2h6.3v.033a2.254 2.254 0 0 0 .055.487l-1.625.813H5.334A.652.652 0 0 0 4.667 7v8.666a.652.652 0 0 0 .667.667h13.333a.653.653 0 0 0 .667-.667V7a.652.652 0 0 0-.667-.667h-.762a2.314 2.314 0 0 0 .4-1.3V5h.366a2 2 0 0 1 2 2v8.666A1.992 1.992 0 0 1 20.145 17H22a2 2 0 0 1-2 2zm9.6-6a2.031 2.031 0 0 1 .045-.418l-4.538-2.27A2 2 0 0 1 7.6 11a2 2 0 0 1-2-2 2 2 0 0 1 2-2 2 2 0 0 1 1.506.689l4.541-2.27A1.987 1.987 0 0 1 13.6 5a2 2 0 0 1 2-2 2 2 0 0 1 2 2 2 2 0 0 1-2 2 2 2 0 0 1-1.506-.687l-4.541 2.27a1.98 1.98 0 0 1 .047.418 1.976 1.976 0 0 1-.045.418l4.538 2.27A2 2 0 0 1 15.6 11a2 2 0 0 1 2 2 2 2 0 0 1-2 2 2 2 0 0 1-2-2z" fill="#767676"/></svg>
