<svg width="17" height="16" viewBox="0 0 17 16" fill="none" xmlns="http://www.w3.org/2000/svg">
<path d="M14.8667 12.1668C14.8667 13.5475 13.8717 14.6668 12.6444 14.6668H3.75555C2.52825 14.6668 1.53333 13.5475 1.53333 12.1668V3.8335C1.53333 2.45278 2.52825 1.3335 3.75555 1.3335H12.6444C13.8717 1.3335 14.8667 2.45278 14.8667 3.8335V12.1668Z" fill="var(--tw-svg-color, #0D363F)" stroke="var(--tw-svg-color, #0D363F)" stroke-width="1.11111" stroke-linecap="round" stroke-linejoin="round"/>
<path d="M9.67241 8.07962L7.7868 6.194M4.86658 11.3331H11.9036M7.31118 10.6135L10.7291 7.19555C11.007 6.91772 11.1631 6.54089 11.1631 6.14798C11.1631 5.75507 11.007 5.37825 10.7291 5.10041C10.1506 4.52187 9.21258 4.52187 8.63402 5.10041L5.21602 8.51835C4.93269 8.80167 4.7489 9.16925 4.69224 9.56591L4.50019 10.9103C4.4837 11.0257 4.52251 11.1421 4.60494 11.2245C4.68737 11.307 4.8038 11.3458 4.91921 11.3293L6.26359 11.1373C6.66025 11.0806 7.02784 10.8968 7.31118 10.6135Z" stroke="var(--tw-svg-color-secondary, #fff)" stroke-width="0.666667" stroke-linecap="round" stroke-linejoin="round"/>
</svg>
