<svg width="24" height="24" viewBox="0 0 24 24" fill="none" xmlns="http://www.w3.org/2000/svg">
<path fill-rule="evenodd" clip-rule="evenodd" d="M13.2206 7.69134L5.293 15.619C5.105 15.806 5 16.06 5 16.325V18.5C5 18.7761 5.22386 19 5.5 19H7.675C7.94 19 8.194 18.895 8.381 18.707L16.3094 10.7801L13.2206 7.69134ZM14.2813 6.63068L17.3702 9.71955L18.708 8.38199C19.098 7.99199 19.098 7.35899 18.708 6.96899L17.032 5.29299C16.642 4.90299 16.009 4.90299 15.619 5.29299L14.2813 6.63068Z" fill="var(--tw-svg-color, #0D363F)"/>
<path d="M5.293 15.619L5.57509 15.9026L5.57584 15.9018L5.293 15.619ZM13.2206 7.69134L13.5035 7.4085C13.3473 7.25229 13.094 7.25229 12.9378 7.4085L13.2206 7.69134ZM8.381 18.707L8.09818 18.4241L8.0974 18.4249L8.381 18.707ZM16.3094 10.7801L16.5922 11.063C16.6673 10.988 16.7094 10.8862 16.7094 10.7801C16.7094 10.674 16.6673 10.5723 16.5923 10.4973L16.3094 10.7801ZM14.2813 6.63068L13.9985 6.34784C13.9234 6.42285 13.8813 6.52459 13.8813 6.63068C13.8813 6.73677 13.9234 6.83851 13.9985 6.91352L14.2813 6.63068ZM17.3702 9.71955L17.0873 10.0024C17.2435 10.1586 17.4968 10.1586 17.653 10.0024L17.3702 9.71955ZM18.708 8.38199L18.9908 8.66486L18.9908 8.66483L18.708 8.38199ZM18.708 6.96899L18.4252 7.25183L18.708 6.96899ZM17.032 5.29299L17.3148 5.01015V5.01015L17.032 5.29299ZM15.619 5.29299L15.3362 5.01015V5.01015L15.619 5.29299ZM5.57584 15.9018L13.5035 7.97418L12.9378 7.4085L5.01016 15.3361L5.57584 15.9018ZM5.4 16.325C5.4 16.1659 5.46298 16.0141 5.57509 15.9026L5.01091 15.3354C4.74702 15.5979 4.6 15.9541 4.6 16.325H5.4ZM5.4 18.5V16.325H4.6V18.5H5.4ZM5.5 18.6C5.44477 18.6 5.4 18.5552 5.4 18.5H4.6C4.6 18.997 5.00294 19.4 5.5 19.4V18.6ZM7.675 18.6H5.5V19.4H7.675V18.6ZM8.0974 18.4249C7.98589 18.537 7.83413 18.6 7.675 18.6V19.4C8.04587 19.4 8.40211 19.253 8.6646 18.9891L8.0974 18.4249ZM16.0266 10.4972L8.09818 18.4241L8.66382 18.9899L16.5922 11.063L16.0266 10.4972ZM16.5923 10.4973L13.5035 7.4085L12.9378 7.97418L16.0266 11.063L16.5923 10.4973ZM13.9985 6.91352L17.0873 10.0024L17.653 9.43671L14.5641 6.34784L13.9985 6.91352ZM18.4252 8.09912L17.0874 9.43668L17.653 10.0024L18.9908 8.66486L18.4252 8.09912ZM18.4252 7.25183C18.6589 7.48562 18.6589 7.86536 18.4252 8.09915L18.9908 8.66483C19.5371 8.11862 19.5371 7.23236 18.9908 6.68615L18.4252 7.25183ZM16.7492 5.57583L18.4252 7.25183L18.9908 6.68615L17.3148 5.01015L16.7492 5.57583ZM15.9018 5.57583C16.1356 5.34204 16.5154 5.34204 16.7492 5.57583L17.3148 5.01015C16.7686 4.46394 15.8824 4.46394 15.3362 5.01015L15.9018 5.57583ZM14.5641 6.91352L15.9018 5.57583L15.3362 5.01015L13.9985 6.34784L14.5641 6.91352Z" fill="var(--tw-svg-color, #0D363F)"/>
</svg>
