<svg width="24" height="24" viewBox="0 0 24 24" fill="none" xmlns="http://www.w3.org/2000/svg">
<path fill-rule="evenodd" clip-rule="evenodd" d="M3.99961 16.3999C3.77892 16.3999 3.60002 16.221 3.60002 16.0003V4.99949C3.60002 4.7788 3.77892 4.5999 3.99961 4.5999H20.0004C20.2199 4.5999 20.4 4.77915 20.4 5.0011V7.96052C20.4 8.29189 20.6687 8.56052 21 8.56052C21.3314 8.56052 21.6 8.29189 21.6 7.96052V5.0011C21.6 4.11893 20.8851 3.3999 20.0004 3.3999H3.99961C3.11618 3.3999 2.40002 4.11606 2.40002 4.99949V16.0003C2.40002 16.8837 3.11618 17.5999 3.99961 17.5999H7.99941C8.33078 17.5999 8.59941 17.3313 8.59941 16.9999C8.59941 16.6685 8.33078 16.3999 7.99941 16.3999H3.99961Z" fill="#0D363F"/>
<path fill-rule="evenodd" clip-rule="evenodd" d="M6.90012 19.9997C6.90012 19.6683 7.16875 19.3997 7.50012 19.3997H16.5001C16.8315 19.3997 17.1001 19.6683 17.1001 19.9997C17.1001 20.331 16.8315 20.5997 16.5001 20.5997H7.50012C7.16875 20.5997 6.90012 20.331 6.90012 19.9997Z"  fill="#0D363F"/>
<path fill-rule="evenodd" clip-rule="evenodd" d="M12.162 10.9348C12.322 8.95547 13.9789 7.39917 15.9994 7.39917C18.0199 7.39917 19.6768 8.95547 19.8367 10.9348C20.5585 11.0896 21.0994 11.731 21.0994 12.4992V13.9992C21.0994 14.8504 20.4351 15.5461 19.5965 15.5963C19.5463 16.4349 18.8506 17.0992 17.9994 17.0992H17.3801C17.17 17.4722 16.7703 17.7242 16.3119 17.7242H15.6869C15.0105 17.7242 14.4619 17.1755 14.4619 16.4992C14.4619 15.8228 15.0105 15.2742 15.6869 15.2742H16.3119C16.7703 15.2742 17.17 15.5262 17.3801 15.8992H17.9994C18.2205 15.8992 18.3994 15.7203 18.3994 15.4992V15.4212C18.0984 15.2249 17.8994 14.8852 17.8994 14.4992V11.9992C17.8994 11.5199 18.2061 11.1121 18.6339 10.9614C18.4905 9.63313 17.3658 8.59917 15.9994 8.59917C14.633 8.59917 13.5083 9.63313 13.3648 10.9614C13.7926 11.1121 14.0994 11.5199 14.0994 11.9992V14.4992C14.0994 15.1065 13.6068 15.5992 12.9994 15.5992H12.4994C11.6155 15.5992 10.8994 14.883 10.8994 13.9992V12.4992C10.8994 11.731 11.4402 11.0896 12.162 10.9348Z" fill="#0D363F"/>
</svg>
