<svg width="16" height="16" viewBox="0 0 16 16" fill="none" xmlns="http://www.w3.org/2000/svg">
<path fill-rule="evenodd" clip-rule="evenodd" d="M12.9629 12H10.3703C9.79733 12 9.33325 11.4886 9.33325 10.8571V5.14286C9.33325 4.51143 9.79733 4 10.3703 4H12.9629C13.5358 4 13.9999 4.51143 13.9999 5.14286V10.8571C13.9999 11.4886 13.5358 12 12.9629 12Z" stroke="var(--tw-svg-color, #0D363F)" stroke-linecap="round" stroke-linejoin="round"/>
<path d="M7.09503 8L4.2666 8M7.09503 8L5.68082 9.41421M7.09503 8L5.68081 6.58579" stroke="var(--tw-svg-color, #0D363F)" stroke-linecap="round" stroke-linejoin="round"/>
<path d="M5.33333 13.3334H2.92333C2.41333 13.3334 2 12.7321 2 11.9903V4.00972C2 3.2679 2.41333 2.66669 2.92333 2.66669H5.33333" stroke="var(--tw-svg-color, #0D363F)" stroke-linecap="round" stroke-linejoin="round"/>
</svg>
