<svg data-name="End call icon" xmlns="http://www.w3.org/2000/svg" width="54.826" height="54.826" viewBox="0 0 54.826 54.826"><path d="m23.476 29.397 1.925 1.992c.925.957 8.73 7.428 11.64 4.615 0 0 2.078-2.31 1.19-3.229a19.064 19.064 0 0 0-3.859-2.501c-.857-.456-1.376-.447-2.56.36a2.231 2.231 0 0 1-3.03-.32 59.516 59.516 0 0 1-1.873-1.893l-.209-.215-.208-.216c-.5-.516-1.334-1.38-1.827-1.936a2.231 2.231 0 0 1-.218-3.04c.846-1.156.873-1.677.447-2.546a19.064 19.064 0 0 0-2.373-3.94c-.888-.918-3.267 1.08-3.267 1.08-2.905 2.812 3.297 10.832 4.222 11.789" fill="#fff"/></svg>
