<svg width="24" height="24" viewBox="0 0 24 24" fill="none" xmlns="http://www.w3.org/2000/svg">
<path d="M13.0047 8.00442C13.6773 7.33186 14.7677 7.33186 15.4403 8.00442C15.7633 8.3274 15.9447 8.76545 15.9447 9.22221C15.9447 9.67898 15.7633 10.117 15.4403 10.44L14.3382 11.5421L11.9027 9.10647L13.0047 8.00442Z" fill="var(--tw-svg-color, #0D363F)"/>
<path d="M11.1955 9.81357L13.6311 12.2492L10.3134 15.5669C9.96485 15.9154 9.5127 16.1415 9.02481 16.2111L7.00824 16.4992C6.99094 16.5017 6.97347 16.4959 6.96111 16.4835C6.94874 16.4711 6.94292 16.4537 6.94539 16.4364L7.23347 14.4198C7.30317 13.9319 7.52923 13.4798 7.87772 13.1313L11.1955 9.81357Z" fill="var(--tw-svg-color, #0D363F)"/>
<path fill-rule="evenodd" clip-rule="evenodd" d="M5.33329 1.1665C2.94255 1.1665 1.16663 3.31352 1.16663 5.74984V18.2498C1.16663 20.6862 2.94255 22.8332 5.33329 22.8332H18.6666C21.0574 22.8332 22.8333 20.6862 22.8333 18.2498V5.74984C22.8333 3.31352 21.0574 1.1665 18.6666 1.1665H5.33329ZM16.1474 7.29731C15.0843 6.23423 13.3607 6.23423 12.2976 7.29731L7.17062 12.4242C6.66913 12.9257 6.34382 13.5763 6.24352 14.2784L5.95544 16.295C5.90846 16.6239 6.01907 16.9557 6.254 17.1906C6.44982 17.3864 6.71297 17.4959 6.98563 17.4997L7 17.4999H17.5556C17.8317 17.4999 18.0556 17.276 18.0556 16.9999C18.0556 16.7237 17.8317 16.4999 17.5556 16.4999H10.7701C10.8571 16.4292 10.9406 16.3539 11.0205 16.2741L16.1474 11.1471C16.6579 10.6366 16.9447 9.94419 16.9447 9.22221C16.9447 8.50023 16.6579 7.80782 16.1474 7.29731Z" fill="var(--tw-svg-color, #0D363F)"/>
</svg>
