<svg xmlns="http://www.w3.org/2000/svg" width="36" height="36" viewBox="0 0 36 36"><g transform="translate(.734 .519)"><circle cx="17.5" cy="17.5" r="17.5" transform="translate(-.234 -.019)" fill="none" stroke="#979797"/><path d="M11.535 9.981a2.735 2.735 0 0 0-2.769 2.7v8.1a2.735 2.735 0 0 0 2.769 2.7h1.75a2.557 2.557 0 0 1-1.519 2.046.338.338 0 0 0-.226.316.342.342 0 0 0 .346.337.354.354 0 0 0 .1-.015 5.638 5.638 0 0 0 4.58-2.684h7.429a2.735 2.735 0 0 0 2.771-2.7v-8.1a2.735 2.735 0 0 0-2.769-2.7Zm2.077 5.4a1.35 1.35 0 1 1-1.385 1.35 1.367 1.367 0 0 1 1.385-1.35Zm4.154 0a1.35 1.35 0 1 1-1.385 1.35 1.367 1.367 0 0 1 1.385-1.35Zm4.154 0a1.35 1.35 0 1 1-1.385 1.35 1.367 1.367 0 0 1 1.385-1.35Z" fill="#767676"/></g></svg>
