<svg xmlns="http://www.w3.org/2000/svg" width="20" height="20" viewBox="0 0 20 20">
  <path d="M6.078 13.92c-5.6-5.6-4.814-8.118-3.323-9.608a2.73 2.73 0 0 1 1.28-.769.83.83 0 0 1 .269-.022.836.836 0 0 1 .651.41l1.934 3.3a.832.832 0 0 1 0 .847l-.786 1.317a.826.826 0 0 0 .055.934 21.389 21.389 0 0 0 1.635 1.875 21.726 21.726 0 0 0 1.875 1.635.828.828 0 0 0 .934.055l1.317-.786a.829.829 0 0 1 .844 0l3.309 1.938a.829.829 0 0 1 .387.915 2.741 2.741 0 0 1-.77 1.283 3.343 3.343 0 0 1-2.438 1.089c-1.584 0-3.828-1.068-7.173-4.413Zm5.568-4.773c-3.6-3.6-3.1-5.219-2.137-6.177a1.771 1.771 0 0 1 .823-.494.537.537 0 0 1 .173-.014.537.537 0 0 1 .418.265l1.244 2.123a.537.537 0 0 1 0 .544l-.5.847a.53.53 0 0 0 .035.6 13.648 13.648 0 0 0 1.051 1.2 13.653 13.653 0 0 0 1.206 1.051.528.528 0 0 0 .6.035l.847-.5a.531.531 0 0 1 .542 0l2.128 1.246a.533.533 0 0 1 .25.589 1.768 1.768 0 0 1-.5.824 2.149 2.149 0 0 1-1.568.7c-1.02-.003-2.462-.689-4.612-2.839Z" />
</svg>
