<svg width="16" height="16" viewBox="0 0 16 16" fill="none" xmlns="http://www.w3.org/2000/svg">
<path d="M6.5 3.75003C6.5 4.44039 5.94036 5.00003 5.25 5.00003C4.55964 5.00003 4 4.44039 4 3.75003C4 3.05968 4.55964 2.50003 5.25 2.50003C5.94036 2.50003 6.5 3.05968 6.5 3.75003Z" fill="var(--tw-svg-color, #0D363F)"/>
<path d="M6.5001 7.94998C6.5001 8.64034 5.94045 9.19998 5.2501 9.19998C4.55974 9.19998 4.0001 8.64034 4.0001 7.94998C4.0001 7.25962 4.55974 6.69998 5.2501 6.69998C5.94045 6.69998 6.5001 7.25962 6.5001 7.94998Z" fill="var(--tw-svg-color, #0D363F)"/>
<path d="M6.5001 12.15C6.5001 12.8403 5.94045 13.4 5.2501 13.4C4.55974 13.4 4.0001 12.8403 4.0001 12.15C4.0001 11.4596 4.55974 10.9 5.2501 10.9C5.94045 10.9 6.5001 11.4596 6.5001 12.15Z" fill="var(--tw-svg-color, #0D363F)"/>
<path d="M12.0997 3.75C12.0997 4.44036 11.5401 5 10.8497 5C10.1594 5 9.59971 4.44036 9.59971 3.75C9.59971 3.05964 10.1594 2.5 10.8497 2.5C11.5401 2.5 12.0997 3.05964 12.0997 3.75Z" fill="var(--tw-svg-color, #0D363F)"/>
<path d="M12.0997 7.94998C12.0997 8.64034 11.5401 9.19998 10.8497 9.19998C10.1594 9.19998 9.59971 8.64034 9.59971 7.94998C9.59971 7.25962 10.1594 6.69998 10.8497 6.69998C11.5401 6.69998 12.0997 7.25962 12.0997 7.94998Z" fill="var(--tw-svg-color, #0D363F)"/>
<path d="M12.0997 12.15C12.0997 12.8403 11.5401 13.4 10.8497 13.4C10.1594 13.4 9.59971 12.8403 9.59971 12.15C9.59971 11.4596 10.1594 10.9 10.8497 10.9C11.5401 10.9 12.0997 11.4596 12.0997 12.15Z" fill="var(--tw-svg-color, #0D363F)"/>
</svg>
