<svg xmlns="http://www.w3.org/2000/svg" width="24" height="24" viewBox="0 0 24 24">
  <path d="M12.054 0a.8.8 0 0 0-.8.8v.062L5.357 2.679v5.357l5.893 1.813v.062a.804.804 0 1 0 1.607 0V.8a.8.8 0 0 0-.803-.8ZM4.286 2.785l-3.321.333A1.071 1.071 0 0 0 0 4.184V6.53A1.071 1.071 0 0 0 .965 7.6l1.3.131.616 3.613a.535.535 0 0 0 .527.446h.34a.536.536 0 0 0 .536-.536V7.933Zm9.643 1.233V6.7l.259-.065A1.072 1.072 0 0 0 15 5.593v-.47a1.073 1.073 0 0 0-.812-1.04Z" transform="translate(4.5 6.107)" fill="#767676"/>
</svg>
