<svg xmlns="http://www.w3.org/2000/svg" width="24" height="24" viewBox="0 0 24 24"><path d="M4.846 22a1.762 1.762 0 0 1-1.318-.544 1.869 1.869 0 0 1-.529-1.356V6.706h1.143V20.1a.7.7 0 0 0 .22.5.664.664 0 0 0 .484.226h9.582v1.177Zm3.429-3.529a1.762 1.762 0 0 1-1.318-.544 1.869 1.869 0 0 1-.529-1.356V3.901a1.869 1.869 0 0 1 .529-1.356 1.762 1.762 0 0 1 1.318-.544h8.879a1.762 1.762 0 0 1 1.318.544 1.869 1.869 0 0 1 .529 1.356v12.67a1.869 1.869 0 0 1-.529 1.356 1.762 1.762 0 0 1-1.318.544Zm0-1.176h8.879a.664.664 0 0 0 .484-.226.7.7 0 0 0 .22-.5V3.899a.7.7 0 0 0-.22-.5.664.664 0 0 0-.484-.226H8.275a.664.664 0 0 0-.484.226.7.7 0 0 0-.22.5v12.67a.7.7 0 0 0 .22.5.664.664 0 0 0 .484.225Zm-.7 0Z" fill="#767676"/></svg>
