<svg xmlns="http://www.w3.org/2000/svg" viewBox="0 0 16 14" style="enable-background:new 0 0 16 14" xml:space="preserve"><path id="calendar_view_day_FILL0_wght200_GRAD0_opsz24" fill="#767676" d="M1.6 5.7c-.4 0-.8-.1-1.2-.3-.2-.2-.4-.5-.4-.8V1.2C0 .9.2.6.5.4.8.1 1.2 0 1.6 0h12.8c.4 0 .8.1 1.2.3.2.2.4.6.4.9v3.4c0 .3-.2.6-.5.8-.3.2-.7.3-1.2.3H1.6zm0-.7h12.8c.2 0 .3 0 .4-.1.1-.1.2-.2.2-.3V1.2c0-.1-.1-.2-.2-.3-.1-.1-.3-.1-.4-.1H1.6c-.2 0-.3 0-.4.1-.1 0-.2.1-.2.3v3.4c0 .1.1.2.2.3.1.1.3.1.4.1zM1 .7z"/><path id="calendar_view_day_FILL0_wght200_GRAD0_opsz24_1_" fill="#767676" d="M1.6 14c-.4 0-.8-.1-1.2-.3-.2-.3-.4-.6-.4-.9V9.2c0-.3.2-.6.5-.9.3-.2.7-.4 1.1-.3h12.8c.4 0 .8.1 1.2.3.2.2.4.6.4.9v3.6c0 .3-.2.6-.5.9-.3.2-.7.4-1.2.3H1.6zm0-.8h12.8c.2 0 .3 0 .4-.1.1-.1.2-.2.2-.3V9.2c0-.1-.1-.2-.2-.3-.1-.1-.3-.1-.4-.1H1.6c-.2 0-.3 0-.4.1-.1 0-.2.2-.2.3v3.6c0 .1.1.2.2.3.1.1.3.1.4.1zM1 8.7z"/></svg>
