<svg width="16" height="16" viewBox="0 0 16 16" fill="none" xmlns="http://www.w3.org/2000/svg">
<path d="M15 7.56396C15 3.698 11.866 0.563965 8 0.563965C4.13404 0.563965 1 3.698 1 7.56396C1 10.8467 3.26016 13.6013 6.30908 14.3579V9.70317H4.86568V7.56396H6.30908V6.6422C6.30908 4.25968 7.38736 3.15536 9.72648 3.15536C10.17 3.15536 10.9352 3.24244 11.2483 3.32924V5.26825C11.0831 5.25089 10.7961 5.2422 10.4396 5.2422C9.29192 5.2422 8.8484 5.67705 8.8484 6.80741V7.56396H11.1349L10.742 9.70317H8.8484V14.5127C12.314 14.0941 15 11.1429 15 7.56396Z" fill="var(--tw-svg-color, #0D363F)"/>
<path d="M10.7416 9.70307L11.1344 7.56387H8.84795V6.80731C8.84795 5.67695 9.29147 5.24211 10.4392 5.24211C10.7956 5.24211 11.0826 5.25079 11.2478 5.26815V3.32915C10.9348 3.24207 10.1696 3.15527 9.72603 3.15527C7.38691 3.15527 6.30863 4.25959 6.30863 6.64211V7.56387H4.86523V9.70307H6.30863V14.3578C6.85015 14.4922 7.41659 14.5639 7.99955 14.5639C8.28655 14.5639 8.56963 14.5462 8.84767 14.5126V9.70307H10.7416Z" fill="var(--tw-svg-color-secondary, #fff)"/>
</svg>
