<svg width="16" height="16" viewBox="0 0 16 16" fill="none" xmlns="http://www.w3.org/2000/svg">
<path d="M1.99707 14.0028V12.5024C1.99707 10.8515 4.69845 9.50074 7.99992 9.50074C11.3014 9.50074 14.0028 10.8515 14.0028 12.5024V14.0028H1.99707ZM4.9985 4.99874C4.9985 4.40507 5.17453 3.82471 5.50433 3.33109C5.83413 2.83747 6.30289 2.45275 6.85133 2.22557C7.39977 1.99838 8.00325 1.93893 8.58547 2.05475C9.16769 2.17057 9.70249 2.45645 10.1223 2.87624C10.542 3.29603 10.8279 3.83088 10.9437 4.41315C11.0595 4.99541 11 5.59894 10.7729 6.14742C10.5457 6.6959 10.161 7.16471 9.66743 7.49453C9.17384 7.82436 8.59355 8.00041 7.99992 8.00041C7.20389 8.00041 6.44047 7.68417 5.87759 7.12124C5.31472 6.55832 4.9985 5.79484 4.9985 4.99874Z" fill="var(--tw-svg-color, #0D363F)"/>
</svg>
