<svg width="24" height="24" viewBox="0 0 24 24" fill="none" xmlns="http://www.w3.org/2000/svg">
<path d="M16.6819 9.31898L10.2923 15.7086C10.1047 15.8963 9.85027 16.0017 9.58496 16.0018H7.9983C7.44578 16.0018 6.99788 15.5539 6.99788 15.0013V13.4147C6.99797 13.1491 7.10212 12.8941 7.288 12.7044L14.3209 5.51139C15.0467 4.76899 16.0394 4.34792 17.0776 4.3421C18.1158 4.33627 19.1132 4.74617 19.8472 5.48038L19.9193 5.55241C20.669 6.29618 21.0893 7.30938 21.0863 8.36543C21.0833 9.42148 20.6572 10.4323 19.9033 11.1717C17.5443 13.4817 14.3129 16.6971 12.4622 18.5438C11.5243 19.4788 10.254 20.0037 8.92969 20.0034H5.99747C4.33992 20.0034 2.99622 18.6597 2.99622 17.0022V14.072C2.99622 12.7456 3.52306 11.4735 4.46083 10.5355L10.6794 4.31689" stroke="var(--tw-svg-color, #0D363F)" stroke-width="1.2" stroke-linecap="round" stroke-linejoin="round"/>
</svg>
