<svg width="40" height="40" viewBox="0 0 40 40" fill="none" xmlns="http://www.w3.org/2000/svg" data-active="false">
  <circle opacity="var(--agent-status-opacity, 0)" cx="20" cy="20" r="20" fill="#667099"/>
  <circle cx="20" cy="20" r="16" fill="#667099"/>
  <path d="M27.5 20.8891V25.8099C27.5 26.7433 26.7492 27.4999 25.8225 27.4999H14.1775C13.2508 27.4999 12.5 26.7433 12.5 25.8099V15.0233C12.5 14.0899 13.2508 13.3333 14.1775 13.3333H20M23.1917 15.1416L25.6917 17.6416M19.6217 23.5349C19.6333 23.4466 19.6483 23.3591 19.6483 23.2674C19.6483 22.1166 18.7158 21.1841 17.565 21.1841C17.4733 21.1841 17.3858 21.1999 17.2975 21.2108M16.5233 24.3099L19.6325 23.5324C19.7792 23.4958 19.9125 23.4199 20.02 23.3133L27.0117 16.3216C27.6625 15.6708 27.6625 14.6158 27.0117 13.9649L26.8683 13.8216C26.2175 13.1708 25.1625 13.1708 24.5117 13.8216L17.52 20.8133C17.4133 20.9199 17.3375 21.0541 17.3008 21.2008L16.5233 24.3099Z" stroke="white" stroke-linecap="round" stroke-linejoin="round"/>
</svg>
