<svg width="24" height="24" viewBox="0 0 24 24" fill="none" xmlns="http://www.w3.org/2000/svg">
<path fill-rule="evenodd" clip-rule="evenodd" d="M12 1.3335C6.10852 1.3335 1.33337 6.10864 1.33337 12.0002C1.33337 17.8917 6.10852 22.6668 12 22.6668C13.7984 22.6668 15.4905 22.2168 16.9751 21.4311L20.9401 22.4224C21.8352 22.6461 22.646 21.8353 22.4222 20.9402L21.431 16.9753C22.2166 15.4906 22.6667 13.7985 22.6667 12.0002C22.6667 6.10864 17.8916 1.3335 12 1.3335ZM8.73 12.5549C8.73 13.2038 8.20394 13.7299 7.55501 13.7299C6.90607 13.7299 6.38 13.2038 6.38 12.5549C6.38 11.9059 6.90607 11.3799 7.55501 11.3799C8.20394 11.3799 8.73 11.9059 8.73 12.5549ZM13.18 12.5549C13.18 13.2038 12.6539 13.7299 12.005 13.7299C11.3561 13.7299 10.83 13.2038 10.83 12.5549C10.83 11.9059 11.3561 11.3799 12.005 11.3799C12.6539 11.3799 13.18 11.9059 13.18 12.5549ZM16.435 13.7299C17.0839 13.7299 17.61 13.2038 17.61 12.5549C17.61 11.9059 17.0839 11.3799 16.435 11.3799C15.7861 11.3799 15.26 11.9059 15.26 12.5549C15.26 13.2038 15.7861 13.7299 16.435 13.7299Z" fill="var(--tw-svg-color, #0D363F)"/>
</svg>
