<svg width="16" height="16" viewBox="0 0 16 16" fill="none" xmlns="http://www.w3.org/2000/svg">
<path fill-rule="evenodd" clip-rule="evenodd" d="M1.50016 4.00004C1.50016 2.61933 2.61945 1.50004 4.00016 1.50004H5.3335C5.60964 1.50004 5.8335 1.7239 5.8335 2.00004C5.8335 2.27618 5.60964 2.50004 5.3335 2.50004H4.00016C3.17174 2.50004 2.50016 3.17161 2.50016 4.00004V5.33337C2.50016 5.60952 2.27631 5.83337 2.00016 5.83337C1.72402 5.83337 1.50016 5.60952 1.50016 5.33337V4.00004Z" fill="var(--tw-svg-color, #0D363F)"/>
<path fill-rule="evenodd" clip-rule="evenodd" d="M14.0002 7.50004C14.2763 7.50004 14.5002 7.7239 14.5002 8.00004V12C14.5002 13.3808 13.3809 14.5 12.0002 14.5H10.6668C10.3907 14.5 10.1668 14.2762 10.1668 14C10.1668 13.7239 10.3907 13.5 10.6668 13.5H12.0002C12.8286 13.5 13.5002 12.8285 13.5002 12V8.00004C13.5002 7.7239 13.724 7.50004 14.0002 7.50004Z" fill="var(--tw-svg-color, #0D363F)"/>
<path fill-rule="evenodd" clip-rule="evenodd" d="M0.833496 14C0.833496 12.8034 1.80355 11.8334 3.00016 11.8334H6.3335C6.90813 11.8334 7.45923 12.0616 7.86556 12.468C8.27189 12.8743 8.50016 13.4254 8.50016 14C8.50016 14.2762 8.27631 14.5 8.00016 14.5C7.72402 14.5 7.50016 14.2762 7.50016 14C7.50016 13.6906 7.37725 13.3939 7.15845 13.1751C6.93966 12.9563 6.64292 12.8334 6.3335 12.8334H3.00016C2.35583 12.8334 1.8335 13.3557 1.8335 14C1.8335 14.2762 1.60964 14.5 1.3335 14.5C1.05735 14.5 0.833496 14.2762 0.833496 14Z" fill="var(--tw-svg-color, #0D363F)"/>
<path fill-rule="evenodd" clip-rule="evenodd" d="M4.66683 7.83337C4.0225 7.83337 3.50016 8.35571 3.50016 9.00004C3.50016 9.64437 4.0225 10.1667 4.66683 10.1667C5.31116 10.1667 5.8335 9.64437 5.8335 9.00004C5.8335 8.35571 5.31116 7.83337 4.66683 7.83337ZM2.50016 9.00004C2.50016 7.80342 3.47021 6.83337 4.66683 6.83337C5.86345 6.83337 6.8335 7.80342 6.8335 9.00004C6.8335 10.1967 5.86345 11.1667 4.66683 11.1667C3.47021 11.1667 2.50016 10.1967 2.50016 9.00004Z" fill="var(--tw-svg-color, #0D363F)"/>
<path fill-rule="evenodd" clip-rule="evenodd" d="M8.8335 3.8031C9.10964 3.8031 9.3335 4.02696 9.3335 4.3031V6.03463C9.3335 6.22402 9.4405 6.39716 9.6099 6.48186L9.99603 6.67492C10.4183 6.88606 10.9154 6.88606 11.3377 6.67492L11.7238 6.48187C11.7238 6.48187 11.7238 6.48186 11.7238 6.48187C11.8932 6.39716 12.0002 6.22402 12.0002 6.03465V4.3031C12.0002 4.02696 12.224 3.8031 12.5002 3.8031C12.7763 3.8031 13.0002 4.02696 13.0002 4.3031V6.03462C13.0002 6.03462 13.0002 6.03463 13.0002 6.03462C13.0002 6.60277 12.6792 7.12218 12.171 7.37628L11.7849 7.56935C11.7849 7.56935 11.7849 7.56935 11.7849 7.56935C11.0811 7.92125 10.2526 7.92125 9.54883 7.56935C9.54883 7.56935 9.54883 7.56935 9.54883 7.56935L9.1627 7.37629C8.65451 7.12221 8.33349 6.6028 8.3335 6.03463C8.3335 6.03463 8.3335 6.03464 8.3335 6.03463V4.3031C8.3335 4.02696 8.55735 3.8031 8.8335 3.8031Z" fill="var(--tw-svg-color, #0D363F)"/>
<path fill-rule="evenodd" clip-rule="evenodd" d="M9.73217 1.04536C10.3233 0.762712 11.0105 0.762713 11.6016 1.04536L13.8368 2.11422C14.2421 2.30807 14.5002 2.71744 14.5002 3.16671C14.5002 3.61598 14.2422 4.02533 13.8369 4.21919L11.6016 5.28807C11.0105 5.57071 10.3233 5.57071 9.73217 5.28807C9.73217 5.28807 9.73217 5.28807 9.73217 5.28807L7.49689 4.21921C7.0916 4.02536 6.83358 3.61598 6.83358 3.16671C6.83358 2.71744 7.09155 2.30809 7.49685 2.11424L9.73217 1.04536C9.73217 1.04536 9.73217 1.04536 9.73217 1.04536ZM11.1702 1.94752C10.8519 1.79533 10.4818 1.79533 10.1636 1.94752L7.92833 3.01636C7.92832 3.01637 7.92835 3.01635 7.92833 3.01636C7.87046 3.04406 7.83358 3.10255 7.83358 3.16671C7.83358 3.23088 7.87041 3.28934 7.92828 3.31704C7.92827 3.31704 7.9283 3.31705 7.92828 3.31704L10.1636 4.3859C10.4818 4.5381 10.8519 4.5381 11.1702 4.38591L13.4054 3.31707C13.4054 3.31707 13.4054 3.31706 13.4054 3.31707C13.4633 3.28936 13.5002 3.23088 13.5002 3.16671C13.5002 3.10255 13.4633 3.04408 13.4055 3.01638C13.4054 3.01637 13.4055 3.01639 13.4055 3.01638L11.1702 1.94752Z" fill="var(--tw-svg-color, #0D363F)"/>
<path fill-rule="evenodd" clip-rule="evenodd" d="M14.0002 2.66248C14.2763 2.66248 14.5002 2.88633 14.5002 3.16248V4.66684C14.5002 4.94299 14.2763 5.16684 14.0002 5.16684C13.724 5.16684 13.5002 4.94299 13.5002 4.66684V3.16248C13.5002 2.88633 13.724 2.66248 14.0002 2.66248Z" fill="var(--tw-svg-color, #0D363F)"/>
</svg>
