<svg xmlns="http://www.w3.org/2000/svg" width="24" height="24" viewBox="0 0 24 24">
  <g id="icon_inbound_call" transform="translate(-116 -207)">
    <path id="icon" d="M7.2,4.478a1.016,1.016,0,0,0-.326.027,3.328,3.328,0,0,0-1.555.934C3.511,7.25,2.551,10.3,9.36,17.114s9.863,5.85,11.675,4.038a3.33,3.33,0,0,0,.936-1.558,1.007,1.007,0,0,0-.47-1.112L17.48,16.127a1.006,1.006,0,0,0-1.025,0l-1.6.954a1,1,0,0,1-1.135-.067,26.254,26.254,0,0,1-2.278-1.987,25.957,25.957,0,0,1-1.987-2.278,1,1,0,0,1-.067-1.135l.954-1.6a1.01,1.01,0,0,0,0-1.028L7.994,4.977A1.014,1.014,0,0,0,7.2,4.478Z" transform="translate(115 205.525)" fill="#fff"/>
  </g>
</svg>
