<svg xmlns="http://www.w3.org/2000/svg" width="16" height="14" viewBox="0 0 16 14"><path d="M1.625 10.797a1.619 1.619 0 0 1-1.162-.439A1.455 1.455 0 0 1 0 9.254V4.746a1.458 1.458 0 0 1 .463-1.1 1.621 1.621 0 0 1 1.162-.439h12.75a1.625 1.625 0 0 1 1.163.439 1.46 1.46 0 0 1 .462 1.1v4.508a1.457 1.457 0 0 1-.462 1.1 1.623 1.623 0 0 1-1.163.439Zm0-.949h12.75a.613.613 0 0 0 .437-.178.553.553 0 0 0 .188-.416V4.746a.553.553 0 0 0-.188-.415.613.613 0 0 0-.437-.178H1.625a.613.613 0 0 0-.437.178.553.553 0 0 0-.188.415v4.508a.553.553 0 0 0 .188.415.613.613 0 0 0 .437.178ZM0 .949V0h16v.949ZM0 14v-.949h16V14Zm1-9.847Z" fill="#767676"/></svg>
