<svg width="14" height="14" viewBox="0 0 14 14" fill="none" xmlns="http://www.w3.org/2000/svg">
<path d="M1.74756 12.2526V10.9397C1.74756 9.49522 4.11127 8.31327 7.00005 8.31327C9.88884 8.31327 12.2526 9.49522 12.2526 10.9397V12.2526H1.74756ZM4.37381 4.37402C4.37381 3.85456 4.52783 3.34675 4.81641 2.91483C5.10498 2.48291 5.51515 2.14628 5.99503 1.94749C6.47492 1.7487 7.00297 1.69668 7.51241 1.79802C8.02185 1.89937 8.4898 2.14952 8.85709 2.51684C9.22438 2.88415 9.4745 3.35214 9.57584 3.86162C9.67717 4.37111 9.62517 4.89919 9.42639 5.37911C9.22762 5.85904 8.891 6.26924 8.45912 6.55784C8.02724 6.84644 7.51948 7.00048 7.00005 7.00048C6.30353 7.00048 5.63553 6.72377 5.14302 6.23121C4.6505 5.73865 4.37381 5.0706 4.37381 4.37402Z" fill="var(--tw-svg-color, #0D363F)"/>
</svg>
