<svg width="26" height="24" viewBox="0 0 26 24" fill="none" xmlns="http://www.w3.org/2000/svg">
<path fill-rule="evenodd" clip-rule="evenodd" d="M15.504 5.69141L12.4462 2.63362C12.0407 2.22814 11.4903 2 10.9173 2H3.16251C1.96772 2 1 2.96772 1 4.16251V19.3001C1 20.4949 1.96772 21.4626 3.16251 21.4626H13.9751C15.1699 21.4626 16.1376 20.4949 16.1376 19.3001V7.2203C16.1376 6.64724 15.9094 6.09688 15.504 5.69141V5.69141Z" stroke="var(--tw-svg-color, #0D363F)" stroke-width="1.2" stroke-linecap="round" stroke-linejoin="round"/>
<path d="M16.1377 7.40628H11.8127C11.2158 7.40628 10.7314 6.92188 10.7314 6.32502V2" stroke="var(--tw-svg-color, #0D363F)" stroke-width="1.2" stroke-linecap="round" stroke-linejoin="round"/>
<path d="M4.24377 10.6505H10.7313" stroke="var(--tw-svg-color, #0D363F)" stroke-width="1.2" stroke-linecap="round" stroke-linejoin="round"/>
<path d="M4.24377 13.8922H10.7313" stroke="var(--tw-svg-color, #0D363F)" stroke-width="1.2" stroke-linecap="round" stroke-linejoin="round"/>
<path d="M4.24377 17.1368H8.92561" stroke="var(--tw-svg-color, #0D363F)" stroke-width="1.2" stroke-linecap="round" stroke-linejoin="round"/>
<path d="M19.4393 10.5156L22.2196 13.296L25 10.5156" stroke="var(--tw-svg-color, #0D363F)" stroke-width="1.2" stroke-linecap="round" stroke-linejoin="round"/>
</svg>
