<svg xmlns="http://www.w3.org/2000/svg" width="16" height="16" viewBox="0 0 16 16"><path fill="#fff" d="M8.001 0a8 8 0 0 1 8 8 8 8 0 0 1-8 8 8 8 0 0 1-8-8 8 8 0 0 1 8-8Z"/><path d="M8.001.381a7.618 7.618 0 0 1 7.618 7.618 7.619 7.619 0 0 1-7.618 7.62 7.62 7.62 0 0 1-7.62-7.62A7.62 7.62 0 0 1 8.001.381Z" fill="#538ec0"/><path fill="#fff" d="M5.614 4.192a.452.452 0 0 0-.145.012 1.479 1.479 0 0 0-.691.415c-.8.8-1.232 2.162 1.795 5.189s4.384 2.6 5.189 1.795a1.48 1.48 0 0 0 .416-.693.448.448 0 0 0-.209-.494l-1.788-1.048a.447.447 0 0 0-.455 0l-.711.424a.446.446 0 0 1-.5-.03 11.669 11.669 0 0 1-1.013-.883 11.537 11.537 0 0 1-.883-1.013.445.445 0 0 1-.03-.5l.424-.711a.449.449 0 0 0 0-.457L5.965 4.415a.451.451 0 0 0-.351-.223Z"/></svg>
