<svg width="20" height="17" viewBox="0 0 20 17" fill="none" xmlns="http://www.w3.org/2000/svg">
<path fill-rule="evenodd" clip-rule="evenodd" d="M10.6673 2.33268C10.6673 2.70087 10.3688 2.99935 10.0007 2.99935C9.63246 2.99935 9.33398 2.70087 9.33398 2.33268C9.33398 1.96449 9.63246 1.66602 10.0007 1.66602C10.3688 1.66602 10.6673 1.96449 10.6673 2.33268ZM10.4173 3.94684C11.1362 3.76182 11.6673 3.10928 11.6673 2.33268C11.6673 1.41221 10.9211 0.666016 10.0007 0.666016C9.08018 0.666016 8.33398 1.41221 8.33398 2.33268C8.33398 3.10928 8.86514 3.76182 9.58398 3.94684V4.16602V4.83268H4.16732C3.24684 4.83268 2.50065 5.57888 2.50065 6.49935V7.66602H1.66732C0.930938 7.66602 0.333984 8.26297 0.333984 8.99935V12.3327C0.333984 13.0691 0.930938 13.666 1.66732 13.666H2.50065V14.8327C2.50065 15.7532 3.24684 16.4993 4.16732 16.4993H15.834C16.7545 16.4993 17.5007 15.7532 17.5007 14.8327V13.666H18.334C19.0704 13.666 19.6673 13.0691 19.6673 12.3327V8.99935C19.6673 8.26297 19.0704 7.66602 18.334 7.66602H17.5007V6.49935C17.5007 5.57887 16.7545 4.83268 15.834 4.83268H10.4173V4.16602V3.94684ZM16.5007 6.49935C16.5007 6.13116 16.2022 5.83268 15.834 5.83268H4.16732C3.79913 5.83268 3.50065 6.13116 3.50065 6.49935V14.8327C3.50065 15.2009 3.79913 15.4993 4.16732 15.4993H15.834C16.2022 15.4993 16.5007 15.2009 16.5007 14.8327V6.49935ZM17.5007 8.66602V12.666H18.334C18.5181 12.666 18.6673 12.5168 18.6673 12.3327V8.99935C18.6673 8.81525 18.5181 8.66602 18.334 8.66602H17.5007ZM1.66732 8.66602H2.50065V12.666H1.66732C1.48322 12.666 1.33398 12.5168 1.33398 12.3327V8.99935C1.33398 8.81525 1.48322 8.66602 1.66732 8.66602ZM7.50065 10.4993C7.86884 10.4993 8.16732 10.2009 8.16732 9.83268C8.16732 9.46449 7.86884 9.16601 7.50065 9.16601C7.13246 9.16601 6.83398 9.46449 6.83398 9.83268C6.83398 10.2009 7.13246 10.4993 7.50065 10.4993ZM7.50065 11.4993C8.42113 11.4993 9.16732 10.7532 9.16732 9.83268C9.16732 8.91221 8.42113 8.16602 7.50065 8.16602C6.58018 8.16602 5.83398 8.91221 5.83398 9.83268C5.83398 10.7532 6.58018 11.4993 7.50065 11.4993ZM12.5007 10.4993C12.8688 10.4993 13.1673 10.2009 13.1673 9.83268C13.1673 9.46449 12.8688 9.16601 12.5007 9.16601C12.1325 9.16601 11.834 9.46449 11.834 9.83268C11.834 10.2009 12.1325 10.4993 12.5007 10.4993ZM12.5007 11.4993C13.4211 11.4993 14.1673 10.7532 14.1673 9.83268C14.1673 8.91221 13.4211 8.16602 12.5007 8.16602C11.5802 8.16602 10.834 8.91221 10.834 9.83268C10.834 10.7532 11.5802 11.4993 12.5007 11.4993Z" fill="var(--tw-svg-color, #0D363F)"/>
</svg>
