<svg width="15" height="14" viewBox="0 0 15 14" fill="none" xmlns="http://www.w3.org/2000/svg">
<path fill-rule="evenodd" clip-rule="evenodd" d="M8.7953 1.31616C6.25112 0.729632 3.62611 1.8991 2.36067 4.18285C1.09523 6.4666 1.4954 9.31233 3.34159 11.1585C5.18778 13.0047 8.03351 13.4049 10.3173 12.1395C12.601 10.874 13.7705 8.24903 13.184 5.70484C13.1219 5.43576 13.2898 5.16734 13.5589 5.1053C13.8279 5.04327 14.0964 5.21112 14.1584 5.4802C14.8451 8.45905 13.4759 11.5325 10.8019 13.0142C8.128 14.4958 4.79609 14.0272 2.63448 11.8656C0.472874 9.70401 0.00434178 6.3721 1.48598 3.69817C2.96762 1.02425 6.0411 -0.345016 9.01994 0.341723C9.28903 0.403757 9.45687 0.672182 9.39484 0.941266C9.3328 1.21035 9.06438 1.3782 8.7953 1.31616ZM12.2495 0.694376C12.5256 0.694376 12.7495 0.918233 12.7495 1.19438V1.75053H13.3056C13.5817 1.75053 13.8056 1.97439 13.8056 2.25053C13.8056 2.52667 13.5817 2.75053 13.3056 2.75053H12.7495V3.30549C12.7495 3.58163 12.5256 3.80549 12.2495 3.80549C11.9733 3.80549 11.7495 3.58163 11.7495 3.30549V2.75053H11.1945C10.9183 2.75053 10.6945 2.52667 10.6945 2.25053C10.6945 1.97439 10.9183 1.75053 11.1945 1.75053H11.7495V1.19438C11.7495 0.918233 11.9733 0.694376 12.2495 0.694376ZM7.50013 4.16658C6.8558 4.16658 6.33347 4.68892 6.33347 5.33325C6.33347 5.97758 6.8558 6.49992 7.50013 6.49992C8.14447 6.49992 8.6668 5.97758 8.6668 5.33325C8.6668 4.68892 8.14447 4.16658 7.50013 4.16658ZM5.33347 5.33325C5.33347 4.13663 6.30352 3.16658 7.50013 3.16658C8.69675 3.16658 9.6668 4.13663 9.6668 5.33325C9.6668 6.52987 8.69675 7.49992 7.50013 7.49992C6.30352 7.49992 5.33347 6.52987 5.33347 5.33325ZM6.02633 9.16658C5.56291 9.1668 5.14365 9.44155 4.95849 9.86637C4.84815 10.1195 4.55349 10.2353 4.30035 10.1249C4.04721 10.0146 3.93144 9.71994 4.04178 9.4668C4.38583 8.67748 5.16482 8.16699 6.02586 8.16658H8.97417C9.83521 8.16699 10.6144 8.67748 10.9585 9.4668C11.0688 9.71994 10.9531 10.0146 10.6999 10.1249C10.4468 10.2353 10.1521 10.1195 10.0418 9.86637C9.85662 9.44155 9.43736 9.1668 8.97394 9.16658H6.02633Z" fill="var(--tw-svg-color, #0D363F)"/>
</svg>
