<svg xmlns="http://www.w3.org/2000/svg" width="20" height="20" viewBox="0 0 20 20"><path d="M7.647 17.276a2.549 2.549 0 0 1 2.549-2.549 2.55 2.55 0 0 1 2.549 2.549 2.549 2.549 0 0 1-2.549 2.549 2.549 2.549 0 0 1-2.549-2.549Zm0-7.081a2.548 2.548 0 0 1 2.549-2.549 2.549 2.549 0 0 1 2.549 2.549 2.549 2.549 0 0 1-2.549 2.549 2.548 2.548 0 0 1-2.549-2.548Zm0-7.081A2.549 2.549 0 0 1 10.196.566a2.549 2.549 0 0 1 2.549 2.549 2.55 2.55 0 0 1-2.549 2.549 2.549 2.549 0 0 1-2.549-2.549Z" fill="#767676"/></svg>
