<svg width="16" height="16" viewBox="0 0 16 16" fill="none" xmlns="http://www.w3.org/2000/svg">
<path fill-rule="evenodd" clip-rule="evenodd" d="M1.93329 4.53311C1.93329 3.64552 2.64571 2.93311 3.53329 2.93311H13.1333C14.0209 2.93311 14.7333 3.64553 14.7333 4.53311C14.7333 4.56302 14.7325 4.59259 14.7308 4.6218C14.7325 4.63645 14.7333 4.65135 14.7333 4.66644V11.3331C14.7333 12.2874 13.9542 13.0664 13 13.0664H3.66662C2.71237 13.0664 1.93329 12.2874 1.93329 11.3331V4.66644C1.93329 4.65137 1.93412 4.63649 1.93575 4.62185C1.93412 4.5926 1.93329 4.56302 1.93329 4.53311ZM2.73329 5.92646V11.3331C2.73329 11.4427 2.75255 11.5482 2.78786 11.6462L6.16356 8.27048L2.73329 5.92646ZM7.034 7.89634C7.0204 7.88571 7.00626 7.87607 6.9917 7.86744L3.10541 5.21181C2.848 5.0022 2.73329 4.77754 2.73329 4.53311C2.73329 4.08735 3.08754 3.73311 3.53329 3.73311H13.1333C13.579 3.73311 13.9333 4.08735 13.9333 4.53311C13.9333 4.778 13.8201 5.00849 13.5919 5.30217L9.6916 7.90238C9.68722 7.90518 9.68288 7.90807 9.67859 7.91106L9.64761 7.9317C8.8481 8.44429 7.88724 8.44468 7.08748 7.93289L7.034 7.89634ZM6.84588 8.71953L3.35354 12.2119C3.45156 12.2472 3.557 12.2664 3.66662 12.2664H13C13.1096 12.2664 13.215 12.2472 13.313 12.2119L9.84411 8.74295C8.89373 9.24862 7.79158 9.24082 6.84588 8.71953ZM10.5345 8.30194L13.8787 11.6462C13.914 11.5482 13.9333 11.4427 13.9333 11.3331V6.03607L10.5345 8.30194Z" fill="var(--tw-svg-color, #0D363F)"/>
</svg>
