<svg width="24" height="24" viewBox="0 0 24 24" fill="none" xmlns="http://www.w3.org/2000/svg">
<path d="M8.99996 15L5.99996 17V14C5.33329 14 4.66662 14 3.99996 14C3.44767 14 2.99996 13.5523 2.99996 13C2.99999 10.3334 3.00011 7.66673 2.99995 5.00009C2.99992 4.44777 3.44765 4 3.99997 4H15C15.5522 4 16 4.44772 16 5C16 6 16 7 16 8M14 18L18 21V18C18.6666 18 19.3333 18 20 18C20.5522 18 21 17.5523 21 17V9C21 8.44772 20.5522 8 20 8C16.6666 8 13.3333 8 9.99996 8C9.44767 8 8.99996 8.44772 8.99996 9V17C8.99996 17.5523 9.44767 18 9.99996 18C11.3333 18 12.6666 18 14 18Z" stroke="var(--tw-svg-color, #0D363F)" stroke-width="1.2" stroke-linecap="round" stroke-linejoin="round"/>
<path d="M12.4304 12.9646C12.4499 12.9842 12.4499 13.0158 12.4304 13.0354C12.4108 13.0549 12.3792 13.0549 12.3597 13.0354C12.3401 13.0158 12.3401 12.9842 12.3597 12.9646C12.3792 12.9451 12.4108 12.9451 12.4304 12.9646" stroke="var(--tw-svg-color, #0D363F)" stroke-width="1.2" stroke-linecap="round" stroke-linejoin="round"/>
<path d="M15.0354 12.9646C15.0549 12.9842 15.0549 13.0158 15.0354 13.0354C15.0158 13.0549 14.9842 13.0549 14.9646 13.0354C14.9451 13.0158 14.9451 12.9842 14.9646 12.9646C14.9842 12.9451 15.0158 12.9451 15.0354 12.9646" stroke="var(--tw-svg-color, #0D363F)" stroke-width="1.2" stroke-linecap="round" stroke-linejoin="round"/>
<path d="M17.6405 12.9646C17.66 12.9842 17.66 13.0158 17.6405 13.0354C17.6209 13.0549 17.5893 13.0549 17.5697 13.0354C17.5502 13.0158 17.5502 12.9842 17.5697 12.9646C17.5893 12.9451 17.6209 12.9451 17.6405 12.9646" stroke="var(--tw-svg-color, #0D363F)" stroke-width="1.2" stroke-linecap="round" stroke-linejoin="round"/>
</svg>
