<svg xmlns="http://www.w3.org/2000/svg" viewBox="0 0 18 18">
<path d="M6.436 9.105l-6.309 7.979c-0.411 0.523 0.267 1.2 0.79 0.79l7.974-6.315c-0.46-5.719-0.075-0.864-2.455-2.454z"/>
<path d="M13.109 0.024c-0.177-0.037-0.359-0.029-0.516 0.014-0.315 0.087-0.579 0.285-0.788 0.553-0.004 0.005-0.009 0.011-0.013 0.018l-2.855 4.014c-1.834-0.378-3.812 0.106-5.232 1.526-0.102 0.102-0.165 0.242-0.165 0.398s0.063 0.296 0.165 0.398l7.347 7.346c0.102 0.102 0.242 0.165 0.398 0.165s0.296-0.063 0.398-0.165c1.438-1.437 1.917-3.446 1.513-5.298l4.011-2.733c0.008-0.006 0.015-0.010 0.021-0.015 0.271-0.202 0.473-0.462 0.566-0.775s0.044-0.731-0.229-1.005l0.001 0.001-4.136-4.184c-0.136-0.138-0.307-0.221-0.484-0.258z"/>
</svg>