<svg xmlns="http://www.w3.org/2000/svg" width="36" height="36" fill="none" viewBox="0 0 36 36">
  <path fill="var(--c-logo)" d="M34.066 3.311a.947.947 0 0 0 .958-.933.948.948 0 0 0-.958-.933.948.948 0 0 0-.959.933c0 .514.43.933.96.933ZM3.75 3.41c0-.466-.258-.889-.676-1.145.311-.249.502-.615.502-.997C3.576.533 2.914 0 2.002 0H.129v4.773H2.24c.847 0 1.51-.599 1.51-1.363Zm-1.008-.088c0 .326-.277.582-.631.582h-.974v-1.16h.974c.354 0 .631.255.631.578Zm-.708-1.427h-.897V.875h.897c.303 0 .558.23.558.501 0 .277-.26.52-.558.52ZM33.107 23.233c0 .515.43.933.96.933a.947.947 0 0 0 .957-.933.948.948 0 0 0-.958-.934c-.528 0-.959.42-.959.934ZM23.794.025h-1.01v4.773h1.01V.025ZM12.962 15.31c.717 0 1.36-.22 1.863-.636l.063-.052V12.57h-2.56v.839h1.564v.696c-.261.179-.58.272-.93.272-.917 0-1.557-.636-1.557-1.549 0-.915.642-1.53 1.597-1.53.383 0 .735.094 1.018.27l.162.1.466-.818-.142-.09c-.434-.27-.968-.412-1.544-.412-1.522 0-2.586 1.02-2.586 2.48 0 1.462 1.064 2.482 2.586 2.482ZM11.806 3.112h.478l1.2 1.66h1.168l-1.307-1.8c.622-.222 1.022-.767 1.022-1.42C14.367.624 13.693 0 12.69 0h-1.894v4.773h1.01V3.112Zm0-2.18h.85c.458 0 .722.226.722.62 0 .403-.264.633-.721.633h-.851V.933ZM33.563 15.215h1.009v-3.84h1.408v-.932h-3.825v.931h1.407v3.841ZM22.816 25.682h1.01v-3.84h1.407v-.932h-3.825v.932h1.408v3.84ZM25.086 32.78c0-.928-.675-1.552-1.679-1.552h-1.892V36h1.01v-1.661h.478L24.2 36h1.169l-1.306-1.8c.62-.223 1.022-.768 1.022-1.42Zm-2.561-.62h.85c.459 0 .721.226.721.62 0 .402-.262.633-.72.633h-.851V32.16ZM22.384 13.213h1.882v2.003h1.01v-4.774h-1.01v1.845h-1.882v-1.845h-1.009v4.774h1.009v-2.003ZM.954 12.76c0 .515.43.934.958.934.529 0 .958-.419.958-.934a.947.947 0 0 0-.958-.933.947.947 0 0 0-.958.933ZM34.996 31.228v2.971l-2.045-2.971h-.924V36h1.008v-2.958L35.075 36H36v-4.772h-1.004ZM0 32.16h1.407V36h1.01v-3.84h1.406v-.932H0v.932ZM1.137 23.897h.883c.984 0 1.699-.653 1.699-1.552 0-.933-.683-1.56-1.699-1.56H.13v4.773h1.008v-1.66Zm0-2.179h.85c.46 0 .722.226.722.62 0 .402-.262.633-.721.633h-.85v-1.253ZM11.982 33.998h2.07v-.901h-2.07v-.95h2.34v-.919h-3.35V36h3.396v-.913h-2.386v-1.089ZM12.138 20.785l-1.87 4.774h1.034l.429-1.087h1.795l.435 1.087h1.033l-1.868-4.774h-.988Zm1.054 2.805h-1.127l.565-1.416.562 1.416Z"/>
</svg>