<svg width="24" height="24" viewBox="0 0 24 24" fill="none" xmlns="http://www.w3.org/2000/svg">
<path fill-rule="evenodd" clip-rule="evenodd" d="M12.8003 2.99609C13.2223 2.99609 13.599 3.26112 13.7417 3.65837L14.2499 5.07396C14.3305 5.29657 14.4871 5.4836 14.692 5.60218L16.1997 6.47254C16.4044 6.59066 16.6443 6.63248 16.877 6.59059L18.3576 6.32348C18.7733 6.24788 19.1918 6.44168 19.403 6.80768L20.2033 8.18826C20.4151 8.55326 20.3751 9.01193 20.1033 9.33473L19.1319 10.4832C18.9789 10.6638 18.8949 10.8928 18.8948 11.1295V12.8702C18.8949 13.1069 18.9789 13.3359 19.1319 13.5165L20.1033 14.665C20.3751 14.9878 20.4151 15.4464 20.2033 15.8114L19.403 17.192C19.1919 17.5576 18.774 17.7514 18.3586 17.6762L16.878 17.4091C16.6453 17.3672 16.4054 17.409 16.2007 17.5271L14.693 18.3975C14.4881 18.5161 14.3315 18.7031 14.2509 18.9257L13.7427 20.3413C13.5999 20.7389 13.2227 21.004 12.8003 21.0036H11.1996C10.7775 21.0036 10.4009 20.7386 10.2582 20.3413L9.74999 18.9257C9.66935 18.7034 9.5132 18.5165 9.30881 18.3975L7.80018 17.5271C7.59545 17.409 7.35551 17.3672 7.12289 17.4091L5.64228 17.6762C5.22651 17.7518 4.80808 17.558 4.59684 17.192L3.79651 15.8114C3.58471 15.4464 3.62473 14.9878 3.89655 14.665L4.86796 13.5165C5.02095 13.3359 5.10496 13.1069 5.10505 12.8702V11.1295C5.10496 10.8928 5.02095 10.6638 4.86796 10.4832L3.90656 9.33473C3.63474 9.01193 3.59471 8.55326 3.80651 8.18826L4.60685 6.80768C4.81795 6.44207 5.23584 6.24833 5.65128 6.32348L7.1319 6.59059C7.36452 6.63248 7.60445 6.59066 7.80918 6.47254L9.31781 5.60218C9.52221 5.48322 9.67835 5.29628 9.75899 5.07396L10.2672 3.65837C10.4087 3.26421 10.7808 2.99993 11.1996 2.99609H12.8003Z" stroke="var(--tw-svg-color, #0D363F)" stroke-width="1.2" stroke-linecap="round" stroke-linejoin="round"/>
<path d="M14.7511 11.9998C14.7511 13.5193 13.5193 14.751 11.9999 14.751C10.4805 14.751 9.24878 13.5193 9.24878 11.9998C9.24878 10.4804 10.4805 9.2487 11.9999 9.2487C13.5193 9.2487 14.7511 10.4804 14.7511 11.9998Z" stroke="var(--tw-svg-color, #0D363F)" stroke-width="1.2" stroke-linecap="round" stroke-linejoin="round"/>
</svg>
