<svg xmlns="http://www.w3.org/2000/svg" width="30" height="30" viewBox="0 0 30 30" >
  <circle fill="rgba(150,64,207,0.8)" r="15" cy="15" cx="15" />
  <g>
    <path fill="#fff" d="m15.07448,11.2165a0.5,0.5 0 0 0 -0.492,0.507l0,0.525a6,6 0 0 0 -5.475,5.472l-0.525,0a0.5,0.5 0 1 0 0,1l0.525,0a6,6 0 0 0 5.475,5.471l0,0.525a0.5,0.5 0 0 0 1,0l0,-0.525a6,6 0 0 0 5.475,-5.472l0.525,0a0.5,0.5 0 1 0 0,-1l-0.525,0a6,6 0 0 0 -5.475,-5.471l0,-0.525a0.5,0.5 0 0 0 -0.508,-0.507zm-0.492,2.03l0,2.35a0.5,0.5 0 0 0 1,0l0,-2.35a4.992,4.992 0 0 1 4.475,4.474l-2.35,0a0.5,0.5 0 1 0 0,1l2.351,0a4.992,4.992 0 0 1 -4.476,4.473l0,-2.35a0.5,0.5 0 1 0 -1,0l0,2.35a4.992,4.992 0 0 1 -4.476,-4.474l2.351,0a0.5,0.5 0 1 0 0,-1l-2.351,0a4.992,4.992 0 0 1 4.476,-4.473z" />
    <path fill="#fff" d="m15.08248,6.2165a15.685,15.685 0 0 0 -10.4,3.932a1.836,1.836 0 0 0 -0.051,2.668l1.133,0.859a1.854,1.854 0 0 0 2.463,0.145l2.155,-1.524a1.841,1.841 0 0 0 0.7,-1.447l0,-2.008a11.909,11.909 0 0 1 4,-0.625a11.893,11.893 0 0 1 4,0.582l0,2.01a1.837,1.837 0 0 0 0.7,1.445l2.155,1.563a1.854,1.854 0 0 0 2.463,-0.145l1.133,-0.859a1.836,1.836 0 0 0 -0.047,-2.664a15.685,15.685 0 0 0 -10.404,-3.932z" />
  </g>
</svg>
