<svg width="20" height="20" viewBox="0 0 20 20" fill="none" xmlns="http://www.w3.org/2000/svg">
<path d="M13.3336 17.4998H3.33354C2.87337 17.4998 2.5003 17.1268 2.50023 16.6667C2.49971 13.3333 2.50023 9.9999 2.50023 6.6665" stroke="var(--tw-svg-color, #0D363F)"  stroke-linecap="round" stroke-linejoin="round"/>
<path fill-rule="evenodd" clip-rule="evenodd" d="M12.9834 2H5.9C5.40294 2 5 2.40294 5 2.9V14.6C5 15.0971 5.40294 15.5 5.9 15.5H17.6C18.0971 15.5 18.5 15.0971 18.5 14.6V7.51641H14.4167C13.6254 7.51641 12.9834 6.87444 12.9834 6.08307V2ZM18.4998 6.31641C18.4923 5.8498 18.3033 5.40332 17.9735 5.0735L15.4274 2.5274C15.0967 2.19665 14.6501 2.00766 14.1834 2.00023V6.08307C14.1834 6.2117 14.2881 6.31641 14.4167 6.31641H18.4998Z" fill="var(--tw-svg-color, #0D363F)"/>
</svg>
