<svg width="24" height="25" viewBox="0 0 24 25" fill="none" xmlns="http://www.w3.org/2000/svg">
<path d="M12.5996 3.4999C12.5996 3.16853 12.331 2.8999 11.9996 2.8999C11.6683 2.8999 11.3996 3.16853 11.3996 3.4999V4.92443C9.65878 5.06124 7.95606 5.79542 6.62451 7.12698C5.92078 7.8307 5.38391 8.6381 5.01389 9.5H6.34379C6.63492 8.9519 7.01133 8.43721 7.47303 7.97551C8.57022 6.87832 9.96667 6.26277 11.3996 6.12886V7.50001C11.3996 7.83138 11.6683 8.10001 11.9996 8.10001C12.331 8.10001 12.5996 7.83138 12.5996 7.50001V6.12904C14.0319 6.26333 15.4276 6.87882 16.5243 7.97551C17.6207 9.07195 18.2362 10.4672 18.3706 11.8992H16.9988C16.6674 11.8992 16.3988 12.1678 16.3988 12.4992C16.3988 12.8305 16.6674 13.0992 16.9988 13.0992H18.371C18.2373 14.5325 17.6217 15.9293 16.5243 17.0267C15.4276 18.1234 14.0319 18.7389 12.5996 18.8732V17.5013C12.5996 17.1699 12.331 16.9013 11.9996 16.9013C11.6683 16.9013 11.3996 17.1699 11.3996 17.5013V18.8734C9.96667 18.7395 8.57022 18.1239 7.47303 17.0267C7.0107 16.5644 6.63389 16.0489 6.3426 15.5H5.01293C5.38298 16.3627 5.92017 17.1709 6.62451 17.8753C7.95606 19.2068 9.65878 19.941 11.3996 20.0778V21.5014C11.3996 21.8327 11.6683 22.1014 11.9996 22.1014C12.331 22.1014 12.5996 21.8327 12.5996 21.5014V20.0777C14.3398 19.9405 16.0417 19.2063 17.3728 17.8753C18.7046 16.5435 19.4388 14.8404 19.5754 13.0992H20.9989C21.3303 13.0992 21.5989 12.8305 21.5989 12.4992C21.5989 12.1678 21.3303 11.8992 20.9989 11.8992H19.5751C19.4377 10.1593 18.7036 8.45779 17.3728 7.12698C16.0417 5.79592 14.3398 5.06179 12.5996 4.92459V3.4999Z" fill="var(--tw-svg-color, #0D363F)"/>
<path fill-rule="evenodd" clip-rule="evenodd" d="M1.40002 12.5C1.40002 12.1686 1.66865 11.9 2.00002 11.9H12C12.3314 11.9 12.6 12.1686 12.6 12.5C12.6 12.8314 12.3314 13.1 12 13.1H2.00002C1.66865 13.1 1.40002 12.8314 1.40002 12.5Z" fill="var(--tw-svg-color, #0D363F)"/>
<path fill-rule="evenodd" clip-rule="evenodd" d="M9.07576 9.57574C9.31007 9.34142 9.68997 9.34142 9.92429 9.57574L12.4243 12.0757C12.6586 12.3101 12.6586 12.6899 12.4243 12.9243L9.92429 15.4243C9.68997 15.6586 9.31007 15.6586 9.07576 15.4243C8.84145 15.1899 8.84145 14.8101 9.07576 14.5757L11.1515 12.5L9.07576 10.4243C8.84145 10.1899 8.84145 9.81005 9.07576 9.57574Z" fill="var(--tw-svg-color, #0D363F)"/>
</svg>
