<svg xmlns="http://www.w3.org/2000/svg" width="20" height="20"><path d="M9.999 2 6.455 5.914a.669.669 0 0 0 0 .885.53.53 0 0 0 .8 0l2.17-2.38v5.085a7.5 7.5 0 0 1-5.026 7.267.641.641 0 0 0-.375.787.584.584 0 0 0 .545.443.514.514 0 0 0 .17-.029 8.723 8.723 0 0 0 5.833-8.468V4.419l2.17 2.38a.525.525 0 0 0 .8 0 .669.669 0 0 0 0-.885zm.893 9.864a9.25 9.25 0 0 1-.571 1.76 8.918 8.918 0 0 0 4.938 4.347.514.514 0 0 0 .17.029.581.581 0 0 0 .545-.443.641.641 0 0 0-.375-.787 7.57 7.57 0 0 1-4.706-4.906z" fill="#767676"/></svg>
