<svg width="20" height="20" viewBox="0 0 20 20" fill="none" xmlns="http://www.w3.org/2000/svg">
<circle cx="10" cy="10" r="8.6" fill="#667099" stroke="white" stroke-width="1.2"/>
<path d="M14.5 10.5335V13.486C14.5 14.046 14.0495 14.5 13.4935 14.5H6.5065C5.9505 14.5 5.5 14.046 5.5 13.486V7.014C5.5 6.454 5.9505 6 6.5065 6H10M11.915 7.085L13.415 8.585M9.773 12.121C9.78 12.068 9.789 12.0155 9.789 11.9605C9.789 11.27 9.2295 10.7105 8.539 10.7105C8.484 10.7105 8.4315 10.72 8.3785 10.7265M7.914 12.586L9.7795 12.1195C9.8675 12.0975 9.9475 12.052 10.012 11.988L14.207 7.793C14.5975 7.4025 14.5975 6.7695 14.207 6.379L14.121 6.293C13.7305 5.9025 13.0975 5.9025 12.707 6.293L8.512 10.488C8.448 10.552 8.4025 10.6325 8.3805 10.7205L7.914 12.586Z" stroke="white" stroke-width="0.6" stroke-linecap="round" stroke-linejoin="round"/>
</svg>
