<svg width="16" height="14" viewBox="0 0 16 14" fill="none" xmlns="http://www.w3.org/2000/svg">
<path fill-rule="evenodd" clip-rule="evenodd" d="M12.5417 0.970482C12.6883 1.13574 12.6732 1.38855 12.5079 1.53516L8.26523 5.29916C8.11377 5.43354 7.88578 5.43354 7.73431 5.29916L4.15711 2.12554V3.47861C4.15711 3.69952 3.97802 3.87861 3.75711 3.87861C3.53619 3.87861 3.35711 3.69952 3.35711 3.47861V1.23594C3.35711 1.01503 3.53619 0.835942 3.75711 0.835942H5.99977C6.22069 0.835942 6.39977 1.01503 6.39977 1.23594C6.39977 1.45686 6.22069 1.63594 5.99977 1.63594H4.8107L7.99977 4.46521L11.977 0.936724C12.1422 0.790115 12.395 0.805229 12.5417 0.970482ZM2.0423 8.93888C3.55578 7.90604 5.66367 7.26661 7.99977 7.26661C10.3359 7.26661 12.4437 7.90604 13.9571 8.93814C14.6422 9.40606 15.0664 10.1645 15.0664 10.9906V11.6666C15.0664 12.6242 14.2907 13.3999 13.3331 13.3999H12.2891C11.5162 13.3999 10.8891 12.7729 10.8891 11.9999V11.0913C10.8891 11.0393 10.8586 11.0061 10.833 10.9962C9.99631 10.6718 9.03214 10.4833 7.99977 10.4833C6.96734 10.4833 6.00312 10.6719 5.16634 10.9962C5.1408 11.0062 5.11044 11.0394 5.11044 11.0913V11.9999C5.11044 12.7729 4.48335 13.3999 3.71044 13.3999H2.66644C1.70886 13.3999 0.933105 12.6242 0.933105 11.6666V10.9906C0.933105 10.1651 1.35733 9.40676 2.0423 8.93888ZM2.49324 9.59967C2.01297 9.92779 1.73311 10.4455 1.73311 10.9906V11.6666C1.73311 12.1824 2.15069 12.5999 2.66644 12.5999H3.71044C4.04152 12.5999 4.31044 12.331 4.31044 11.9999V11.0913C4.31044 10.7339 4.52129 10.3884 4.87705 10.2504C5.80827 9.8894 6.87087 9.68327 7.99977 9.68327C9.12867 9.68327 10.1911 9.88934 11.1223 10.2503C11.4781 10.3884 11.6891 10.7339 11.6891 11.0913V11.9999C11.6891 12.331 11.958 12.5999 12.2891 12.5999H13.3331C13.8489 12.5999 14.2664 12.1824 14.2664 11.6666V10.9906C14.2664 10.4448 13.9866 9.92716 13.5064 9.59908C12.1438 8.66985 10.1983 8.06661 7.99977 8.06661C5.80129 8.06661 3.85576 8.6699 2.49324 9.59967Z" fill="var(--tw-svg-color, #E50013)"/>
</svg>
