<svg width="24" height="24" viewBox="0 0 24 24" fill="none"
  xmlns="http://www.w3.org/2000/svg">
  <path d="M7.60999 16.6099L12 20.9999L16.39 16.6099" stroke="var(--tw-svg-color, #0D363F)" stroke-width="1.2" stroke-linecap="round" stroke-linejoin="round"/>
  <path d="M12 21V12" stroke="var(--tw-svg-color, #0D363F)" stroke-width="1.2" stroke-linecap="round" stroke-linejoin="round"/>
  <path fill-rule="evenodd" clip-rule="evenodd" d="M18.434 12H20C21.105 12 22 11.105 22 10V8.986C22 7.957 21.472 7 20.598 6.403C18.441 4.932 15.401 4 12 4C8.599 4 5.559 4.932 3.402 6.404C2.528 7.001 2 7.958 2 8.986V10C2 11.105 2.895 12 4 12H5.566C6.394 12 7.066 11.328 7.066 10.5V9.137C7.066 8.83 7.247 8.546 7.533 8.435C8.859 7.921 10.379 7.625 12 7.625C13.621 7.625 15.141 7.921 16.467 8.435C16.753 8.546 16.934 8.83 16.934 9.137V10.5C16.934 11.328 17.606 12 18.434 12V12Z" fill="var(--tw-svg-color, #0D363F)" stroke-width="1.2" stroke-linecap="round" stroke-linejoin="round"/>
</svg>
