<svg width="24" height="24" viewBox="0 0 24 24" fill="none" xmlns="http://www.w3.org/2000/svg">
<path fill-rule="evenodd" clip-rule="evenodd" d="M4.54956 3.48776C5.63331 2.40436 7.38986 2.40447 8.47348 3.48809L9.74922 4.76384C10.6421 5.65674 10.599 7.06934 9.65678 8.0116L8.75843 8.90995C8.68919 8.97918 8.68162 9.0685 8.70642 9.12441L8.70711 9.12596C9.31382 10.504 10.2324 11.8716 11.4557 13.0948C12.6843 14.3234 14.058 15.245 15.4408 15.8505C15.4872 15.8709 15.5665 15.8661 15.6286 15.804L16.631 14.8016C17.5018 13.9293 18.9152 13.9298 19.7866 14.8012L21.0624 16.077C22.1456 17.1616 22.1463 18.9184 21.0624 20.0023L20.3544 20.7103C19.3998 21.6649 18.0332 22.0522 16.6975 21.8001C13.7211 21.2374 10.5039 19.5196 7.76742 16.783C5.03092 14.0465 3.31308 10.8296 2.75037 7.85323C2.49835 6.51749 2.8856 5.15063 3.84012 4.19611L4.54956 3.48776Z" fill="var(--tw-svg-color, #0D363F)"/>
</svg>
