<svg width="24" height="24" viewBox="0 0 24 24" fill="none" xmlns="http://www.w3.org/2000/svg">
<path d="M11.7288 21.4626H6.16251C4.96772 21.4626 4 20.4949 4 19.3001V4.16251C4 2.96772 4.96772 2 6.16251 2H13.9173C14.4903 2 15.0407 2.22814 15.4462 2.63362L18.504 5.69141C18.9094 6.09688 19.1376 6.64724 19.1376 7.2203V11.3113" stroke="var(--tw-svg-color, #0D363F)" stroke-width="1.2" stroke-linecap="round" stroke-linejoin="round"/>
<path d="M19.1377 7.40628H14.8127C14.2158 7.40628 13.7314 6.92188 13.7314 6.32502V2" stroke="var(--tw-svg-color, #0D363F)" stroke-width="1.2" stroke-linecap="round" stroke-linejoin="round"/>
<path d="M7.24377 10.6505H13.7313" stroke="var(--tw-svg-color, #0D363F)" stroke-width="1.2" stroke-linecap="round" stroke-linejoin="round"/>
<path d="M7.24377 13.8922H13.7313" stroke="var(--tw-svg-color, #0D363F)" stroke-width="1.2" stroke-linecap="round" stroke-linejoin="round"/>
<path d="M7.24377 17.1368H11.9256" stroke="var(--tw-svg-color, #0D363F)" stroke-width="1.2" stroke-linecap="round" stroke-linejoin="round"/>
<path d="M19.1376 16.5962L19.1376 21.4624" stroke="var(--tw-svg-color, #0D363F)" stroke-width="1.2" stroke-linecap="round" stroke-linejoin="round"/>
<path d="M21.1624 19.6533L19.1376 21.4623" stroke="var(--tw-svg-color, #0D363F)" stroke-width="1.2" stroke-linecap="round" stroke-linejoin="round"/>
<path d="M17.1127 19.6533L19.1375 21.4623" stroke="var(--tw-svg-color, #0D363F)" stroke-width="1.2" stroke-linecap="round" stroke-linejoin="round"/>
</svg>
