<svg xmlns="http://www.w3.org/2000/svg" width="20.318" height="20.688" viewBox="0 0 20.318 20.688">
  <path id="phone" d="M12.191,0H9.809C8.665,0,0,.944,0,4.375,0,4.375.187,7,1.285,7a16.589,16.589,0,0,0,3.854-.875c.794-.253,1.1-.576,1.308-1.773A1.911,1.911,0,0,1,8.454,2.694c.639-.031,1.671-.031,2.289-.027v0l.257,0,.257,0v0c.617,0,1.65,0,2.289.027a1.911,1.911,0,0,1,2.008,1.658c.21,1.2.514,1.52,1.308,1.773A16.589,16.589,0,0,0,20.715,7C21.813,7,22,4.375,22,4.375,22,.944,13.335,0,12.191,0" transform="matrix(-0.695, -0.719, 0.719, -0.695, 15.282, 20.688)" fill="#fff"/>
</svg>
