<svg width="20" height="20" viewBox="0 0 20 20" fill="none" xmlns="http://www.w3.org/2000/svg">
<circle cx="10" cy="10" r="8.6" fill="#E3E4E8" stroke="white" stroke-width="1.2"/>
<path fill-rule="evenodd" clip-rule="evenodd" d="M6.2696 6.26947C6.56249 5.97658 7.03736 5.97658 7.33026 6.26947L9.99993 8.93914L12.6696 6.26947C12.9625 5.97658 13.4374 5.97658 13.7303 6.26947C14.0232 6.56237 14.0232 7.03724 13.7303 7.33013L11.0606 9.9998L13.7303 12.6695C14.0232 12.9624 14.0232 13.4372 13.7303 13.7301C13.4374 14.023 12.9625 14.023 12.6696 13.7301L9.99993 11.0605L7.33026 13.7301C7.03736 14.023 6.56249 14.023 6.2696 13.7301C5.9767 13.4372 5.9767 12.9624 6.2696 12.6695L8.93927 9.9998L6.2696 7.33013C5.9767 7.03724 5.9767 6.56237 6.2696 6.26947Z" fill="#667099"/>
</svg>
