<svg width="16" height="16" viewBox="0 0 16 16" fill="none"
  xmlns="http://www.w3.org/2000/svg">
  <g id="Icon/add-to-copy">
    <g id="Icon">
      <path fill-rule="evenodd" clip-rule="evenodd" d="M4.26628 3.99961C4.26628 2.67413 5.34079 1.59961 6.66628 1.59961H11.9996C13.3251 1.59961 14.3996 2.67413 14.3996 3.99961V9.33294C14.3996 10.6584 13.3251 11.7329 11.9996 11.7329H6.66628C5.34079 11.7329 4.26628 10.6584 4.26628 9.33294V3.99961ZM6.66628 2.39961C5.78262 2.39961 5.06628 3.11595 5.06628 3.99961V9.33294C5.06628 10.2166 5.78262 10.9329 6.66628 10.9329H11.9996C12.8833 10.9329 13.5996 10.2166 13.5996 9.33294V3.99961C13.5996 3.11595 12.8833 2.39961 11.9996 2.39961H6.66628Z" fill="var(--tw-svg-color, #0D363F)"/>
      <path fill-rule="evenodd" clip-rule="evenodd" d="M3.99961 5.06628C3.11595 5.06628 2.39961 5.78262 2.39961 6.66628V11.9996C2.39961 12.8833 3.11595 13.5996 3.99961 13.5996H9.33294C10.2166 13.5996 10.9329 12.8833 10.9329 11.9996V11.3329C10.9329 11.112 11.112 10.9329 11.3329 10.9329C11.5539 10.9329 11.7329 11.112 11.7329 11.3329V11.9996C11.7329 13.3251 10.6584 14.3996 9.33294 14.3996H3.99961C2.67413 14.3996 1.59961 13.3251 1.59961 11.9996V6.66628C1.59961 5.34079 2.67413 4.26628 3.99961 4.26628H4.66628C4.88719 4.26628 5.06628 4.44536 5.06628 4.66628C5.06628 4.88719 4.88719 5.06628 4.66628 5.06628H3.99961Z" fill="var(--tw-svg-color, #0D363F)"/>
      <path fill-rule="evenodd" clip-rule="evenodd" d="M9.33348 4.93294C9.5544 4.93294 9.73348 5.11203 9.73348 5.33294V7.99961C9.73348 8.22052 9.5544 8.39961 9.33348 8.39961C9.11257 8.39961 8.93348 8.22052 8.93348 7.99961V5.33294C8.93348 5.11203 9.11257 4.93294 9.33348 4.93294Z" fill="var(--tw-svg-color, #0D363F)"/>
      <path fill-rule="evenodd" clip-rule="evenodd" d="M7.59961 6.66574C7.59961 6.44482 7.7787 6.26574 7.99961 6.26574H10.6663C10.8872 6.26574 11.0663 6.44482 11.0663 6.66574C11.0663 6.88665 10.8872 7.06574 10.6663 7.06574H7.99961C7.7787 7.06574 7.59961 6.88665 7.59961 6.66574Z" fill="var(--tw-svg-color, #0D363F)"/>
    </g>
  </g>
</svg>
