<svg width="24" height="24" viewBox="0 0 24 24" fill="none" xmlns="http://www.w3.org/2000/svg">
<path fill-rule="evenodd" clip-rule="evenodd" d="M19.4444 18H15.5556C14.6961 18 14 17.2329 14 16.2857V7.71429C14 6.76714 14.6961 6 15.5556 6H19.4444C20.3039 6 21 6.76714 21 7.71429V16.2857C21 17.2329 20.3039 18 19.4444 18Z" stroke="var(--tw-svg-color, #0D363F)" stroke-linecap="round" stroke-linejoin="round"/>
<path d="M6.39994 12L10.6426 12M6.39994 12L8.52126 14.1213M6.39994 12L8.52126 9.87868" stroke="var(--tw-svg-color, #0D363F)" stroke-linecap="round" stroke-linejoin="round"/>
<path d="M8 20H4.385C3.62 20 3 19.0982 3 17.9855V6.01455C3 4.90182 3.62 4 4.385 4H8" stroke="var(--tw-svg-color, #0D363F)" stroke-linecap="round" stroke-linejoin="round"/>
</svg>
