<svg width="16" height="16" viewBox="0 0 16 16" fill="none" xmlns="http://www.w3.org/2000/svg">
<path fill-rule="evenodd" clip-rule="evenodd" d="M4.93294 3.33294C4.93294 2.37565 5.70898 1.59961 6.66628 1.59961H12.6663C13.6236 1.59961 14.3996 2.37565 14.3996 3.33294V9.99961C14.3996 10.9569 13.6236 11.7329 12.6663 11.7329H6.66628C5.70898 11.7329 4.93294 10.9569 4.93294 9.99961V3.33294ZM6.66628 2.39961C6.15081 2.39961 5.73294 2.81748 5.73294 3.33294V9.99961C5.73294 10.5151 6.15081 10.9329 6.66628 10.9329H12.6663C13.1817 10.9329 13.5996 10.5151 13.5996 9.99961V3.33294C13.5996 2.81748 13.1817 2.39961 12.6663 2.39961H6.66628Z" fill="var(--tw-svg-color, #0D363F)"/>
<path fill-rule="evenodd" clip-rule="evenodd" d="M3.33294 5.06628C2.81748 5.06628 2.39961 5.48414 2.39961 5.99961V12.6663C2.39961 13.1817 2.81748 13.5996 3.33294 13.5996H9.33294C9.84841 13.5996 10.2663 13.1817 10.2663 12.6663V11.3329C10.2663 11.112 10.4454 10.9329 10.6663 10.9329C10.8872 10.9329 11.0663 11.112 11.0663 11.3329V12.6663C11.0663 13.6236 10.2902 14.3996 9.33294 14.3996H3.33294C2.37565 14.3996 1.59961 13.6236 1.59961 12.6663V5.99961C1.59961 5.04232 2.37565 4.26628 3.33294 4.26628H5.33294C5.55386 4.26628 5.73294 4.44536 5.73294 4.66628C5.73294 4.88719 5.55386 5.06628 5.33294 5.06628H3.33294Z" fill="var(--tw-svg-color, #0D363F)"/>
</svg>
