<svg xmlns="http://www.w3.org/2000/svg" viewBox="0 0 31 32">
<path d="M17.897 14.22c0.81 0.809 1.483 1.445 0.674 2.254l-14.919 14.92c-0.809 0.809-2.12 0.809-2.928 0v0c-0.809-0.809-0.809-2.12 0-2.928l14.92-14.919c0.809-0.809 1.446-0.136 2.253 0.673v0z"/>
<path d="M1.852 22.449c0.809-0.81 1.445-1.483 2.253-0.674l3.069 3.067c0.806 0.809 0.458 1.772-0.347 2.581l-0.851 0.775c-0.809 0.808-1.735 1.193-2.544 0.385l-3.067-3.068c-0.809-0.809-0.135-1.445 0.674-2.253l0.813-0.813z"/>
<path d="M22.883 18.534c-2.457 0-4.97-1.157-7.067-3.256-1.851-1.85-2.992-4.074-3.217-6.259-0.246-2.427 0.599-4.686 2.446-6.533 1.628-1.627 3.605-2.486 5.723-2.486 2.458 0 4.97 1.156 7.068 3.256 1.851 1.85 2.992 4.072 3.214 6.258 0.249 2.428-0.597 4.686-2.446 6.532-1.625 1.627-3.605 2.489-5.722 2.489zM20.835 2.616c-1.453 0-2.773 0.584-3.923 1.735-1.285 1.285-1.874 2.832-1.707 4.476 0.163 1.585 1.025 3.232 2.429 4.634 1.584 1.585 3.425 2.456 5.185 2.456 1.451 0 2.771-0.583 3.923-1.734 1.285-1.285 1.873-2.832 1.706-4.476-0.163-1.585-1.023-3.229-2.428-4.633-1.584-1.585-3.426-2.458-5.185-2.458z"/>
</svg>