<svg width="24" height="24" viewBox="0 0 24 24" fill="none" xmlns="http://www.w3.org/2000/svg">
<path d="M9.99989 6.50003C9.99989 7.32846 9.32831 8.00003 8.49989 8.00003C7.67146 8.00003 6.99989 7.32846 6.99989 6.50003C6.99989 5.67161 7.67146 5.00003 8.49989 5.00003C9.32831 5.00003 9.99989 5.67161 9.99989 6.50003Z" fill="var(--tw-svg-color, #0D363F)"/>
<path d="M9.99976 12.2636C9.99976 13.092 9.32818 13.7636 8.49976 13.7636C7.67133 13.7636 6.99976 13.092 6.99976 12.2636C6.99976 11.4352 7.67133 10.7636 8.49976 10.7636C9.32818 10.7636 9.99976 11.4352 9.99976 12.2636Z" fill="var(--tw-svg-color, #0D363F)"/>
<path d="M9.99976 18.0272C9.99976 18.8557 9.32818 19.5272 8.49976 19.5272C7.67133 19.5272 6.99976 18.8557 6.99976 18.0272C6.99976 17.1988 7.67133 16.5272 8.49976 16.5272C9.32818 16.5272 9.99976 17.1988 9.99976 18.0272Z" fill="var(--tw-svg-color, #0D363F)"/>
<path d="M17.6844 6.5C17.6844 7.32843 17.0128 8 16.1844 8C15.356 8 14.6844 7.32843 14.6844 6.5C14.6844 5.67157 15.356 5 16.1844 5C17.0128 5 17.6844 5.67157 17.6844 6.5Z" fill="var(--tw-svg-color, #0D363F)"/>
<path d="M17.6844 12.2636C17.6844 13.092 17.0128 13.7636 16.1844 13.7636C15.356 13.7636 14.6844 13.092 14.6844 12.2636C14.6844 11.4352 15.356 10.7636 16.1844 10.7636C17.0128 10.7636 17.6844 11.4352 17.6844 12.2636Z" fill="var(--tw-svg-color, #0D363F)"/>
<path d="M17.6844 18.0272C17.6844 18.8557 17.0128 19.5272 16.1844 19.5272C15.356 19.5272 14.6844 18.8557 14.6844 18.0272C14.6844 17.1988 15.356 16.5272 16.1844 16.5272C17.0128 16.5272 17.6844 17.1988 17.6844 18.0272Z" fill="var(--tw-svg-color, #0D363F)"/>
</svg>
