<svg width="24" height="24" viewBox="0 0 24 24" fill="none" xmlns="http://www.w3.org/2000/svg">
<path d="M9 9.04144C9.28707 7.8042 10.4139 6.94636 11.683 6.99903C13.1032 6.92036 14.3207 8.00262 14.4091 9.42229C14.4091 11.2445 11.8041 11.8456 11.8041 13.0572M21 12C21 16.9706 16.9706 21 12 21C7.02944 21 3 16.9706 3 12C3 7.02944 7.02944 3 12 3C16.9706 3 21 7.02944 21 12Z" stroke="var(--tw-svg-color, #0D363F)" stroke-width="1.2" stroke-linecap="round" stroke-linejoin="round"/>
<path d="M11.9555 16.3892C11.9554 16.4728 11.8876 16.5405 11.804 16.5405C11.7204 16.5404 11.6526 16.4727 11.6526 16.3891C11.6526 16.3055 11.7203 16.2377 11.8039 16.2376C11.8441 16.2375 11.8827 16.2535 11.9112 16.2819C11.9396 16.3104 11.9556 16.349 11.9555 16.3892" stroke="var(--tw-svg-color, #0D363F)" stroke-width="1.2" stroke-linecap="round" stroke-linejoin="round"/>
</svg>
