<svg width="24" height="24" viewBox="0 0 24 24" fill="none" xmlns="http://www.w3.org/2000/svg">
<path d="M7.74828 3.99644C7.74828 5.10101 8.64371 5.99727 9.74828 5.99727H14.2518C15.3564 5.99727 16.2518 5.10101 16.2518 3.99644M7.74828 3.99644C7.74828 2.89187 8.64371 1.99561 9.74828 1.99561H14.2518C15.3564 1.99561 16.2518 2.89187 16.2518 3.99644M7.74828 3.99644C6.82986 3.99644 5.91143 3.99573 4.99301 3.99719C4.44218 3.99806 3.99671 4.44488 3.99672 4.99572C3.99672 9.55928 3.99675 15.4396 3.99671 20.0039C3.99671 20.5562 4.44443 21.0035 4.99672 21.0035H7.99838M20.0034 6.99769V4.99644C20.0034 4.44415 19.5557 3.99644 19.0034 3.99644C18.0862 3.99644 17.169 3.99644 16.2518 3.99644M12.1246 21.0035H18.8784C19.4997 21.0035 20.0034 20.4998 20.0034 19.8785V10.9989C20.0034 10.3776 19.4997 9.87389 18.8784 9.87389H12.1246C11.5033 9.87389 10.9996 10.3776 10.9996 10.9989V19.8785C10.9996 20.4998 11.5033 21.0035 12.1246 21.0035Z" stroke="var(--tw-svg-color, #0D363F)" stroke-width="1.2" stroke-linecap="round" stroke-linejoin="round"/>
</svg>
