<svg width="24" height="24" viewBox="0 0 24 24" fill="none" xmlns="http://www.w3.org/2000/svg">
<path fill-rule="evenodd" clip-rule="evenodd" d="M12 21C16.9706 21 21 16.9706 21 12C21 7.02944 16.9706 3 12 3C7.02944 3 3 7.02944 3 12C3 16.9706 7.02944 21 12 21ZM9.8316 8.7724C9.53871 8.47951 9.06383 8.47951 8.77094 8.7724C8.47805 9.0653 8.47805 9.54017 8.77094 9.83306L10.94 12.0022L8.77094 14.1712C8.47805 14.4641 8.47805 14.939 8.77094 15.2319C9.06383 15.5248 9.53871 15.5248 9.8316 15.2319L12.0007 13.0628L14.1698 15.2319C14.4627 15.5248 14.9376 15.5248 15.2304 15.2319C15.5233 14.939 15.5233 14.4641 15.2304 14.1712L13.0614 12.0022L15.2304 9.83306C15.5233 9.54017 15.5233 9.0653 15.2304 8.7724C14.9376 8.47951 14.4627 8.47951 14.1698 8.7724L12.0007 10.9415L9.8316 8.7724Z" fill="var(--tw-svg-color, #8E92A4)"/>
</svg>
