<svg width="24" height="24" viewBox="0 0 24 24" fill="none" xmlns="http://www.w3.org/2000/svg">
<path fill-rule="evenodd" clip-rule="evenodd" d="M19.0294 8.75905C20.0785 9.80823 20.0785 11.457 19.0294 12.4312C17.9802 13.4054 16.3316 13.4804 15.3573 12.4312C14.3831 11.382 14.3082 9.80823 15.2824 8.75905C16.2566 7.70986 17.9802 7.7848 19.0294 8.75905Z" fill="var(--tw-svg-color, #0D363F)"/>
<path d="M19.0294 8.75905C20.0785 9.80823 20.0785 11.457 19.0294 12.4312C17.9802 13.4054 16.3316 13.4804 15.3573 12.4312C14.3831 11.382 14.3082 9.80823 15.2824 8.75905C16.2566 7.70986 17.9802 7.7848 19.0294 8.75905" stroke="var(--tw-svg-color, #0D363F)" stroke-width="1.12411" stroke-linecap="round" stroke-linejoin="round"/>
<path fill-rule="evenodd" clip-rule="evenodd" d="M17.7877 19.9097H23.588V18.3168C23.588 16.564 20.72 15.1299 17.2149 15.1299C16.6777 15.1299 16.1555 15.1636 15.6562 15.2269C16.9869 16.0386 17.7877 17.0748 17.7877 18.1999V19.9097Z" fill="var(--tw-svg-color, #0D363F)"/>
<path fill-rule="evenodd" clip-rule="evenodd" d="M10.4244 6.88524C11.6481 8.10887 11.6481 10.0317 10.4244 11.1679C9.20081 12.3041 7.27797 12.3915 6.14175 11.1679C5.00553 9.9443 4.91813 8.10887 6.05435 6.88524C7.19057 5.66162 9.20081 5.74902 10.4244 6.88524Z" fill="var(--tw-svg-color, #0D363F)"/>
<path d="M10.4244 6.88524C11.6481 8.10887 11.6481 10.0317 10.4244 11.1679C9.20081 12.3041 7.27797 12.3915 6.14175 11.1679C5.00553 9.9443 4.91813 8.10887 6.05435 6.88524C7.19057 5.66162 9.20081 5.74902 10.4244 6.88524" stroke="var(--tw-svg-color, #0D363F)" stroke-width="1.31102" stroke-linecap="round" stroke-linejoin="round"/>
<path d="M0.000488281 20.0513V18.0852C0.000488281 15.9219 3.54038 14.1519 7.86663 14.1519C12.1929 14.1519 15.7328 15.9219 15.7328 18.0852V20.0513H0.000488281Z" fill="var(--tw-svg-color, #0D363F)"/>
</svg>
