<svg width="24" height="24" viewBox="0 0 24 24" fill="none" xmlns="http://www.w3.org/2000/svg">
<path d="M2 5.7037C2 3.6582 3.6582 2 5.7037 2H18.2963C20.3418 2 22 3.6582 22 5.7037V18.2963C22 20.3418 20.3418 22 18.2963 22H5.7037C3.6582 22 2 20.3418 2 18.2963V5.7037Z" fill="var(--tw-svg-color, #0D363F)"/>
<path fill-rule="evenodd" clip-rule="evenodd" d="M6.33333 8.11133C6.33333 7.74314 6.63181 7.44466 7 7.44466H17C17.3682 7.44466 17.6667 7.74314 17.6667 8.11133C17.6667 8.47952 17.3682 8.778 17 8.778H7C6.63181 8.778 6.33333 8.47952 6.33333 8.11133ZM6.33333 12.0002C6.33333 11.632 6.63181 11.3336 7 11.3336H17C17.3682 11.3336 17.6667 11.632 17.6667 12.0002C17.6667 12.3684 17.3682 12.6669 17 12.6669H7C6.63181 12.6669 6.33333 12.3684 6.33333 12.0002ZM6.33333 15.8891C6.33333 15.5209 6.63181 15.2224 7 15.2224H17C17.3682 15.2224 17.6667 15.5209 17.6667 15.8891C17.6667 16.2573 17.3682 16.5558 17 16.5558H7C6.63181 16.5558 6.33333 16.2573 6.33333 15.8891Z" fill="var(--tw-svg-color-secondary, #fff)"/>
</svg>
