<svg xmlns="http://www.w3.org/2000/svg" width="14" height="14" viewBox="0 0 14 14">
  <path id="icon" d="M6.492,4.478a.791.791,0,0,0-.254.021,2.588,2.588,0,0,0-1.21.727C3.62,6.634,2.873,9.008,8.169,14.306s7.671,4.55,9.081,3.141a2.59,2.59,0,0,0,.728-1.212.783.783,0,0,0-.366-.865l-3.128-1.832a.783.783,0,0,0-.8,0l-1.245.742a.781.781,0,0,1-.883-.052,20.421,20.421,0,0,1-1.772-1.546,20.189,20.189,0,0,1-1.546-1.772.78.78,0,0,1-.052-.883l.742-1.245a.786.786,0,0,0,0-.8L7.107,4.866A.789.789,0,0,0,6.492,4.478Z" transform="translate(-4 -4.475)"/>
</svg>
