<svg width="16" height="16" viewBox="0 0 16 16" fill="none" xmlns="http://www.w3.org/2000/svg">
<path fill-rule="evenodd" clip-rule="evenodd" d="M2.66678 10.7627C2.6142 10.7627 2.57158 10.72 2.57158 10.6675V3.33311C2.57158 3.28053 2.6142 3.23791 2.66678 3.23791H13.334C13.3854 3.23791 13.4292 3.28042 13.4292 3.33415V5.33455C13.4292 5.65003 13.6849 5.90578 14.0004 5.90578C14.3158 5.90578 14.5716 5.65003 14.5716 5.33455V3.33415C14.5716 2.65176 14.0186 2.09546 13.334 2.09546H2.66678C1.98328 2.09546 1.4292 2.64958 1.4292 3.33311V10.6675C1.4292 11.351 1.98328 11.9051 2.66678 11.9051H7.00083C7.31629 11.9051 7.57202 11.6494 7.57202 11.3339C7.57202 11.0184 7.31629 10.7627 7.00083 10.7627H2.66678Z" fill="var(--tw-svg-color, #0D363F)"/>
<path fill-rule="evenodd" clip-rule="evenodd" d="M4.42925 13.334C4.42925 13.0185 4.68498 12.7627 5.00044 12.7627H11.0004C11.3159 12.7627 11.5716 13.0185 11.5716 13.334C11.5716 13.6494 11.3159 13.9052 11.0004 13.9052H5.00044C4.68498 13.9052 4.42925 13.6494 4.42925 13.334Z" fill="var(--tw-svg-color, #0D363F)"/>
<path fill-rule="evenodd" clip-rule="evenodd" d="M8.70054 8.57433C9.23326 7.73342 10.1634 7.22815 11.159 7.23916C11.4744 7.24265 11.7329 6.98975 11.7364 6.67429C11.7399 6.35883 11.487 6.10027 11.1716 6.09678C9.77814 6.08137 8.47635 6.78963 7.73231 7.96799L7.70697 8.00943C7.33602 8.61803 7.33601 9.38287 7.70694 9.99147L7.72753 10.0253L7.73231 10.033C8.47635 11.2113 9.77814 11.9196 11.1716 11.9042C11.487 11.9007 11.7399 11.6421 11.7364 11.3267C11.7329 11.0112 11.4744 10.7583 11.159 10.7618C10.1634 10.7728 9.23327 10.2675 8.70055 9.42665L8.68243 9.39691C8.53405 9.15347 8.53403 8.84752 8.6824 8.60408L8.70054 8.57433Z" fill="var(--tw-svg-color, #0D363F)"/>
<path fill-rule="evenodd" clip-rule="evenodd" d="M13.63 8.57427C13.0973 7.73336 12.1672 7.22808 11.1716 7.23909C10.8562 7.24258 10.5976 6.98968 10.5941 6.67422C10.5906 6.35876 10.8435 6.1002 11.159 6.09671C12.5524 6.0813 13.8542 6.78956 14.5982 7.96792L14.603 7.9755L14.6236 8.00931C14.9945 8.61792 14.9946 9.38282 14.6236 9.99144L14.5983 10.0329C13.8543 11.2113 12.5524 11.9195 11.159 11.9041C10.8435 11.9006 10.5906 11.6421 10.5941 11.3266C10.5976 11.0111 10.8562 10.7582 11.1716 10.7617C12.1671 10.7727 13.0973 10.2675 13.63 9.42656L13.6481 9.39682C13.7965 9.15339 13.7965 8.84748 13.6482 8.60405L13.63 8.57427Z" fill="var(--tw-svg-color, #0D363F)"/>
<path d="M11.1649 9.08373C11.1189 9.08355 11.0818 9.04618 11.0819 9.00022C11.082 8.95425 11.1194 8.91707 11.1653 8.91713C11.2113 8.91719 11.2485 8.95447 11.2485 9.00043C11.2486 9.02261 11.2399 9.04392 11.2241 9.05957C11.2084 9.07523 11.1871 9.08393 11.1649 9.08373" stroke="var(--tw-svg-color, #0D363F)" stroke-width="1.14238" stroke-linecap="round" stroke-linejoin="round"/>
</svg>
