<svg xmlns="http://www.w3.org/2000/svg" width="24" height="24" viewBox="0 0 24 24"><path fill="#767676" d="M2 12A10.011 10.011 0 0 1 12 2a10.011 10.011 0 0 1 10 10 10.011 10.011 0 0 1-10 10A10.011 10.011 0 0 1 2 12Zm1 0a9.01 9.01 0 0 0 9 9 9.01 9.01 0 0 0 9-9 9.01 9.01 0 0 0-9-9 9.01 9.01 0 0 0-9 9Zm3.831 4a.833.833 0 0 1-.832-.832v-2.986a.463.463 0 0 1 .462-.464.463.463 0 0 1 .464.464V14.8a.276.276 0 0 0 .276.275h9.6a.276.276 0 0 0 .276-.275v-2.617a.463.463 0 0 1 .463-.464.462.462 0 0 1 .464.462v2.986a.832.832 0 0 1-.832.832Zm4.719-2.68V7.581l-1.3 1.3a.461.461 0 0 1-.653 0 .465.465 0 0 1 0-.655l2.088-2.088a.463.463 0 0 1 .328-.136.464.464 0 0 1 .328.136l2.087 2.088a.465.465 0 0 1 0 .655.465.465 0 0 1-.328.135.464.464 0 0 1-.327-.135l-1.3-1.3v5.739a.463.463 0 0 1-.463.464.463.463 0 0 1-.46-.464Z"/></svg>
