<svg xmlns="http://www.w3.org/2000/svg" width="24" height="24" viewBox="0 0 24 24"><defs><mask id="a"><path fill="#fff" d="M4 4h24v24H4z"/><g transform="rotate(45 -.486 15.95)" fill="#fff" stroke="#000" stroke-linecap="round" stroke-linejoin="round"><rect width="21" height="4" rx="2" stroke="none"/><rect x=".5" y=".5" width="20" height="3" rx="1.5" fill="none"/></g></mask></defs><g mask="url(#a)" transform="translate(-4 -4)" fill="#767676"><path d="M18.265 6.603 16.9 7.964l1.054 1.054-5.961 4.785-1.426-1.427-1.361 1.361 3.657 3.657L7 23.256v1.347h1.347l5.862-5.863 3.657 3.657 1.361-1.361-1.344-1.344 4.717-6.03 1.037 1.037L25 13.338Z"/><g transform="rotate(45 -.486 15.95)" stroke="#fff" stroke-linecap="round" stroke-linejoin="round"><rect width="21" height="4" rx="2" stroke="none"/><rect x=".5" y=".5" width="20" height="3" rx="1.5" fill="none"/></g></g></svg>
