<svg xmlns="http://www.w3.org/2000/svg" width="24" height="16" viewBox="0 0 24 16"><path d="M7.636 0a3.353 3.353 0 0 0-3.272 3.429 3.353 3.353 0 0 0 3.273 3.429 3.353 3.353 0 0 0 3.273-3.429A3.353 3.353 0 0 0 7.636 0Zm8.727 0a3.353 3.353 0 0 0-3.273 3.429 3.276 3.276 0 1 0 6.545 0A3.353 3.353 0 0 0 16.364 0ZM7.636 9.143A10.876 10.876 0 0 0 0 12.266V16h15.273v-3.734a10.876 10.876 0 0 0-7.637-3.123Zm8.727 0a10.781 10.781 0 0 0-1.255.08 11.02 11.02 0 0 1 1.749 1.471l.6.661V16H24v-3.734a10.876 10.876 0 0 0-7.636-3.123Z" fill="#767676"/></svg>
