<svg width="24" height="24" viewBox="0 0 24 24" fill="none" xmlns="http://www.w3.org/2000/svg">
<path d="M20.64 15.3735L16.5188 11.2522C16.1434 10.8769 15.5357 10.8769 15.1613 11.2522L11.04 15.3735" stroke="var(--tw-svg-color, #0D363F)" stroke-width="1.2" stroke-linecap="round" stroke-linejoin="round"/>
<path fill-rule="evenodd" clip-rule="evenodd" d="M17.76 20.1736H6.23999C4.64927 20.1736 3.35999 18.8843 3.35999 17.2936V5.77355C3.35999 4.18283 4.64927 2.89355 6.23999 2.89355H17.76C19.3507 2.89355 20.64 4.18283 20.64 5.77355V17.2936C20.64 18.8843 19.3507 20.1736 17.76 20.1736Z" stroke="var(--tw-svg-color, #0D363F)" stroke-width="1.2" stroke-linecap="round" stroke-linejoin="round"/>
<path d="M15.84 20.1734L9.79877 14.1321C9.42341 13.7567 8.81573 13.7567 8.44133 14.1321L3.78821 18.7852" stroke="var(--tw-svg-color, #0D363F)" stroke-width="1.2" stroke-linecap="round" stroke-linejoin="round"/>
<path d="M9.37457 8.39878C9.51516 8.53937 9.51516 8.76731 9.37457 8.9079C9.23398 9.04849 9.00605 9.04849 8.86546 8.9079C8.72487 8.76731 8.72487 8.53937 8.86546 8.39878C9.00605 8.25819 9.23398 8.25819 9.37457 8.39878" stroke="var(--tw-svg-color, #0D363F)" stroke-width="1.2" stroke-linecap="round" stroke-linejoin="round"/>
</svg>
