<svg xmlns="http://www.w3.org/2000/svg" viewBox="0 0 18 16" width="18" height="16">
  <path fill="#777677" d="M15 0c-.79 0-1.54.29-2.12.83l-8.5 8.11s-.06.05-.08.08l-.03.03c-.02.02-.04.03-.05.05-.75.8-.72 2.05.08 2.8.85.79 2.17.79 3.03 0l6.47-6.18c.13-.11.17-.29.1-.45a.418.418 0 0 0-.41-.25c-.11 0-.22.05-.3.13l-6.47 6.16c-.51.48-1.31.48-1.82 0-.47-.44-.5-1.18-.06-1.65l.02-.02c.01-.01.02-.03.03-.05l.03-.03.04-.03 8.54-8.11c.85-.8 2.17-.8 3.01 0 .79.73.84 1.97.11 2.76-.03.04-.07.07-.11.11L5.96 14.34a3.083 3.083 0 0 1-4.23 0 2.75 2.75 0 0 1-.14-3.89c.05-.05.09-.1.14-.14l8.43-8.04c.13-.1.18-.26.15-.41a.438.438 0 0 0-.32-.31.438.438 0 0 0-.43.14L1.12 9.74c-1.43 1.35-1.51 3.6-.16 5.03.05.05.1.11.16.16a3.985 3.985 0 0 0 5.44 0L17.13 4.87a2.78 2.78 0 0 0 .12-3.93l-.12-.12C16.55.29 15.79 0 15 0Z"/>
</svg>