<svg xmlns="http://www.w3.org/2000/svg" width="31.999" height="31.999"><path d="M32 16A16 16 0 1 1 16 0a16 16 0 0 1 16 16" fill="#db2828" class="circle"/><path class="cross" d="m21.796 13.337-3.13 3.13 3.13 3.13a.609.609 0 0 1 0 .856l-1.137 1.137a.609.609 0 0 1-.856 0l-3.13-3.13-3.13 3.13a.609.609 0 0 1-.856 0l-1.137-1.137a.609.609 0 0 1 0-.856l3.13-3.13-3.13-3.13a.609.609 0 0 1 0-.856l1.137-1.137a.609.609 0 0 1 .856 0l3.13 3.13 3.13-3.13a.609.609 0 0 1 .856 0l1.137 1.137a.6.6 0 0 1 0 .856z" fill="#fff"/></svg>
