<svg width="24" height="24" viewBox="0 0 24 24" fill="none" xmlns="http://www.w3.org/2000/svg">
<path d="M16 21H4.00001C3.4478 21 3.00012 20.5524 3.00003 20.0002C2.99941 16.0001 3.00003 12.0001 3.00003 8M21 8H17C16.448 8 16 7.552 16 7V3M21 7.828C21 7.298 20.789 6.789 20.415 6.415L17.586 3.586C17.211 3.211 16.702 3 16.172 3H7.00003C6.44774 3 6.00003 3.44772 6.00003 4C6.00003 8.33333 6.00003 12.6667 6.00003 17C6.00003 17.5523 6.44774 18 7.00003 18H20C20.5523 18 21 17.5523 21 17C21 13.9427 21 10.8853 21 7.828Z" stroke="var(--tw-svg-color, #0D363F)" stroke-width="1.2" stroke-linecap="round" stroke-linejoin="round"/>
</svg>
