<svg width="16" height="16" viewBox="0 0 16 16" fill="none" xmlns="http://www.w3.org/2000/svg">
<circle cx="12.386" cy="11.6842" r="2.94736" fill="var(--tw-svg-color, #0D363F)" stroke="var(--tw-svg-color, #0D363F)" stroke-width="1.10526" stroke-linecap="round" stroke-linejoin="round"/>
<path d="M13.5437 11.6843H11.228" stroke="white" stroke-width="1.10526" stroke-linecap="round" stroke-linejoin="round"/>
<path d="M12.3859 10.5264V12.842" stroke="white" stroke-width="1.10526" stroke-linecap="round" stroke-linejoin="round"/>
<path d="M6.49124 11.5169C4.41231 11.1383 2.6276 9.8146 1.66199 7.93501C1.22383 7.04689 1.22383 6.00546 1.66199 5.11734C2.88176 2.77327 5.3229 1.32125 7.96492 1.3683C10.6069 1.32125 13.0481 2.77327 14.2678 5.11734C14.4834 5.55574 14.5958 6.03764 14.5965 6.52618" stroke="var(--tw-svg-color, #0D363F)" stroke-width="1.2" stroke-linecap="round" stroke-linejoin="round"/>
<path d="M10.1767 6.52474C10.1767 5.30323 9.18644 4.31299 7.96493 4.31299C6.74342 4.31298 5.75318 5.30321 5.75317 6.52472C5.75317 7.74624 6.74339 8.73648 7.9649 8.73649" stroke="var(--tw-svg-color, #0D363F)" stroke-width="1.2" stroke-linecap="round" stroke-linejoin="round"/>
</svg>
