<svg xmlns="http://www.w3.org/2000/svg" viewBox="0 0 42 32">
<path class="path1" d="M0 0v32h42.105v-32h-42.105zM1.684 1.778h38.737v2.222c-0.328 0.302-15.095 13.899-16.474 15.167l-0.079 0.083c-1.092 1.004-2.212 1.194-2.816 1.194s-1.723-0.191-2.816-1.194c-0.314-0.289-2.562-2.339-4.184-3.833-4.811-4.431-12.121-11.189-12.368-11.417v-2.222zM1.684 6.361c1.46 1.345 6.642 6.105 11.053 10.167l-11.053 9.222v-19.389zM40.421 6.361v19.389l-11.053-9.222c4.41-4.062 9.592-8.821 11.053-10.167zM14.026 17.722c1.023 0.943 2.87 2.645 3.105 2.861l0.026 0.028c1.423 1.292 2.937 1.611 3.895 1.611 0.964 0 2.489-0.323 3.921-1.639 0.236-0.217 2.1-1.911 3.132-2.861l12.316 10.278v2.222h-38.737v-2.222l12.342-10.278z"/>
</svg>