<svg width="16" height="16" viewBox="0 0 16 16" fill="none" xmlns="http://www.w3.org/2000/svg">
<path d="M14.1712 6.59248C14.8078 9.354 13.5384 12.2032 11.0596 13.5768C8.58074 14.9503 5.49192 14.5159 3.48802 12.512C1.48412 10.5081 1.04978 7.41931 2.42331 4.94047C3.79685 2.46163 6.64609 1.19227 9.40761 1.8289M12.7495 4.30545V2.19434M11.6945 3.25049H13.8056M5.00012 10.6665C5.26473 10.0595 5.86385 9.66686 6.52608 9.66654H9.47416C10.1364 9.66686 10.7355 10.0595 11.0001 10.6665M9.66679 6.33321C9.66679 7.25369 8.9206 7.99988 8.00012 7.99988C7.07965 7.99988 6.33346 7.25369 6.33346 6.33321C6.33346 5.41274 7.07965 4.66654 8.00012 4.66654C8.9206 4.66654 9.66679 5.41274 9.66679 6.33321Z" stroke="var(--tw-svg-color, #0D363F)" stroke-linecap="round" stroke-linejoin="round"/>
</svg>
