<svg width="20" height="20" viewBox="0 0 20 20" fill="none" xmlns="http://www.w3.org/2000/svg">
<path fill-rule="evenodd" clip-rule="evenodd" d="M12.8424 3.35274L16.2305 6.7408C16.546 7.05631 16.7034 7.49663 16.6594 7.94063C16.6155 8.38464 16.3748 8.78554 16.0035 9.03304C14.1012 10.3012 12.7399 12.2329 12.1854 14.4509L11.8768 15.6852C11.8118 15.9455 11.6117 16.1506 11.3532 16.2222C11.0947 16.2938 10.8176 16.2209 10.6279 16.0312L3.55205 8.95533C3.36235 8.76563 3.28936 8.48855 3.36097 8.23001C3.43259 7.97147 3.63773 7.77144 3.898 7.70637L5.13226 7.3978C7.35026 6.84329 9.28196 5.48199 10.5502 3.5797C10.7977 3.20845 11.1986 2.96773 11.6426 2.92376C12.0866 2.87979 12.5269 3.03723 12.8424 3.35274Z" fill="var(--tw-svg-color, #0D363F)"/>
<path fill-rule="evenodd" clip-rule="evenodd" d="M3.33337 16.2497L7.0899 12.4932L3.33337 16.2497Z" fill="var(--tw-svg-color, #0D363F)"/>
<path d="M3.33337 16.2497L7.0899 12.4932M12.8424 3.35274L16.2305 6.7408C16.546 7.05631 16.7034 7.49663 16.6594 7.94063C16.6155 8.38464 16.3748 8.78554 16.0035 9.03304C14.1012 10.3012 12.7399 12.2329 12.1854 14.4509L11.8768 15.6852C11.8118 15.9455 11.6117 16.1506 11.3532 16.2222C11.0947 16.2938 10.8176 16.2209 10.6279 16.0312L3.55205 8.95533C3.36235 8.76563 3.28936 8.48855 3.36097 8.23001C3.43259 7.97147 3.63773 7.77144 3.898 7.70637L5.13226 7.3978C7.35026 6.84329 9.28196 5.48199 10.5502 3.5797C10.7977 3.20845 11.1986 2.96773 11.6426 2.92376C12.0866 2.87979 12.5269 3.03723 12.8424 3.35274Z" stroke="var(--tw-svg-color, #0D363F)" stroke-width="1.2" stroke-linecap="round" stroke-linejoin="round"/>
</svg>
