<svg xmlns="http://www.w3.org/2000/svg" width="20" height="20" viewBox="0 0 20 20"><path d="M9.988 1.666a.74.74 0 0 0-.746.734v7.242H6.967a.741.741 0 0 0-.758.724.71.71 0 0 0 .241.529l2.944 2.816a.779.779 0 0 0 1.206 0l2.943-2.815a.71.71 0 0 0 .24-.528.741.741 0 0 0-.758-.724h-2.267V2.4a.708.708 0 0 0-.222-.523.776.776 0 0 0-.547-.212ZM2.413 8.908a.74.74 0 0 0-.746.734v7.238a1.494 1.494 0 0 0 1.515 1.448h13.636a1.494 1.494 0 0 0 1.516-1.448V9.642a.758.758 0 0 0-1.515 0v7.238H3.182V9.642a.708.708 0 0 0-.222-.523.776.776 0 0 0-.547-.212Z" fill="#767676"/></svg>
