<svg xmlns="http://www.w3.org/2000/svg" width="16" height="16" viewBox="0 0 16 16"><g fill="none" stroke="#767676"><circle cx="8" cy="8" r="8" stroke="none"/><circle cx="8" cy="8" r="7.5"/></g><path d="M4.995 12.002a.993.993 0 0 1-.706-.293 1.007 1.007 0 0 1 0-1.414l.792-.795-.792-.792a1.007 1.007 0 0 1 0-1.414.985.985 0 0 1 .706-.293.992.992 0 0 1 .71.293l1.5 1.5a.994.994 0 0 1 .293.707.994.994 0 0 1-.293.707l-1.5 1.5a1 1 0 0 1-.71.294Zm6-3a1 1 0 0 1-.706-.293l-1.5-1.5a.994.994 0 0 1-.293-.707.994.994 0 0 1 .293-.707l1.5-1.5a1 1 0 0 1 .706-.293 1 1 0 0 1 .709.293.99.99 0 0 1 .293.707.99.99 0 0 1-.293.707l-.792.792.792.795a.99.99 0 0 1 .293.707.99.99 0 0 1-.293.707 1 1 0 0 1-.707.291Z" fill="#767676"/></svg>
