<svg
    xmlns="http://www.w3.org/2000/svg"
    height="24px"
    width="24px"
    viewBox="0 0 24 24"
>
    <path d="M19.8,16.5l-2-1.4l-3.1-2.2l0,0l0,0l-2.2-1.5l0,0l0,0c0,0,0,0-0.1,0s-0.2-0.1-0.3-0.1H12c-0.1,0-0.2,0-0.3,0.1l0,0l-2.2,1.5
        l0,0l0,0l-3.2,2.2l0,0l-2,1.4c-1.5,0.1-2.7,1.4-2.7,3c0,1.7,1.3,3,3,3s3-1.3,3-3c0-1-0.5-2-1.3-2.5l0.9-0.6l0,0l0,0l3.2-2.2l0,0
        l1-0.7v3.2C10,16.9,9,18.1,9,19.5c0,1.7,1.3,3,3,3s3-1.3,3-3c0-1.4-1-2.6-2.2-2.9v-3.2l1,0.7l3.1,2.2l0,0l0,0l0.9,0.6
        c-0.8,0.5-1.3,1.5-1.3,2.5c0,1.7,1.3,3,3,3s3-1.3,3-3C22.5,17.9,21.3,16.7,19.8,16.5z M4.5,21C3.7,21,3,20.3,3,19.5S3.7,18,4.5,18
        S6,18.7,6,19.5S5.3,21,4.5,21z M13.5,19.5c0,0.8-0.7,1.5-1.5,1.5s-1.5-0.7-1.5-1.5S11.2,18,12,18S13.5,18.7,13.5,19.5z M19.5,21
        c-0.8,0-1.5-0.7-1.5-1.5s0.7-1.5,1.5-1.5s1.5,0.7,1.5,1.5S20.3,21,19.5,21z"/>
    <path d="M8.3,10.5h7.5c0.2,0,0.5-0.1,0.6-0.3s0.2-0.4,0.1-0.7c-0.3-1.1-1.1-2-2.2-2.2C14,7.2,13.8,7,13.8,6.6
        c0.3-0.4,0.5-0.9,0.5-1.4V3.8c0-1.2-1-2.2-2.2-2.2s-2.2,1-2.2,2.2v1.5c0,0.6,0.2,1.1,0.6,1.5C10.2,7,9.9,7.2,9.7,7.3
        C8.6,7.6,7.8,8.6,7.6,9.6c0,0.2,0,0.4,0.2,0.6C7.9,10.4,8.1,10.5,8.3,10.5z M11.2,3.8C11.2,3.3,11.6,3,12,3s0.8,0.3,0.8,0.8v1.5
        C12.8,5.7,12.4,6,12,6s-0.8-0.3-0.8-0.8V3.8z M10.1,8.7c0.7-0.2,1.2-0.7,1.5-1.3c0.1,0,0.3,0,0.4,0c0.2,0,0.3,0,0.4,0
        c0.3,0.6,0.8,1.1,1.5,1.3c0.2,0.1,0.4,0.1,0.5,0.3H9.6C9.8,8.9,10,8.8,10.1,8.7z"/>
</svg>
