<svg width="16" height="16" viewBox="0 0 16 16" fill="none" xmlns="http://www.w3.org/2000/svg">
<path fill-rule="evenodd" clip-rule="evenodd" d="M3.3335 13.9999V2.61994V13.9999Z" fill="none"/>
<path fill-rule="evenodd" clip-rule="evenodd" d="M12.6668 9.34661V2.66661V9.34661Z" fill="none"/>
<path fill-rule="evenodd" clip-rule="evenodd" d="M3.3335 9.33327C3.3335 9.33327 3.91683 8.84861 5.66683 8.84861C7.41683 8.84861 8.5835 9.99994 10.3335 9.99994C12.0835 9.99994 12.6668 9.34861 12.6668 9.34861" fill="none"/>
<path fill-rule="evenodd" clip-rule="evenodd" d="M3.3335 2.62127C3.3335 2.62127 3.91683 1.99994 5.66683 1.99994C7.41683 1.99994 8.5835 3.15127 10.3335 3.15127C12.0835 3.15127 12.6668 2.66661 12.6668 2.66661" fill="none"/>
<path d="M3.3335 13.9999V2.61994M12.6668 9.34661V2.66661C12.6668 2.66661 12.0835 3.15127 10.3335 3.15127C8.5835 3.15127 7.41683 1.99994 5.66683 1.99994C3.91683 1.99994 3.3335 2.62127 3.3335 2.62127M3.3335 9.33327C3.3335 9.33327 3.91683 8.84861 5.66683 8.84861C7.41683 8.84861 8.5835 9.99994 10.3335 9.99994C12.0835 9.99994 12.6668 9.34861 12.6668 9.34861" stroke="var(--tw-svg-color, #0D363F)" stroke-width="1.2" stroke-linecap="round" stroke-linejoin="round"/>
<path d="M7.90859 2.98711L7.93048 2.99337L7.95302 2.99659L10.2864 3.32992L10.3335 3.33666L10.3806 3.32992L12.3335 3.05094V9.10759L10.9629 9.65581L9.06027 9.33869L5.7322 8.67308L5.67621 8.66188L5.61969 8.66996L3.66683 8.94894V2.91804L5.66683 2.34661L7.90859 2.98711Z" fill="noneF" stroke="var(--tw-svg-color, #0D363F)" stroke-width="0.666667"/>
</svg>