<svg xmlns="http://www.w3.org/2000/svg" width="20" height="20" viewBox="0 0 20 20"><path fill="#767676" d="M10 20a10.068 10.068 0 0 0 10-10A10.083 10.083 0 0 0 9.99 0 10.072 10.072 0 0 0 0 10a10.074 10.074 0 0 0 10 10Zm0-1.667A8.293 8.293 0 0 1 1.676 10 8.291 8.291 0 0 1 9.99 1.667 8.322 8.322 0 0 1 18.333 10 8.3 8.3 0 0 1 10 18.333Zm-.088-11.82a1.266 1.266 0 0 0 1.274-1.278 1.268 1.268 0 0 0-1.275-1.284 1.274 1.274 0 0 0-1.274 1.284 1.272 1.272 0 0 0 1.275 1.278Zm-1.628 8.879h3.99a.683.683 0 0 0 .716-.686.7.7 0 0 0-.716-.686h-1.217V9.03c0-.529-.265-.882-.765-.882H8.451a.7.7 0 0 0-.716.686.683.683 0 0 0 .716.686H9.5v4.5H8.284a.7.7 0 0 0-.716.686.683.683 0 0 0 .716.686Z"/></svg>
