<svg width="17" height="16" viewBox="0 0 17 16" fill="none" xmlns="http://www.w3.org/2000/svg">
<path fill-rule="evenodd" clip-rule="evenodd" d="M9.77231 14.2901C10.2141 14.6005 10.8222 14.2845 10.8222 13.7446V12.4256H14.5259C14.9348 12.4256 15.2667 12.0937 15.2667 11.6848V2.05519C15.2667 1.6463 14.9348 1.31445 14.5259 1.31445H2.67409C2.2652 1.31445 1.93335 1.6463 1.93335 2.05519V11.6848C1.93335 12.0937 2.2652 12.4256 2.67409 12.4256H7.11854L9.77231 14.2901Z" fill="var(--tw-svg-color, #0D363F)"/>
<path d="M8.46896 6.63916C8.54155 6.56657 8.65859 6.56657 8.73118 6.63916C8.80378 6.71175 8.80378 6.82879 8.73118 6.90138C8.65859 6.97398 8.54155 6.97398 8.46896 6.90138C8.39711 6.82879 8.39711 6.71175 8.46896 6.63916" stroke="var(--tw-svg-color-secondary, #fff)" stroke-width="1.2" stroke-linecap="round" stroke-linejoin="round"/>
<path d="M5.50595 6.63916C5.57854 6.56657 5.69558 6.56657 5.76817 6.63916C5.84076 6.71175 5.84076 6.82879 5.76817 6.90138C5.69558 6.97398 5.57854 6.97398 5.50595 6.90138C5.4341 6.82879 5.4341 6.71175 5.50595 6.63916" stroke="var(--tw-svg-color-secondary, #fff)" stroke-width="1.2" stroke-linecap="round" stroke-linejoin="round"/>
<path d="M11.4319 6.63916C11.5044 6.56657 11.6215 6.56657 11.6941 6.63916C11.7667 6.71175 11.7667 6.82879 11.6941 6.90138C11.6215 6.97398 11.5044 6.97398 11.4319 6.90138C11.36 6.82879 11.36 6.71175 11.4319 6.63916" stroke="var(--tw-svg-color-secondary, #fff)" stroke-width="1.2" stroke-linecap="round" stroke-linejoin="round"/>
</svg>
