<svg data-name="Internal Contact" xmlns="http://www.w3.org/2000/svg" width="32" height="32" viewBox="0 0 32 32"><circle cx="15" cy="15" r="15" fill="#0031B3" opacity=".6"/><path d="M14.385 8a1.252 1.252 0 0 0-1.231 1.273H8.231A1.252 1.252 0 0 0 7 10.545v5.727a1.252 1.252 0 0 0 1.231 1.273h13.538A1.252 1.252 0 0 0 23 16.273v-5.728a1.252 1.252 0 0 0-1.231-1.273h-4.923A1.252 1.252 0 0 0 15.615 8ZM15 15a.637.637 0 1 1-.615.636A.626.626 0 0 1 15 15Zm-8 3.464v2.263A1.252 1.252 0 0 0 8.231 22h13.538A1.252 1.252 0 0 0 23 20.727v-2.263a2.376 2.376 0 0 1-1.231.354H8.231A2.376 2.376 0 0 1 7 18.464Z" fill="#fff"/></svg>
