<svg width="24" height="24" viewBox="0 0 24 24" fill="none" xmlns="http://www.w3.org/2000/svg">
<path d="M12 14V2M12 2L15 5M12 2L9 5M8 8.00011C7.00008 8.00011 6.00016 8.00014 5.00024 8.00013C3.89558 8.00011 3 8.89558 3 10.0002C3 12.3335 3 14.6667 3 17C3 18.1046 3.89543 19 5 19H19C20.1046 19 21 18.1046 21 17V10.0001C21 8.89554 20.1046 8.00011 19 8.00011C18 8.00011 17 8.00011 16 8.00011M15 22H9" stroke="var(--tw-svg-color, #0D363F)" stroke-width="1.2" stroke-linecap="round" stroke-linejoin="round"/>
</svg>
