<svg width="17" height="16" viewBox="0 0 17 16" fill="none" xmlns="http://www.w3.org/2000/svg">
<path fill-rule="evenodd" clip-rule="evenodd" d="M4.95738 3.0666C4.37986 3.0666 3.91938 3.5286 3.91938 4.08994V11.9099C3.91938 12.4732 4.38338 12.9362 4.96204 12.9333L4.96223 12.9333L7.74089 12.9206C7.96181 12.9196 8.14171 13.0979 8.14271 13.3188C8.14372 13.5397 7.96545 13.7196 7.74454 13.7206L4.96606 13.7333C4.966 13.7333 4.96594 13.7333 4.96588 13.7333C3.95129 13.7383 3.11938 12.9239 3.11938 11.9099V4.08994C3.11938 3.07927 3.94558 2.2666 4.95738 2.2666H7.83338C8.0543 2.2666 8.23339 2.44569 8.23339 2.6666C8.23339 2.88752 8.0543 3.0666 7.83338 3.0666H4.95738ZM10.8839 5.05043C11.0401 4.89422 11.2934 4.89422 11.4496 5.05043L14.1162 7.71709C14.2724 7.8733 14.2724 8.12657 14.1162 8.28278L11.4496 10.9494C11.2934 11.1057 11.0401 11.1057 10.8839 10.9494C10.7277 10.7932 10.7277 10.54 10.8839 10.3838L12.8677 8.39994H7.07338C6.85247 8.39994 6.67338 8.22085 6.67338 7.99994C6.67338 7.77902 6.85247 7.59994 7.07338 7.59994H12.8677L10.8839 5.61611C10.7277 5.4599 10.7277 5.20664 10.8839 5.05043Z" fill="var(--tw-svg-color, #0D363F)"/>
</svg>
