<svg width="16" height="16" viewBox="0 0 16 16" fill="none" xmlns="http://www.w3.org/2000/svg">
<path fill-rule="evenodd" clip-rule="evenodd" d="M8.53351 1.99756C8.8149 1.99756 9.06599 2.17424 9.1611 2.43908L9.49991 3.3828C9.55369 3.53121 9.65807 3.6559 9.7947 3.73495L10.7998 4.31519C10.9363 4.39394 11.0962 4.42182 11.2513 4.39389L12.2384 4.21582C12.5156 4.16542 12.7945 4.29462 12.9353 4.53862L13.4689 5.459C13.6101 5.70234 13.5834 6.00811 13.4022 6.22332L12.7546 6.98897C12.6526 7.10937 12.5966 7.26203 12.5965 7.41982V8.5803C12.5966 8.73809 12.6526 8.89075 12.7546 9.01115L13.4022 9.7768C13.5834 9.992 13.6101 10.2978 13.4689 10.5411L12.9353 11.4615C12.7946 11.7052 12.516 11.8344 12.239 11.7843L11.252 11.6062C11.0969 11.5783 10.9369 11.6062 10.8005 11.6849L9.79536 12.2652C9.65874 12.3442 9.55436 12.4689 9.50058 12.6173L9.16177 13.561C9.06657 13.8261 8.81514 14.0028 8.53351 14.0026H7.46639C7.185 14.0026 6.93391 13.8259 6.8388 13.561L6.49999 12.6173C6.44623 12.4691 6.34214 12.3445 6.20587 12.2652L5.20012 11.6849C5.06363 11.6062 4.90367 11.5783 4.7486 11.6062L3.76152 11.7843C3.48434 11.8347 3.20539 11.7055 3.06456 11.4615L2.53101 10.5411C2.38981 10.2978 2.41649 9.992 2.5977 9.7768L3.2453 9.01115C3.3473 8.89075 3.40331 8.73809 3.40337 8.5803V7.41982C3.40331 7.26203 3.3473 7.10937 3.2453 6.98897L2.60437 6.22332C2.42316 6.00811 2.39647 5.70234 2.53768 5.459L3.07123 4.53862C3.21197 4.29488 3.49056 4.16572 3.76752 4.21582L4.7546 4.39389C4.90968 4.42182 5.06964 4.39394 5.20612 4.31519L6.21187 3.73495C6.34814 3.65565 6.45223 3.53101 6.50599 3.3828L6.8448 2.43908C6.93916 2.1763 7.18721 2.00012 7.46639 1.99756H8.53351Z" stroke="var(--tw-svg-color, #0D363F)" stroke-linecap="round" stroke-linejoin="round"/>
<path d="M9.83405 8.00006C9.83405 9.013 9.01289 9.83416 7.99995 9.83416C6.98701 9.83416 6.16585 9.013 6.16585 8.00006C6.16585 6.98711 6.98701 6.16596 7.99995 6.16596C9.01289 6.16596 9.83405 6.98711 9.83405 8.00006Z" stroke="var(--tw-svg-color, #0D363F)" stroke-linecap="round" stroke-linejoin="round"/>
</svg>
