<svg xmlns="http://www.w3.org/2000/svg" width="40" height="40" viewBox="0 0 40 40"><path fill="#fff" d="M19.167 0a19.167 19.167 0 1 0 2.612 38.151 5.856 5.856 0 0 1 .63-1.8 17.635 17.635 0 1 1 14.106-15 4.985 4.985 0 0 1 .807.851 5.394 5.394 0 0 1 .575 1.019A19.158 19.158 0 0 0 19.167 0Zm-.013 4.155a.833.833 0 0 0-.82.845v11.813a2.5 2.5 0 0 0-1.421 3.429l-5 5a.833.833 0 1 0 1.178 1.178l5-5A2.5 2.5 0 1 0 20 16.81V5a.833.833 0 0 0-.846-.845Zm12.952 16.68c-2.387 0-4.106.79-4.961 2.2a5.934 5.934 0 0 0-.314 4.587 1.75 1.75 0 0 0-.274 1.183 2.7 2.7 0 0 0 .469 1.346c.083.111.221.108.326.19a3.689 3.689 0 0 0 .641 1.522 5.013 5.013 0 0 0 .547.63c.029.028.061.043.088.068v1.159a1.331 1.331 0 0 1-.664.622c-.431.237-1.043.466-1.691.773a5.7 5.7 0 0 0-1.911 1.348 4.34 4.34 0 0 0-1.027 2.661.833.833 0 0 0 .832.88h15a.833.833 0 0 0 .833-.886 4.339 4.339 0 0 0-1.029-2.659 5.708 5.708 0 0 0-1.911-1.348c-.648-.307-1.26-.536-1.691-.773a1.336 1.336 0 0 1-.664-.619v-1.17c.028-.028.062-.044.093-.075a5.248 5.248 0 0 0 .537-.636 4.074 4.074 0 0 0 .534-1.431c.141-.094.311-.1.418-.244a2.7 2.7 0 0 0 .469-1.348 2.035 2.035 0 0 0-.122-1.02c-.024-.057-.116-.083-.146-.14a5.862 5.862 0 0 0-.052-3.631 3.738 3.738 0 0 0-3.161-2.161l-.49-.682a.833.833 0 0 0-.679-.346Zm-.381 1.73.335.464a.833.833 0 0 0 .675.347c1.348 0 1.842.484 2.148 1.26a4.745 4.745 0 0 1-.063 2.954.833.833 0 0 0 .273.9.279.279 0 0 1 0 .13 1.136 1.136 0 0 1-.135.5.833.833 0 0 0-.579.793 2.09 2.09 0 0 1-.407.952 3.648 3.648 0 0 1-.363.431c-.108.109-.236.188-.145.138a.833.833 0 0 0-.433.731v1.784a.833.833 0 0 0 .047.28 2.994 2.994 0 0 0 1.487 1.571c.594.326 1.22.553 1.779.819a4.18 4.18 0 0 1 1.374.941c.157.179.185.533.288.775H25.325c.1-.243.131-.6.288-.775a4.181 4.181 0 0 1 1.374-.941c.559-.265 1.185-.494 1.779-.82a2.986 2.986 0 0 0 1.479-1.566.833.833 0 0 0 .049-.28v-1.787a.833.833 0 0 0-.436-.732c.076.041-.047-.034-.156-.14a3.438 3.438 0 0 1-.365-.42 1.973 1.973 0 0 1-.41-.975.833.833 0 0 0-.578-.793 1.127 1.127 0 0 1-.137-.5.243.243 0 0 1 .013-.137.833.833 0 0 0 .27-.882 4.7 4.7 0 0 1 .073-3.693c.458-.749 1.432-1.245 3.157-1.329Z"/></svg>
