<svg id="icon.calendar-plus" xmlns="http://www.w3.org/2000/svg" width="20" height="20" viewBox="0 0 20 20">
  <path id="Path_359" d="M-529.286,257.782a5.18,5.18,0,0,1,5.142-5.218A5.181,5.181,0,0,1-519,257.782,5.181,5.181,0,0,1-524.143,263,5.18,5.18,0,0,1-529.286,257.782Zm2.2,0a.739.739,0,0,0,.734.745h1.47v1.491a.739.739,0,0,0,.734.745.74.74,0,0,0,.735-.745v-1.491h1.469a.74.74,0,0,0,.735-.745.74.74,0,0,0-.735-.746h-1.469v-1.49a.74.74,0,0,0-.735-.746.74.74,0,0,0-.734.746v1.49h-1.47A.74.74,0,0,0-527.082,257.782Zm-2.486,2.608h-5.66A1.759,1.759,0,0,1-537,258.652V246.478a1.759,1.759,0,0,1,1.773-1.739h.887V243h1.773v1.739h7.094V243h1.773v1.739h.886a1.758,1.758,0,0,1,1.773,1.739v6.094a5.91,5.91,0,0,0-1.773-.726v-1.889h-12.414v8.7h5.145a6.094,6.094,0,0,0,.516,1.737v0Zm-5.66-12.173h12.414v-1.74h-12.414Z" transform="translate(539 -243)" fill="#767676"/>
</svg>
