<svg width="17" height="16" viewBox="0 0 17 16" fill="none" xmlns="http://www.w3.org/2000/svg">
<path d="M4.35461 7.25969C4.55636 7.22943 4.7629 7.21374 4.97311 7.21374C7.17523 7.21374 8.97373 8.93501 9.09354 11.1025C9.32498 11.1291 9.56073 11.1428 9.7999 11.1428C10.1982 11.1428 10.5867 11.1036 10.9626 11.0315L12.5992 11.8376C12.8576 11.9649 13.16 11.7768 13.1602 11.4887C13.1602 11.389 13.1603 11.2907 13.1604 11.1944C13.1607 10.7947 13.161 10.4278 13.1606 10.1222C14.5165 9.19964 15.3999 7.73664 15.3999 6.07484C15.3999 3.26294 12.8813 1.00684 9.7999 1.00684C6.7185 1.00684 4.1999 3.26294 4.1999 6.07484C4.1999 6.48337 4.25371 6.88 4.35461 7.25969Z" fill="var(--tw-svg-color, #0D363F)"/>
<path fill-rule="evenodd" clip-rule="evenodd" d="M4.9545 14.7793C6.8501 14.7793 8.3873 13.2421 8.3873 11.3465C8.3873 9.45094 6.8508 7.91374 4.9545 7.91374C3.0582 7.91374 1.5217 9.45094 1.5217 11.3465" fill="var(--tw-svg-color, #0D363F)"/>
<path fill-rule="evenodd" clip-rule="evenodd" d="M4.958 14.7828C4.4414 14.7828 3.9521 14.6687 3.5125 14.465L1.98319 14.7899C1.70844 14.8482 1.46433 14.605 1.5217 14.33L1.8416 12.7969C1.6365 12.3559 1.5217 11.8645 1.5217 11.3465" fill="var(--tw-svg-color, #0D363F)"/>
</svg>
