<svg width="16" height="16" viewBox="0 0 16 16" fill="none" xmlns="http://www.w3.org/2000/svg">
<path fill-rule="evenodd" clip-rule="evenodd" d="M13.7588 11.0004L12.9083 10.1499C12.4834 9.72503 11.7946 9.72503 11.3704 10.1499L10.7019 10.8184C10.5525 10.9678 10.3263 11.0178 10.1335 10.933C9.16477 10.5088 8.20768 9.86569 7.35428 9.01229C6.50451 8.16252 5.86356 7.20979 5.43867 6.24473C5.35021 6.04533 5.40169 5.81114 5.55613 5.6567L6.15503 5.0578C6.64155 4.57128 6.64155 3.8832 6.21666 3.45831L5.36616 2.60781C4.79989 2.04154 3.88196 2.04154 3.31568 2.60781L2.84294 3.07983C2.30567 3.6171 2.08163 4.39219 2.22664 5.16076C2.58482 7.05535 3.68547 9.12975 5.46115 10.9054C7.23682 12.6811 9.31123 13.7818 11.2058 14.1399C11.9744 14.2849 12.7495 14.0609 13.2867 13.5236L13.7588 13.0516C14.325 12.4853 14.325 11.5674 13.7588 11.0004Z" fill="var(--tw-svg-color, #0D363F)" stroke="var(--tw-svg-color, #0D363F)" stroke-width="0.8" stroke-linecap="round" stroke-linejoin="round"/>
</svg>
