<svg width="24" height="24" viewBox="0 0 24 24" fill="none" xmlns="http://www.w3.org/2000/svg">
<path fill-rule="evenodd" clip-rule="evenodd" d="M9.13154 14.1439C7.96154 12.9739 7.07954 11.6639 6.49354 10.3349C6.36954 10.0539 6.44254 9.72487 6.65954 9.50787L7.47854 8.68987C8.14954 8.01887 8.14954 7.06987 7.56354 6.48387L6.38954 5.30987C5.60854 4.52887 4.34254 4.52887 3.56154 5.30987L2.90954 5.96187C2.16854 6.70287 1.85954 7.77187 2.05954 8.83187C2.55354 11.4449 4.07154 14.3059 6.52054 16.7549C8.96954 19.2039 11.8305 20.7219 14.4435 21.2159C15.5035 21.4159 16.5725 21.1069 17.3135 20.3659L17.9645 19.7149C18.7455 18.9339 18.7455 17.6679 17.9645 16.8869L16.7915 15.7139C16.2055 15.1279 15.2555 15.1279 14.6705 15.7139L13.7675 16.6179C13.5505 16.8349 13.2215 16.9079 12.9405 16.7839C11.6115 16.1969 10.3015 15.3139 9.13154 14.1439Z" fill="var(--tw-svg-color, #0D363F)" stroke="var(--tw-svg-color, #0D363F)" stroke-width="1.2" stroke-linecap="round" stroke-linejoin="round"/>
<path fill-rule="evenodd" clip-rule="evenodd" d="M16.1535 7.12212C15.5173 6.48592 15.0376 5.77359 14.719 5.05093C14.6515 4.89813 14.6912 4.71923 14.8092 4.60123L15.2546 4.15643C15.6195 3.79157 15.6195 3.27554 15.3008 2.95689L14.6624 2.31851C14.2377 1.89383 13.5493 1.89383 13.1245 2.31851L12.77 2.67304C12.367 3.07597 12.199 3.65726 12.3078 4.23365C12.5764 5.6545 13.4019 7.21021 14.7336 8.54189C16.0654 9.87357 17.6212 10.699 19.0422 10.9676C19.6186 11.0764 20.1999 10.9084 20.6028 10.5054L20.9569 10.1514C21.3816 9.72676 21.3816 9.03835 20.9569 8.61367L20.319 7.97583C20.0003 7.65719 19.4837 7.65719 19.1656 7.97583L18.6745 8.4674C18.5565 8.58539 18.3776 8.62509 18.2248 8.55766C17.5021 8.23847 16.7897 7.75833 16.1535 7.12212Z" fill="var(--tw-svg-color, #0D363F)" stroke="var(--tw-svg-color, #0D363F)" stroke-linecap="round" stroke-linejoin="round"/>
</svg>
