<svg xmlns="http://www.w3.org/2000/svg" width="24" height="24" viewBox="0 0 24 24"><path d="M18.071 4A1.072 1.072 0 0 0 17 5.071v.082L9.143 7.571v7.143L17 17.132v.082a1.071 1.071 0 0 0 2.143 0V5.071A1.072 1.072 0 0 0 18.071 4ZM7.714 7.714l-4.428.444A1.428 1.428 0 0 0 2 9.579v3.128a1.428 1.428 0 0 0 1.286 1.422l1.735.174.822 4.817a.713.713 0 0 0 .7.594H7A.715.715 0 0 0 7.714 19v-4.428Zm12.857 1.643v3.571l.346-.086A1.429 1.429 0 0 0 22 11.457v-.627a1.43 1.43 0 0 0-1.083-1.387Z" fill="#fff"/></svg>
