<svg width="20" height="20" viewBox="0 0 20 20" fill="none" xmlns="http://www.w3.org/2000/svg">
<path fill-rule="evenodd" clip-rule="evenodd" d="M9.57019 2.12966C9.82079 1.89229 10.2164 1.90301 10.4538 2.15361C14.5712 6.50049 14.5712 13.4997 10.4538 17.8466C10.2164 18.0972 9.82079 18.1079 9.57019 17.8705C9.31959 17.6331 9.30887 17.2375 9.54625 16.9869C13.2071 13.1222 13.2071 6.878 9.54625 3.01322C9.30887 2.76262 9.31959 2.36704 9.57019 2.12966Z" fill="#0D363F"/>
<path fill-rule="evenodd" clip-rule="evenodd" d="M10.43 2.12966C10.6806 2.36704 10.6913 2.76262 10.454 3.01322C6.79312 6.878 6.79312 13.1222 10.454 16.9869C10.6913 17.2375 10.6806 17.6331 10.43 17.8705C10.1794 18.1079 9.78383 18.0972 9.54646 17.8466C5.42896 13.4997 5.42896 6.50049 9.54646 2.15361C9.78383 1.90301 10.1794 1.89229 10.43 2.12966Z" fill="#0D363F"/>
<path fill-rule="evenodd" clip-rule="evenodd" d="M9.375 2.5C9.375 2.15482 9.65482 1.875 10 1.875C14.4968 1.875 18.125 5.50316 18.125 10C18.125 14.4968 14.4968 18.125 10 18.125C9.65482 18.125 9.375 17.8452 9.375 17.5C9.375 17.1548 9.65482 16.875 10 16.875C13.8065 16.875 16.875 13.8065 16.875 10C16.875 6.19351 13.8065 3.125 10 3.125C9.65482 3.125 9.375 2.84518 9.375 2.5Z" fill="#0D363F"/>
<path fill-rule="evenodd" clip-rule="evenodd" d="M10 3.125C6.19351 3.125 3.125 6.19351 3.125 10C3.125 13.8065 6.19351 16.875 10 16.875C10.3452 16.875 10.625 17.1548 10.625 17.5C10.625 17.8452 10.3452 18.125 10 18.125C5.50316 18.125 1.875 14.4968 1.875 10C1.875 5.50316 5.50316 1.875 10 1.875C10.3452 1.875 10.625 2.15482 10.625 2.5C10.625 2.84518 10.3452 3.125 10 3.125Z" fill="#0D363F"/>
<path fill-rule="evenodd" clip-rule="evenodd" d="M2.2998 7.5C2.2998 7.15482 2.57963 6.875 2.9248 6.875H17.0748C17.42 6.875 17.6998 7.15482 17.6998 7.5C17.6998 7.84518 17.42 8.125 17.0748 8.125H2.9248C2.57963 8.125 2.2998 7.84518 2.2998 7.5Z" fill="#0D363F"/>
<path fill-rule="evenodd" clip-rule="evenodd" d="M2.2998 12.5C2.2998 12.1548 2.57963 11.875 2.9248 11.875H17.0748C17.42 11.875 17.6998 12.1548 17.6998 12.5C17.6998 12.8452 17.42 13.125 17.0748 13.125H2.9248C2.57963 13.125 2.2998 12.8452 2.2998 12.5Z" fill="#0D363F"/>
</svg>
