<svg xmlns="http://www.w3.org/2000/svg" width="32" height="32" viewBox="0 0 27.533 27.533"><path fill="#db2828" d="M27.533 13.767A13.767 13.767 0 1 1 13.767 0a13.767 13.767 0 0 1 13.766 13.767"/><path fill="#fff" d="M15.157 11.265h-1.863c-.895 0-7.673.749-7.673 3.471 0 0 .146 2.083 1 2.083a12.823 12.823 0 0 0 3.014-.694c.621-.2.859-.457 1.023-1.407a1.5 1.5 0 0 1 1.576-1.316c.5-.024 1.307-.024 1.79-.022h.4c.483 0 1.291 0 1.79.022a1.5 1.5 0 0 1 1.571 1.315c.164.95.4 1.206 1.023 1.407a12.823 12.823 0 0 0 3.014.694c.859 0 1-2.083 1-2.083.008-2.721-6.77-3.47-7.665-3.47"/></svg>
