<svg xmlns="http://www.w3.org/2000/svg" width="20" height="20"><path d="M3.455 2A1.454 1.454 0 0 0 2 3.455v.727a.728.728 0 0 0 1.455 0v-.727h.727a.728.728 0 0 0 0-1.455zm3.636 0a.728.728 0 0 0 0 1.455h1.455a.728.728 0 0 0 0-1.455zm4.364 0a.728.728 0 1 0 0 1.455h1.455a.728.728 0 0 0 0-1.455zm4.364 0a.728.728 0 1 0 0 1.455h.727v.727a.728.728 0 1 0 1.455 0v-.727A1.454 1.454 0 0 0 16.545 2zM2.727 6.364A.728.728 0 0 0 2 7.091v1.455a.728.728 0 0 0 1.455 0V7.091a.728.728 0 0 0-.728-.727zm14.545 0a.728.728 0 0 0-.727.727v1.456a.728.728 0 0 0 1.455 0V7.091a.728.728 0 0 0-.727-.727zm-6.824 2.909a.724.724 0 0 0-.649.4l-.125.249a1.456 1.456 0 0 1-1.3.8H7.091a.728.728 0 0 0-.727.727v5.818a.728.728 0 0 0 .727.733h10.182a.728.728 0 0 0 .727-.727v-5.818a.728.728 0 0 0-.727-.727H15.99a1.454 1.454 0 0 1-1.3-.8l-.125-.249a.726.726 0 0 0-.649-.4zm-7.721 1.454a.728.728 0 0 0-.727.728v1.455a.728.728 0 0 0 1.455 0v-1.455a.728.728 0 0 0-.728-.728zm9.455.727a2.909 2.909 0 1 1-2.909 2.909 2.909 2.909 0 0 1 2.909-2.908zm0 1.455a1.455 1.455 0 1 0 1.455 1.455 1.455 1.455 0 0 0-1.455-1.455zm-9.455 2.182a.728.728 0 0 0-.727.727v.727A1.454 1.454 0 0 0 3.455 18h.727a.728.728 0 1 0 0-1.455h-.727v-.727a.728.728 0 0 0-.728-.727z" fill="#767676"/></svg>
