<svg xmlns="http://www.w3.org/2000/svg" width="25" height="25" viewBox="0 0 25 25">
  <g id="icon_hold" transform="translate(0.499 0.5)">
    <circle id="Oval_2_Copy_8" data-name="Oval 2 Copy 8" cx="12" cy="12" r="12" transform="translate(0.001)" fill="rgba(255,255,255,0)" stroke="#fff" stroke-width="1"/>
    <path id="Path_218" data-name="Path 218" d="M273.792,674.875c-.735,0-1.334-.449-1.334-1v-8c0-.551.6-1,1.334-1s1.333.449,1.333,1v8C275.125,674.426,274.527,674.875,273.792,674.875Zm-5.333,0c-.735,0-1.333-.449-1.333-1v-8c0-.551.6-1,1.333-1s1.333.449,1.333,1v8C269.792,674.426,269.194,674.875,268.459,674.875Z" transform="translate(-259.124 -657.875)" fill="#fff"/>
  </g>
</svg>
