<svg width="18" height="18" viewBox="0 0 18 18" fill="none" xmlns="http://www.w3.org/2000/svg">
<path fill-rule="evenodd" clip-rule="evenodd" d="M7.5979 10.4017C6.7204 9.52423 6.0589 8.54173 5.6194 7.54498C5.52715 7.33423 5.58115 7.08748 5.7439 6.92473L6.35815 6.31048C6.8614 5.80723 6.8614 5.09548 6.4219 4.65598L5.54215 3.77623C4.9564 3.19048 4.0069 3.19048 3.42115 3.77623L2.93215 4.26448C2.3764 4.82023 2.14465 5.62198 2.29465 6.41698C2.66515 8.37673 3.80365 10.5225 5.6404 12.3592C7.47715 14.196 9.6229 15.3345 11.5827 15.705C12.3777 15.855 13.1794 15.6232 13.7352 15.0675L14.2234 14.5792C14.8092 13.9935 14.8092 13.044 14.2234 12.4582L13.3437 11.5785C12.9042 11.139 12.1917 11.139 11.7529 11.5785L11.0757 12.2565C10.9129 12.4192 10.6662 12.474 10.4554 12.381C9.45865 11.9407 8.4754 11.2785 7.5979 10.4017Z" fill="var(--tw-svg-color, #1A6D7F)"  stroke="var(--tw-svg-color, #1A6D7F)"  stroke-width="1.2" stroke-linecap="round" stroke-linejoin="round"/>
<path d="M13.5 7.68232L16.682 4.50034M16.682 4.50034L13.5 1.31836M16.682 4.50034H10.318" stroke="var(--tw-svg-color, #1A6D7F)"  stroke-width="1.2" stroke-linecap="round" stroke-linejoin="round"/>
</svg>
