<svg xmlns="http://www.w3.org/2000/svg" viewBox="0 0 75 32">
<path d="M47.728 0l-4.178 4.154 11.604 11.673-11.945 12.018 4.181 4.154 11.919-11.991 11.562 11.635 4.177-4.154-11.589-11.658 11.251-11.32-4.177-4.154-11.224 11.293-11.581-11.65z"/>
<path d="M31.24 7.673l-6.913-6.913c-0.117-0.118-0.277-0.184-0.444-0.184h-21.997c-1.040 0-1.885 0.846-1.885 1.885v27.654c0 1.040 0.846 1.885 1.885 1.885h27.654c1.040 0 1.885-0.846 1.885-1.885v-21.997c0-0.167-0.066-0.327-0.184-0.444zM6.913 1.832c0 0 0.529 0 1.257 0h15.319l1.021 1.008v8.419c0 0.728-0.529 1.257-1.257 1.257h-15.084c-0.728 0-1.257-0.529-1.257-1.257v-9.427zM25.768 30.617h-20.112v-11.941c0-0.628 0.503-1.131 1.131-1.131h17.849c0.628 0 1.131 0.503 1.131 1.131v11.941z"/>
</svg>