<svg width="24" height="24" viewBox="0 0 24 24" fill="none" xmlns="http://www.w3.org/2000/svg">
<path d="M14.9999 9.5H18.9999M17.3999 13.5H14.9999M12.0949 16.5V16.5C12.0949 15.3954 11.1993 14.5 10.0947 14.5C9.722 14.5 9.37745 14.5 9.14591 14.5H7.85391C7.62237 14.5 7.27783 14.5 6.90509 14.5C5.80052 14.5 4.90491 15.3954 4.90491 16.5V16.5M10.0909 8.15901C10.9696 9.03769 10.9696 10.4623 10.0909 11.341C9.21223 12.2197 7.78761 12.2197 6.90893 11.341C6.03025 10.4623 6.03025 9.03769 6.90893 8.15901C7.78761 7.28033 9.21223 7.28033 10.0909 8.15901ZM2.99989 20.5H20.9999C21.5522 20.5 21.9999 20.0523 21.9999 19.5C21.9999 14.5 21.9999 9.5 21.9999 4.5C21.9999 3.94772 21.5522 3.5 20.9999 3.5H2.99989C2.44771 3.5 2.00003 3.94756 1.99991 4.49975C1.99883 9.4999 1.99896 14.5001 1.9999 19.5002C2.00001 20.0524 2.44769 20.5 2.99989 20.5Z" stroke="var(--tw-svg-color, #0D363F)" stroke-width="1.2" stroke-linecap="round" stroke-linejoin="round"/>
</svg>
