<svg width="20" height="20" viewBox="0 0 20 20" fill="none" xmlns="http://www.w3.org/2000/svg">
<circle cx="10" cy="10" r="8.6" fill="#FFBB1A" stroke="white" stroke-width="1.2"/>
<path d="M13.1252 15V6" stroke="white" stroke-linecap="round" stroke-linejoin="round"/>
<path d="M11.5001 7.1C11.5001 6.21634 12.2165 5.5 13.1001 5.5C13.321 5.5 13.5001 5.67909 13.5001 5.9V11.1C13.5001 11.3209 13.321 11.5 13.1001 11.5C12.2165 11.5 11.5001 10.7837 11.5001 9.9V7.1Z" fill="white"/>
<path d="M9.50018 8.25H8.00018H6.50018" stroke="white" stroke-width="0.75" stroke-linecap="round" stroke-linejoin="round"/>
<path d="M8.03729 15V10.5" stroke="white" stroke-linecap="round" stroke-linejoin="round"/>
<path d="M8.00018 8.25V6" stroke="white" stroke-width="0.75" stroke-linecap="round" stroke-linejoin="round"/>
<path d="M9.50012 6V9C9.50012 9.82843 8.82855 10.5 8.00012 10.5V10.5C7.17169 10.5 6.50012 9.82843 6.50012 9V6" stroke="white" stroke-width="0.75" stroke-linecap="round" stroke-linejoin="round"/>
<path d="M6.50018 8.5H9.50018V9C9.50018 9.82843 8.82861 10.5 8.00018 10.5C7.17176 10.5 6.50018 9.82843 6.50018 9V8.5Z" fill="white"/>
<circle cx="7.25018" cy="7.875" r="0.375" fill="#FFBB1A"/>
<circle cx="8.75018" cy="7.875" r="0.375" fill="#FFBB1A"/>
</svg>
