<svg width="24" height="24" viewBox="0 0 24 24" fill="none" xmlns="http://www.w3.org/2000/svg">
<g id="Icon/IA/Tab Configure">
<path id="Icon" fill-rule="evenodd" clip-rule="evenodd" d="M17.9897 4.00952C17.7272 3.74714 17.3712 3.5998 17.0001 3.5999H6.99896C6.99891 3.5999 6.99902 3.5999 6.99896 3.5999C6.62787 3.60005 6.27185 3.74758 6.00952 4.01006C5.74714 4.27258 5.5998 4.62858 5.5999 4.99973V5.43076C5.73102 5.41037 5.86429 5.39994 5.99864 5.3999H17.9997C17.9997 5.3999 17.9998 5.3999 17.9997 5.3999C18.1345 5.39987 18.2684 5.41031 18.3999 5.43076V4.99896C18.3999 4.99891 18.3999 4.99902 18.3999 4.99896C18.3998 4.62787 18.2522 4.27185 17.9897 4.00952ZM19.5999 5.95021V4.9988C19.5997 4.30938 19.3257 3.64811 18.838 3.16076C18.3505 2.67344 17.6893 2.39975 16.9999 2.3999C16.9998 2.3999 17 2.3999 16.9999 2.3999H6.9988C6.30938 2.40009 5.64811 2.67414 5.16076 3.16177C4.67344 3.64935 4.39975 4.31054 4.3999 4.9999C4.3999 4.99985 4.3999 4.99996 4.3999 4.9999V5.95021C4.31636 6.01543 4.23646 6.08602 4.16076 6.16177C3.67344 6.64935 3.39975 7.31054 3.3999 7.9999C3.3999 7.99985 3.3999 7.99996 3.3999 7.9999V8.95037C2.79119 9.42624 2.3999 10.1674 2.3999 10.9999V18.9999C2.3999 20.4358 3.56396 21.5999 4.9999 21.5999H18.9999C20.4358 21.5999 21.5999 20.4358 21.5999 18.9999V10.9999C21.5999 10.1674 21.2086 9.42624 20.5999 8.95037V7.9988C20.5997 7.30938 20.3257 6.64811 19.838 6.16076C19.7626 6.08539 19.6831 6.01514 19.5999 5.95021ZM19.3999 8.43048V7.99896C19.3999 7.99891 19.3999 7.99902 19.3999 7.99896C19.3998 7.62786 19.2522 7.27185 18.9897 7.00952C18.7272 6.74714 18.3712 6.5998 18.0001 6.5999H5.99896C5.99891 6.5999 5.99902 6.5999 5.99896 6.5999C5.62787 6.60005 5.27185 6.74758 5.00952 7.01006C4.74714 7.27258 4.5998 7.62858 4.5999 7.99973V8.43048C4.73029 8.41035 4.86388 8.3999 4.9999 8.3999H18.9999C19.1359 8.3999 19.2695 8.41035 19.3999 8.43048ZM4.9999 9.5999C4.2267 9.5999 3.5999 10.2267 3.5999 10.9999V18.9999C3.5999 19.7731 4.2267 20.3999 4.9999 20.3999H18.9999C19.7731 20.3999 20.3999 19.7731 20.3999 18.9999V10.9999C20.3999 10.2267 19.7731 9.5999 18.9999 9.5999H4.9999Z" fill="var(--tw-svg-color, #0D363F)"/>
</g>
</svg>
