<svg width="24" height="24" viewBox="0 0 24 24" fill="none" xmlns="http://www.w3.org/2000/svg">
<path d="M11.984 14.2492H12.016C13 14.2492 14.25 13.2737 14.25 13.2737L9.75 8.50012V12.0152C9.75 13.2492 10.75 14.2492 11.984 14.2492Z" fill="var(--tw-svg-color, #0D363F)"/>
<path d="M11.984 3.01416C10.75 3.01416 9.75 4.00012 9.75 5.00012L14.25 10.0001V5.24816C14.25 4.01416 13.25 3.01416 12.016 3.01416H11.984Z" fill="var(--tw-svg-color, #0D363F)"/>
<path d="M11.984 14.2492H12.016C13 14.2492 14.25 13.2737 14.25 13.2737L9.75 8.50012V12.0152C9.75 13.2492 10.75 14.2492 11.984 14.2492Z" stroke="var(--tw-svg-color, #0D363F)" stroke-width="1.5" stroke-linecap="round" stroke-linejoin="round"/>
<path d="M11.984 3.01416C10.75 3.01416 9.75 4.00012 9.75 5.00012L14.25 10.0001V5.24816C14.25 4.01416 13.25 3.01416 12.016 3.01416H11.984Z" stroke="var(--tw-svg-color, #0D363F)" stroke-width="1.5" stroke-linecap="round" stroke-linejoin="round"/>
<path d="M17.626 11.999C17.626 12.4072 17.5826 12.8052 17.5 13.1886M6.37402 11.999C6.37402 15.106 8.89302 17.625 12 17.625C13.5647 17.625 14.9802 16.9862 16 15.9552" stroke="var(--tw-svg-color, #0D363F)" stroke-width="1.5" stroke-linecap="round" stroke-linejoin="round"/>
<path d="M12 21.0001V17.6201" stroke="var(--tw-svg-color, #0D363F)" stroke-width="1.5" stroke-linecap="round" stroke-linejoin="round"/>
<path d="M4.58545 2.71289L19.4889 18.7873" stroke="var(--tw-svg-color, #0D363F)" stroke-width="1.5" stroke-linecap="round" stroke-linejoin="round"/>
</svg>
