<svg width="16" height="16" viewBox="0 0 16 16" fill="none" xmlns="http://www.w3.org/2000/svg">
<path fill-rule="evenodd" clip-rule="evenodd" d="M15.0007 3.33345V10.3338C15.0007 11.6225 13.956 12.6673 12.6673 12.6673H8.38927L5.51786 14.9172C5.40074 15.009 5.24153 15.0259 5.10776 14.9608C4.97398 14.8956 4.88909 14.7599 4.88909 14.6111V12.6673H3.33345C2.04472 12.6673 1 11.6225 1 10.3338V3.33345C1 2.04472 2.04472 1 3.33345 1H12.6673C13.956 1 15.0007 2.04472 15.0007 3.33345ZM4 5C4 4.72386 4.22386 4.5 4.5 4.5H11.5C11.7761 4.5 12 4.72386 12 5C12 5.27614 11.7761 5.5 11.5 5.5H4.5C4.22386 5.5 4 5.27614 4 5ZM4.5 7.5C4.22386 7.5 4 7.72386 4 8C4 8.27614 4.22386 8.5 4.5 8.5H8.875C9.15114 8.5 9.375 8.27614 9.375 8C9.375 7.72386 9.15114 7.5 8.875 7.5H4.5Z" fill="var(--tw-svg-color, #0D363F)"/>
</svg>
