<svg xmlns="http://www.w3.org/2000/svg" width="24" height="24" viewBox="0 0 24 24"><path d="M15.889 16.154h3.547v-3.591h-.983v2.6h-2.564ZM4.564 9.188h.983v-2.6h2.564v-1H4.564Zm4.1 11.813v-2.25H3.792a1.727 1.727 0 0 1-1.281-.52 1.772 1.772 0 0 1-.514-1.3V4.817a1.772 1.772 0 0 1 .514-1.3 1.727 1.727 0 0 1 1.281-.52h16.41a1.727 1.727 0 0 1 1.281.52 1.772 1.772 0 0 1 .514 1.3v12.115a1.772 1.772 0 0 1-.514 1.3 1.727 1.727 0 0 1-1.281.52H15.33V21Zm-4.872-3.375h16.41a.65.65 0 0 0 .47-.216.665.665 0 0 0 .214-.476V4.817a.665.665 0 0 0-.214-.476.65.65 0 0 0-.47-.216H3.792a.65.65 0 0 0-.47.216.665.665 0 0 0-.214.476v12.115a.665.665 0 0 0 .214.476.65.65 0 0 0 .473.217Zm-.684 0Z" fill="#767676"/></svg>
