<svg width="24" height="24" viewBox="0 0 24 24" fill="none" xmlns="http://www.w3.org/2000/svg">
<path fill-rule="evenodd" clip-rule="evenodd" d="M20.6381 16.5009L19.3623 15.2251C18.725 14.5878 17.6918 14.5878 17.0556 15.2251L16.0528 16.2279C15.8287 16.4519 15.4894 16.527 15.2001 16.3997C13.7471 15.7635 12.3115 14.7988 11.0314 13.5187C9.7567 12.244 8.79527 10.8149 8.15794 9.36733C8.02525 9.06825 8.10247 8.71695 8.33413 8.4853L9.23248 7.58694C9.96226 6.85717 9.96226 5.82504 9.32493 5.18771L8.04918 3.91196C7.19977 3.06255 5.82288 3.06255 4.97346 3.91196L4.26435 4.61998C3.45845 5.42589 3.12238 6.58853 3.3399 7.74138C3.87717 10.5833 5.52814 13.6949 8.19166 16.3584C10.8552 19.0219 13.9668 20.6729 16.8087 21.2101C17.9615 21.4277 19.1242 21.0916 19.9301 20.2857L20.6381 19.5777C21.4875 18.7283 21.4875 17.3514 20.6381 16.5009Z" fill="var(--tw-svg-color, #0D363F)" stroke="var(--tw-svg-color, #0D363F)" stroke-width="1.2" stroke-linecap="round" stroke-linejoin="round"/>
</svg>
