<svg xmlns="http://www.w3.org/2000/svg" width="24" height="24" viewBox="0 0 24 24"><g fill="#767676"><path d="M12 22a9.746 9.746 0 0 1-3.9-.787 9.985 9.985 0 0 1-5.315-5.311 10.047 10.047 0 0 1 0-7.8 9.985 9.985 0 0 1 5.311-5.315 10.047 10.047 0 0 1 7.8 0 9.985 9.985 0 0 1 5.316 5.311 10.047 10.047 0 0 1 0 7.8 9.985 9.985 0 0 1-5.311 5.315A9.726 9.726 0 0 1 12 22Zm0-1.111a8.821 8.821 0 1 0-6.306-2.583A8.579 8.579 0 0 0 12 20.889Z"/><path d="m10.123 16.192-3.8-3.8a.585.585 0 0 1 0-.828l.825-.826a.585.585 0 0 1 .828 0l2.562 2.562 5.487-5.492a.585.585 0 0 1 .828 0l.827.828a.585.585 0 0 1 0 .828l-6.732 6.728a.585.585 0 0 1-.828 0Z"/></g></svg>
