<svg width="14" height="14" viewBox="0 0 14 14" fill="none" xmlns="http://www.w3.org/2000/svg">
<path fill-rule="evenodd" clip-rule="evenodd" d="M9.35355 5.31311C9.54882 5.50838 9.54882 5.82496 9.35355 6.02022L6.68689 8.68689C6.49162 8.88215 6.17504 8.88215 5.97978 8.68689L4.64645 7.35355C4.45118 7.15829 4.45118 6.84171 4.64645 6.64645C4.84171 6.45118 5.15829 6.45118 5.35355 6.64645L6.33333 7.62623L8.64645 5.31311C8.84171 5.11785 9.15829 5.11785 9.35355 5.31311Z" fill="var(--tw-svg-color, #0D363F)"/>
<path fill-rule="evenodd" clip-rule="evenodd" d="M0.5 6C0.5 2.96243 2.96243 0.5 6 0.5H8C11.0376 0.5 13.5 2.96243 13.5 6V8C13.5 11.0376 11.0376 13.5 8 13.5H6C2.96243 13.5 0.5 11.0376 0.5 8V6ZM6 1.5C3.51472 1.5 1.5 3.51472 1.5 6V8C1.5 10.4853 3.51472 12.5 6 12.5H8C10.4853 12.5 12.5 10.4853 12.5 8V6C12.5 3.51472 10.4853 1.5 8 1.5H6Z" fill="var(--tw-svg-color, #0D363F)"/>
</svg>
