<svg id="icon.insert" xmlns="http://www.w3.org/2000/svg" width="24" height="24" viewBox="0 0 24 24">
  <g id="Group_6524" data-name="Group 6524">
    <path id="Path_4804" data-name="Path 4804" d="M-2404,11297.923l.009-.022h0v-7.8h0l-.009-.021,1.268-1.08.734.734-1.14,1.026v6.482l1.14,1.026-.734.732Zm-16,.346,1.14-1.026v-6.482l-1.14-1.026.735-.734,1.265,1.08-.009.021h0v7.8h0l.009.022-1.265,1.078Zm8.677-.547-3.528-3.624a.412.412,0,0,1-.139-.408.4.4,0,0,1,.3-.3.394.394,0,0,1,.4.139l2.855,2.913v-8.025a.416.416,0,0,1,.2-.357.391.391,0,0,1,.4,0,.416.416,0,0,1,.2.357v8.025l2.855-2.913a.389.389,0,0,1,.457-.088.406.406,0,0,1,.227.42.4.4,0,0,1-.125.241l-3.528,3.624-.284.278Z" transform="translate(2422.999 -11278)" fill="#707070"/>
    <g id="Rectangle_7820" data-name="Rectangle 7820" transform="translate(5 3)" fill="none" stroke="#707070" stroke-width="1">
      <rect width="14" height="5" stroke="none"/>
      <rect x="0.5" y="0.5" width="13" height="4" fill="none"/>
    </g>
  </g>
</svg>
