<svg xmlns="http://www.w3.org/2000/svg" viewBox="0 0 44 32">
<path d="M1.333 11.556c-0.736 0-1.333 0.597-1.333 1.333v17.778c0 0.736 0.597 1.333 1.333 1.333h24.889c0.736-0 1.333-0.597 1.333-1.333v-6.222c-0-0.736-0.597-1.333-1.333-1.333h-17.333v-10.222c-0-0.736-0.597-1.333-1.333-1.333h-6.222zM2.667 14.222h3.556v10.222c0 0.736 0.597 1.333 1.333 1.333h17.333v3.556h-22.222v-15.111z"/>
<path d="M7.556 0c-0.736 0-1.333 0.597-1.333 1.333v23.111c0 0.736 0.597 1.333 1.333 1.333h35.556c0.736-0 1.333-0.597 1.333-1.333v-23.111c-0-0.736-0.597-1.333-1.333-1.333h-35.556zM8.889 2.667h32.889v20.444h-32.889v-20.444z"/>
</svg>