<svg xmlns="http://www.w3.org/2000/svg" width="16" height="16" viewBox="0 0 16 16"><path d="M8 0a.348.348 0 0 0-.054.005 8 8 0 1 0 .109 0A.348.348 0 0 0 8 0Zm0 .7A7.3 7.3 0 1 1 .7 8 7.3 7.3 0 0 1 8 .7ZM5.217 5.565a1.043 1.043 0 1 0 1.044 1.044 1.043 1.043 0 0 0-1.044-1.044Zm5.565 0a1.043 1.043 0 1 0 1.043 1.043 1.043 1.043 0 0 0-1.042-1.043ZM3.463 9.387a.348.348 0 0 0-.268.554A6.443 6.443 0 0 0 8 12.522a6.443 6.443 0 0 0 4.805-2.58.348.348 0 1 0-.567-.4A5.814 5.814 0 0 1 8 11.826a5.814 5.814 0 0 1-4.238-2.289.348.348 0 0 0-.299-.15Z" fill="#767676"/></svg>
