<svg width="24" height="24" viewBox="0 0 24 24" fill="none" xmlns="http://www.w3.org/2000/svg">
<path d="M20 10V4M20 4H14M20 4L14 10" stroke="var(--tw-svg-color, #0D363F)" stroke-width="1.2" stroke-linecap="round" stroke-linejoin="round"/>
<path fill-rule="evenodd" clip-rule="evenodd" d="M18.9645 16.6461L17.7915 15.4731C17.2055 14.8871 16.2555 14.8871 15.6705 15.4731L14.7485 16.3951C14.5425 16.6011 14.2305 16.6701 13.9645 16.5531C12.6285 15.9681 11.3085 15.0811 10.1315 13.9041C8.95954 12.7321 8.07554 11.4181 7.48954 10.0871C7.36754 9.8121 7.43854 9.4891 7.65154 9.2761L8.47754 8.4501C9.14854 7.7791 9.14854 6.8301 8.56254 6.2441L7.38954 5.0711C6.60854 4.2901 5.34254 4.2901 4.56154 5.0711L3.90954 5.7221C3.16854 6.4631 2.85954 7.5321 3.05954 8.5921C3.55354 11.2051 5.07154 14.0661 7.52054 16.5151C9.96954 18.9641 12.8305 20.4821 15.4435 20.9761C16.5035 21.1761 17.5725 20.8671 18.3135 20.1261L18.9645 19.4751C19.7455 18.6941 19.7455 17.4281 18.9645 16.6461Z" stroke="var(--tw-svg-color, #0D363F)" fill="var(--tw-svg-color, #0D363F)"/>
</svg>
