<svg width="20" height="20" viewBox="0 0 20 20" fill="none" xmlns="http://www.w3.org/2000/svg">
<path d="M2.00039 10.4372V12.5004C2.00039 13.6974 2.97008 14.6671 4.16706 14.6671H5.00039C5.73653 14.6671 6.33372 14.0699 6.33372 13.3337V9.16706L6.33371 9.16214L5.00039 7.82882L2.9146 9.9146C2.65234 10.1769 2.33535 10.3511 2.00039 10.4372Z" fill="#E50013"/>
<path fill-rule="evenodd" clip-rule="evenodd" d="M9.82578 3.00343C9.88373 3.00141 9.94194 3.00039 10.0004 3.00039C12.689 3.00039 14.8733 5.15804 14.9164 7.83633C14.2194 7.8797 13.6671 8.45912 13.6671 9.16706V13.3337C13.6671 13.8931 14.0118 14.3722 14.5004 14.5701V15.0004C14.5004 15.6451 13.9784 16.1671 13.3337 16.1671H11.9799C11.7722 15.5612 11.1974 15.1254 10.5212 15.1254H9.47956C8.62841 15.1254 7.93789 15.8159 7.93789 16.6671C7.93789 17.5182 8.62841 18.2087 9.47956 18.2087H10.5212C11.1974 18.2087 11.7722 17.7729 11.9799 17.1671H13.3337C14.5307 17.1671 15.5004 16.1974 15.5004 15.0004V14.6671H15.8337C17.0307 14.6671 18.0004 13.6974 18.0004 12.5004V10.0004C18.0004 8.83113 17.0751 7.87876 15.9165 7.83528C15.8747 4.75024 13.4721 2.23562 10.4331 2.01597C10.3456 2.34517 10.1728 2.65641 9.9146 2.9146L9.82578 3.00343ZM8.93789 16.6671C8.93789 16.3682 9.1807 16.1254 9.47956 16.1254H10.5212C10.8201 16.1254 11.0629 16.3682 11.0629 16.6671C11.0629 16.9659 10.8201 17.2087 10.5212 17.2087H9.47956C9.1807 17.2087 8.93789 16.9659 8.93789 16.6671Z" fill="var(--tw-svg-color, #E50013)"/>
<path fill-rule="evenodd" clip-rule="evenodd" d="M1.07613 1.07613C1.31044 0.841812 1.69034 0.841812 1.92465 1.07613L5.00039 4.15186L8.07613 1.07613C8.31044 0.841812 8.69034 0.841812 8.92465 1.07613C9.15897 1.31044 9.15897 1.69034 8.92465 1.92465L5.84892 5.00039L8.92465 8.07613C9.15897 8.31044 9.15897 8.69034 8.92465 8.92465C8.69034 9.15897 8.31044 9.15897 8.07613 8.92465L5.00039 5.84892L1.92465 8.92465C1.69034 9.15897 1.31044 9.15897 1.07613 8.92465C0.841812 8.69034 0.841812 8.31044 1.07613 8.07613L4.15186 5.00039L1.07613 1.92465C0.841812 1.69034 0.841812 1.31044 1.07613 1.07613Z" fill="var(--tw-svg-color, #E50013)"/>
</svg>
