<svg xmlns="http://www.w3.org/2000/svg" width="25" height="25" viewBox="0 0 25 25">
  <g id="end_the_call" data-name="end the call" transform="translate(0.5 0.5)">
    <circle id="Oval_2_Copy_8" data-name="Oval 2 Copy 8" cx="12" cy="12" r="12" fill="#db2828" stroke="#fff" stroke-width="1"/>
    <path id="icon" d="M8.866,0H7.134C6.3,0,0,.809,0,3.75,0,3.75.136,6,.934,6a10.548,10.548,0,0,0,2.8-.75c.577-.217.8-.493.951-1.52A1.467,1.467,0,0,1,6.149,2.309c.464-.026,1.215-.026,1.665-.023v0l.187,0,.187,0v0c.449,0,1.2,0,1.665.023A1.467,1.467,0,0,1,11.312,3.73c.153,1.026.374,1.3.951,1.52a10.548,10.548,0,0,0,2.8.75c.8,0,.934-2.25.934-2.25C16,.809,9.7,0,8.866,0" transform="translate(4 9)" fill="#fff"/>
  </g>
</svg>
