<svg width="24" height="24" viewBox="0 0 24 24" fill="none" xmlns="http://www.w3.org/2000/svg">
<path fill-rule="evenodd" clip-rule="evenodd" d="M19.8453 13.0809L6.32324 20.2585C5.30665 20.7975 4.16577 19.7822 4.5916 18.7151L6.19983 14.7L13.1194 12.9701C14.1294 12.7177 14.1294 11.2823 13.1194 11.0299L6.24467 9.31117L4.61375 5.28789C4.18177 4.22208 5.32388 3.20058 6.34293 3.7421L19.8453 10.9086C20.7178 11.3726 20.7178 12.6181 19.8453 13.0809Z" fill="var(--tw-svg-color, #0D363F)"/>
<path d="M6.32324 20.2585L6.60432 20.7886L6.60455 20.7884L6.32324 20.2585ZM19.8453 13.0809L19.5641 12.5508L19.5639 12.5509L19.8453 13.0809ZM4.5916 18.7151L4.03462 18.492L4.03434 18.4928L4.5916 18.7151ZM6.19983 14.7L6.0543 14.118C5.86749 14.1647 5.71444 14.2982 5.64284 14.4769L6.19983 14.7ZM13.1194 12.9701L13.265 13.5522L13.1194 12.9701ZM13.1194 11.0299L12.9739 11.6119L13.1194 11.0299ZM6.24467 9.31117L5.68862 9.53657C5.76063 9.71422 5.91319 9.84676 6.09915 9.89325L6.24467 9.31117ZM4.61375 5.28789L4.05769 5.51327L4.0577 5.5133L4.61375 5.28789ZM6.34293 3.7421L6.06137 4.27193L6.06164 4.27207L6.34293 3.7421ZM19.8453 10.9086L20.1269 10.3789L20.1265 10.3787L19.8453 10.9086ZM6.60455 20.7884L20.1266 13.6108L19.5639 12.5509L6.04192 19.7285L6.60455 20.7884ZM4.03434 18.4928C3.39821 20.0867 5.10205 21.5852 6.60432 20.7886L6.04215 19.7284C5.51126 20.0099 4.93332 19.4776 5.14886 18.9375L4.03434 18.4928ZM5.64284 14.4769L4.03462 18.492L5.14858 18.9382L6.75681 14.9231L5.64284 14.4769ZM12.9739 12.3881L6.0543 14.118L6.34535 15.2821L13.265 13.5522L12.9739 12.3881ZM12.9739 11.6119C13.3779 11.7129 13.3779 12.2871 12.9739 12.3881L13.265 13.5522C14.8809 13.1482 14.8809 10.8518 13.265 10.4478L12.9739 11.6119ZM6.09915 9.89325L12.9739 11.6119L13.265 10.4478L6.39019 8.72908L6.09915 9.89325ZM4.0577 5.5133L5.68862 9.53657L6.80072 9.08576L5.1698 5.06249L4.0577 5.5133ZM6.62448 3.21226C5.11914 2.41232 3.41155 3.91908 4.05769 5.51327L5.16981 5.06251C4.95199 4.52509 5.52863 3.98883 6.06137 4.27193L6.62448 3.21226ZM20.1265 10.3787L6.62422 3.21212L6.06164 4.27207L19.564 11.4386L20.1265 10.3787ZM20.1264 13.6109C21.4247 12.9224 21.4234 11.0682 20.1269 10.3789L19.5636 11.4384C20.0123 11.677 20.011 12.3138 19.5641 12.5508L20.1264 13.6109Z" fill="var(--tw-svg-color, #0D363F)"/>
</svg>
