<svg xmlns="http://www.w3.org/2000/svg" width="24" height="24" viewBox="0 0 24 24"><path d="M4 19a2 2 0 0 1-2-2h1.858a1.992 1.992 0 0 1-.525-1.333V7a2 2 0 0 1 2-2h5.548a7.066 7.066 0 0 0-.071 1c0 .11 0 .221.007.333H5.332A.652.652 0 0 0 4.665 7v8.667a.659.659 0 0 0 .667.666h13.333a.66.66 0 0 0 .667-.666v-2.833a6.958 6.958 0 0 0 1.334-.441v3.274A1.992 1.992 0 0 1 20.14 17H22a2 2 0 0 1-2 2Zm8-13a6 6 0 0 1 6-6 6 6 0 0 1 6 6 6 6 0 0 1-6 6 6 6 0 0 1-6-6Zm2.822-.607a.857.857 0 0 0 0 1.212l.68.68-.68.68a.857.857 0 0 0 0 1.212.853.853 0 0 0 .606.251.855.855 0 0 0 .607-.251l1.285-1.285a.855.855 0 0 0 0-1.212l-1.285-1.286a.857.857 0 0 0-.607-.251.855.855 0 0 0-.606.251Zm5.143-2.571L18.68 4.108a.854.854 0 0 0 0 1.211l1.285 1.286a.855.855 0 0 0 .606.251.855.855 0 0 0 .607-.251.857.857 0 0 0 0-1.212l-.68-.68.68-.68a.857.857 0 0 0 0-1.212.855.855 0 0 0-.607-.251.855.855 0 0 0-.606.252Z" fill="#767676"/></svg>
