<svg xmlns="http://www.w3.org/2000/svg" width="24" height="24" viewBox="0 0 24 24"><path d="M12 18a6.009 6.009 0 0 1 6-6 6.01 6.01 0 0 1 6 6 6.009 6.009 0 0 1-6 6 6.008 6.008 0 0 1-6-6Zm1.2 0a4.791 4.791 0 0 0 4.8 4.8 4.791 4.791 0 0 0 4.8-4.8 4.791 4.791 0 0 0-4.8-4.8 4.791 4.791 0 0 0-4.8 4.8Zm4.2 3v-2.4H15a.6.6 0 0 1-.6-.6.6.6 0 0 1 .6-.6h2.4V15a.6.6 0 0 1 .59-.607.6.6 0 0 1 .433.175.6.6 0 0 1 .176.433v2.4h2.4a.6.6 0 0 1 .6.6.6.6 0 0 1-.6.6h-2.4V21a.6.6 0 0 1-.6.6.6.6 0 0 1-.599-.6Zm-6.728-1H3.3A1.3 1.3 0 0 1 2 18.714V3.286A1.3 1.3 0 0 1 3.3 2h3.913a1.067 1.067 0 0 1 .786.413 4.562 4.562 0 0 1 .439.613l.021.032a4.9 4.9 0 0 0 .373.535.619.619 0 0 0 .122.112l.01.007h-.013 11.74A1.3 1.3 0 0 1 22 5v7.1a7.036 7.036 0 0 0-.869-.753V7.141a.427.427 0 0 0-.435-.428H3.3a.427.427 0 0 0-.435.428v11.571a.428.428 0 0 0 .435.429h7.03a7.094 7.094 0 0 0 .338.855ZM20.695 5.857a1.285 1.285 0 0 1 .435.08V5a.427.427 0 0 0-.435-.428H8.955a1.027 1.027 0 0 1-.777-.415 4.738 4.738 0 0 1-.423-.594l-.031-.049a4.58 4.58 0 0 0-.374-.534.626.626 0 0 0-.133-.117H3.303a.427.427 0 0 0-.435.429v2.651a1.289 1.289 0 0 1 .435-.08Z" fill="#767676"/></svg>
