<svg xmlns="http://www.w3.org/2000/svg" width="14" height="14" viewBox="0 0 14 14"><path d="M11 0a2.98 2.98 0 0 0-2.121.879L7.212 2.546a2.978 2.978 0 0 0-.858 1.764 3.088 3.088 0 0 0-.021.357 2.986 2.986 0 0 0 .3 1.295l.508-.509a2.324 2.324 0 0 1 .546-2.436L9.35 1.35a2.333 2.333 0 1 1 3.3 3.3l-1.667 1.667a2.324 2.324 0 0 1-2.436.546l-.509.508a2.992 2.992 0 0 0 3.416-.583l1.667-1.667A3 3 0 0 0 11 0ZM8.993 4.663a.333.333 0 0 0-.229.1l-4 4a.333.333 0 1 0 .471.471l4-4a.333.333 0 0 0-.242-.572Zm-4.327 1.67a2.98 2.98 0 0 0-2.121.879L.879 8.879a2.976 2.976 0 0 0-.873 1.929Q0 10.9 0 11a3 3 0 0 0 5.121 2.121l1.667-1.667a2.992 2.992 0 0 0 .583-3.416l-.508.509a2.324 2.324 0 0 1-.546 2.436L4.65 12.65a2.333 2.333 0 1 1-3.3-3.3l1.667-1.667a2.324 2.324 0 0 1 2.436-.546l.509-.508a2.986 2.986 0 0 0-1.295-.296Z" fill="#767676"/></svg>
