<svg xmlns="http://www.w3.org/2000/svg" width="20" height="20"><path d="M5.846 2C4.022 2 2 3.065 2 10s2.022 8 3.846 8a2.352 2.352 0 0 0 1.254-.318.728.728 0 0 0 .325-.8c-.2-.781-.638-2.465-.84-3.246a.718.718 0 0 0-.518-.518l-1.287-.329a.722.722 0 0 1-.538-.613A19 19 0 0 1 4.1 10a18.812 18.812 0 0 1 .147-2.171.722.722 0 0 1 .538-.613l1.287-.329a.722.722 0 0 0 .519-.521l.838-3.24a.734.734 0 0 0-.326-.81A2.367 2.367 0 0 0 5.846 2zM16.4 2c-1.824 0-3.846 1.065-3.846 8s2.022 8 3.846 8a2.352 2.352 0 0 0 1.256-.318.728.728 0 0 0 .325-.8c-.2-.781-.638-2.465-.84-3.246a.718.718 0 0 0-.518-.518l-1.287-.329a.722.722 0 0 1-.538-.613A19 19 0 0 1 14.647 10a18.813 18.813 0 0 1 .147-2.171.722.722 0 0 1 .538-.613l1.287-.329a.722.722 0 0 0 .519-.521l.838-3.24a.734.734 0 0 0-.326-.81A2.367 2.367 0 0 0 16.4 2zM9.247 7.993a.66.66 0 0 0-.611.416.672.672 0 0 0 .151.729l.193.2H6.616a.667.667 0 0 0 0 1.333H8.98l-.193.2a.672.672 0 0 0-.183.65.663.663 0 0 0 .472.478.655.655 0 0 0 .643-.185l1.319-1.333a.672.672 0 0 0 0-.943L9.72 8.2a.656.656 0 0 0-.473-.207z" fill="#767676"/></svg>
