<svg xmlns="http://www.w3.org/2000/svg" viewBox="0 0 33 33">
<path d="M28.5,4.3C25.3,1.5,21.2,0,16.7,0c0,0,0,0,0,0C7.5,0,0,6.6,0,14.8c0,4.5,2.3,8.7,6.3,11.5c0,0.2-0.1,0.4-0.2,0.8
	c-0.3,1.2-0.9,2.4-1.7,3.5l-1.3,1.8l2.2,0c0,0,0,0,0,0c4,0,6.5-2.3,7.4-3.3c1.4,0.3,2.7,0.4,3.8,0.4c9.2,0,16.7-6.6,16.7-14.8
	C33.4,10.8,31.7,7.1,28.5,4.3z M8.4,27.6c0.3-1.1,0.3-1.9,0.3-1.9v-0.6l-0.5-0.4c-3.7-2.4-5.8-6-5.8-10c0-6.8,6.5-12.4,14.4-12.4
	c7.9,0,14.4,5.6,14.4,12.4c0,6.8-6.5,12.4-14.4,12.4c-1.3,0-2.7-0.2-4-0.5L12,26.5l-0.4,0.6c0,0-1.5,1.7-4,2.5
	C8,28.8,8.2,28.2,8.4,27.6z"/>
</svg>