<svg xmlns="http://www.w3.org/2000/svg" width="24" height="24" viewBox="0 0 24 24">
  <g id="icon_email" transform="translate(-1155.049 -4)">
    <path id="mail_FILL0_wght200_GRAD0_opsz24" d="M121.795-744a1.714,1.714,0,0,1-1.281-.529,1.815,1.815,0,0,1-.514-1.318v-12.308a1.815,1.815,0,0,1,.514-1.318,1.714,1.714,0,0,1,1.281-.529h16.41a1.714,1.714,0,0,1,1.281.529,1.815,1.815,0,0,1,.514,1.318v12.308a1.815,1.815,0,0,1-.514,1.318,1.714,1.714,0,0,1-1.281.529ZM130-751.868l-8.889-5.978v12a.7.7,0,0,0,.192.505.656.656,0,0,0,.491.2h16.41a.656.656,0,0,0,.491-.2.7.7,0,0,0,.192-.505v-12Zm0-1.275,8.547-5.714H121.453Zm-8.889-4.7v12a.7.7,0,0,0,.192.505.656.656,0,0,0,.491.2h-.684Z" transform="translate(1037.049 768)" fill="#767676"/>
  </g>
</svg>
