<svg width="24" height="24" viewBox="0 0 24 24" fill="none" xmlns="http://www.w3.org/2000/svg">
<path d="M18.364 3.354L12 9L5.636 3.354M5.636 3.354H9M5.636 3.354V6.718M18.434 21H20C21.105 21 22 20.105 22 19V17.986C22 16.957 21.472 16 20.598 15.403C18.441 13.932 15.401 13 12 13C8.599 13 5.559 13.932 3.402 15.404C2.528 16.001 2 16.958 2 17.986V19C2 20.105 2.895 21 4 21H5.566C6.394 21 7.066 20.328 7.066 19.5V18.137C7.066 17.83 7.247 17.546 7.533 17.435C8.859 16.921 10.379 16.625 12 16.625C13.621 16.625 15.141 16.921 16.467 17.435C16.753 17.546 16.934 17.83 16.934 18.137V19.5C16.934 20.328 17.606 21 18.434 21Z" stroke="var(--tw-svg-color, #0D363F)" stroke-width="1.2" stroke-linecap="round" stroke-linejoin="round"/>
</svg>
