<svg xmlns="http://www.w3.org/2000/svg" width="24" height="24" viewBox="0 0 24 24"><path d="M-86-8221a6.008 6.008 0 0 1 6-6 6.008 6.008 0 0 1 6 6 6.009 6.009 0 0 1-6 6 6.009 6.009 0 0 1-6-6Zm1.2 0a4.792 4.792 0 0 0 4.8 4.8 4.792 4.792 0 0 0 4.8-4.8 4.791 4.791 0 0 0-4.8-4.8 4.791 4.791 0 0 0-4.8 4.8Zm3.588 1.216c-2.269-2.271-1.949-3.288-1.345-3.892a1.083 1.083 0 0 1 .519-.312.308.308 0 0 1 .107-.008.338.338 0 0 1 .265.165l.783 1.337a.336.336 0 0 1 0 .344l-.318.533a.337.337 0 0 0 .023.378 8.691 8.691 0 0 0 .663.761 8.321 8.321 0 0 0 .758.661.333.333 0 0 0 .378.022l.533-.318a.342.342 0 0 1 .343 0c.322.19 1.017.6 1.339.785a.335.335 0 0 1 .157.37 1.107 1.107 0 0 1-.312.521 1.352 1.352 0 0 1-.988.441c-.644-.004-1.553-.436-2.907-1.789ZM-94.5-8219a1.377 1.377 0 0 1-1.5-1.2v-13.6a1.379 1.379 0 0 1 1.5-1.2h17a1.379 1.379 0 0 1 1.5 1.2v6.9a7.142 7.142 0 0 0-1-.845v-6.056a.455.455 0 0 0-.5-.4h-17a.453.453 0 0 0-.5.4v13.6a.453.453 0 0 0 .5.4h6.853a6.8 6.8 0 0 0 .32.8Zm6.5-2.8h-5v-.8h5.026c-.017.2-.027.4-.027.6v.2Zm-5-2.4v-.8h5.673a6.982 6.982 0 0 0-.32.8Zm0-2.4v-.8h7.546a7.38 7.38 0 0 0-.823.8Zm8.5-2.4H-93v-.8h8.5v.8Zm-8.5-2.4v-.8h13v.8Z" transform="translate(98 8239)" fill="#767676"/></svg>
