<svg width="24" height="24" viewBox="0 0 24 24" fill="none" xmlns="http://www.w3.org/2000/svg">
<path d="M12.0004 12.9967C12.5527 12.9967 13.0004 12.549 13.0004 11.9967C13.0004 11.4444 12.5527 10.9967 12.0004 10.9967C11.4481 10.9967 11.0004 11.4444 11.0004 11.9967C11.0004 12.549 11.4481 12.9967 12.0004 12.9967Z" fill="var(--tw-svg-color, #0D363F)"/>
<path d="M12.0004 6.00293C12.5527 6.00293 13.0004 5.55521 13.0004 5.00293C13.0004 4.45064 12.5527 4.00293 12.0004 4.00293C11.4481 4.00293 11.0004 4.45064 11.0004 5.00293C11.0004 5.55521 11.4481 6.00293 12.0004 6.00293Z" fill="var(--tw-svg-color, #0D363F)"/>
<path d="M12 19.9998C12.5523 19.9998 13 19.5521 13 18.9998C13 18.4475 12.5523 17.9998 12 17.9998C11.4477 17.9998 11 18.4475 11 18.9998C11 19.5521 11.4477 19.9998 12 19.9998Z" fill="var(--tw-svg-color, #0D363F)"/>
<path d="M12.0004 12.9967C12.5527 12.9967 13.0004 12.549 13.0004 11.9967C13.0004 11.4444 12.5527 10.9967 12.0004 10.9967C11.4481 10.9967 11.0004 11.4444 11.0004 11.9967C11.0004 12.549 11.4481 12.9967 12.0004 12.9967Z" stroke="var(--tw-svg-color, #0D363F)" stroke-width="1.2" stroke-linecap="round" stroke-linejoin="round"/>
<path d="M12.0004 6.00293C12.5527 6.00293 13.0004 5.55521 13.0004 5.00293C13.0004 4.45064 12.5527 4.00293 12.0004 4.00293C11.4481 4.00293 11.0004 4.45064 11.0004 5.00293C11.0004 5.55521 11.4481 6.00293 12.0004 6.00293Z" stroke="var(--tw-svg-color, #0D363F)" stroke-width="1.2" stroke-linecap="round" stroke-linejoin="round"/>
<path d="M12 19.9998C12.5523 19.9998 13 19.5521 13 18.9998C13 18.4475 12.5523 17.9998 12 17.9998C11.4477 17.9998 11 18.4475 11 18.9998C11 19.5521 11.4477 19.9998 12 19.9998Z" stroke="var(--tw-svg-color, #0D363F)" stroke-width="1.2" stroke-linecap="round" stroke-linejoin="round"/>
</svg>
