<svg xmlns="http://www.w3.org/2000/svg" viewBox="0 0 30 32">
<path class="path1" d="M18.831 22.172c-0.115-1.27-0.071-2.157-0.071-3.317 0.574-0.302 1.604-2.226 1.777-3.852 0.452-0.037 1.164-0.478 1.372-2.221 0.113-0.935-0.334-1.462-0.607-1.627 0.735-2.213 2.261-9.061-2.823-9.769-0.523-0.92-1.863-1.386-3.604-1.386-6.966 0.128-7.807 5.269-6.28 11.155-0.271 0.165-0.718 0.692-0.607 1.627 0.209 1.742 0.921 2.184 1.372 2.221 0.173 1.625 1.243 3.55 1.819 3.852 0 1.161 0.043 2.047-0.072 3.317-1.379 3.712-10.679 2.67-11.109 9.828h29.899c-0.429-7.158-9.69-6.116-11.068-9.828z"/>
</svg>