<svg xmlns="http://www.w3.org/2000/svg" width="20" height="20" viewBox="0 0 20 20">
  <path d="M6.63 13.367C.325 7.061 1.215 4.233 2.892 2.557a3.081 3.081 0 0 1 1.44-.865.942.942 0 0 1 .3-.025.938.938 0 0 1 .731.462L7.54 5.845a.938.938 0 0 1 0 .952l-.883 1.482a.928.928 0 0 0 .061 1.051 23.981 23.981 0 0 0 1.84 2.11 24.458 24.458 0 0 0 2.11 1.84.932.932 0 0 0 1.052.062l1.481-.884a.933.933 0 0 1 .949-.005c.9.525 2.828 1.658 3.724 2.181a.932.932 0 0 1 .435 1.03 3.087 3.087 0 0 1-.866 1.443 3.76 3.76 0 0 1-2.743 1.225c-1.783.002-4.308-1.199-8.07-4.965Zm8.046-4.826a.692.692 0 0 1-.5-.493.683.683 0 0 1 .192-.671L15.96 5.8H9.997a.692.692 0 0 1-.695-.688.691.691 0 0 1 .695-.688h5.963l-1.592-1.578a.684.684 0 0 1-.159-.752.694.694 0 0 1 .643-.429.7.7 0 0 1 .5.208l2.778 2.752a.685.685 0 0 1 0 .974l-2.778 2.753a.7.7 0 0 1-.5.212.7.7 0 0 1-.176-.02Z" />
</svg>
