<svg xmlns="http://www.w3.org/2000/svg" width="24" height="24" viewBox="0 0 24 24"><path d="M11.842 13.01h1.48v-2.826a2 2 0 0 1 .653-1.5 2.188 2.188 0 0 1 1.566-.624h2.96v1.848l2.675-2.554L18.501 4.8v1.854h-2.96a3.653 3.653 0 0 0-2.618 1.033 3.329 3.329 0 0 0-1.081 2.5Z" fill="#767676"/><path d="M8.667 21v-2.25H3.795a1.727 1.727 0 0 1-1.281-.52A1.772 1.772 0 0 1 2 16.93V4.817a1.772 1.772 0 0 1 .514-1.3 1.728 1.728 0 0 1 1.281-.52h8.291v1.125H3.795a.65.65 0 0 0-.47.216.665.665 0 0 0-.214.476v12.115a.665.665 0 0 0 .214.476.65.65 0 0 0 .47.216h16.41a.65.65 0 0 0 .47-.216.665.665 0 0 0 .214-.476v-2.12H22v2.12a1.772 1.772 0 0 1-.514 1.3 1.727 1.727 0 0 1-1.281.52h-4.872V21Z" fill="#767676"/></svg>
