<svg width="16" height="17" viewBox="0 0 16 16" fill="none" xmlns="http://www.w3.org/2000/svg">
<path d="M13.4732 2.1935C13.1082 1.87896 11.5324 0.940018 8.24448 0.926417C8.24448 0.926417 4.35108 0.683832 2.46109 2.30725C1.40918 3.29219 1.05481 4.75685 1.01596 6.54422C0.977106 8.33159 0.775799 11.7461 4.2233 12.6544C4.2233 12.6544 4.20974 15.1893 4.20818 15.4121C4.20818 15.5679 4.23426 15.6744 4.32813 15.6965C4.39567 15.712 4.49684 15.6789 4.58289 15.5975C5.13414 15.0726 6.89896 13.0535 6.89896 13.0535C9.26692 13.2001 11.1509 12.7567 11.3535 12.6939C11.8312 12.5483 14.4151 12.3378 14.8524 8.98813C15.3043 5.5353 14.6863 3.17843 13.4732 2.1935Z" fill="var(--tw-svg-color, #0D363F)"/>
<path d="M9.91564 6.39748C9.87287 5.57996 9.43497 5.15059 8.60193 5.10938" stroke="var(--tw-svg-color-secondary, #fff)" stroke-width="0.439641" stroke-linecap="round" stroke-linejoin="round"/>
<path d="M11.0436 6.7561C11.0609 5.99447 10.823 5.35812 10.3299 4.84707C9.83442 4.3342 9.14862 4.0518 8.26855 3.99072" stroke="var(--tw-svg-color-secondary, #fff)" stroke-width="0.439641" stroke-linecap="round" stroke-linejoin="round"/>
<path d="M12.1984 7.18423C12.1878 5.86258 11.7713 4.82168 10.9491 4.06152C10.1268 3.30137 9.10419 2.91726 7.88123 2.90918" stroke="var(--tw-svg-color-secondary, #fff)" stroke-width="0.439641" stroke-linecap="round" stroke-linejoin="round"/>
<path d="M8.64265 9.20225L8.64268 9.20209C7.50961 8.92779 6.79146 8.24636 6.35676 7.63385C6.13943 7.32762 5.99288 7.03853 5.90064 6.82596C5.85452 6.71966 5.82197 6.63248 5.80094 6.57181C5.79042 6.54148 5.78278 6.51777 5.77776 6.50162L5.77217 6.48317L5.77078 6.47842L5.77043 6.47719L5.77034 6.47687L5.77032 6.47679L5.78287 6.47325M8.64265 9.20225L6.09847 8.97989L6.07451 8.95716L6.05052 8.93441L6.02653 8.91166L6.02637 8.91151C6.02109 8.90667 6.01601 8.90179 6.01077 8.89678C6.00809 8.8942 6.00537 8.89159 6.00256 8.88893C5.77895 8.6758 5.56843 8.45069 5.37203 8.21469C4.97985 7.74371 4.63039 7.24211 4.3274 6.71527L4.32737 6.71522C3.79711 5.80346 3.55368 5.25755 3.45661 4.93069L3.46056 4.92952L3.4512 4.92346L3.44431 4.919C3.41519 4.83243 3.40087 4.74201 3.40187 4.65116L3.4019 4.65116L3.40185 4.65027C3.40009 4.61955 3.40203 4.58874 3.40765 4.55844L3.40767 4.55844L3.40776 4.55776C3.43531 4.34859 3.54437 4.13403 3.7366 3.91403L3.73679 3.9142L3.73808 3.91196C3.73787 3.91233 3.73754 3.91267 3.73754 3.91268C3.73754 3.91268 3.73764 3.91259 3.73789 3.91235C3.73889 3.91145 3.74043 3.91001 3.74194 3.90767C3.97974 3.65576 4.25828 3.44128 4.56714 3.27227C4.56725 3.27224 4.56735 3.27221 4.56744 3.27219L4.56929 3.27165V3.27285L4.57507 3.27C4.72953 3.19371 4.87922 3.16887 5.01465 3.19039C5.15001 3.21189 5.272 3.27983 5.37106 3.39064L5.37103 3.39067L5.37181 3.39141C5.37132 3.39095 5.3709 3.39045 5.37143 3.39106L5.37237 3.39211L5.37601 3.39624L5.38983 3.41197L5.44005 3.46947C5.4823 3.51797 5.54035 3.58492 5.60397 3.65909C5.73124 3.80747 5.88055 3.9845 5.97015 4.10055C6.15479 4.34688 6.32631 4.60182 6.48406 4.86441C6.68659 5.20897 6.55912 5.56036 6.36215 5.7043L6.36199 5.70442L5.9539 6.01204L5.95382 6.0121C5.84739 6.09362 5.8016 6.20974 5.78229 6.30441C5.77261 6.35183 5.76951 6.39418 5.76882 6.42471C5.76847 6.43998 5.76873 6.45232 5.76908 6.46088L5.76961 6.47081L5.7698 6.47345L5.76986 6.47416L5.76988 6.47436L5.76989 6.47442L5.76989 6.47444L5.78287 6.47325M8.64265 9.20225L8.64471 9.20242M8.64265 9.20225L8.64471 9.20242M5.78287 6.47325L5.77031 6.47675L5.76968 6.47447L5.78287 6.47325ZM8.64471 9.20242L8.64575 9.18942M8.64471 9.20242L8.64575 9.18942M8.64575 9.18942L8.64472 9.20242L8.64474 9.20242L8.6448 9.20242L8.64501 9.20244L8.64574 9.20249L8.64851 9.20267L8.65891 9.20313C8.66791 9.20344 8.68087 9.20365 8.69693 9.20328C8.72902 9.20255 8.77356 9.19952 8.82342 9.19031C8.92285 9.17194 9.04508 9.12867 9.13102 9.02826L9.13111 9.02816M8.64575 9.18942L9.13111 9.02816M9.13111 9.02816L9.45549 8.64116L9.45561 8.64102M9.13111 9.02816L9.45561 8.64102M9.45561 8.64102C9.60793 8.4542 9.97863 8.33278 10.3432 8.52535C10.6198 8.67498 10.8884 8.83765 11.1479 9.01274C11.2703 9.0981 11.457 9.24006 11.6135 9.36085C11.6917 9.42123 11.7623 9.47626 11.8135 9.51621L11.8741 9.56359L11.8908 9.57655L11.8953 9.58L11.8967 9.58102L11.897 9.58128C12.0143 9.67534 12.0859 9.7908 12.1086 9.9185C12.1314 10.0464 12.1053 10.188 12.025 10.3343L12.0234 10.3334M9.45561 8.64102L12.0234 10.3334M12.0234 10.3334V10.3396M12.0234 10.3334V10.3396M12.0234 10.3396L12.0232 10.3401L12.0227 10.342C11.8444 10.6346 11.6182 10.8987 11.3526 11.1242C11.3504 11.1255 11.3489 11.1268 11.3479 11.1278L11.3479 11.1277L11.3459 11.1293C11.1146 11.3125 10.8884 11.416 10.667 11.4408L10.667 11.4408L10.6663 11.4409C10.6342 11.4463 10.6015 11.4482 10.5689 11.4467L10.5682 11.4467C10.472 11.4476 10.3764 11.4338 10.2848 11.406L10.2801 11.3994L10.2832 11.3972L10.2729 11.3945C9.92852 11.3024 9.35222 11.0714 8.39104 10.5686L8.39098 10.5686C7.83526 10.2813 7.3062 9.94983 6.80947 9.57786C6.56061 9.3916 6.32323 9.19195 6.0985 8.97991L12.0234 10.3396ZM4.57079 3.27122C4.57086 3.2712 4.57086 3.2712 4.57078 3.27122L4.57079 3.27122Z" fill="var(--tw-svg-color-secondary, #fff)" stroke="var(--tw-svg-color-secondary, #fff)" stroke-width="0.026076"/>
</svg>
