<svg width="24" height="24" viewBox="0 0 24 24" fill="none" xmlns="http://www.w3.org/2000/svg">
<path d="M4.5 8.99981H3M4.5 14.9998H3M4 11.9998H2M5.636 5.63581C8.20998 3.06183 12.081 2.29183 15.4441 3.68486C18.8072 5.07789 21 8.35961 21 11.9998C21 15.6399 18.8072 18.9217 15.4441 20.3147C12.081 21.7077 8.20998 20.9377 5.636 18.3637M9.5 10.4998V8.50143C9.5 8.13646 9.69883 7.80049 10.0187 7.62485C10.3387 7.44921 10.7289 7.4618 11.0368 7.65771L16.5368 11.1568C16.8253 11.3404 17 11.6587 17 12.0006C17 12.3426 16.8252 12.6609 16.5366 12.8444L11.0366 16.342C10.7287 16.5379 10.3385 16.5504 10.0187 16.3747C9.69878 16.1991 9.5 15.8631 9.5 15.4982V13.4998L8 11.9998L9.5 10.4998Z" stroke="var(--tw-svg-color, #0D363F)" stroke-width="1.2" stroke-linecap="round" stroke-linejoin="round"/>
</svg>
