<svg width="16" height="16" viewBox="0 0 16 16" fill="none" xmlns="http://www.w3.org/2000/svg">
<path fill-rule="evenodd" clip-rule="evenodd" d="M0.777771 3.83339C0.777771 2.20917 1.96172 0.777832 3.55555 0.777832H12.4444C14.0383 0.777832 15.2222 2.20917 15.2222 3.83339V12.1667C15.2222 13.7909 14.0383 15.2223 12.4444 15.2223H3.55555C1.96172 15.2223 0.777771 13.7909 0.777771 12.1667V3.83339Z" fill="var(--tw-svg-color, #E5A200)"/>
<path fill-rule="evenodd" clip-rule="evenodd" d="M8.31414 3.98365C8.23082 3.90033 8.11782 3.85353 8 3.85353H5.03827C4.38398 3.85353 3.85358 4.38393 3.85358 5.03822V10.9617C3.85358 11.616 4.38398 12.1464 5.03827 12.1464H10.9617C11.616 12.1464 12.1464 11.616 12.1464 10.9617V7.99995C12.1464 7.88212 12.0996 7.76913 12.0163 7.68581L8.31414 3.98365ZM7.81598 4.74205L11.2579 8.18397V10.9617C11.2579 11.1252 11.1253 11.2579 10.9617 11.2579H5.03827C4.8747 11.2579 4.7421 11.1252 4.7421 10.9617V5.03822C4.7421 4.87465 4.8747 4.74205 5.03827 4.74205H7.81598Z" fill="var(--tw-svg-color, white)"/>
<path fill-rule="evenodd" clip-rule="evenodd" d="M7.82999 3.88735C7.66398 3.95611 7.55574 4.1181 7.55574 4.29779V7.99995C7.55574 8.24531 7.75464 8.44421 8 8.44421H11.7022C11.8818 8.44421 12.0438 8.33597 12.1126 8.16996C12.1814 8.00395 12.1434 7.81287 12.0163 7.68581L8.31414 3.98365C8.18708 3.85659 7.996 3.81858 7.82999 3.88735Z" fill="var(--tw-svg-color, white)"/>
</svg>
