<svg width="24" height="24" viewBox="0 0 24 24" fill="none" xmlns="http://www.w3.org/2000/svg">
<path fill-rule="evenodd" clip-rule="evenodd" d="M4.90105 9.40225C4.95356 5.52612 8.11178 2.40039 12.0004 2.40039C15.889 2.40039 19.0472 5.52612 19.0997 9.40225C20.49 9.45443 21.6004 10.5973 21.6004 12.0004V15.0004C21.6004 16.4368 20.4368 17.6004 19.0004 17.6004H18.6004V18.0004C18.6004 19.4368 17.4368 20.6004 16.0004 20.6004H14.3758C14.1265 21.3275 13.4368 21.8504 12.6254 21.8504H11.3754C10.354 21.8504 9.52539 21.0218 9.52539 20.0004C9.52539 18.979 10.354 18.1504 11.3754 18.1504H12.6254C13.4368 18.1504 14.1265 18.6733 14.3758 19.4004H16.0004C16.774 19.4004 17.4004 18.774 17.4004 18.0004V17.484C16.8141 17.2466 16.4004 16.6716 16.4004 16.0004V11.0004C16.4004 10.1509 17.0632 9.45556 17.8996 9.40352C17.8479 6.18958 15.2267 3.60039 12.0004 3.60039C8.77412 3.60039 6.1529 6.18957 6.10117 9.40352C6.93763 9.45555 7.60039 10.1509 7.60039 11.0004V16.0004C7.60039 16.8838 6.88376 17.6004 6.00039 17.6004H5.00039C3.56402 17.6004 2.40039 16.4368 2.40039 15.0004V12.0004C2.40039 10.5973 3.51075 9.45443 4.90105 9.40225ZM11.3754 19.3504C11.0168 19.3504 10.7254 19.6418 10.7254 20.0004C10.7254 20.359 11.0168 20.6504 11.3754 20.6504H12.6254C12.984 20.6504 13.2754 20.359 13.2754 20.0004C13.2754 19.6418 12.984 19.3504 12.6254 19.3504H11.3754Z" fill="var(--tw-svg-color, #1A6D7F)"/>
</svg>
