<svg width="24" height="24" viewBox="0 0 24 24" fill="none" xmlns="http://www.w3.org/2000/svg">
<path d="M2.99561 21.0042V18.7536C2.99561 16.2773 7.04768 14.2511 11.9999 14.2511C16.9521 14.2511 21.0042 16.2773 21.0042 18.7536V21.0042H2.99561ZM7.49774 7.49812C7.49774 6.60761 7.76179 5.73707 8.25649 4.99664C8.75119 4.2562 9.45433 3.67913 10.277 3.33835C11.0996 2.99756 12.0049 2.90839 12.8782 3.08212C13.7515 3.25585 14.5537 3.68468 15.1834 4.31437C15.813 4.94405 16.2418 5.74632 16.4155 6.61972C16.5892 7.49312 16.5001 8.3984 16.1593 9.22113C15.8186 10.0439 15.2415 10.7471 14.5011 11.2418C13.7608 11.7365 12.8903 12.0006 11.9999 12.0006C10.8058 12.0006 9.66071 11.5262 8.81639 10.6819C7.97208 9.83748 7.49774 8.69225 7.49774 7.49812Z" fill="var(--tw-svg-color, #0D363F)"/>
</svg>
