<svg width="24" height="24" viewBox="0 0 24 24" fill="none" xmlns="http://www.w3.org/2000/svg">
<path d="M4 19.4998L8.50783 14.992M15.4109 4.02348L19.4766 8.08916C19.8551 8.46776 20.044 8.99615 19.9913 9.52896C19.9385 10.0618 19.6497 10.5428 19.2042 10.8398C16.9214 12.3617 15.2879 14.6797 14.6224 17.3413L14.2522 18.8224C14.1741 19.1348 13.934 19.3809 13.6238 19.4669C13.3135 19.5528 12.9811 19.4652 12.7534 19.2376L4.26241 10.7466C4.03477 10.5189 3.94718 10.1865 4.03312 9.87621C4.11905 9.56596 4.36523 9.32592 4.67755 9.24784L6.15866 8.87755C8.82027 8.21214 11.1383 6.57858 12.6602 4.29584C12.9571 3.85034 13.4382 3.56147 13.9711 3.50871C14.5039 3.45595 15.0323 3.64488 15.4109 4.02348Z" stroke="var(--tw-svg-color, #0D363F)" stroke-width="1.2" stroke-linecap="round" stroke-linejoin="round"/>
</svg>
