<svg xmlns="http://www.w3.org/2000/svg" width="25" height="25" viewBox="0 0 25 25"><defs><mask id="a"><path fill="#fff" d="M0 0h250v250H0z"/><circle cx="7" cy="7" r="7" transform="translate(49 203)"/></mask></defs><g mask="url(#a)" transform="translate(-38 -192)"><path d="M49.966 194c-5.504 0-9.966 3.506-9.966 7.831a6.881 6.881 0 0 0 2.307 5.007c.029.067.768 1.832-1.419 3.632a.345.345 0 0 0-.121.26.37.37 0 0 0 .383.356.411.411 0 0 0 .082-.008 10.641 10.641 0 0 0 5.242-1.92 12.352 12.352 0 0 0 3.492.5c5.5 0 9.966-3.506 9.966-7.831S55.471 194 49.966 194Z" fill="none" stroke="#767676"/></g><path d="M12 18a6.009 6.009 0 0 1 6-6 6.01 6.01 0 0 1 6 6 6.009 6.009 0 0 1-6 6 6.008 6.008 0 0 1-6-6Zm1.2 0a4.791 4.791 0 0 0 4.8 4.8 4.791 4.791 0 0 0 4.8-4.8 4.791 4.791 0 0 0-4.8-4.8 4.791 4.791 0 0 0-4.8 4.8Zm4.2 3v-2.4H15a.6.6 0 0 1-.6-.6.6.6 0 0 1 .6-.6h2.4V15a.6.6 0 0 1 .59-.607.6.6 0 0 1 .433.175.6.6 0 0 1 .176.433v2.4h2.4a.6.6 0 0 1 .6.6.6.6 0 0 1-.6.6h-2.4V21a.6.6 0 0 1-.6.6.6.6 0 0 1-.599-.6Z" fill="#767676"/></svg>
