<svg width="14" height="14" viewBox="0 0 14 14" fill="none" xmlns="http://www.w3.org/2000/svg">
<path fill-rule="evenodd" clip-rule="evenodd" d="M0.5 6C0.5 2.96243 2.96243 0.5 6 0.5H8C11.0376 0.5 13.5 2.96243 13.5 6V8C13.5 11.0376 11.0376 13.5 8 13.5H6C2.96243 13.5 0.5 11.0376 0.5 8V6ZM6 1.5C3.51472 1.5 1.5 3.51472 1.5 6V8C1.5 10.4853 3.51472 12.5 6 12.5H8C10.4853 12.5 12.5 10.4853 12.5 8V6C12.5 3.51472 10.4853 1.5 8 1.5H6Z" fill="var(--tw-svg-color, #0D363F)"/>
<path fill-rule="evenodd" clip-rule="evenodd" d="M7.68689 5.31311C7.88216 5.50838 7.88216 5.82496 7.68689 6.02022L5.02023 8.68689C4.82496 8.88215 4.50838 8.88215 4.31312 8.68689L2.97979 7.35355C2.78452 7.15829 2.78452 6.84171 2.97979 6.64645C3.17505 6.45119 3.49163 6.45119 3.68689 6.64645L4.66667 7.62623L6.97979 5.31311C7.17505 5.11785 7.49163 5.11785 7.68689 5.31311Z" fill="var(--tw-svg-color, #0D363F)"/>
<path fill-rule="evenodd" clip-rule="evenodd" d="M11.0202 5.31311C11.2155 5.50838 11.2155 5.82496 11.0202 6.02022L8.35356 8.68689C8.1583 8.88215 7.84171 8.88215 7.64645 8.68689L7.14645 8.18689C6.95119 7.99162 6.95119 7.67504 7.14645 7.47978C7.34171 7.28452 7.6583 7.28452 7.85356 7.47978L8.00001 7.62623L10.3131 5.31311C10.5084 5.11785 10.825 5.11785 11.0202 5.31311Z" fill="var(--tw-svg-color, #0D363F)"/>
</svg>
