<svg xmlns="http://www.w3.org/2000/svg" width="24" height="24" viewBox="0 0 24 24"><path fill="#db2828" d="M2 12a9.953 9.953 0 0 1 1.383-5.078l1.173 1.173A8.363 8.363 0 0 0 3.591 12a8.408 8.408 0 0 0 8.408 8.409 8.363 8.363 0 0 0 3.905-.966l1.173 1.174A9.955 9.955 0 0 1 11.999 22 10 10 0 0 1 2 12Zm2.359-6.451A9.979 9.979 0 0 1 12 2a10 10 0 0 1 10 10 9.978 9.978 0 0 1-3.548 7.641ZM16.204 12a4.166 4.166 0 0 1-.7 2.312l3 3a8.363 8.363 0 0 0 1.9-5.316 8.407 8.407 0 0 0-8.408-8.408 8.359 8.359 0 0 0-5.316 1.9l3 3a4.166 4.166 0 0 1 2.312-.7A4.2 4.2 0 0 1 16.204 12Zm-8.408 0a4.188 4.188 0 0 1 .06-.606l4.749 4.749a4.183 4.183 0 0 1-.606.06A4.2 4.2 0 0 1 7.796 12Z"/><path fill="#767676" d="M2 12a9.953 9.953 0 0 1 1.383-5.078l1.173 1.173A8.363 8.363 0 0 0 3.591 12a8.408 8.408 0 0 0 8.408 8.409 8.363 8.363 0 0 0 3.905-.966l1.173 1.174A9.955 9.955 0 0 1 11.999 22 10 10 0 0 1 2 12Zm2.359-6.451A9.979 9.979 0 0 1 12 2a10 10 0 0 1 10 10 9.978 9.978 0 0 1-3.548 7.641Zm2.324-.053 3 3 5.813 5.813 3 3a8.363 8.363 0 0 0 1.9-5.316 8.407 8.407 0 0 0-8.408-8.408 8.359 8.359 0 0 0-5.305 1.91Z"/></svg>
