<svg width="24" height="24" viewBox="0 0 24 24" fill="none" xmlns="http://www.w3.org/2000/svg">
<path d="M2.99622 7.99609C2.99622 5.23467 5.23479 2.99609 7.99622 2.99609H16.0037C18.7651 2.99609 21.0037 5.23467 21.0037 7.99609V16.0036C21.0037 18.765 18.7651 21.0036 16.0037 21.0036H7.99621C5.23479 21.0036 2.99622 18.765 2.99622 16.0036V7.99609Z" fill="var(--tw-svg-color, #0D363F)" stroke="var(--tw-svg-color, #0D363F)" stroke-width="1.2" stroke-linecap="round" stroke-linejoin="round"/>
<path fill-rule="evenodd" clip-rule="evenodd" d="M12 17.0017C12.1588 17.0016 12.2931 16.884 12.3141 16.7266L12.4622 15.6201C12.6815 13.9752 13.9756 12.6812 15.6205 12.4618L16.727 12.3138C16.8844 12.2927 17.002 12.1585 17.0021 11.9996C17.002 11.8408 16.8844 11.7066 16.727 11.6855L15.6205 11.5374C13.9756 11.3181 12.6815 10.024 12.4622 8.37913L12.3141 7.27267C12.2931 7.11524 12.1588 6.99766 12 6.99756C11.8412 6.99766 11.7069 7.11524 11.6859 7.27267L11.5378 8.37913C11.3185 10.024 10.0244 11.3181 8.3795 11.5374L7.27304 11.6855C7.11561 11.7066 6.99803 11.8408 6.99792 11.9996C6.99803 12.1585 7.11561 12.2927 7.27304 12.3138L8.3795 12.4618C10.0244 12.6812 11.3185 13.9752 11.5378 15.6201L11.6859 16.7266C11.7069 16.884 11.8412 17.0016 12 17.0017Z" fill="white" stroke="white" stroke-width="1.2" stroke-linecap="round" stroke-linejoin="round"/>
</svg>
