<svg width="24" height="24" viewBox="0 0 24 24" fill="none" xmlns="http://www.w3.org/2000/svg">
<path fill-rule="evenodd" clip-rule="evenodd" d="M13.7584 21.4352C14.4211 21.9007 15.3333 21.4268 15.3333 20.6169V18.6383H20.8889C21.5022 18.6383 22 18.1406 22 17.5272V3.08279C22 2.46946 21.5022 1.97168 20.8889 1.97168H3.11111C2.49778 1.97168 2 2.46946 2 3.08279V17.5272C2 18.1406 2.49778 18.6383 3.11111 18.6383H9.77778L13.7584 21.4352Z" fill="var(--tw-svg-color, #0D363F)"/>
<path d="M11.8035 9.95899C11.9124 9.8501 12.088 9.8501 12.1969 9.95899C12.3058 10.0679 12.3058 10.2434 12.1969 10.3523C12.088 10.4612 11.9124 10.4612 11.8035 10.3523C11.6958 10.2434 11.6958 10.0679 11.8035 9.95899" stroke="var(--tw-svg-color-secondary, #fff)" stroke-width="1.8" stroke-linecap="round" stroke-linejoin="round"/>
<path d="M7.35896 9.95899C7.46785 9.8501 7.6434 9.8501 7.75229 9.95899C7.86118 10.0679 7.86118 10.2434 7.75229 10.3523C7.6434 10.4612 7.46785 10.4612 7.35896 10.3523C7.25118 10.2434 7.25118 10.0679 7.35896 9.95899" stroke="var(--tw-svg-color-secondary, #fff)" stroke-width="1.8" stroke-linecap="round" stroke-linejoin="round"/>
<path d="M16.2479 9.95899C16.3568 9.8501 16.5323 9.8501 16.6412 9.95899C16.7501 10.0679 16.7501 10.2434 16.6412 10.3523C16.5323 10.4612 16.3568 10.4612 16.2479 10.3523C16.1401 10.2434 16.1401 10.0679 16.2479 9.95899" stroke="var(--tw-svg-color-secondary, #fff)" stroke-width="1.8" stroke-linecap="round" stroke-linejoin="round"/>
</svg>
