<svg xmlns="http://www.w3.org/2000/svg" width="20.943" height="20.997" viewBox="0 0 20.943 20.997">
  <path d="M3.988.504a1.129 1.129 0 0 0-.363.03 3.7 3.7 0 0 0-1.728 1.037c-2.012 2.012-3.08 5.4 4.487 12.972s10.959 6.5 12.972 4.486a3.7 3.7 0 0 0 1.04-1.732 1.119 1.119 0 0 0-.523-1.235l-4.468-2.617a1.118 1.118 0 0 0-1.138.006l-1.778 1.06a1.116 1.116 0 0 1-1.261-.074 29.171 29.171 0 0 1-2.532-2.212 28.842 28.842 0 0 1-2.208-2.532 1.114 1.114 0 0 1-.074-1.261l1.06-1.778a1.123 1.123 0 0 0 0-1.142L4.866 1.058a1.127 1.127 0 0 0-.878-.554Z" fill="none" stroke="#767676"/>
</svg>
