<svg width="24" height="24" viewBox="0 0 24 24" fill="none" xmlns="http://www.w3.org/2000/svg">
<path d="M8.09641 2C7.76504 2 7.49641 2.26863 7.49641 2.6C7.49641 2.93137 7.76504 3.2 8.09641 3.2H18.1006C18.4319 3.2 18.7006 2.93137 18.7006 2.6C18.7006 2.26863 18.4319 2 18.1006 2H8.09641Z" fill="var(--tw-svg-color, #0D363F)"/>
<path d="M6.09572 5.00091C5.76435 5.00091 5.49572 5.26954 5.49572 5.60091C5.49572 5.93228 5.76435 6.20091 6.09572 6.20091H19.1011C19.4325 6.20091 19.7011 5.93228 19.7011 5.60091C19.7011 5.26954 19.4325 5.00091 19.1011 5.00091H6.09572Z" fill="var(--tw-svg-color, #0D363F)"/>
<path d="M5.59453 8.0025C4.15859 8.0025 2.99453 9.16656 2.99453 10.6025V11.6038H4.19453V10.6025C4.19453 9.8293 4.82133 9.2025 5.59453 9.2025H19.602C20.3752 9.2025 21.002 9.8293 21.002 10.6025V18.6075C21.002 19.3807 20.3752 20.0075 19.602 20.0075H5.59453C4.82133 20.0075 4.19453 19.3807 4.19453 18.6075V17.6038H2.99453V18.6075C2.99453 20.0434 4.15859 21.2075 5.59453 21.2075H19.602C21.038 21.2075 22.202 20.0434 22.202 18.6075V10.6025C22.202 9.16656 21.038 8.0025 19.602 8.0025H5.59453Z" fill="var(--tw-svg-color, #0D363F)"/>
<path fill-rule="evenodd" clip-rule="evenodd" d="M8.67574 11.6795C8.91005 11.4452 9.28995 11.4452 9.52426 11.6795L12.0243 14.1795C12.1368 14.292 12.2 14.4446 12.2 14.6038C12.2 14.7629 12.1368 14.9155 12.0243 15.028L9.52426 17.528C9.28995 17.7623 8.91005 17.7623 8.67574 17.528C8.44142 17.2937 8.44142 16.9138 8.67574 16.6795L10.1515 15.2038H1.6C1.26863 15.2038 1 14.9351 1 14.6038C1 14.2724 1.26863 14.0038 1.6 14.0038H10.1515L8.67574 12.528C8.44142 12.2937 8.44142 11.9138 8.67574 11.6795Z" fill="var(--tw-svg-color, #0D363F)"/>
</svg>
