<svg xmlns="http://www.w3.org/2000/svg" width="24" height="24" viewBox="0 0 24 24">
  <path d="M12 17.921a1 1 0 0 0 .751-.316 1.115 1.115 0 0 0 0-1.526 1 1 0 0 0-.751-.316 1.026 1.026 0 0 0-.776.316 1.112 1.112 0 0 0 0 1.526 1.026 1.026 0 0 0 .776.316Zm-.763-3.789h1.5a2.982 2.982 0 0 1 .211-1.224 5.041 5.041 0 0 1 1-1.249 6.884 6.884 0 0 0 1.079-1.277A2.558 2.558 0 0 0 15.395 9a2.555 2.555 0 0 0-.974-2.132 3.642 3.642 0 0 0-2.316-.763 3.336 3.336 0 0 0-2.184.711 4.009 4.009 0 0 0-1.237 1.658L10.052 9a3.062 3.062 0 0 1 .645-1 1.786 1.786 0 0 1 1.382-.5 1.756 1.756 0 0 1 1.395.513 1.639 1.639 0 0 1 .132 2.093 5.129 5.129 0 0 1-.789.868 5.728 5.728 0 0 0-1.3 1.487 3.932 3.932 0 0 0-.28 1.671ZM12 22a9.751 9.751 0 0 1-3.907-.789 9.928 9.928 0 0 1-5.3-5.3A9.751 9.751 0 0 1 2 12a9.758 9.758 0 0 1 .789-3.908 9.931 9.931 0 0 1 5.3-5.3A9.751 9.751 0 0 1 12 2a9.758 9.758 0 0 1 3.908.789 9.934 9.934 0 0 1 5.3 5.3A9.758 9.758 0 0 1 22 12a9.751 9.751 0 0 1-.789 3.907 9.931 9.931 0 0 1-5.3 5.3A9.758 9.758 0 0 1 12 22Zm0-1.579a8.127 8.127 0 0 0 5.974-2.447A8.127 8.127 0 0 0 20.421 12a8.127 8.127 0 0 0-2.447-5.974A8.127 8.127 0 0 0 12 3.579a8.127 8.127 0 0 0-5.974 2.447A8.127 8.127 0 0 0 3.579 12a8.127 8.127 0 0 0 2.447 5.974A8.127 8.127 0 0 0 12 20.421ZM12 12Z" fill="#fcfcff"/>
</svg>
