<svg width="24" height="24" viewBox="0 0 24 24" fill="none" xmlns="http://www.w3.org/2000/svg">
<path d="M12.0327 6.59712L15.1574 3.56559C15.6664 3.07179 16.3988 2.88442 17.0824 3.07314C17.7659 3.26186 18.2984 3.79844 18.482 4.48342L20.9298 13.6189C21.1134 14.3039 20.9205 15.0349 20.4228 15.5401C19.9252 16.0453 19.1972 16.2492 18.5096 16.0761L14.2877 15.0129M12.0327 6.59712L3.23887 9.05338C2.70671 9.20202 2.39595 9.75406 2.54491 10.2861L4.31725 16.6166C4.46309 17.1375 4.99676 17.448 5.52171 17.3174L7.85007 16.738L14.2877 15.0129M12.0327 6.59712L14.2877 15.0129M12.407 15.5169L13.8596 20.5952C14.0133 21.1325 13.6968 21.6915 13.157 21.8361L10.8931 22.4427C10.3659 22.584 9.82288 22.2765 9.6728 21.7518L8.21099 16.6413" stroke="var(--tw-svg-color, #0D363F)" stroke-width="1.2" stroke-linecap="round" stroke-linejoin="round"/>
</svg>
