<svg xmlns="http://www.w3.org/2000/svg" width="24" height="24" viewBox="0 0 24 24">
  <g id="icon_outbound_call" transform="translate(-148 -207)">
    <path id="Path_5052" data-name="Path 5052" d="M-2792.831-874.738c-6.567-6.615-5.64-9.582-3.894-11.341a3.2,3.2,0,0,1,1.5-.907.969.969,0,0,1,.315-.026.98.98,0,0,1,.762.484l2.267,3.9a.988.988,0,0,1,0,1l-.92,1.554a.981.981,0,0,0,.064,1.1,25.164,25.164,0,0,0,1.916,2.213,25.3,25.3,0,0,0,2.2,1.93.96.96,0,0,0,1.094.065l1.543-.927a.965.965,0,0,1,.988,0l3.877,2.288a.98.98,0,0,1,.454,1.08,3.234,3.234,0,0,1-.9,1.513,3.9,3.9,0,0,1-2.857,1.285C-2786.285-869.531-2788.913-870.791-2792.831-874.738Zm4.305-4.2a1.389,1.389,0,0,1,.118-1.943l3.667-3.695-.565.034a1.176,1.176,0,0,1-1.224-.761,1.476,1.476,0,0,1,.383-1.523,1.54,1.54,0,0,1,1.008-.462l3.856-.237a1.184,1.184,0,0,1,1.28,1.289l-.235,3.884a1.586,1.586,0,0,1-.746,1.256,1.365,1.365,0,0,1-1.381.086,1.2,1.2,0,0,1-.6-1.174l.035-.569-3.668,3.695a1.524,1.524,0,0,1-1.072.464A1.192,1.192,0,0,1-2788.526-878.942Z" transform="translate(2949 1097.53)" fill="#fff"/>
  </g>
</svg>
