<svg xmlns="http://www.w3.org/2000/svg" width="24" height="24"><path fill="rgba(255,255,255,0)" d="M0 0h24v24H0z"/><path fill="#fff" d="M11.186 22v-2.691a6.255 6.255 0 0 1-4.24-2.095 6.331 6.331 0 0 1-1.681-4.382H6.72a4.748 4.748 0 0 0 1.518 3.573 5.157 5.157 0 0 0 3.7 1.45 5.028 5.028 0 0 0 2.363-.562 6.241 6.241 0 0 0 .792-.491L3 5.032l1.062-1.031L16.18 15.796l.008-.009 1.068 1.037-.009.011L21 20.488l-1.062 1.031-3.753-3.653a6.875 6.875 0 0 1-.975.633 7.278 7.278 0 0 1-2.57.811V22Zm5.956-7.787c-.04-.121.016-1.034.016-1.381h1.455q0 .736-.052 1.39a2.761 2.761 0 0 1-.282 1.084ZM16 14 8 6a4 4 0 0 1 4-4 4 4 0 0 1 4 4v8Z" data-name="Path 5054"/></svg>