<svg xmlns="http://www.w3.org/2000/svg" viewBox="0 0 37 32">
<path class="path1" d="M2.698 0c-1.472 0-2.691 1.213-2.691 2.678v26.644c0 1.465 1.219 2.678 2.691 2.678h28.222c1.472 0 2.691-1.213 2.691-2.678 0-0.003 0-0.007 0-0.011 0-0.684-0.557-1.238-1.244-1.238s-1.244 0.554-1.244 1.238c0 0.004 0 0.008 0 0.012 0 0.125-0.078 0.202-0.204 0.202h-28.222c-0.126 0-0.204-0.077-0.204-0.203v-26.644c0-0.125 0.078-0.203 0.204-0.203h7.96c-0.273 0-0.302-0.12-0.167 0.032s0.347 0.468 0.572 0.827c0.226 0.359 0.467 0.759 0.803 1.145s0.856 0.876 1.686 0.876h18.815c0.126 0 0.204 0.077 0.204 0.203v2.88c-0 0.004-0 0.008-0 0.012 0 0.684 0.557 1.238 1.244 1.238s1.244-0.554 1.244-1.238c0-0.004-0-0.008-0-0.013v-2.88c0-1.465-1.219-2.678-2.691-2.678h-18.815c0.299 0 0.327 0.131 0.192-0.024s-0.345-0.474-0.572-0.835-0.473-0.766-0.817-1.153c-0.344-0.387-0.876-0.868-1.697-0.868h-7.96z"/>
<path class="path2" d="M6.316 7.201c-1.472 0-2.691 1.213-2.691 2.678l0.021-0.225-3.618 19.443c-0.018 0.078-0.028 0.168-0.028 0.26 0 0.684 0.557 1.238 1.244 1.238 0.62 0 1.133-0.451 1.228-1.041l3.64-19.561v-0.114c0-0.125 0.078-0.203 0.204-0.203h28.222c0.115 0 0.175 0.078 0.187 0.186l-3.58 19.235c-0.018 0.078-0.028 0.168-0.028 0.26 0 0.684 0.557 1.238 1.244 1.238 0.62 0 1.133-0.451 1.228-1.041l3.64-19.561v-0.114c0-1.465-1.219-2.678-2.691-2.678h-28.222z"/>
</svg>