<svg xmlns="http://www.w3.org/2000/svg" width="32" height="32" viewBox="0 0 32 32">
  <g fill="none" stroke="#707070" stroke-miterlimit="10">
    <path stroke-linecap="round" d="M16 12a7 7 0 1 0 7 7 7 7 0 0 0-7-7Z" class="globe"/>
    <path d="M10.58 23.454A10.722 10.722 0 0 1 16 22.17a11.089 11.089 0 0 1 5.4 1.254m.029-8.878A10.722 10.722 0 0 1 16 15.83a11.089 11.089 0 0 1-5.396-1.25M9 19h14m-7-7v14" class="globe"/>
  </g>
  <path fill="#767676" d="M11.461 11.05a.853.853 0 0 0 .648-.571l.412-1.417a.87.87 0 0 1 .765-.591A26.855 26.855 0 0 1 16 8.309a26.87 26.87 0 0 1 2.715.162.871.871 0 0 1 .765.591l.412 1.417a.856.856 0 0 0 .652.572l4.05.922a.974.974 0 0 0 1.012-.358 2.36 2.36 0 0 0 .394-1.38C26 8.227 24.668 6 16 6S6 8.227 6 10.235a2.361 2.361 0 0 0 .4 1.383.969.969 0 0 0 1.007.357Z" class="phone"/>
</svg>
