<svg width="16" height="16" viewBox="0 0 16 16" fill="none" xmlns="http://www.w3.org/2000/svg">
<path fill-rule="evenodd" clip-rule="evenodd" d="M8 14C11.3137 14 14 11.3137 14 8C14 4.68629 11.3137 2 8 2C4.68629 2 2 4.68629 2 8C2 11.3137 4.68629 14 8 14ZM6.62495 5.77752C6.39063 5.5432 6.01073 5.5432 5.77642 5.77752C5.5421 6.01183 5.5421 6.39173 5.77642 6.62605L7.15177 8.0014L5.77642 9.37675C5.5421 9.61106 5.5421 9.99096 5.77642 10.2253C6.01073 10.4596 6.39063 10.4596 6.62495 10.2253L8.0003 8.84993L9.37565 10.2253C9.60996 10.4596 9.98986 10.4596 10.2242 10.2253C10.4585 9.99096 10.4585 9.61106 10.2242 9.37675L8.84883 8.0014L10.2242 6.62605C10.4585 6.39173 10.4585 6.01183 10.2242 5.77752C9.98986 5.5432 9.60996 5.5432 9.37565 5.77752L8.0003 7.15287L6.62495 5.77752Z" fill="var(--tw-svg-color, #8E92A4)"/>
</svg>
