<svg xmlns="http://www.w3.org/2000/svg" width="24" height="24"><path d="M14.273 14.894h.909v-2.457h2.552v-.875h-2.552V9.105h-.909v2.457H11.72v.875h2.552Zm-7.727 3.6a7.3 7.3 0 0 1-3.3-2.591A6.61 6.61 0 0 1 2 12a6.61 6.61 0 0 1 1.244-3.9 7.3 7.3 0 0 1 3.3-2.591v.983a6.161 6.161 0 0 0-2.659 2.253A5.815 5.815 0 0 0 2.909 12a5.816 5.816 0 0 0 .977 3.259 6.161 6.161 0 0 0 2.659 2.253Zm8.183.5a7.338 7.338 0 0 1-2.836-.548 7.355 7.355 0 0 1-2.311-1.5 7.052 7.052 0 0 1-1.558-2.224A6.6 6.6 0 0 1 7.455 12a6.611 6.611 0 0 1 .569-2.729 7.048 7.048 0 0 1 1.558-2.224 7.358 7.358 0 0 1 2.31-1.5A7.331 7.331 0 0 1 14.726 5a7.338 7.338 0 0 1 2.836.548 7.355 7.355 0 0 1 2.311 1.5 7.052 7.052 0 0 1 1.558 2.224A6.6 6.6 0 0 1 22 12a6.611 6.611 0 0 1-.569 2.729 7.049 7.049 0 0 1-1.558 2.224 7.358 7.358 0 0 1-2.31 1.5 7.331 7.331 0 0 1-2.835.547ZM14.727 12Zm0 6.125a6.263 6.263 0 0 0 4.511-1.783A5.8 5.8 0 0 0 21.091 12a5.8 5.8 0 0 0-1.852-4.342 6.263 6.263 0 0 0-4.511-1.783 6.263 6.263 0 0 0-4.511 1.783A5.8 5.8 0 0 0 8.364 12a5.8 5.8 0 0 0 1.852 4.342 6.263 6.263 0 0 0 4.511 1.783Z" fill="#767676"/></svg>
