<svg xmlns="http://www.w3.org/2000/svg" width="30" height="26.667" viewBox="0 0 30 26.667"><path d="M30 12.5a3.318 3.318 0 0 0-1.667-2.871V1.667A1.684 1.684 0 0 0 26.667 0a1.663 1.663 0 0 0-1.041.366L21.2 3.909a12.641 12.641 0 0 1-7.864 2.758h-10A3.333 3.333 0 0 0 0 10v5a3.333 3.333 0 0 0 3.333 3.333h1.756A12.657 12.657 0 0 0 4.975 20a13.194 13.194 0 0 0 1.331 5.778 1.634 1.634 0 0 0 1.479.889h3.869A1.656 1.656 0 0 0 13 24.033 6.633 6.633 0 0 1 11.641 20a6.3 6.3 0 0 1 .23-1.667h1.463a12.639 12.639 0 0 1 7.866 2.758l4.429 3.543a1.666 1.666 0 0 0 2.707-1.3v-7.963A3.319 3.319 0 0 0 30 12.5Zm-5 7.366-1.721-1.377A15.979 15.979 0 0 0 13.333 15v-5a15.979 15.979 0 0 0 9.945-3.489L25 5.134Z"/></svg>
