<svg xmlns="http://www.w3.org/2000/svg" width="24" height="24" viewBox="0 0 24 24"><g><path d="M7.187 16.508h10.346v-5.8a4.381 4.381 0 0 0 .779-.258 3.01 3.01 0 0 0 .691-.423v6.481a1.534 1.534 0 0 1-.428 1.1 1.385 1.385 0 0 1-1.042.451H7.8L5 21.005V7.817a1.534 1.534 0 0 1 .428-1.1 1.385 1.385 0 0 1 1.042-.446h6.963a3.466 3.466 0 0 0 0 1.547H6.47v9.445Zm-.717-8.69v8.69-8.691Zm10.43 1.6a1.978 1.978 0 0 1-1.488-.647 2.188 2.188 0 0 1-.612-1.565 2.19 2.19 0 0 1 .612-1.562 2.04 2.04 0 0 1 2.975 0 2.19 2.19 0 0 1 .612 1.565 2.188 2.188 0 0 1-.611 1.562 1.976 1.976 0 0 1-1.488.648Z" fill="#767676"/></g></svg>
