<svg xmlns="http://www.w3.org/2000/svg" xmlns:xlink="http://www.w3.org/1999/xlink" width="16" height="16" viewBox="0 0 16 16"><defs><linearGradient id="c" x1=".846" y1=".455" x2=".093" y2=".564"><stop offset="0" stop-color="#f4ba22" stop-opacity=".408"/><stop offset="1" stop-color="#fbce32"/></linearGradient><linearGradient id="d" x1=".931" y1=".372" x2=".034" y2=".655"><stop offset="0" stop-color="#f2b721" stop-opacity=".467"/><stop offset="1" stop-color="#f9c930"/></linearGradient><linearGradient id="e" x1=".916" y1=".269" x2=".064" y2=".754"><stop offset="0" stop-color="#f0b320" stop-opacity=".525"/><stop offset="1" stop-color="#f6c32d"/></linearGradient><linearGradient id="f" x1=".789" y1=".182" x2=".182" y2=".839"><stop offset="0" stop-color="#eeb01f" stop-opacity=".584"/><stop offset="1" stop-color="#f3be2a"/></linearGradient><linearGradient id="g" x1=".6" y1=".143" x2=".383" y2=".887"><stop offset="0" stop-color="#ecac1e" stop-opacity=".643"/><stop offset="1" stop-color="#f0b827"/></linearGradient><linearGradient id="h" x1=".405" y1=".151" x2=".622" y2=".895"><stop offset="0" stop-color="#eaa91c" stop-opacity=".706"/><stop offset="1" stop-color="#eeb325"/></linearGradient><linearGradient id="i" x1=".218" y1=".171" x2=".852" y2=".857"><stop offset="0" stop-color="#e8a51b" stop-opacity=".765"/><stop offset="1" stop-color="#ebad22"/></linearGradient><linearGradient id="j" x1=".066" y1=".232" x2="1.008" y2=".769"><stop offset="0" stop-color="#e6a21a" stop-opacity=".824"/><stop offset="1" stop-color="#e8a81f"/></linearGradient><linearGradient id="k" x1="-.003" y1=".325" x2="1.042" y2=".657"><stop offset="0" stop-color="#e49e19" stop-opacity=".882"/><stop offset="1" stop-color="#e5a21c"/></linearGradient><linearGradient id="l" x1=".039" y1=".425" x2=".947" y2=".557"><stop offset="0" stop-color="#e29b18" stop-opacity=".941"/><stop offset="1" stop-color="#e39d1a"/></linearGradient><linearGradient id="m" y1=".5" x2="1" y2=".5"><stop offset="0" stop-color="#e09717"/><stop offset="1" stop-color="#e09717"/></linearGradient><linearGradient id="n" y1=".5" x2="1" y2=".5"><stop offset="0" stop-color="#efae13"/><stop offset=".519" stop-color="#fccc24" stop-opacity=".537"/><stop offset=".999" stop-color="#fccb23"/></linearGradient><linearGradient id="o" y1=".5" x2="1" y2=".5"><stop offset="0" stop-color="#eeac13"/><stop offset=".519" stop-color="#f9c723" stop-opacity=".584"/><stop offset=".999" stop-color="#f9c621"/></linearGradient><linearGradient id="p" y1=".5" x2="1" y2=".5"><stop offset="0" stop-color="#edab14"/><stop offset=".519" stop-color="#f7c321" stop-opacity=".627"/><stop offset=".999" stop-color="#f7c220"/></linearGradient><linearGradient id="q" y1=".5" x2="1" y2=".5"><stop offset="0" stop-color="#ecaa14"/><stop offset=".519" stop-color="#f5bf20" stop-opacity=".675"/><stop offset=".999" stop-color="#f5be1f"/></linearGradient><linearGradient id="r" y1=".5" x2="1" y2=".5"><stop offset="0" stop-color="#eba814"/><stop offset=".519" stop-color="#f3ba1e" stop-opacity=".722"/><stop offset=".999" stop-color="#f3ba1d"/></linearGradient><linearGradient id="s" y1=".5" x2="1" y2=".5"><stop offset="0" stop-color="#eaa714"/><stop offset=".519" stop-color="#f0b61d" stop-opacity=".769"/><stop offset=".999" stop-color="#f0b51c"/></linearGradient><linearGradient id="t" y1=".5" x2="1" y2=".5"><stop offset="0" stop-color="#e9a514"/><stop offset=".519" stop-color="#eeb11b" stop-opacity=".816"/><stop offset=".999" stop-color="#eeb11a"/></linearGradient><linearGradient id="u" y1=".5" x2="1" y2=".5"><stop offset="0" stop-color="#e8a414"/><stop offset=".519" stop-color="#ecad1a" stop-opacity=".863"/><stop offset=".999" stop-color="#ecad19"/></linearGradient><linearGradient id="v" y1=".5" x2="1" y2=".5"><stop offset="0" stop-color="#e7a315"/><stop offset=".519" stop-color="#eaa918" stop-opacity=".906"/><stop offset=".999" stop-color="#eaa918"/></linearGradient><linearGradient id="w" y1=".5" x2="1" y2=".5"><stop offset="0" stop-color="#e6a115"/><stop offset=".519" stop-color="#e7a417" stop-opacity=".953"/><stop offset=".999" stop-color="#e7a416"/></linearGradient><linearGradient id="B" x1="1.846" y1=".684" x2="1.165" y2="1.522"><stop offset="0" stop-color="#ffdb53" stop-opacity="0"/><stop offset=".605" stop-color="#f6c02d"/><stop offset=".999" stop-color="#f2b416" stop-opacity=".635"/></linearGradient><radialGradient id="a" cx=".368" cy=".442" r=".578"><stop offset="0" stop-color="#ffe16e"/><stop offset=".629" stop-color="#ffd226"/><stop offset=".75" stop-color="#fdcd23"/><stop offset=".899" stop-color="#f6bd1b"/><stop offset=".999" stop-color="#f0af13"/></radialGradient><radialGradient id="x" cx=".422" cy=".741" r=".939" xlink:href="#a"/><radialGradient id="y" cx=".464" cy=".721" r=".93" xlink:href="#a"/><radialGradient id="z" cx=".453" cy=".787" r="1.008" xlink:href="#a"/><radialGradient id="A" cx=".479" cy=".523" r=".988" xlink:href="#a"/><radialGradient id="b" cx=".499" cy=".501" r=".437"><stop offset=".425" stop-color="#ffe16e"/><stop offset="1" stop-color="#ffe16e" stop-opacity="0"/></radialGradient><radialGradient id="C" cx=".5" cy=".499" r=".336" xlink:href="#b"/><radialGradient id="D" cx=".5" cy=".499" r=".449" xlink:href="#b"/><radialGradient id="E" cx=".5" cy=".495" r=".449" xlink:href="#b"/><radialGradient id="F" cx=".501" cy=".493" r=".449" xlink:href="#b"/></defs><g transform="translate(-5.004 -4.746)"><path d="M5.538 11.456h1.324a2.833 2.833 0 0 0 2.043-.878 5.071 5.071 0 0 1 .833-.7c.062-.042.127-.074.19-.112l1.155-.8 1.447-1 .112-.117a3.5 3.5 0 0 0 .843-1.492l.333-1.221a.536.536 0 0 1 .53-.4c1.579.115 1.844 2.847.619 5.616a.207.207 0 0 0-.019.149c.025.075.144.113.364.133.2.017 3.15.276 3.788.276.364 0-1.016 7.683-1.016 8.3a1.4 1.4 0 0 1-1.31 1.366s-5.937.134-7.072-.31a2.7 2.7 0 0 1-1.041-.763 2.838 2.838 0 0 0-2.141-.987h-.982c-.3 0-.534-1.582-.534-3.533s.239-3.527.534-3.527Z" fill="url(#a)"/><g opacity=".87"><path d="M23.019 20.9a1.37 1.37 0 0 0 .109.825.861.861 0 0 1-.113.97 1.358 1.358 0 0 0-.376.937v.039a1.369 1.369 0 0 0 .127.544.867.867 0 0 1-.121.932 1.322 1.322 0 0 0-.105.139 1.368 1.368 0 0 0-.222.755 1.317 1.317 0 0 0 .045.337 1.344 1.344 0 0 0 .083.227.808.808 0 0 1 .082.365.573.573 0 0 1-.072.272 1.439 1.439 0 0 1-.092.144.9.9 0 0 0-.171.648 1.032 1.032 0 0 0 .993.831h1.368A1.034 1.034 0 0 0 25.705 28a.939.939 0 0 0-.276-.739 1.37 1.37 0 0 0 .749-1.218 1.37 1.37 0 0 0-.556-1.1.016.016 0 0 1 .006-.028 1.368 1.368 0 0 0 .228-2.422.016.016 0 0 1 .007-.028 1.371 1.371 0 0 0 .968-1.519c-.1-.684.3-1.536-.394-1.536l-1.637-.08a.81.81 0 0 0-.174.005 2.019 2.019 0 0 0-1.607 1.565Z" transform="translate(-9.605 -8.264)" opacity=".091" fill="url(#c)"/><path d="M23.594 20.973a1.37 1.37 0 0 0 .109.825.861.861 0 0 1-.113.97 1.358 1.358 0 0 0-.376.934v.038a1.38 1.38 0 0 0 .125.543.869.869 0 0 1-.128.934 1.233 1.233 0 0 0-.107.14 1.369 1.369 0 0 0-.221.762 1.308 1.308 0 0 0 .047.338 1.339 1.339 0 0 0 .088.229.928.928 0 0 1 .1.358.423.423 0 0 1-.069.268c-.032.046-.064.094-.1.139a.862.862 0 0 0-.183.645 1.029 1.029 0 0 0 .99.839h1.372a1.034 1.034 0 0 0 1.151-.871.939.939 0 0 0-.279-.738 1.37 1.37 0 0 0 .749-1.218 1.371 1.371 0 0 0-.558-1.1.017.017 0 0 1 .009-.026 1.368 1.368 0 0 0 .224-2.424c-.008-.007 0-.022.011-.026a1.37 1.37 0 0 0 .967-1.519c-.1-.684.3-1.533-.4-1.533l-1.7-.029a.842.842 0 0 0-.169.006 1.9 1.9 0 0 0-1.539 1.516Z" transform="translate(-9.948 -8.335)" opacity=".182" fill="url(#d)"/><path d="M24.167 21.023a1.37 1.37 0 0 0 .109.825.861.861 0 0 1-.113.97 1.359 1.359 0 0 0-.376.931v.038a1.391 1.391 0 0 0 .122.542.869.869 0 0 1-.134.937 1.219 1.219 0 0 0-.108.141 1.381 1.381 0 0 0-.221.769 1.277 1.277 0 0 0 .05.34 1.358 1.358 0 0 0 .092.231 1.14 1.14 0 0 1 .122.351.33.33 0 0 1-.066.265c-.036.044-.07.09-.108.134a.832.832 0 0 0-.2.642 1.026 1.026 0 0 0 .986.847H25.7a1.034 1.034 0 0 0 1.151-.871.939.939 0 0 0-.276-.739 1.37 1.37 0 0 0 .749-1.218 1.37 1.37 0 0 0-.56-1.1.018.018 0 0 1 .012-.025A1.368 1.368 0 0 0 27 22.6c-.006-.007 0-.02.013-.025a1.371 1.371 0 0 0 .967-1.519c-.1-.684.294-1.531-.4-1.531l-1.767.017a.885.885 0 0 0-.164.007 1.781 1.781 0 0 0-1.482 1.474Z" transform="translate(-10.289 -8.385)" opacity=".273" fill="url(#e)"/><path d="M24.74 21.027a1.37 1.37 0 0 0 .109.825.861.861 0 0 1-.113.97 1.36 1.36 0 0 0-.376.928v.038a1.412 1.412 0 0 0 .119.542.871.871 0 0 1-.141.939 1.138 1.138 0 0 0-.11.142 1.386 1.386 0 0 0-.22.777 1.269 1.269 0 0 0 .053.342 1.35 1.35 0 0 0 .1.233 1.532 1.532 0 0 1 .142.344.271.271 0 0 1-.063.261c-.04.041-.076.086-.116.129a.8.8 0 0 0-.209.639 1.022 1.022 0 0 0 .983.855h1.38a1.034 1.034 0 0 0 1.151-.871.939.939 0 0 0-.276-.739 1.37 1.37 0 0 0 .749-1.218 1.371 1.371 0 0 0-.562-1.106.021.021 0 0 1 .015-.023 1.368 1.368 0 0 0 .218-2.427c0-.006 0-.019.017-.023a1.371 1.371 0 0 0 .967-1.519c-.1-.684.293-1.528-.4-1.528l-1.832.063a.9.9 0 0 0-.159.008 1.665 1.665 0 0 0-1.426 1.419Z" transform="translate(-10.63 -8.389)" opacity=".364" fill="url(#f)"/><path d="M25.314 21.03a1.37 1.37 0 0 0 .109.825.861.861 0 0 1-.113.97 1.358 1.358 0 0 0-.376.924v.038a1.416 1.416 0 0 0 .116.541.871.871 0 0 1-.147.941 1.085 1.085 0 0 0-.112.144 1.392 1.392 0 0 0-.219.784 1.236 1.236 0 0 0 .056.344 1.342 1.342 0 0 0 .1.235 2.417 2.417 0 0 1 .161.337.228.228 0 0 1-.06.258c-.043.039-.082.083-.123.124a.778.778 0 0 0-.222.637 1.019 1.019 0 0 0 .979.862h1.384A1.034 1.034 0 0 0 28 28.123a.939.939 0 0 0-.276-.739 1.37 1.37 0 0 0 .749-1.218 1.37 1.37 0 0 0-.565-1.107.025.025 0 0 1 .017-.022 1.368 1.368 0 0 0 .214-2.429c0-.006.006-.017.019-.021a1.371 1.371 0 0 0 .967-1.519c-.1-.684.291-1.525-.4-1.525l-1.9.108a.961.961 0 0 0-.153.008 1.557 1.557 0 0 0-1.358 1.371Z" transform="translate(-10.972 -8.392)" opacity=".455" fill="url(#g)"/><path d="M25.889 21.033a1.37 1.37 0 0 0 .109.825.861.861 0 0 1-.113.97 1.356 1.356 0 0 0-.376.921v.038a1.428 1.428 0 0 0 .113.54.872.872 0 0 1-.154.943 1.045 1.045 0 0 0-.113.144 1.4 1.4 0 0 0-.218.791 1.232 1.232 0 0 0 .059.346 1.381 1.381 0 0 0 .106.237c.072.127.142.246.182.33a.2.2 0 0 1-.057.255c-.046.037-.088.079-.131.119a.751.751 0 0 0-.234.634 1.016 1.016 0 0 0 .976.871h1.388a1.034 1.034 0 0 0 1.151-.871.939.939 0 0 0-.276-.739 1.37 1.37 0 0 0 .749-1.218 1.371 1.371 0 0 0-.567-1.109.033.033 0 0 1 .02-.021 1.368 1.368 0 0 0 .211-2.431.032.032 0 0 1 .022-.019 1.371 1.371 0 0 0 .964-1.519c-.1-.684.29-1.523-.4-1.523l-1.961.155a1.051 1.051 0 0 0-.148.009 1.451 1.451 0 0 0-1.302 1.322Z" transform="translate(-11.314 -8.395)" opacity=".545" fill="url(#h)"/><path d="M26.462 21.036a1.37 1.37 0 0 0 .109.825.861.861 0 0 1-.113.97 1.356 1.356 0 0 0-.376.917v.037a1.444 1.444 0 0 0 .11.539.875.875 0 0 1-.16.945 1.019 1.019 0 0 0-.115.146 1.408 1.408 0 0 0-.218.8 1.2 1.2 0 0 0 .062.347 1.363 1.363 0 0 0 .11.239c.074.129.152.246.2.323a.175.175 0 0 1-.054.251 1.666 1.666 0 0 0-.139.114.729.729 0 0 0-.247.631 1.012 1.012 0 0 0 .973.878H28a1.034 1.034 0 0 0 1.151-.871.939.939 0 0 0-.276-.739 1.37 1.37 0 0 0 .749-1.218 1.371 1.371 0 0 0-.569-1.111.047.047 0 0 1 .023-.019 1.368 1.368 0 0 0 .208-2.432.047.047 0 0 1 .025-.018 1.37 1.37 0 0 0 .966-1.519c-.1-.684.288-1.52-.4-1.52l-2.026.2a1.1 1.1 0 0 0-.143.011 1.348 1.348 0 0 0-1.246 1.274Z" transform="translate(-11.655 -8.399)" opacity=".636" fill="url(#i)"/><path d="M27.035 21.043a1.37 1.37 0 0 0 .109.825.861.861 0 0 1-.113.97 1.357 1.357 0 0 0-.376.914v.037a1.457 1.457 0 0 0 .108.538.876.876 0 0 1-.167.947.975.975 0 0 0-.117.147 1.413 1.413 0 0 0-.217.805 1.186 1.186 0 0 0 .064.349 1.408 1.408 0 0 0 .115.242 2.489 2.489 0 0 0 .221.316.158.158 0 0 1-.051.248 1.451 1.451 0 0 0-.147.109.707.707 0 0 0-.26.629 1.01 1.01 0 0 0 .969.886h1.4a1.034 1.034 0 0 0 1.151-.871.939.939 0 0 0-.276-.739 1.37 1.37 0 0 0 .749-1.218 1.371 1.371 0 0 0-.571-1.112.079.079 0 0 1 .025-.018 1.368 1.368 0 0 0 .2-2.434.076.076 0 0 1 .028-.016 1.371 1.371 0 0 0 .966-1.519c-.1-.684.287-1.517-.4-1.517l-2.09.246a1.262 1.262 0 0 0-.138.011 1.248 1.248 0 0 0-1.182 1.225Z" transform="translate(-11.996 -8.406)" opacity=".727" fill="url(#j)"/><path d="M27.609 21.045a1.37 1.37 0 0 0 .109.825.861.861 0 0 1-.113.97 1.359 1.359 0 0 0-.376.911v.037a1.471 1.471 0 0 0 .1.537.877.877 0 0 1-.173.949.946.946 0 0 0-.118.148 1.421 1.421 0 0 0-.216.813 1.171 1.171 0 0 0 .067.351 1.382 1.382 0 0 0 .119.244 1.47 1.47 0 0 0 .242.31.145.145 0 0 1-.049.244 1.367 1.367 0 0 0-.154.1.69.69 0 0 0-.273.626 1.007 1.007 0 0 0 .966.894h1.4a1.034 1.034 0 0 0 1.151-.871.938.938 0 0 0-.276-.739 1.37 1.37 0 0 0 .749-1.218 1.37 1.37 0 0 0-.573-1.114.176.176 0 0 1 .028-.016 1.368 1.368 0 0 0 .2-2.435.168.168 0 0 1 .032-.014 1.371 1.371 0 0 0 .966-1.519c-.1-.684.285-1.515-.406-1.515l-2.155.292a.938.938 0 0 0-.132.012c-.824.117-1.005.541-1.115 1.178Z" transform="translate(-12.338 -8.407)" opacity=".818" fill="url(#k)"/><path d="M28.183 21.048a1.37 1.37 0 0 0 .109.825.861.861 0 0 1-.113.97 1.358 1.358 0 0 0-.376.908v.036a1.486 1.486 0 0 0 .1.537.878.878 0 0 1-.18.951.908.908 0 0 0-.119.149 1.429 1.429 0 0 0-.216.82 1.154 1.154 0 0 0 .07.353 1.385 1.385 0 0 0 .124.246 1.079 1.079 0 0 0 .261.3c.045.03.12.156-.046.241a1.231 1.231 0 0 0-.162.1.672.672 0 0 0-.285.623 1 1 0 0 0 .962.9h1.4a1.034 1.034 0 0 0 1.151-.871.939.939 0 0 0-.276-.739 1.37 1.37 0 0 0 .749-1.218 1.371 1.371 0 0 0-.576-1.115l.031-.015a1.368 1.368 0 0 0 .2-2.437l.034-.013A1.371 1.371 0 0 0 32 21.085c-.1-.684.284-1.512-.407-1.512l-2.22.338c-.044 0-.086.007-.127.013-.829.111-.953.488-1.063 1.124Z" transform="translate(-12.68 -8.411)" opacity=".909" fill="url(#l)"/><path d="M32.226 23.79a1.371 1.371 0 0 0-.66-1.17 1.371 1.371 0 0 0 1-1.529c-.1-.684.282-1.51-.408-1.51l-2.284.384c-.934.09-1.005.423-1.12 1.088a1.37 1.37 0 0 0 .109.825.861.861 0 0 1-.113.97 1.358 1.358 0 0 0-.376.941 1.5 1.5 0 0 0 .1.536.879.879 0 0 1-.186.953.872.872 0 0 0-.121.15 1.384 1.384 0 0 0-.142 1.182 1.156 1.156 0 0 0 .41.544c.049.024.136.155-.043.238a.691.691 0 0 0-.468.714 1 1 0 0 0 1 .911h1.366a1.034 1.034 0 0 0 1.151-.871.939.939 0 0 0-.276-.739 1.37 1.37 0 0 0 .749-1.218 1.371 1.371 0 0 0-.578-1.117 1.373 1.373 0 0 0 .89-1.282Z" transform="translate(-13.021 -8.415)" fill="url(#m)"/></g><g opacity=".24"><path d="M7.333 27.035h.939a2.69 2.69 0 0 1 2.047.965 2.585 2.585 0 0 0 .995.743 14.783 14.783 0 0 0 3.408.307l.423.007c.907.012 1.756.005 2.265 0a4.5 4.5 0 0 0 .734-.038 1.061 1.061 0 0 0 .346-.09 1.15 1.15 0 0 0 .025-.393c-.006-.081 0-.3.006-.619-.526.006-1.3.011-2.119 0-.395 0-.8-.013-1.2-.025a17.162 17.162 0 0 1-2.39-.2 2.123 2.123 0 0 1-.393-.112 2.417 2.417 0 0 1-.645-.409 3.858 3.858 0 0 1-.35-.35A2.711 2.711 0 0 0 10 25.969a2.9 2.9 0 0 0-.648-.073H9.1a3.931 3.931 0 0 1-.657-.058c-.225-.057-.412-1.118-.467-2.543-.011-.3-.016-.61-.015-.93 0-.522.024-1.008.057-1.443-.087 0-.175 0-.263-.014 0-.006-.149-.011-.147-.016h-.156a2.841 2.841 0 0 0-.438.035 15.9 15.9 0 0 0-.19 2.646v.236c.016 1.8.238 3.226.509 3.226Z" transform="translate(-1.083 -9.196)" opacity=".091" fill="url(#n)"/><path d="M7.15 27.111h.94a2.69 2.69 0 0 1 2.047.962 2.585 2.585 0 0 0 .995.743 15 15 0 0 0 3.446.308l.422.006c.952.012 1.831 0 2.289 0a2.572 2.572 0 0 0 .736-.063 1.074 1.074 0 0 0 .339-.112 1.337 1.337 0 0 0-.04-.334c-.011-.072-.026-.272-.067-.556-.53.006-1.306.011-2.132 0-.4 0-.807-.013-1.206-.026a16.157 16.157 0 0 1-2.4-.2 2.079 2.079 0 0 1-.392-.12 2.459 2.459 0 0 1-.641-.423 5.326 5.326 0 0 1-.353-.352 2.7 2.7 0 0 0-1.451-.828 3.256 3.256 0 0 0-.652-.066h-.246c-.02 0-.606-.043-.621-.116a5.276 5.276 0 0 1-.442-2.569c-.01-.3-.014-.618-.011-.937 0-.529.029-1.019.066-1.452a4.098 4.098 0 0 1-.231-.046c0-.011-.131-.021-.128-.031h-.16c-.015 0-.405.025-.418.07a15.457 15.457 0 0 0-.2 2.662v.238c.016 1.804.239 3.242.511 3.242Z" transform="translate(-.974 -9.198)" opacity=".182" fill="url(#o)"/><path d="M6.968 27.183h.939a2.69 2.69 0 0 1 2.047.962 2.585 2.585 0 0 0 .995.743 15.156 15.156 0 0 0 3.484.308l.433.006c1 .011 1.9 0 2.312 0a1.9 1.9 0 0 0 .738-.089 1.084 1.084 0 0 0 .331-.134.849.849 0 0 0-.1-.274 2.531 2.531 0 0 0-.14-.493c-.533.006-1.315.011-2.145 0-.4 0-.813-.013-1.214-.026a15.1 15.1 0 0 1-2.414-.213 1.991 1.991 0 0 1-.391-.129 2.5 2.5 0 0 1-.643-.444 7.919 7.919 0 0 1-.356-.354 2.687 2.687 0 0 0-1.475-.8 3.7 3.7 0 0 0-.655-.059h-.249c-.03 0-.562-.065-.585-.174a5.925 5.925 0 0 1-.416-2.595 24.531 24.531 0 0 1-.008-.943c.007-.537.034-1.031.074-1.461l-.2-.077c0-.017-.113-.032-.11-.047h-.157c-.023 0-.378.038-.4.105a15.079 15.079 0 0 0-.207 2.678v.239c.016 1.822.239 3.271.512 3.271Z" transform="translate(-.865 -9.197)" opacity=".273" fill="url(#p)"/><path d="M6.786 27.257h.939a2.69 2.69 0 0 1 2.047.962 2.585 2.585 0 0 0 .995.743 15.372 15.372 0 0 0 3.521.309l.437.006c1.042.011 1.979 0 2.336-.005a1.586 1.586 0 0 0 .74-.115 1.107 1.107 0 0 0 .325-.157 2.856 2.856 0 0 0-.169-.215 1.543 1.543 0 0 0-.212-.43c-.536.006-1.323.011-2.159 0-.4 0-.819-.013-1.222-.027a14.334 14.334 0 0 1-2.426-.222 1.962 1.962 0 0 1-.39-.138 2.555 2.555 0 0 1-.635-.45 17.205 17.205 0 0 1-.359-.356 2.676 2.676 0 0 0-1.5-.776 4.287 4.287 0 0 0-.659-.051h-.248c-.04 0-.518-.086-.549-.233a6.672 6.672 0 0 1-.391-2.621 17.736 17.736 0 0 1 0-.951c.01-.544.04-1.042.083-1.47l-.166-.109c0-.022-.1-.043-.091-.062h-.164c-.031 0-.352.051-.378.14a14.687 14.687 0 0 0-.215 2.694v.24c.012 1.837.236 3.294.51 3.294Z" transform="translate(-.757 -9.197)" opacity=".364" fill="url(#q)"/><path d="M6.605 27.331h.939a2.69 2.69 0 0 1 2.047.962 2.585 2.585 0 0 0 .995.743 15.574 15.574 0 0 0 3.559.309l.443.006c1.087.011 2.054 0 2.359-.007a1.4 1.4 0 0 0 .741-.14 1.14 1.14 0 0 0 .317-.178 1.043 1.043 0 0 1-.234-.155c0-.049-.11-.179-.285-.367-.54.006-1.332.011-2.172 0a55.937 55.937 0 0 1-1.23-.028 13.611 13.611 0 0 1-2.438-.23 1.943 1.943 0 0 1-.389-.146 2.6 2.6 0 0 1-.632-.464l-.362-.358a2.669 2.669 0 0 0-1.523-.75 5.066 5.066 0 0 0-.663-.044h-.25c-.05 0-.475-.108-.513-.291a7.443 7.443 0 0 1-.365-2.646 23.535 23.535 0 0 1 0-.958c.012-.552.045-1.054.092-1.479-.045-.049-.089-.1-.133-.141.006-.028-.078-.054-.072-.078h-.16c-.038 0-.325.063-.357.175a14.336 14.336 0 0 0-.224 2.71v.242c.01 1.841.235 3.313.51 3.313Z" transform="translate(-.65 -9.197)" opacity=".455" fill="url(#r)"/><path d="M6.423 27.4h.939a2.69 2.69 0 0 1 2.047.962 2.585 2.585 0 0 0 .995.743 15.743 15.743 0 0 0 3.6.31l.448.006c1.132.011 2.128-.006 2.383-.008a1.516 1.516 0 0 0 .743-.166 2.2 2.2 0 0 0 .31-.2.605.605 0 0 1-.3-.1c0-.04-.138-.149-.357-.3-.543.006-1.341.011-2.186 0-.41-.005-.83-.014-1.238-.028a12.94 12.94 0 0 1-2.45-.239 1.961 1.961 0 0 1-.387-.155 2.639 2.639 0 0 1-.629-.478 15.489 15.489 0 0 0-.365-.36 2.665 2.665 0 0 0-1.547-.724 6.166 6.166 0 0 0-.667-.036h-.25c-.06 0-.431-.129-.477-.349a8.383 8.383 0 0 1-.34-2.672c-.006-.323 0-.647 0-.965.015-.559.051-1.065.1-1.488q-.05-.091-.1-.172c.008-.034-.06-.065-.053-.093h-.159c-.046 0-.3.076-.337.21a14.007 14.007 0 0 0-.232 2.726v.243c.008 1.854.233 3.333.509 3.333Z" transform="translate(-.541 -9.197)" opacity=".545" fill="url(#s)"/><path d="M6.242 27.477h.939a2.69 2.69 0 0 1 2.047.962 2.585 2.585 0 0 0 .995.743 15.96 15.96 0 0 0 3.636.311l.453.006c1.177.011 2.2-.008 2.406-.01a1.393 1.393 0 0 0 .745-.192 1.968 1.968 0 0 0 .3-.223.585.585 0 0 1-.363-.036c0-.032-.166-.117-.43-.24-.546.006-1.35.011-2.2 0a57.106 57.106 0 0 1-1.246-.029 12.339 12.339 0 0 1-2.462-.248 1.974 1.974 0 0 1-.386-.163 2.677 2.677 0 0 1-.626-.491 7.36 7.36 0 0 0-.368-.361 2.66 2.66 0 0 0-1.571-.7c-.076-.019-.59-.029-.671-.029h-.247a.616.616 0 0 1-.441-.407 9.524 9.524 0 0 1-.315-2.7c0-.328 0-.654.007-.972.017-.566.056-1.077.109-1.5q-.035-.109-.068-.2c.009-.039-.043-.076-.034-.109h-.162a.427.427 0 0 0-.316.245 13.636 13.636 0 0 0-.24 2.742v.244c.005 1.862.231 3.357.509 3.357Z" transform="translate(-.433 -9.196)" opacity=".636" fill="url(#t)"/><path d="M6.059 27.552H7a2.69 2.69 0 0 1 2.047.962 2.585 2.585 0 0 0 .995.743 16.16 16.16 0 0 0 3.673.311l.458.006c1.222.011 2.277-.01 2.43-.011a1.31 1.31 0 0 0 .747-.217 1.762 1.762 0 0 0 .3-.245.665.665 0 0 1-.428.023 1.914 1.914 0 0 0-.5-.178 95.01 95.01 0 0 1-2.213 0 57.68 57.68 0 0 1-1.254-.03 11.805 11.805 0 0 1-2.474-.256 2.013 2.013 0 0 1-.384-.172 2.719 2.719 0 0 1-.623-.505 5.151 5.151 0 0 0-.371-.363 2.658 2.658 0 0 0-1.603-.672 10.048 10.048 0 0 0-.674-.022h-.252a.616.616 0 0 1-.4-.465 10.721 10.721 0 0 1-.29-2.723c0-.333 0-.662.011-.979.019-.573.061-1.088.117-1.506l-.035-.236c.01-.045-.025-.087-.015-.125h-.167a.414.414 0 0 0-.3.28 13.336 13.336 0 0 0-.249 2.757v.246c.008 1.871.235 3.377.513 3.377Z" transform="translate(-.324 -9.197)" opacity=".727" fill="url(#u)"/><path d="M5.878 27.624h.939a2.69 2.69 0 0 1 2.047.962 2.585 2.585 0 0 0 .995.743 16.353 16.353 0 0 0 3.711.312l.463.005c1.268.011 2.351-.012 2.453-.013a1.253 1.253 0 0 0 .749-.243 1.638 1.638 0 0 0 .288-.267.79.79 0 0 1-.493.083 3.386 3.386 0 0 0-.576-.115c-.553.006-1.368.011-2.226 0a58.574 58.574 0 0 1-1.262-.03 11.318 11.318 0 0 1-2.485-.265 2.059 2.059 0 0 1-.383-.18 2.751 2.751 0 0 1-.62-.519 4.082 4.082 0 0 0-.374-.365 2.657 2.657 0 0 0-1.619-.645c-.038-.01-.638-.015-.678-.015h-.251c-.091 0-.3-.194-.369-.523a12.083 12.083 0 0 1-.264-2.749c0-.338 0-.669.015-.986a14.843 14.843 0 0 1 .125-1.514v-.268c.011-.051-.007-.1 0-.14H5.9a.416.416 0 0 0-.276.315 13.018 13.018 0 0 0-.257 2.773v.247c.004 1.88.233 3.397.511 3.397Z" transform="translate(-.216 -9.196)" opacity=".818" fill="url(#v)"/><path d="M5.7 27.7h.939a2.69 2.69 0 0 1 2.047.962 2.585 2.585 0 0 0 .995.743 16.53 16.53 0 0 0 3.749.312l.468.005c1.312.01 2.425-.014 2.477-.015a1.207 1.207 0 0 0 .751-.269 1.547 1.547 0 0 0 .281-.289.946.946 0 0 1-.557.142c0-.008-.249-.025-.648-.051a97.26 97.26 0 0 1-2.239 0 53.036 53.036 0 0 1-1.27-.031 10.9 10.9 0 0 1-2.5-.273 2.1 2.1 0 0 1-.382-.189 2.782 2.782 0 0 1-.617-.532 3.3 3.3 0 0 0-.377-.367 2.66 2.66 0 0 0-1.643-.618l-.682-.007h-.255c-.1 0-.257-.215-.333-.582a13.557 13.557 0 0 1-.239-2.775c0-.343.005-.676.018-.993a14.314 14.314 0 0 1 .135-1.524c.009-.109.019-.209.03-.3.013-.056.01-.108.023-.156h-.164c-.077 0-.191.127-.255.35a12.769 12.769 0 0 0-.266 2.789v.248c.001 1.889.229 3.42.514 3.42Z" transform="translate(-.108 -9.197)" opacity=".909" fill="url(#w)"/><path d="M16.661 20.178s-1.419.032-2.973.011a16.749 16.749 0 0 1-3.788-.314 2.585 2.585 0 0 1-.995-.743 2.692 2.692 0 0 0-2.047-.962h-.939c-.282 0-.51-1.54-.51-3.44a13.354 13.354 0 0 1 .27-3.035h-.165c-.282 0-.51 1.54-.51 3.44s.229 3.44.51 3.44h.939a2.69 2.69 0 0 1 2.047.962 2.585 2.585 0 0 0 .995.743 16.747 16.747 0 0 0 3.787.313c1.554.021 2.973-.011 2.973-.011a1.266 1.266 0 0 0 1.026-.606 1.129 1.129 0 0 1-.62.202Z" fill="#e5a015"/></g><path d="M32.534 37.441a1.425 1.425 0 0 0-2.4-.843l-1.2.538a.72.72 0 0 0-.147 0 .927.927 0 0 0-.7 1.078.9.9 0 0 0 .851.839h2.366a1.428 1.428 0 0 0 1.23-1.612Z" transform="translate(-13.114 -18.312)" fill="url(#x)"/><path d="M33.533 31.974a1.66 1.66 0 0 0-2.8-1l-1.847.483a1.158 1.158 0 0 0-.831 1.3 1.109 1.109 0 0 0 1.055 1.048l2.823.026h.147a1.667 1.667 0 0 0 1.453-1.857Z" transform="translate(-13.092 -14.92)" fill="url(#y)"/><path d="M34.622 26.051a1.667 1.667 0 0 0-1.871-1.435 295.1 295.1 0 0 0-2.822.954 1.153 1.153 0 0 0-.84 1.316 1.129 1.129 0 0 0 .99 1.04s3.038 0 3.108 0a1.667 1.667 0 0 0 1.435-1.875Z" transform="translate(-13.707 -11.548)" fill="url(#z)"/><path d="M35.178 20.777a1.5 1.5 0 0 0-1.605-1.312s-.106.012-.128.015l-2.74.453a1.216 1.216 0 0 0-.815 1.367 1.154 1.154 0 0 0 1.043 1.111l2.774.04a1.534 1.534 0 0 0 .161 0 1.5 1.5 0 0 0 1.31-1.674Z" transform="translate(-14.185 -8.563)" fill="url(#A)"/><path d="M14.5 30.459c-1.6-.325-3.076.253-3.285 1.29s.921 2.141 2.526 2.465 3.076-.253 3.285-1.29-.926-2.14-2.526-2.465Z" transform="translate(-3.517 -14.838)" opacity=".59" fill="url(#b)"/><path d="M19.492 17.975a6.822 6.822 0 0 1-.7 2.215 7.023 7.023 0 0 1-.809 1.239A5.887 5.887 0 0 1 16.053 23a4.488 4.488 0 0 1-.79.3 2.253 2.253 0 0 1-.827.136.36.36 0 0 1-.207-.06.234.234 0 0 1-.1-.157v-.016a.286.286 0 0 1 .307-.265 5.074 5.074 0 0 0 3.918-2.966 6.27 6.27 0 0 0 .66-2.2Z" transform="translate(-5.2 -7.527)" opacity=".59" fill="url(#B)"/><path d="M15.069 22.046c-1.228 1.044-2.723 1.3-3.34.578s-.12-2.159 1.109-3.2 2.723-1.3 3.34-.578.122 2.154-1.109 3.2Z" transform="translate(-3.689 -7.938)" opacity=".72" fill="url(#C)"/><ellipse cx="2.398" cy="1.044" rx="2.398" ry="1.044" transform="translate(15.986 11.389)" opacity=".5" fill="url(#D)"/><ellipse cx="2.398" cy=".915" rx="2.398" ry=".915" transform="translate(15.599 14.393)" opacity=".5" fill="url(#E)"/><ellipse cx="2.398" cy=".915" rx="2.398" ry=".915" transform="translate(15.173 16.889)" opacity=".5" fill="url(#E)"/><ellipse cx="1.718" cy=".656" rx="1.718" ry=".656" transform="translate(15.315 19.136)" opacity=".5" fill="url(#F)"/></g></svg>
