<svg xmlns="http://www.w3.org/2000/svg" width="24" height="24" viewBox="0 0 24 24"><g><path d="m10.6 16.451 6.575-6.575-.975-1-5.6 5.6-2.8-2.825-1 1Zm1.4 5.15a9.143 9.143 0 0 1-3.625-.725 9.239 9.239 0 0 1-4.95-4.95 9.425 9.425 0 0 1 0-7.25 9.23 9.23 0 0 1 4.95-4.95 9.425 9.425 0 0 1 7.25 0 9.261 9.261 0 0 1 4.95 4.938 9.113 9.113 0 0 1 .725 3.637 9.143 9.143 0 0 1-.725 3.625 9.27 9.27 0 0 1-4.938 4.95 9.113 9.113 0 0 1-3.637.725Zm0-9.3Zm0 7.9a7.621 7.621 0 0 0 5.6-2.3 7.621 7.621 0 0 0 2.3-5.6 7.621 7.621 0 0 0-2.3-5.6 7.621 7.621 0 0 0-5.6-2.3 7.621 7.621 0 0 0-5.6 2.3 7.621 7.621 0 0 0-2.3 5.6 7.621 7.621 0 0 0 2.3 5.6 7.621 7.621 0 0 0 5.6 2.3Z" fill="#767676"/></g></svg>
