<svg xmlns="http://www.w3.org/2000/svg" width="24" height="24" viewBox="0 0 24 24"><path d="M10.689 3c-4.23 0-7.691 2.884-7.691 6.489a6.076 6.076 0 0 0 2.884 5.047l-.961 2.884 3.028-1.875a8.4 8.4 0 0 0 2.74.433c4.23 0 7.691-2.884 7.691-6.489S14.919 3 10.689 3Z" fill="#8bc34a"/><path d="M9.933 14.068c.38-2.708 3.331-4.51 6.614-4.05.137.02 1.617.409 1.758.429a3.465 3.465 0 0 0 0-1.33c-.046-.006-.137-.083-.183-.09-5.07-1.443-9.06 1.238-9.098 4.913a5.88 5.88 0 0 0 .07 1.82 7.053 7.053 0 0 0 .97.046 4.36 4.36 0 0 1-.13-1.738Z" fill="#7cb342"/><path d="M21 14.751a5.52 5.52 0 0 0-5.75-5.288 5.52 5.52 0 0 0-5.75 5.288 5.52 5.52 0 0 0 5.75 5.288 6.515 6.515 0 0 0 2.212-.385L19.674 21l-.619-2.307A5.033 5.033 0 0 0 21 14.751Z" fill="#cfd8dc"/><path d="M7.866 7.478a.961.961 0 1 1-.962-.961.964.964 0 0 1 .962.961Zm4.807-.961a.961.961 0 1 0 .961.961.964.964 0 0 0-.961-.961Z" fill="#33691e"/><path d="M13.996 13.254a.721.721 0 1 1-.721-.721.739.739 0 0 1 .721.721Zm3.605-.721a.721.721 0 1 0 .721.721.739.739 0 0 0-.721-.721Z" fill="#546e7a"/></svg>
