<svg xmlns="http://www.w3.org/2000/svg" width="24" height="24" viewBox="0 0 24 24"><path d="M8 11.2a.725.725 0 0 0 .538-.251.8.8 0 0 0 0-1.133.7.7 0 0 0-1.075 0 .793.793 0 0 0 0 1.133A.722.722 0 0 0 8 11.2Zm4 0a.725.725 0 0 0 .538-.251.8.8 0 0 0 0-1.133.7.7 0 0 0-1.075 0 .793.793 0 0 0 0 1.133.722.722 0 0 0 .537.251Zm4 0a.725.725 0 0 0 .538-.251.8.8 0 0 0 0-1.133.7.7 0 0 0-1.075 0 .793.793 0 0 0 0 1.133.722.722 0 0 0 .537.251ZM3 21V4.713a1.711 1.711 0 0 1 .463-1.226A1.534 1.534 0 0 1 4.625 3h14.75a1.537 1.537 0 0 1 1.163.487A1.713 1.713 0 0 1 21 4.713v11.332a1.713 1.713 0 0 1-.462 1.226 1.537 1.537 0 0 1-1.163.487h-13.3Zm1-2.556L5.65 16.7h13.725a.593.593 0 0 0 .45-.184.661.661 0 0 0 .175-.471V4.713a.661.661 0 0 0-.175-.474.593.593 0 0 0-.45-.184H4.625a.593.593 0 0 0-.45.184.661.661 0 0 0-.175.474ZM4 4.713Z" fill="#767676"/></svg>
