<svg width="64" height="65" viewBox="0 0 64 65" fill="none" xmlns="http://www.w3.org/2000/svg">
<rect x="2" y="8" width="18" height="2" rx="1" fill="var(--tw-svg-color, #EFF0F3)"/>
<rect x="2" y="11.7778" width="22" height="8" rx="2" fill="var(--tw-svg-color, #EFF0F3)"/>
<rect x="35.5" y="8" width="18" height="2" rx="1" fill="var(--tw-svg-color, #EFF0F3)"/>
<rect x="35.5" y="11.7778" width="14" height="8" rx="2" fill="var(--tw-svg-color, #EFF0F3)"/>
<rect x="2" y="26" width="12" height="2" rx="1" fill="var(--tw-svg-color, #EFF0F3)"/>
<rect x="2" y="29.7778" width="26.5" height="8" rx="2" fill="var(--tw-svg-color, #EFF0F3)"/>
<rect x="35.5" y="26" width="23" height="2" rx="1" fill="var(--tw-svg-color, #EFF0F3)"/>
<rect x="35.5" y="29.7778" width="22" height="8" rx="2" fill="var(--tw-svg-color, #EFF0F3)"/>
<rect x="2" y="44" width="21" height="2" rx="1" fill="var(--tw-svg-color, #EFF0F3)"/>
<rect x="2" y="47.7778" width="15" height="8" rx="2" fill="var(--tw-svg-color, #EFF0F3)"/>
<rect x="35.5" y="44" width="9" height="2" rx="1" fill="var(--tw-svg-color, #EFF0F3)"/>
<rect x="35.5" y="47.7778" width="26.5" height="8" rx="2" fill="var(--tw-svg-color, #EFF0F3)"/>
</svg>
