<svg width="64" height="65" viewBox="0 0 64 65" fill="none" xmlns="http://www.w3.org/2000/svg">
    <path
        d="M32 1.38892C36.7936 1.38892 41.5223 2.49661 45.8172 4.62555C50.1121 6.7545 53.8569 9.8471 56.7595 13.662C59.662 17.4769 61.6438 21.911 62.5501 26.6181C63.4563 31.3252 63.2626 36.1781 61.9841 40.798C60.7055 45.418 58.3767 49.68 55.1794 53.2514C51.982 56.8229 48.0026 59.6072 43.5517 61.387C39.1008 63.1669 34.2988 63.8942 29.5205 63.5122C24.7422 63.1301 20.1168 61.6491 16.0052 59.1846L20.7717 51.2326C23.658 52.9627 26.905 54.0024 30.2594 54.2706C33.6138 54.5387 36.9848 54.0282 40.1093 52.7787C43.2338 51.5292 46.0274 49.5747 48.2719 47.0675C50.5165 44.5603 52.1513 41.5684 53.0488 38.3252C53.9464 35.082 54.0824 31.6753 53.4461 28.3709C52.8099 25.0665 51.4188 21.9538 49.3812 19.2757C47.3436 16.5977 44.7147 14.4267 41.6997 12.9321C38.6847 11.4376 35.3651 10.66 32 10.66V1.38892Z"
        fill="var(--tw-svg-color, #8E92A4)" stroke="var(--tw-svg-color, #E3E4E8)" />
    <path
        d="M16.317 59.369C10.4095 55.9209 5.80307 50.6221 3.21039 44.2923C0.617719 37.9626 0.183347 30.9548 1.97449 24.3534C3.76563 17.7519 7.68243 11.9247 13.1189 7.77347C18.5553 3.62223 25.2083 1.37832 32.0484 1.38895L32.034 10.6601C27.2322 10.6526 22.5618 12.2278 18.7454 15.142C14.9291 18.0562 12.1795 22.1468 10.9221 26.7811C9.66472 31.4153 9.96965 36.3347 11.7897 40.7782C13.6098 45.2217 16.8435 48.9415 20.9905 51.3621L16.317 59.369Z"
        fill="var(--tw-svg-color-secondary, #EFF0F3)" stroke="var(--tw-svg-color-secondary, #E3E4E8)" />
    <rect x="17.7773" y="28.0555" width="27" height="4" rx="2" fill="var(--tw-svg-color-secondary, #EFF0F3)" />
    <rect x="20.2773" y="34.3334" width="22" height="3" rx="1.5" fill="var(--tw-svg-color-secondary, #EFF0F3)" stroke="var(--tw-svg-color-secondary, #E3E4E8)" />
</svg>