<svg xmlns="http://www.w3.org/2000/svg" width="100%" height="100%"
    fill="var(--tw-svg-color, #0D363F)"
    viewBox="0 0 31.953 39.916">
    <path
        d="M31.945 4.329c0-.078.002-.156 0-.234-.015-.58-.32-.892-.893-.898a65.217 65.217 0 0 0-2.027.003c-.222.005-.284-.062-.279-.281.014-.597.005-1.195.005-1.792 0-.889-.239-1.125-1.137-1.125H2.285c-.494 0-.987-.005-1.481.002C.372.01.069.281.01.705c-.016.115-.009.233-.009.35v34.603c0 .065-.002.13 0 .195.022.551.334.861.885.866.649.005 1.299.015 1.948-.005.275-.008.385.039.369.35-.03.57.018 1.144-.017 1.714-.03.499.118.877.547 1.138h27.674c.425-.264.546-.645.545-1.14-.01-11.482-.007-22.964-.007-34.447zM2.039 35.135c-.368 0-.435-.109-.435-.45.009-10.885.01-21.77-.001-32.654 0-.358.092-.442.444-.442 8.222.01 16.443.011 24.665-.001.367 0 .438.107.437.45-.011 5.455-.008 10.911-.008 16.366 0 5.429-.004 10.859.009 16.288.001.36-.095.442-.446.442-8.221-.011-16.443-.011-24.665.001zm28.295-13.577c0 5.443-.004 10.885.01 16.328.001.369-.11.434-.449.434-8.222-.009-16.444-.009-24.666 0-.322 0-.477-.046-.431-.412a4.46 4.46 0 0 0 .002-.895c-.02-.249.068-.298.303-.296 1.325.012 2.65.006 3.975.006h18.626c.782 0 1.048-.267 1.048-1.055 0-10.145.003-20.289-.01-30.434 0-.385.1-.493.468-.453.358.039.835-.111 1.052.07.23.192.07.684.07 1.044.004 5.22.002 10.441.002 15.663z" />
    <path
        d="M20.423 15.171h-2.481c-.818 0-1.637-.013-2.455.007-.278.007-.324-.101-.311-.338a6.946 6.946 0 0 0-.002-.935c-.022-.273.063-.344.338-.342 1.975.013 3.949.007 5.924.007.481 0 .962.012 1.442-.005.224-.008.279.064.278.282-.007 2.481-.007 4.963-.001 7.444.001.199-.044.279-.257.268-.426-.022-.97.134-1.248-.074-.267-.2-.077-.775-.08-1.184-.011-1.294-.004-2.589-.004-3.897-.189.029-.257.167-.351.261-2.191 2.181-4.383 4.362-6.562 6.555-.232.234-.352.207-.566-.013-.761-.782-1.543-1.543-2.316-2.313-.589-.586-.588-.587-1.188.014-1.396 1.396-2.795 2.79-4.185 4.192-.166.167-.267.223-.447.013a8.904 8.904 0 0 0-.77-.772c-.143-.131-.127-.209.003-.338 1.935-1.923 3.867-3.849 5.792-5.782.183-.184.28-.13.433.024.915.922 1.839 1.835 2.757 2.754.123.123.198.23.385.042 1.922-1.934 3.855-3.857 5.872-5.87z" />
</svg>