<svg xmlns="http://www.w3.org/2000/svg" width="100%" height="100%" fill="var(--tw-svg-color, #0D363F)"
    viewBox="0 0 40.001 40.001">
    <path
        d="M19.88 1.688C9.876 1.703 1.643 10.02 1.682 20.07c.04 10.204 8.274 18.343 18.536 18.32 9.976-.022 18.205-8.336 18.179-18.367C38.371 9.821 30.14 1.671 19.88 1.688zm.169 35.108c-9.26.004-16.764-7.491-16.768-16.749-.004-9.267 7.482-16.76 16.749-16.765 9.267-.005 16.76 7.478 16.769 16.746.008 9.254-7.494 16.764-16.75 16.768z" />
    <path
        d="M20.832 11.993c0 1.818.004 3.635-.005 5.453-.001.237.062.353.287.465a2.359 2.359 0 0 1 1.136 3.039 2.362 2.362 0 0 1-2.949 1.351c-.235-.079-.363-.04-.531.13a949.724 949.724 0 0 1-4.486 4.491c-.383.382-.789.422-1.138.132-.401-.334-.42-.819-.023-1.219 1.068-1.08 2.146-2.151 3.219-3.225.45-.45.894-.906 1.352-1.347.141-.135.162-.24.099-.432-.395-1.192.078-2.369 1.184-2.924.228-.114.278-.239.278-.472-.007-3.609-.006-7.219-.004-10.828 0-.57.257-.895.718-.93.505-.038.857.284.861.824.009 1.22.003 2.441.004 3.661-.002.61-.002 1.22-.002 1.831z" />
</svg>