<svg width="64" height="65" viewBox="0 0 64 65" fill="none" xmlns="http://www.w3.org/2000/svg">
    <rect x="6.5" y="8.5" width="15" height="3" rx="0.5" fill="var(--tw-svg-color, #8E92A4)" stroke="var(--tw-svg-color-secondary, #E3E4E8)"/>
    <rect x="6.5" y="15.5" width="15" height="5" rx="0.5" fill="var(--tw-svg-color-secondary, #EFF0F3)" stroke="var(--tw-svg-color-secondary, #E3E4E8)"/>
    <rect x="6.5" y="24.5" width="15" height="5" rx="0.5" fill="var(--tw-svg-color-secondary, #EFF0F3)" stroke="var(--tw-svg-color-secondary, #E3E4E8)"/>
    <rect x="6.5" y="33.5" width="15" height="5" rx="0.5" fill="var(--tw-svg-color-secondary, #EFF0F3)" stroke="var(--tw-svg-color-secondary, #E3E4E8)"/>
    <rect x="6.5" y="42.5" width="15" height="5" rx="0.5" fill="var(--tw-svg-color-secondary, #EFF0F3)" stroke="var(--tw-svg-color-secondary, #E3E4E8)"/>
    <rect x="6.5" y="51.5" width="15" height="5" rx="0.5" fill="var(--tw-svg-color-secondary, #EFF0F3)" stroke="var(--tw-svg-color-secondary, #E3E4E8)"/>
    <rect x="25.5" y="8.5" width="7" height="3" rx="0.5" fill="var(--tw-svg-color, #8E92A4)" stroke="var(--tw-svg-color-secondary, #E3E4E8)"/>
    <rect x="26.5" y="15.5" width="5" height="5" rx="2.5" fill="var(--tw-svg-color-secondary, #EFF0F3)" stroke="var(--tw-svg-color-secondary, #E3E4E8)"/>
    <rect x="26.5" y="24.5" width="5" height="5" rx="2.5" fill="var(--tw-svg-color-secondary, #EFF0F3)" stroke="var(--tw-svg-color-secondary, #E3E4E8)"/>
    <rect x="26.5" y="33.5" width="5" height="5" rx="2.5" fill="var(--tw-svg-color-secondary, #EFF0F3)" stroke="var(--tw-svg-color-secondary, #E3E4E8)"/>
    <rect x="26.5" y="42.5" width="5" height="5" rx="2.5" fill="var(--tw-svg-color-secondary, #EFF0F3)" stroke="var(--tw-svg-color-secondary, #E3E4E8)"/>
    <rect x="26.5" y="51.5" width="5" height="5" rx="2.5" fill="var(--tw-svg-color-secondary, #EFF0F3)" stroke="var(--tw-svg-color-secondary, #E3E4E8)"/>
    <rect x="36.5" y="8.5" width="10" height="3" rx="0.5" fill="var(--tw-svg-color, #8E92A4)" stroke="var(--tw-svg-color-secondary, #E3E4E8)"/>
    <rect x="36.5" y="15.5" width="10" height="5" rx="0.5" fill="var(--tw-svg-color-secondary, #EFF0F3)" stroke="var(--tw-svg-color-secondary, #E3E4E8)"/>
    <rect x="36.5" y="24.5" width="10" height="5" rx="0.5" fill="var(--tw-svg-color-secondary, #EFF0F3)" stroke="var(--tw-svg-color-secondary, #E3E4E8)"/>
    <rect x="36.5" y="33.5" width="10" height="5" rx="0.5" fill="var(--tw-svg-color-secondary, #EFF0F3)" stroke="var(--tw-svg-color-secondary, #E3E4E8)"/>
    <rect x="36.5" y="42.5" width="10" height="5" rx="0.5" fill="var(--tw-svg-color-secondary, #EFF0F3)" stroke="var(--tw-svg-color-secondary, #E3E4E8)"/>
    <rect x="36.5" y="51.5" width="10" height="5" rx="0.5" fill="var(--tw-svg-color-secondary, #EFF0F3)" stroke="var(--tw-svg-color-secondary, #E3E4E8)"/>
    <rect x="50.5" y="8.5" width="7" height="3" rx="0.5" fill="var(--tw-svg-color, #8E92A4)" stroke="var(--tw-svg-color-secondary, #E3E4E8)"/>
    <rect x="51.5" y="15.5" width="5" height="5" rx="2.5" fill="var(--tw-svg-color-secondary, #EFF0F3)" stroke="var(--tw-svg-color-secondary, #E3E4E8)"/>
    <rect x="51.5" y="24.5" width="5" height="5" rx="2.5" fill="var(--tw-svg-color-secondary, #EFF0F3)" stroke="var(--tw-svg-color-secondary, #E3E4E8)"/>
    <rect x="51.5" y="33.5" width="5" height="5" rx="2.5" fill="var(--tw-svg-color-secondary, #EFF0F3)" stroke="var(--tw-svg-color-secondary, #E3E4E8)"/>
    <rect x="51.5" y="42.5" width="5" height="5" rx="2.5" fill="var(--tw-svg-color-secondary, #EFF0F3)" stroke="var(--tw-svg-color-secondary, #E3E4E8)"/>
    <rect x="51.5" y="51.5" width="5" height="5" rx="2.5" fill="var(--tw-svg-color-secondary, #EFF0F3)" stroke="var(--tw-svg-color-secondary, #E3E4E8)"/>
    </svg>