<svg xmlns="http://www.w3.org/2000/svg" width="100%" height="100%" fill="var(--tw-svg-color, #0D363F)"
    viewBox="0 0 36.805 33.535">
    <path
        d="M18.407 1.6c-5.974 0-11.948-.003-17.922.008-.357.001-.482-.087-.445-.447C.072.853.054.538.044.227.038.057.099-.011.267.007c.077.008.156.001.234.001 11.935 0 23.871.002 35.806-.009.367 0 .518.071.463.458-.052.367.16.864-.087 1.077-.213.183-.693.064-1.054.064-5.741.003-11.482.002-17.222.002zM18.407 17.56c-5.973 0-11.946-.003-17.92.008-.344.001-.49-.067-.448-.438.035-.308.014-.623.004-.934-.006-.171.059-.237.226-.22.077.008.156.001.234.001 11.933 0 23.867.002 35.8-.009.366 0 .513.069.467.459-.042.358.113.841-.07 1.053-.211.245-.706.076-1.076.076-5.738.005-11.478.004-17.217.004zM18.386 33.527c-5.974 0-11.948-.003-17.922.008-.337.001-.469-.068-.422-.42.05-.381-.162-.895.09-1.114.218-.19.717-.065 1.092-.065 11.688-.001 23.377.001 35.065-.011.397 0 .529.095.483.489-.035.295-.015.597-.004.895.006.172-.058.235-.225.218-.09-.009-.182-.002-.273-.002-5.962.002-11.923.002-17.884.002z" />
    <path
        d="M12.793 7.981c4.131 0 8.262.004 12.392-.008.321-.001.44.073.404.401-.044.395.166.927-.085 1.153-.218.196-.739.063-1.126.063-7.963.001-15.925-.001-23.888.008-.338 0-.502-.057-.45-.435.052-.381-.163-.897.089-1.117.216-.19.716-.064 1.09-.064 3.858-.002 7.716-.001 11.574-.001zM12.805 25.555c-4.118 0-8.236-.004-12.353.007-.314.001-.449-.064-.411-.4.045-.396-.166-.93.087-1.157.22-.196.742-.06 1.13-.06 7.963-.001 15.926.001 23.888-.008.341 0 .493.064.444.434-.05.381.16.882-.082 1.121-.222.219-.716.059-1.09.06-3.871.005-7.742.003-11.613.003z" />
</svg>