<svg xmlns="http://www.w3.org/2000/svg" width="100%" height="100%" fill="var(--tw-svg-color, #0D363F)"
    viewBox="0 0 39.904 33.536">
    <path
        d="M38.811 0C26.226.01 13.64.008 1.055.008.229.008 0 .24 0 1.076v31.37c0 .84.244 1.081 1.094 1.081 12.573 0 25.145-.002 37.718.009.49 0 .847-.135 1.093-.555V.556C39.661.132 39.299 0 38.811 0zm-.494 31.491c0 .346-.073.453-.44.453-11.948-.011-23.896-.01-35.844-.001-.357 0-.447-.089-.447-.446.01-9.819.01-19.638.001-29.457 0-.345.071-.454.44-.453 5.974.013 11.948.009 17.922.009s11.948.003 17.922-.008c.358-.001.447.091.446.447-.009 9.818-.009 19.637 0 29.456z" />
    <path
        d="M15.157 7.979c2.543 0 5.087.005 7.63-.007.284-.001.398.057.365.359-.045.408.169.957-.085 1.19-.222.203-.762.066-1.162.066-4.775.003-9.55-.001-14.325.01-.314.001-.447-.06-.408-.396.046-.394-.164-.911.085-1.157.229-.227.74-.061 1.127-.062 2.257-.005 4.515-.003 6.773-.003zM15.159 23.945c2.546 0 5.092.006 7.638-.008.299-.002.379.08.356.366a8.558 8.558 0 0 0-.002 1.013c.008.193-.065.26-.247.237-.051-.006-.104-.001-.156-.001-5.053 0-10.106-.004-15.158.009-.353.001-.454-.094-.418-.431.03-.283.027-.573 0-.856-.027-.287.089-.336.35-.335 2.545.01 5.091.006 7.637.006z" />
    <path
        d="M15.155 17.558c-2.53 0-5.061-.007-7.591.009-.335.002-.427-.093-.391-.409.044-.382-.161-.896.08-1.117.208-.19.714-.063 1.087-.063 4.788-.002 9.576.002 14.365-.008.333-.001.491.05.447.428-.043.37.12.879-.07 1.086-.219.239-.731.071-1.115.072-2.27.005-4.541.002-6.812.002z" />
    <path
        d="M33.602 7.401c.013.142-.085.31-.197.471-.703 1.012-1.403 2.025-2.111 3.032-.372.529-.805.587-1.326.189-.629-.481-1.256-.963-1.881-1.448-.433-.336-.519-.802-.224-1.186.276-.36.759-.407 1.177-.1.376.276.753.554 1.106.858.196.168.277.117.406-.069.515-.747 1.041-1.487 1.571-2.223.249-.346.609-.471.951-.336.334.131.517.379.528.812zM33.601 15.354c.015.155-.074.326-.187.488-.711 1.022-1.418 2.046-2.135 3.064-.36.512-.788.568-1.296.18-.629-.48-1.256-.963-1.88-1.45-.444-.346-.536-.801-.251-1.182.292-.39.772-.423 1.236-.078.302.225.612.442.889.694.286.26.454.272.686-.089.454-.709.963-1.383 1.459-2.065.309-.425.724-.515 1.114-.263.235.151.356.368.365.701zM33.599 23.351c.011.149-.074.308-.179.46-.71 1.023-1.417 2.048-2.133 3.067-.359.51-.804.573-1.298.196-.65-.496-1.298-.995-1.942-1.498-.39-.305-.466-.762-.2-1.133.262-.368.733-.446 1.138-.159.392.277.77.574 1.14.879.184.152.281.165.432-.058.517-.762 1.06-1.507 1.597-2.254.234-.325.566-.42.93-.292.335.117.514.381.515.792z" />
</svg>