<svg xmlns="http://www.w3.org/2000/svg" width="100%" height="100%" fill="var(--tw-svg-color, #0D363F)"
    viewBox="0 0 27.931 39.141">
    <path
        d="M6.421 9.951c.071-1.879.929-3.363 2.298-4.593.415-.373.83-.746 1.226-1.138.752-.745 1.122-1.664 1.187-2.713.015-.246.02-.493.044-.738.046-.473.376-.779.815-.769.445.01.77.36.771.851.001 1.748-.552 3.284-1.782 4.545-.48.491-.985.959-1.5 1.414-1.008.89-1.47 2.011-1.472 3.34l-.002.156c-.017.545-.343.912-.807.91-.485-.002-.811-.392-.795-.954.003-.104.011-.208.017-.311z" />
    <path
        d="M16.748 4.967c-.045 1.442-.634 2.541-1.611 3.456-.113.106-.225.217-.349.309-.838.623-1.27 1.436-1.242 2.499.012.462-.357.783-.796.776-.44-.007-.767-.338-.776-.802-.024-1.274.444-2.348 1.334-3.247.191-.193.381-.393.597-.557.881-.669 1.297-1.545 1.27-2.654-.01-.418.335-.731.738-.761.355-.027.734.242.81.597.033.15.021.309.025.384z" />
    <path
        d="M24.745 19.573c-1.076-.351-2.189-.414-3.308-.385-.298.008-.366-.043-.291-.357a53.828 53.828 0 0 1 1.129-4.12c.198-.614-.143-1.09-.786-1.127-.091-.005-.182-.002-.273-.002H.997c-.065 0-.13-.002-.195 0-.579.026-.918.483-.764 1.041.076.274.175.542.255.815 1.568 5.35 2.315 10.847 2.88 16.373.182 1.782.289 3.571.47 5.353.088.863.577 1.479 1.381 1.833.088.039.212.023.257.142h11.614c.578-.17 1.079-.446 1.426-.965.324-.485.406-1.028.44-1.59.117-1.892.305-3.778.498-5.663.063-.621.078-.603.701-.67 1.554-.168 3.07-.498 4.49-1.172 2.048-.972 3.342-2.494 3.471-4.848.124-2.232-1.056-3.966-3.176-4.658zm-6.685 7.685c-.418 3.181-.701 6.374-.932 9.573-.036.5-.269.705-.78.706H5.984c-.523 0-.744-.214-.782-.746-.198-2.837-.436-5.67-.794-8.491-.553-4.363-1.223-8.706-2.539-12.92-.015-.047-.012-.1-.019-.166h18.657a52.222 52.222 0 0 0-.844 3.05c-.709 2.966-1.205 5.971-1.603 8.994zm8.238-2.605c-.235 1.556-1.256 2.412-2.576 3.011-1.262.573-2.614.812-3.976 1.001-.314.044-.2-.162-.184-.281.154-1.195.304-2.392.484-3.584.182-1.204.406-2.401.59-3.605.05-.331.173-.465.517-.424.269.032.544.006.816.006.61.018 1.215.064 1.815.191 1.905.405 2.807 1.747 2.514 3.685z" />
</svg>