<svg xmlns="http://www.w3.org/2000/svg" width="14" height="14" viewBox="0 0 14 14">
  <path id="icon.suggestion" d="M11,18,8.747,15.782H5.422a1.39,1.39,0,0,1-1.017-.4,1.348,1.348,0,0,1-.405-1V5.4a1.348,1.348,0,0,1,.405-1A1.39,1.39,0,0,1,5.422,4H16.578a1.393,1.393,0,0,1,1.018.4,1.349,1.349,0,0,1,.4,1v8.983a1.349,1.349,0,0,1-.4,1,1.393,1.393,0,0,1-1.018.4H13.253ZM5.422,14.921h3.7L11,16.773l1.881-1.852h3.7a.538.538,0,0,0,.394-.151.52.52,0,0,0,.153-.388V5.4a.52.52,0,0,0-.153-.388.538.538,0,0,0-.394-.151H5.422a.538.538,0,0,0-.394.151.52.52,0,0,0-.153.388v8.983a.52.52,0,0,0,.153.388A.538.538,0,0,0,5.422,14.921ZM4.875,4.861v0ZM12.028,10.9,14.3,9.891,12.028,8.879,11,6.639,9.972,8.879,7.7,9.891,9.972,10.9,11,13.143Z" transform="translate(-4 -4)" fill="#4d4d4d"/>
</svg>
