<svg xmlns="http://www.w3.org/2000/svg" width="16" height="14" viewBox="0 0 16 14">
  <g id="agent.icon" transform="translate(1)">
    <rect id="Rectangle_7830" data-name="Rectangle 7830" width="14" height="14" fill="rgba(255,255,255,0)"/>
    <path id="support_agent_FILL0_wght200_GRAD0_opsz24" d="M127.795-786v-.875h5.88a.584.584,0,0,0,.385-.135.437.437,0,0,0,.162-.353v-6.027a5.291,5.291,0,0,0-1.837-4.107A6.343,6.343,0,0,0,128-799.145a6.343,6.343,0,0,0-4.385,1.648,5.291,5.291,0,0,0-1.837,4.107v4.967h-.444a1.34,1.34,0,0,1-.939-.363,1.173,1.173,0,0,1-.394-.9v-1.649a1.042,1.042,0,0,1,.259-.7,2.041,2.041,0,0,1,.63-.494l.015-1.075a5.961,5.961,0,0,1,.63-2.537,6.868,6.868,0,0,1,1.55-2.033,7.04,7.04,0,0,1,2.234-1.348A7.494,7.494,0,0,1,128-800a7.474,7.474,0,0,1,2.679.483,7.1,7.1,0,0,1,2.234,1.345,6.78,6.78,0,0,1,1.55,2.03,6.04,6.04,0,0,1,.632,2.538l.015,1.053a2.058,2.058,0,0,1,.621.439.919.919,0,0,1,.268.663v1.895a.918.918,0,0,1-.268.663,2.056,2.056,0,0,1-.621.439v1.089a1.279,1.279,0,0,1-.42.967,1.427,1.427,0,0,1-1.016.4Zm-2.12-5.654a.693.693,0,0,1-.479-.184.589.589,0,0,1-.2-.455.615.615,0,0,1,.2-.464.676.676,0,0,1,.479-.193.676.676,0,0,1,.479.193.615.615,0,0,1,.2.464.589.589,0,0,1-.2.455A.693.693,0,0,1,125.675-791.654Zm4.65,0a.693.693,0,0,1-.479-.184.589.589,0,0,1-.2-.455.615.615,0,0,1,.2-.464.676.676,0,0,1,.479-.193.676.676,0,0,1,.479.193.615.615,0,0,1,.2.464.589.589,0,0,1-.2.455A.693.693,0,0,1,130.325-791.654Zm-7.021-1.39a4.143,4.143,0,0,1,1.285-3.35,4.735,4.735,0,0,1,3.455-1.385,4.883,4.883,0,0,1,3.05,1.017,4.172,4.172,0,0,1,1.623,2.673,6.659,6.659,0,0,1-3.278-.887,5.847,5.847,0,0,1-2.321-2.406,5.7,5.7,0,0,1-1.338,2.654A6.125,6.125,0,0,1,123.3-793.044Z" transform="translate(-121 800)" fill="rgba(0,0,0,0.87)"/>
  </g>
</svg>
