<svg xmlns="http://www.w3.org/2000/svg" width="24" height="24" viewBox="0 0 24 24">
  <rect width="24" height="24" fill="#fff" opacity="0"/>
  <path d="M2.8,10a1.206,1.206,0,0,0-1.2,1.2v9.6H0v.363a.534.534,0,0,0,.428.523l1.35.27A2.279,2.279,0,0,0,2.226,22H17.773a2.282,2.282,0,0,0,.448-.045l1.351-.27A.533.533,0,0,0,20,21.163V20.8H18.4V11.2A1.206,1.206,0,0,0,17.2,10Zm0,.8h6a.4.4,0,0,0,.4.4h1.6a.4.4,0,0,0,.4-.4h6a.394.394,0,0,1,.4.4v9.6H2.4V11.2A.394.394,0,0,1,2.8,10.8Z" transform="translate(2 -4)" fill="#767676"/>
</svg>
