<svg xmlns="http://www.w3.org/2000/svg" width="16" height="14" viewBox="0 0 16 14">
  <g id="system.icon" transform="translate(-920)">
    <rect id="Rectangle_7991" data-name="Rectangle 7991" width="16" height="14" transform="translate(920)" fill="rgba(255,255,255,0)"/>
    <path id="settings_FILL0_wght200_GRAD0_opsz24" d="M135.813,230l-.289-2.25a4.32,4.32,0,0,1-.829-.353,4.074,4.074,0,0,1-.758-.516l-2.136.882-1.494-2.528,1.846-1.352q-.035-.211-.059-.435a4.235,4.235,0,0,1-.023-.435,3.888,3.888,0,0,1,.023-.412q.023-.216.059-.487l-1.846-1.352,1.494-2.5,2.12.868a5.5,5.5,0,0,1,.776-.524,4.5,4.5,0,0,1,.811-.36l.3-2.25H138.8l.289,2.265a4.621,4.621,0,0,1,.814.36,5.511,5.511,0,0,1,.728.509l2.182-.868,1.494,2.5-1.908,1.4a1.962,1.962,0,0,1,.074.442q.008.2.008.4t-.015.382a4.381,4.381,0,0,1-.071.487l1.877,1.367-1.494,2.528-2.146-.9a5.7,5.7,0,0,1-.753.523,3.874,3.874,0,0,1-.788.346L138.8,230Zm1.472-5.056a1.961,1.961,0,0,0,1.42-.565,1.925,1.925,0,0,0,0-2.758,2.068,2.068,0,0,0-2.842,0,1.93,1.93,0,0,0,0,2.758A1.959,1.959,0,0,0,137.285,224.944Zm0-.778a1.176,1.176,0,0,1-.851-.34,1.15,1.15,0,0,1,0-1.653,1.234,1.234,0,0,1,1.7,0,1.15,1.15,0,0,1,0,1.653A1.176,1.176,0,0,1,137.285,224.167ZM137.307,223Zm-.8,6.222h1.566l.3-2.106a4.519,4.519,0,0,0,1.089-.427,5.1,5.1,0,0,0,.986-.744l2,.827.8-1.322-1.752-1.279a3.553,3.553,0,0,0,.132-.611,4.863,4.863,0,0,0,.032-.56,4.615,4.615,0,0,0-.032-.56,3.27,3.27,0,0,0-.132-.581l1.783-1.309-.8-1.322-2.043.832a4.073,4.073,0,0,0-.955-.726,3.886,3.886,0,0,0-1.12-.449l-.245-2.106h-1.6l-.249,2.091a3.969,3.969,0,0,0-1.113.4,4.751,4.751,0,0,0-1.009.767l-2-.812-.8,1.322,1.737,1.259a2.488,2.488,0,0,0-.14.568,4.92,4.92,0,0,0-.04.637,4.318,4.318,0,0,0,.04.588,3.622,3.622,0,0,0,.125.568l-1.722,1.279.8,1.322,1.982-.817a4.5,4.5,0,0,0,.979.741,4.66,4.66,0,0,0,1.143.435Z" transform="translate(790.693 -216)" fill="rgba(0,0,0,0.87)"/>
  </g>
</svg>
