<svg xmlns="http://www.w3.org/2000/svg" width="24" height="24" viewBox="0 0 24 24"><path d="M12 3a9 9 0 1 0 9 9 9 9 0 0 0-9-9Z" fill="#29b6f6"/><path d="m17.109 7.525-1.844 9.415a.574.574 0 0 1-.613.43.659.659 0 0 1-.43-.135l-3.994-3.315-1.954-.987-2.508-.667s-.447-.129-.447-.5c0-.308.459-.454.459-.454l10.493-4.169a2 2 0 0 1 .555-.11c.144 0 .308.062.308.246a1.439 1.439 0 0 1-.025.246Z" fill="#fff"/><path d="m11.649 14.855-1.687 1.661a.322.322 0 0 1-.171.059.243.243 0 0 1-.108-.021l.475-2.936Z" fill="#b0bec5"/><path d="M14.968 9.007a.246.246 0 0 0-.345-.046l-6.496 3.884s1.037 2.9 1.195 3.4.286.514.286.514l.475-2.936 4.84-4.478a.246.246 0 0 0 .045-.338Z" fill="#cfd8dc"/></svg>
