<svg xmlns="http://www.w3.org/2000/svg" width="18" height="17.215" viewBox="0 0 18 17.215">
  <path d="M11.063,4.063c-4.938,0-9,3.478-9,7.823a7.505,7.505,0,0,0,3.507,6.168,2.317,2.317,0,0,1-.11.625A6.378,6.378,0,0,1,4.49,20.7l-.4.564.7.012a5.377,5.377,0,0,0,4.046-1.839,10.245,10.245,0,0,0,2.232.27c4.937,0,9-3.478,9-7.823S16,4.063,11.063,4.063Zm0,.736c4.6,0,8.264,3.2,8.264,7.087s-3.668,7.087-8.264,7.087a9.617,9.617,0,0,1-2.268-.27l-.221-.049-.147.184a5.506,5.506,0,0,1-2.943,1.582,7.441,7.441,0,0,0,.687-1.545,4.3,4.3,0,0,0,.159-.981v-.2l-.172-.11a6.8,6.8,0,0,1-3.36-5.7C2.8,8,6.464,4.8,11.063,4.8Z" transform="translate(-2.063 -4.063)" fill="#767676"/>
</svg>
