<svg xmlns="http://www.w3.org/2000/svg" width="16" height="16" viewBox="0 0 16 16">
  <g id="sentiment_neutral_black_18dp" transform="translate(-1)">
    <path id="Path_3" data-name="Path 3" d="M0,0H16V16H0Z" transform="translate(1)" fill="rgba(0,0,0,0)"/>
    <path id="Path_8" data-name="Path 8" d="M-561-1223a8,8,0,0,1,7.992-8,8,8,0,0,1,8.008,8,8,8,0,0,1-8.008,8A8,8,0,0,1-561-1223Zm1.6,0a6.4,6.4,0,0,0,6.4,6.4,6.4,6.4,0,0,0,6.4-6.4,6.4,6.4,0,0,0-6.4-6.4A6.4,6.4,0,0,0-559.4-1223Zm4,2.8v-1.2h4.8v1.2Zm4-4.8a1.2,1.2,0,0,1,1.2-1.2,1.2,1.2,0,0,1,1.2,1.2,1.2,1.2,0,0,1-1.2,1.2A1.2,1.2,0,0,1-551.4-1225Zm-5.6,0a1.2,1.2,0,0,1,1.2-1.2,1.2,1.2,0,0,1,1.2,1.2,1.2,1.2,0,0,1-1.2,1.2A1.2,1.2,0,0,1-557-1225Z" transform="translate(562 1231)" fill="#767676"/>
  </g>
</svg>
