<svg xmlns="http://www.w3.org/2000/svg" width="24" height="24" viewBox="0 0 24 24">
  <rect width="24" height="24" fill="#fff" opacity="0"/>
  <path d="M14.4,0a3.606,3.606,0,0,0-3.6,3.555L5.726,6.1a3.6,3.6,0,1,0,0,5.8L10.8,14.445a3.612,3.612,0,1,0,1.541-2.993L7.425,9l4.916-2.452A3.6,3.6,0,1,0,14.4,0Zm0,.72A2.88,2.88,0,1,1,12.814,6a.363.363,0,0,0-.337-.259s-.01,0-.011,0a2.876,2.876,0,0,1-.922-1.8.361.361,0,0,0-.023-.405A2.876,2.876,0,0,1,14.4.72Zm-3.521,3.6a3.591,3.591,0,0,0,.877,1.71L7.133,8.348a3.583,3.583,0,0,0-.844-1.733ZM3.6,6.12a2.87,2.87,0,0,1,1.766.6s.007.008.011.011a.168.168,0,0,0,.011.023.35.35,0,0,0,.113.09s.01,0,.011,0a2.88,2.88,0,0,1,.956,1.924.364.364,0,0,0,.011.3.385.385,0,0,0-.011.09,2.865,2.865,0,0,1-.968,2,.37.37,0,0,0-.09.079A2.88,2.88,0,1,1,3.6,6.12ZM7.133,9.653l4.624,2.318a3.591,3.591,0,0,0-.877,1.71l-4.59-2.3A3.583,3.583,0,0,0,7.133,9.653ZM14.4,11.52a2.865,2.865,0,1,1-1.9.709.17.17,0,0,0,.023-.023s.01,0,.011,0a.36.36,0,0,0,.146-.112A2.864,2.864,0,0,1,14.4,11.52Z" transform="translate(3 3)" fill="#767676"/>
</svg>
