<svg xmlns="http://www.w3.org/2000/svg" width="24" height="24" viewBox="0 0 24 24">
  <rect width="24" height="24" fill="#fff" opacity="0"/>
  <path d="M9.626,3a1.216,1.216,0,0,0-.362.062,1.65,1.65,0,0,0-.674.424L3.9,8.178H1.179a1.213,1.213,0,0,0-1.21,1.21v4.791a1.213,1.213,0,0,0,1.21,1.21H3.9l4.679,4.654a1.343,1.343,0,0,0,1.485.424,1.429,1.429,0,0,0,.7-1.372V4.323a1.277,1.277,0,0,0-.774-1.26A1.11,1.11,0,0,0,9.626,3Zm.012.8a.311.311,0,0,1,.1.012c.114.039.225.14.225.512V19.095c0,.426-.14.616-.237.661s-.292.05-.6-.262L4.1,14.466l-.025-.012a2.7,2.7,0,0,1-.1-.374V9.488c0-.148.134-.4.1-.374A.189.189,0,0,0,4.1,9.089L9.152,4.048A.726.726,0,0,1,9.638,3.8Zm5.627.724a.4.4,0,0,0-.087.761,7.288,7.288,0,0,1,0,13,.4.4,0,1,0,.349.711,8.075,8.075,0,0,0,0-14.423.391.391,0,0,0-.225-.05ZM13.843,6.643a.4.4,0,0,0-.112.761,4.976,4.976,0,0,1,.012,8.759.4.4,0,0,0,.387.7,5.785,5.785,0,0,0-.012-10.168.4.4,0,0,0-.237-.05ZM1.179,9H3.25a1.534,1.534,0,0,0-.075.487v4.591a1.587,1.587,0,0,0,.075.487H1.179a.385.385,0,0,1-.387-.387V9.388A.385.385,0,0,1,1.179,9Zm10.992.15a.4.4,0,0,0-.037.786,1.91,1.91,0,0,1,0,3.693.4.4,0,1,0,.2.774,2.709,2.709,0,0,0,0-5.24A.407.407,0,0,0,12.171,9.151Z" transform="translate(2.031 0.221)" fill="#767676"/>
</svg>
