<svg xmlns="http://www.w3.org/2000/svg" width="16" height="16" viewBox="0 0 16 16">
  <g id="sentiment_dissatisfied_black_18dp" transform="translate(0)">
    <path id="Path_6" data-name="Path 6" d="M0,0H16V16H0Z" transform="translate(0 0)" fill="rgba(0,0,0,0)"/>
    <path id="Path_7" data-name="Path 7" d="M-659-1227a8,8,0,0,1,7.992-8,8,8,0,0,1,8.008,8,8,8,0,0,1-8.008,8A8,8,0,0,1-659-1227Zm1.6,0a6.4,6.4,0,0,0,6.4,6.4,6.4,6.4,0,0,0,6.4-6.4,6.4,6.4,0,0,0-6.4-6.4A6.4,6.4,0,0,0-657.4-1227Zm9.16,4.4a3.2,3.2,0,0,0-2.76-1.6,3.186,3.186,0,0,0-2.76,1.6H-655.1a4.4,4.4,0,0,1,4.1-2.8,4.4,4.4,0,0,1,4.1,2.8Zm-1.16-6.4a1.2,1.2,0,0,1,1.2-1.2,1.2,1.2,0,0,1,1.2,1.2,1.2,1.2,0,0,1-1.2,1.2A1.2,1.2,0,0,1-649.4-1229Zm-5.6,0a1.2,1.2,0,0,1,1.2-1.2,1.2,1.2,0,0,1,1.2,1.2,1.2,1.2,0,0,1-1.2,1.2A1.2,1.2,0,0,1-655-1229Z" transform="translate(659 1235)" fill="#f24850"/>
  </g>
</svg>
