<svg xmlns="http://www.w3.org/2000/svg" width="24" height="24" viewBox="0 0 24 24">
  <rect width="24" height="24" fill="#fff" opacity="0"/>
  <path d="M5.173,4A1.179,1.179,0,0,0,4,5.173V18.861a1.179,1.179,0,0,0,1.173,1.173H17.832l1.459,1.447a1.571,1.571,0,0,0,2.269,0,1.681,1.681,0,0,0,0-2.268l-1.134-1.119V5.173A1.179,1.179,0,0,0,19.252,4Zm0,.782H19.252a.385.385,0,0,1,.391.391V17.322l-3.637-3.588a.39.39,0,0,0-.173-.1l-2.346-.626a.392.392,0,0,0-.477.485l.665,2.346a.389.389,0,0,0,.1.171l3.268,3.242H5.173a.385.385,0,0,1-.391-.391V5.173A.385.385,0,0,1,5.173,4.782ZM7.52,7.52a.391.391,0,1,0,0,.782h9.386a.391.391,0,1,0,0-.782Zm0,2.738a.391.391,0,1,0,0,.782h9.386a.391.391,0,1,0,0-.782Zm0,2.738a.391.391,0,1,0,0,.782H11.43a.391.391,0,1,0,0-.782Zm8.012,1.368,5.183,5.147-1.167,1.168L14.4,15.527l-.013-.045Z" transform="translate(-1 -0.982)" fill="#767676"/>
</svg>
