<svg xmlns="http://www.w3.org/2000/svg" width="24" height="24" viewBox="0 0 24 24">
  <rect width="24" height="24" fill="#fff" opacity="0"/>
  <path d="M6.613,2.982a1.52,1.52,0,0,0-.986.292A14.373,14.373,0,0,0,4.156,4.51a7.32,7.32,0,0,0-.771.843A1.4,1.4,0,0,0,3,6.264a6.95,6.95,0,0,0,.759,2.848,23.367,23.367,0,0,0,4.8,6.306,23.365,23.365,0,0,0,6.306,4.8,6.947,6.947,0,0,0,2.848.759,1.4,1.4,0,0,0,.91-.387,7.327,7.327,0,0,0,.843-.771,14.3,14.3,0,0,0,1.235-1.47,1.24,1.24,0,0,0-.127-1.758c-.316-.221-3.226-2.158-3.662-2.425a1.4,1.4,0,0,0-1.412.092c-.361.19-1.333.748-1.611.907A17.288,17.288,0,0,1,11.177,12.8,17.18,17.18,0,0,1,8.81,10.089c.159-.277.715-1.246.906-1.611h0A1.385,1.385,0,0,0,9.8,7.059c-.121-.191-.665-1.019-1.216-1.851S7.517,3.586,7.381,3.4h0A1.032,1.032,0,0,0,6.613,2.982Zm8.666,0a.409.409,0,0,0-.288.11L11.948,5.849l3.044,2.756A.409.409,0,1,0,15.541,8L13.618,6.258h6.555a.409.409,0,1,0,0-.818H13.618L15.541,3.7a.409.409,0,0,0-.262-.716Zm-8.741.835a.454.454,0,0,1,.179.058c.066.091.639.95,1.188,1.781S9.016,7.342,9.114,7.5a.942.942,0,0,1-.121.6h0c-.18.344-1.021,1.815-1.021,1.815l-.117.205.12.2A18.4,18.4,0,0,0,10.6,13.378,18.534,18.534,0,0,0,13.655,16l.2.12.206-.117s1.469-.84,1.815-1.022h0a.92.92,0,0,1,.6-.118c.284.174,3.425,2.262,3.619,2.4a.54.54,0,0,1-.073.618h0a14.321,14.321,0,0,1-1.155,1.373,6.718,6.718,0,0,1-.744.684,2.523,2.523,0,0,1-.392.222,5.8,5.8,0,0,1-2.526-.681,22.6,22.6,0,0,1-6.076-4.64A22.6,22.6,0,0,1,4.5,8.764a5.808,5.808,0,0,1-.681-2.526,2.5,2.5,0,0,1,.222-.393A6.7,6.7,0,0,1,4.722,5.1,14.368,14.368,0,0,1,6.095,3.944h0A.628.628,0,0,1,6.539,3.818Z" transform="translate(0.001 0.021)" fill="#767676"/>
</svg>
