<svg id="Screen_recording" data-name="Screen recording" xmlns="http://www.w3.org/2000/svg" width="24" height="24" viewBox="0 0 24 24">
  <rect id="Rectangle_4" data-name="Rectangle 4" width="24" height="24" fill="#fff" opacity="0"/>
  <path id="icons8-video" d="M1.366,4a.375.375,0,0,0-.375.375V6.186a.375.375,0,0,0,0,.122V17.43a.375.375,0,0,0,0,.122v1.815a.375.375,0,0,0,.375.375h17.24a.375.375,0,0,0,.375-.375V17.555a.375.375,0,0,0,0-.122V6.312a.375.375,0,0,0,0-.122V4.375A.375.375,0,0,0,18.607,4Zm.375.75H2.866V5.874H1.741Zm1.874,0h1.5V5.874h-1.5Zm2.249,0h1.5V5.874h-1.5Zm2.249,0h1.5V5.874h-1.5Zm2.249,0h1.5V5.874h-1.5Zm2.249,0h1.5V5.874h-1.5Zm2.249,0h1.5V5.874h-1.5Zm2.249,0h1.124V5.874H17.108ZM1.741,6.624H18.232V17.118H1.741ZM8.465,9.247a.375.375,0,0,0-.353.375v4.5a.375.375,0,0,0,.567.321l3.748-2.249a.375.375,0,0,0,0-.643L8.68,9.3A.375.375,0,0,0,8.5,9.247H8.465Zm.4,1.037,2.645,1.587L8.862,13.458ZM1.741,17.867H2.866v1.124H1.741Zm1.874,0h1.5v1.124h-1.5Zm2.249,0h1.5v1.124h-1.5Zm2.249,0h1.5v1.124h-1.5Zm2.249,0h1.5v1.124h-1.5Zm2.249,0h1.5v1.124h-1.5Zm2.249,0h1.5v1.124h-1.5Zm2.249,0h1.124v1.124H17.108Z" transform="translate(2.013 0.129)" fill="#767676"/>
</svg>
