<svg xmlns="http://www.w3.org/2000/svg" width="16" height="14" viewBox="0 0 16 14">
  <g id="agent.icon" transform="translate(1)">
    <rect id="Rectangle_7830" data-name="Rectangle 7830" width="16" height="14" transform="translate(-1)" fill="rgba(255,255,255,0)"/>
    <path id="account_box_FILL0_wght200_GRAD0_opsz24_1_" data-name="account_box_FILL0_wght200_GRAD0_opsz24 (1)" d="M160.875-787.545a8.82,8.82,0,0,1,2.745-1.827,8.523,8.523,0,0,1,3.38-.667,8.523,8.523,0,0,1,3.38.667,8.82,8.82,0,0,1,2.745,1.827v-11.042a.515.515,0,0,0-.168-.37.515.515,0,0,0-.37-.168H161.413a.515.515,0,0,0-.37.168.515.515,0,0,0-.168.37ZM167-792.058a2.534,2.534,0,0,0,1.863-.762,2.534,2.534,0,0,0,.762-1.863,2.534,2.534,0,0,0-.762-1.863,2.534,2.534,0,0,0-1.863-.762,2.534,2.534,0,0,0-1.863.762,2.534,2.534,0,0,0-.762,1.863,2.534,2.534,0,0,0,.762,1.863A2.534,2.534,0,0,0,167-792.058ZM161.413-786a1.369,1.369,0,0,1-1.009-.4,1.369,1.369,0,0,1-.4-1.009v-11.173a1.369,1.369,0,0,1,.4-1.009,1.369,1.369,0,0,1,1.009-.4h11.173a1.369,1.369,0,0,1,1.009.4,1.369,1.369,0,0,1,.4,1.009v11.173a1.369,1.369,0,0,1-.4,1.009,1.369,1.369,0,0,1-1.009.4Zm.236-.875h10.7v-.151a7.73,7.73,0,0,0-2.514-1.611,7.8,7.8,0,0,0-2.837-.526,7.885,7.885,0,0,0-2.812.517,7.908,7.908,0,0,0-2.539,1.586ZM167-792.933a1.683,1.683,0,0,1-1.233-.517,1.683,1.683,0,0,1-.517-1.233,1.683,1.683,0,0,1,.517-1.233,1.683,1.683,0,0,1,1.233-.517,1.683,1.683,0,0,1,1.233.517,1.683,1.683,0,0,1,.517,1.233,1.683,1.683,0,0,1-.517,1.233A1.683,1.683,0,0,1,167-792.933ZM167-793.335Z" transform="translate(-160 800)"/>
  </g>
</svg>
