<svg id="Saved_search" data-name="Saved search" xmlns="http://www.w3.org/2000/svg" width="24" height="24" viewBox="0 0 24 24">
  <rect id="Rectangle_4" data-name="Rectangle 4" width="24" height="24" fill="#fff" opacity="0"/>
  <path id="icons8-search-3" d="M5.286,4A1.292,1.292,0,0,0,4,5.286V20.714A1.292,1.292,0,0,0,5.286,22H20.714A1.292,1.292,0,0,0,22,20.714V5.286A1.292,1.292,0,0,0,20.714,4Zm0,.857H20.714a.427.427,0,0,1,.429.429V20.714a.427.427,0,0,1-.429.429H5.286a.427.427,0,0,1-.429-.429V5.286A.427.427,0,0,1,5.286,4.857Zm6.643,3a4.071,4.071,0,1,0,2.556,7.234l3.355,3.355.606-.606-3.355-3.355a4.066,4.066,0,0,0-3.162-6.628Zm0,.857a3.214,3.214,0,1,1-3.214,3.214A3.208,3.208,0,0,1,11.929,8.714Z" transform="translate(-1 -1)" fill="#767676"/>
</svg>
