<svg id="Component_428_43" data-name="Component 428 – 43" xmlns="http://www.w3.org/2000/svg" width="24" height="24" viewBox="0 0 24 24">
  <rect id="Rectangle_4" data-name="Rectangle 4" width="24" height="24" fill="#fff" opacity="0"/>
  <path id="icons8-filter" d="M3.316,2A.389.389,0,0,0,3,2.389V3.556a.389.389,0,0,0,.109.267l6.113,6.49v6.855a.392.392,0,0,0,.194.328l3.889,2.333a.389.389,0,0,0,.583-.328V10.313l6.052-6.429.012-.012L20,3.823a.371.371,0,0,0,.049-.061.184.184,0,0,0,.024-.024.407.407,0,0,0,.036-.158V3.556a.406.406,0,0,0,0-.061V2.389A.39.39,0,0,0,19.723,2H3.316Zm.462.778H19.334V3.41l-6,6.368H9.782l-6-6.368ZM10,10.556h3.111v8.264L10,16.961Z" transform="translate(0.443 1.059)" fill="#767676"/>
</svg>
