<svg xmlns="http://www.w3.org/2000/svg" width="18" height="18" viewBox="0 0 18 18">
  <rect width="18" height="18" fill="#fff" opacity="0"/>
  <path d="M4.571,4A.575.575,0,0,0,4,4.571V15.429A.575.575,0,0,0,4.571,16H15.429A.575.575,0,0,0,16,15.429V4.571A.575.575,0,0,0,15.429,4Zm0,.571H15.429V15.429H4.571Zm9.709.855-.031,0H10A.286.286,0,1,0,10,6h3.6L7.512,12.084a.286.286,0,1,0,.4.4L14,6.4V10a.286.286,0,1,0,.571,0V5.75a.29.29,0,0,0-.07-.23A.282.282,0,0,0,14.28,5.426Z" transform="translate(-1 -1)" fill="#767676"/>
</svg>
