<svg id="Component_607_22" data-name="Component 607 – 22" xmlns="http://www.w3.org/2000/svg" width="24" height="24" viewBox="0 0 24 24">
  <rect id="Rectangle_4" data-name="Rectangle 4" width="24" height="24" fill="#fff" opacity="0"/>
  <path id="icons8-edit-2" d="M17.871,3a1.5,1.5,0,0,0-1.061.439L15,5.25,18.75,9l1.811-1.811a1.5,1.5,0,0,0,0-2.121L18.932,3.439A1.5,1.5,0,0,0,17.871,3ZM13.5,6.75,4.695,15.555s.688-.062.945.195S5.685,17.685,6,18s1.983.093,2.222.333.223.973.223.973L17.25,10.5ZM3.75,18l-.708,2A.748.748,0,0,0,4,20.958l.007,0,.019-.006,0,0L6,20.25,4.875,19.125Z" fill="#767676"/>
</svg>
