<svg xmlns="http://www.w3.org/2000/svg" width="24" height="24" viewBox="0 0 24 24">
  <rect width="24" height="24" fill="#fff" opacity="0"/>
  <path d="M4.419,3.99a.428.428,0,0,0-.3.735l6.122,6.122H6.136a.428.428,0,1,0,0,.857H11.7V6.136a.428.428,0,1,0-.857,0v4.106L4.726,4.12A.428.428,0,0,0,4.419,3.99Zm17.129,0a.428.428,0,0,0-.294.13l-6.122,6.122V6.136a.428.428,0,1,0-.857,0V11.7h5.568a.428.428,0,1,0,0-.857H15.737l6.122-6.122a.428.428,0,0,0-.311-.735ZM6.136,14.274a.428.428,0,1,0,0,.857h4.106L4.12,21.253a.428.428,0,1,0,.606.606l6.122-6.122v4.106a.428.428,0,1,0,.857,0V14.274Zm8.138,0v5.568a.428.428,0,1,0,.857,0V15.736L20.4,21l.857.857a.428.428,0,0,0,.35.13l.042-.006a.428.428,0,0,0,.214-.729l-.832-.832L21,20.4l-5.265-5.265h4.106a.428.428,0,1,0,0-.857Z" transform="translate(-0.99 -0.99)" fill="#767676"/>
</svg>
