<svg xmlns="http://www.w3.org/2000/svg" width="24" height="24" viewBox="0 0 24 24">
  <rect width="24" height="24" fill="#fff" opacity="0"/>
  <path d="M14.308.966a.475.475,0,0,0-.051.013.409.409,0,0,0-.319.408V13.861L11.375,11.3a.411.411,0,0,0-.383-.115.406.406,0,0,0-.319.287.41.41,0,0,0,.115.415l3.265,3.265.293.281.293-.281L17.9,11.884a.415.415,0,0,0-.587-.587l-2.564,2.564V1.387a.409.409,0,0,0-.446-.421ZM7,7.1V20.977H21.693V7.1H17.612a.408.408,0,1,0,0,.816h3.265V20.161H7.816V7.917h3.265a.408.408,0,1,0,0-.816Z" transform="translate(-2.346 0.973)" fill="#767676"/>
</svg>
