<svg xmlns="http://www.w3.org/2000/svg" width="24" height="24" viewBox="0 0 24 24">
  <rect width="24" height="24" fill="#fff" opacity="0"/>
  <path d="M5.438,4.99a.45.45,0,0,0-.058,0H4.992v.388a.45.45,0,0,0,0,.119v4.889a.45.45,0,1,0,.9,0V6.53l5.978,5.978a.45.45,0,0,0,.367.136l.044-.006a.45.45,0,0,0,.225-.766L6.528,5.894h3.861a.45.45,0,1,0,0-.9H5.495A.45.45,0,0,0,5.438,4.99Zm17.084,0-.05,0H17.584a.45.45,0,1,0,0,.9h3.861l-5.978,5.978a.45.45,0,1,0,.636.636L22.081,6.53v3.861a.45.45,0,1,0,.9,0V5.5a.45.45,0,0,0,0-.124V4.994H22.6a.45.45,0,0,0-.075,0ZM12.179,15.333a.45.45,0,0,0-.309.136L5.892,21.447V17.586a.45.45,0,1,0-.9,0v4.878a.45.45,0,0,0,0,.149v.369h.371a.45.45,0,0,0,.148,0h4.878a.45.45,0,1,0,0-.9H6.528l5.978-5.978a.45.45,0,0,0-.327-.772Zm3.6,0a.45.45,0,0,0-.336.749l.022.023,5.978,5.978H17.584a.45.45,0,1,0,0,.9h4.878a.45.45,0,0,0,.149,0h.369v-.371a.45.45,0,0,0,0-.148V17.586a.45.45,0,1,0-.9,0v3.861L16.1,15.469A.45.45,0,0,0,15.781,15.333Z" transform="translate(-1.986 -1.989)" fill="#767676"/>
</svg>
