<svg xmlns="http://www.w3.org/2000/svg" width="24" height="24" viewBox="0 0 24 24">
  <rect width="24" height="24" fill="#fff" opacity="0"/>
  <path d="M3.849,19.068a.539.539,0,0,1-.228-.076.421.421,0,0,1-.152-.418L5.14,12.35.129,8.288a.36.36,0,0,1-.152-.418A.365.365,0,0,1,.319,7.6l6.453-.342L9.088,1.228A.5.5,0,0,1,9.467,1a.384.384,0,0,1,.342.228l2.315,6.035,6.453.342a.365.365,0,0,1,.342.266.428.428,0,0,1-.114.418L13.795,12.35l1.67,6.225a.379.379,0,0,1-.152.418.342.342,0,0,1-.418,0L9.467,15.5,4.039,18.992A.209.209,0,0,1,3.849,19.068Z" transform="translate(2.551 1.98)" fill="#dadadb"/>
</svg>
