<svg id="sentiment_satisfied_black_18dp" xmlns="http://www.w3.org/2000/svg" width="16" height="16" viewBox="0 0 16 16">
  <path id="Path_1" data-name="Path 1" d="M0,0H16V16H0Z" fill="rgba(0,0,0,0)"/>
  <path id="Path_2" data-name="Path 2" d="M-503-1161a8,8,0,0,1,7.992-8,8,8,0,0,1,8.008,8,8,8,0,0,1-8.008,8A8,8,0,0,1-503-1161Zm1.6,0a6.4,6.4,0,0,0,6.4,6.4,6.4,6.4,0,0,0,6.4-6.4,6.4,6.4,0,0,0-6.4-6.4A6.4,6.4,0,0,0-501.4-1161Zm2.3,1.6h1.336a3.2,3.2,0,0,0,2.76,1.6,3.2,3.2,0,0,0,2.76-1.6h1.336a4.4,4.4,0,0,1-4.1,2.8A4.4,4.4,0,0,1-499.1-1159.4Zm5.7-3.6a1.2,1.2,0,0,1,1.2-1.2,1.2,1.2,0,0,1,1.2,1.2,1.2,1.2,0,0,1-1.2,1.2A1.2,1.2,0,0,1-493.4-1163Zm-5.6,0a1.2,1.2,0,0,1,1.2-1.2,1.2,1.2,0,0,1,1.2,1.2,1.2,1.2,0,0,1-1.2,1.2A1.2,1.2,0,0,1-499-1163Z" transform="translate(503 1169)" fill="#3cb34a"/>
</svg>
