<svg id="Fast_forward_15_secs" data-name="Fast forward 15 secs" xmlns="http://www.w3.org/2000/svg" width="24" height="24" viewBox="0 0 24 24">
  <rect id="Rectangle_4" data-name="Rectangle 4" width="24" height="24" fill="#fff" opacity="0"/>
  <path id="icons8-skip-ahead-15-seconds" d="M15.709.174V2.127L12.364.217v2.4a8.781,8.781,0,1,0,9.2,8.771.418.418,0,1,0-.836,0,7.945,7.945,0,1,1-8.364-7.924V5.84l3.345-1.91V5.883l.644-.412,3.822-2.443ZM13.2,1.658l2.4,1.371L13.2,4.4V3.1a.418.418,0,0,0,0-.136Zm3.345.043,2.077,1.327L16.545,4.356V1.7ZM10.273,8.465c0,.941-.836,1.255-1.673,1.255v.836h1.673v4.6h.836V8.465Zm2.614,0-.457,3.074.725.341a1.464,1.464,0,1,1,1.091,2.439,1.442,1.442,0,0,1-1.464-1.255h-.836a2.261,2.261,0,0,0,2.3,2.091,2.3,2.3,0,1,0-.846-4.438L13.612,9.3h2.515V8.465Z" transform="translate(-0.782 1.826)" fill="#767676"/>
</svg>
