<svg xmlns="http://www.w3.org/2000/svg" width="24" height="24" viewBox="0 0 24 24"><path d="m12.585 21.8-5.594-6.161V8.367l5.594-6.162a.612.612 0 0 1 .454-.2.627.627 0 0 1 .619.634v18.733a.626.626 0 0 1-.619.633.612.612 0 0 1-.454-.205Zm-9.149-6.161a.9.9 0 0 1-.89-.909V9.275a.9.9 0 0 1 .89-.908h3.555v7.272ZM18.356 17.875a6.849 6.849 0 0 0 3.3-5.876 6.841 6.841 0 0 0-3.3-5.876l.5-.754a7.762 7.762 0 0 1 3.692 6.63 7.759 7.759 0 0 1-3.692 6.627Zm-1.5-2.261a4.1 4.1 0 0 0 2.135-3.618 4.1 4.1 0 0 0-2.135-3.615l.5-.756a5.025 5.025 0 0 1 2.524 4.371 5.028 5.028 0 0 1-2.524 4.375Zm-1.529-2.3a1.355 1.355 0 0 0 1-1.315 1.354 1.354 0 0 0-1-1.312l.521-.784a2.283 2.283 0 0 1 1.368 2.1 2.284 2.284 0 0 1-1.368 2.1Z"/></svg>
