<svg xmlns="http://www.w3.org/2000/svg" xmlns:xlink="http://www.w3.org/1999/xlink" width="24" height="24" viewBox="0 0 24 24">
  <defs>
    <clipPath id="clip-_24x24_icon_existing_comment">
      <rect width="24" height="24"/>
    </clipPath>
  </defs>
  <g id="_24x24_icon_existing_comment" data-name="24x24 icon – existing comment" clip-path="url(#clip-_24x24_icon_existing_comment)">
    <rect width="24" height="24" fill="#fff"/>
    <g id="Component_458_2" data-name="Component 458 – 2">
      <g id="Component_354_38" data-name="Component 354 – 38">
        <rect id="Rectangle_4" data-name="Rectangle 4" width="24" height="24" fill="#fff" opacity="0"/>
      </g>
      <path id="icons8-comments" d="M4.174,4A2.183,2.183,0,0,0,2,6.174V16.609a2.183,2.183,0,0,0,2.174,2.174h1.78A3.365,3.365,0,0,1,5.872,20.2a2.237,2.237,0,0,1-1.046,1.264.435.435,0,0,0,.217.8,5.4,5.4,0,0,0,5.027-3.478h9.755A2.183,2.183,0,0,0,22,16.609V6.174A2.183,2.183,0,0,0,19.826,4Zm0,.87H19.826a1.3,1.3,0,0,1,1.3,1.3V16.609a1.3,1.3,0,0,1-1.3,1.3h-10a.435.435,0,0,0-.408.285A4.491,4.491,0,0,1,6.28,21.242a3.044,3.044,0,0,0,.421-.774,4.467,4.467,0,0,0,.068-2.2.436.436,0,0,0-.421-.353H4.174a1.3,1.3,0,0,1-1.3-1.3V6.174A1.3,1.3,0,0,1,4.174,4.87Z" transform="translate(0 -1)"/>
    </g>
  </g>
</svg>
