<svg xmlns="http://www.w3.org/2000/svg" xmlns:xlink="http://www.w3.org/1999/xlink" width="24" height="24" viewBox="0 0 24 24">
  <defs>
    <style>
      .cls-1 {
        clip-path: url(#clip-_24x24_icon_waitlisted);
      }

      .cls-2, .cls-4 {
        fill: #fff;
      }

      .cls-2 {
        opacity: 0;
      }

      .cls-3 {
        fill: #ffc107;
      }
    </style>
    <clipPath id="clip-_24x24_icon_waitlisted">
      <rect width="24" height="24"/>
    </clipPath>
  </defs>
  <g id="_24x24_icon_waitlisted" data-name="24x24 icon – waitlisted" class="cls-1">
    <rect class="cls-4" width="24" height="24"/>
    <g id="Component_460_3" data-name="Component 460 – 3">
      <rect id="Rectangle_4" data-name="Rectangle 4" class="cls-2" width="24" height="24"/>
      <path id="Subtraction_17" data-name="Subtraction 17" class="cls-3" d="M777,6894a10,10,0,1,1,10-10A10.012,10.012,0,0,1,777,6894Zm4.139-11.461a1.46,1.46,0,1,0,1.46,1.46A1.463,1.463,0,0,0,781.139,6882.539Zm-4.139,0a1.46,1.46,0,1,0,1.46,1.46A1.462,1.462,0,0,0,777,6882.539Zm-4.139,0a1.46,1.46,0,1,0,1.46,1.46A1.462,1.462,0,0,0,772.862,6882.539Z" transform="translate(-765 -6872)"/>
    </g>
  </g>
</svg>
