<svg xmlns="http://www.w3.org/2000/svg" xmlns:xlink="http://www.w3.org/1999/xlink" width="24" height="24" viewBox="0 0 24 24">
  <defs>
    <style>
      .cls-1 {
        clip-path: url(#clip-_24x24_icon_denied);
      }

      .cls-2, .cls-4 {
        fill: #fff;
      }

      .cls-2 {
        opacity: 0;
      }

      .cls-3 {
        fill: #ea4335;
      }
    </style>
    <clipPath id="clip-_24x24_icon_denied">
      <rect width="24" height="24"/>
    </clipPath>
  </defs>
  <g id="_24x24_icon_denied" data-name="24x24 icon – denied" class="cls-1">
    <rect class="cls-4" width="24" height="24"/>
    <g id="Component_450_4" data-name="Component 450 – 4">
      <rect id="Rectangle_4" data-name="Rectangle 4" class="cls-2" width="24" height="24"/>
      <path id="icons8-cancel" class="cls-3" d="M12,2A10,10,0,1,0,22,12,10.012,10.012,0,0,0,12,2Zm3.787,13.17a.438.438,0,0,1,0,.617.441.441,0,0,1-.617,0L12,12.617l-3.17,3.17a.441.441,0,0,1-.617,0,.438.438,0,0,1,0-.617L11.383,12,8.213,8.83a.437.437,0,0,1,.617-.617L12,11.383l3.17-3.17a.437.437,0,1,1,.617.617L12.617,12Z"/>
    </g>
  </g>
</svg>
